<?xml version="1.0" encoding="utf-8" standalone="no"?>
<!DOCTYPE svg PUBLIC "-//W3C//DTD SVG 1.1//EN"
  "http://www.w3.org/Graphics/SVG/1.1/DTD/svg11.dtd">
<!-- Created with matplotlib (https://matplotlib.org/) -->
<svg height="649.22125pt" version="1.1" viewBox="0 0 922.535 649.22125" width="922.535pt" xmlns="http://www.w3.org/2000/svg" xmlns:xlink="http://www.w3.org/1999/xlink">
 <defs>
  <style type="text/css">
*{stroke-linecap:butt;stroke-linejoin:round;}
  </style>
 </defs>
 <g id="figure_1">
  <g id="patch_1">
   <path d="M 0 649.22125 
L 922.535 649.22125 
L 922.535 0 
L 0 0 
z
" style="fill:#ffffff;"/>
  </g>
  <g id="axes_1">
   <g id="patch_2">
    <path d="M 54.095 609.2 
L 915.335 609.2 
L 915.335 7.2 
L 54.095 7.2 
z
" style="fill:#ffffff;"/>
   </g>
   <g id="PolyCollection_1">
    <defs>
     <path d="M 117.217431 -67.384886 
L 114.006855 -67.384886 
L 113.669735 -72.912894 
L 113.282094 -78.440901 
L 112.841151 -83.968908 
L 112.345055 -89.496916 
L 111.793115 -95.024923 
L 111.186013 -100.55293 
L 110.525988 -106.080938 
L 109.816973 -111.608945 
L 109.064667 -117.136952 
L 108.276538 -122.66496 
L 107.461737 -128.192967 
L 106.630922 -133.720975 
L 105.795993 -139.248982 
L 104.969734 -144.776989 
L 104.16539 -150.304997 
L 103.396181 -155.833004 
L 102.674778 -161.361011 
L 102.012778 -166.889019 
L 101.420198 -172.417026 
L 100.905012 -177.945033 
L 100.472776 -183.473041 
L 100.12635 -189.001048 
L 99.865736 -194.529055 
L 99.688056 -200.057063 
L 99.587661 -205.58507 
L 99.556372 -211.113077 
L 99.58384 -216.641085 
L 99.658007 -222.169092 
L 99.765639 -227.697099 
L 99.892907 -233.225107 
L 100.025988 -238.753114 
L 100.15164 -244.281121 
L 100.257747 -249.809129 
L 100.333785 -255.337136 
L 100.37121 -260.865143 
L 100.36374 -266.393151 
L 100.307525 -271.921158 
L 100.201212 -277.449166 
L 100.045899 -282.977173 
L 99.844989 -288.50518 
L 99.603957 -294.033188 
L 99.330052 -299.561195 
L 99.031932 -305.089202 
L 98.719278 -310.61721 
L 98.402378 -316.145217 
L 98.09172 -321.673224 
L 97.7976 -327.201232 
L 97.529764 -332.729239 
L 97.297091 -338.257246 
L 97.107336 -343.785254 
L 96.966938 -349.313261 
L 96.88089 -354.841268 
L 96.852681 -360.369276 
L 96.884302 -365.897283 
L 96.976314 -371.42529 
L 97.127967 -376.953298 
L 97.337363 -382.481305 
L 97.601648 -388.009312 
L 97.917219 -393.53732 
L 98.279943 -399.065327 
L 98.685354 -404.593334 
L 99.128849 -410.121342 
L 99.605843 -415.649349 
L 100.1119 -421.177357 
L 100.642823 -426.705364 
L 101.194708 -432.233371 
L 101.763971 -437.761379 
L 102.347335 -443.289386 
L 102.941801 -448.817393 
L 103.5446 -454.345401 
L 104.153138 -459.873408 
L 104.764935 -465.401415 
L 105.37757 -470.929423 
L 105.988638 -476.45743 
L 106.595718 -481.985437 
L 107.196355 -487.513445 
L 107.788062 -493.041452 
L 108.36833 -498.569459 
L 108.93466 -504.097467 
L 109.484601 -509.625474 
L 110.015796 -515.153481 
L 110.526033 -520.681489 
L 111.013291 -526.209496 
L 111.475798 -531.737503 
L 111.912061 -537.265511 
L 112.32091 -542.793518 
L 112.701517 -548.321525 
L 113.053413 -553.849533 
L 113.376485 -559.37754 
L 113.670972 -564.905548 
L 113.937445 -570.433555 
L 114.176775 -575.961562 
L 114.390104 -581.48957 
L 114.578797 -587.017577 
L 114.744397 -592.545584 
L 114.888586 -598.073592 
L 115.013127 -603.601599 
L 115.11983 -609.129606 
L 115.210503 -614.657614 
L 116.013783 -614.657614 
L 116.013783 -614.657614 
L 116.104455 -609.129606 
L 116.211158 -603.601599 
L 116.3357 -598.073592 
L 116.479888 -592.545584 
L 116.645489 -587.017577 
L 116.834181 -581.48957 
L 117.04751 -575.961562 
L 117.286841 -570.433555 
L 117.553314 -564.905548 
L 117.847801 -559.37754 
L 118.170873 -553.849533 
L 118.522768 -548.321525 
L 118.903376 -542.793518 
L 119.312225 -537.265511 
L 119.748488 -531.737503 
L 120.210994 -526.209496 
L 120.698253 -520.681489 
L 121.208489 -515.153481 
L 121.739685 -509.625474 
L 122.289626 -504.097467 
L 122.855956 -498.569459 
L 123.436224 -493.041452 
L 124.02793 -487.513445 
L 124.628568 -481.985437 
L 125.235648 -476.45743 
L 125.846716 -470.929423 
L 126.459351 -465.401415 
L 127.071147 -459.873408 
L 127.679685 -454.345401 
L 128.282485 -448.817393 
L 128.876951 -443.289386 
L 129.460315 -437.761379 
L 130.029577 -432.233371 
L 130.581463 -426.705364 
L 131.112385 -421.177357 
L 131.618442 -415.649349 
L 132.095437 -410.121342 
L 132.538932 -404.593334 
L 132.944343 -399.065327 
L 133.307066 -393.53732 
L 133.622638 -388.009312 
L 133.886923 -382.481305 
L 134.096319 -376.953298 
L 134.247972 -371.42529 
L 134.339984 -365.897283 
L 134.371605 -360.369276 
L 134.343396 -354.841268 
L 134.257348 -349.313261 
L 134.11695 -343.785254 
L 133.927195 -338.257246 
L 133.694521 -332.729239 
L 133.426685 -327.201232 
L 133.132566 -321.673224 
L 132.821908 -316.145217 
L 132.505008 -310.61721 
L 132.192353 -305.089202 
L 131.894234 -299.561195 
L 131.620328 -294.033188 
L 131.379297 -288.50518 
L 131.178387 -282.977173 
L 131.023074 -277.449166 
L 130.916761 -271.921158 
L 130.860546 -266.393151 
L 130.853075 -260.865143 
L 130.890501 -255.337136 
L 130.966539 -249.809129 
L 131.072645 -244.281121 
L 131.198298 -238.753114 
L 131.331378 -233.225107 
L 131.458647 -227.697099 
L 131.566279 -222.169092 
L 131.640446 -216.641085 
L 131.667914 -211.113077 
L 131.636625 -205.58507 
L 131.53623 -200.057063 
L 131.35855 -194.529055 
L 131.097936 -189.001048 
L 130.751509 -183.473041 
L 130.319274 -177.945033 
L 129.804088 -172.417026 
L 129.211508 -166.889019 
L 128.549508 -161.361011 
L 127.828105 -155.833004 
L 127.058895 -150.304997 
L 126.254552 -144.776989 
L 125.428293 -139.248982 
L 124.593363 -133.720975 
L 123.762549 -128.192967 
L 122.947748 -122.66496 
L 122.159619 -117.136952 
L 121.407313 -111.608945 
L 120.698298 -106.080938 
L 120.038273 -100.55293 
L 119.431171 -95.024923 
L 118.879231 -89.496916 
L 118.383135 -83.968908 
L 117.942191 -78.440901 
L 117.55455 -72.912894 
L 117.217431 -67.384886 
z
" id="mfd19b2edc8" style="stroke:#3d3d3d;stroke-width:1.5;"/>
    </defs>
    <g clip-path="url(#p24c3271108)">
     <use style="fill:#3274a1;stroke:#3d3d3d;stroke-width:1.5;" x="0" xlink:href="#mfd19b2edc8" y="649.22125"/>
    </g>
   </g>
   <g id="PolyCollection_2">
    <defs>
     <path d="M 242.084999 -81.080195 
L 235.207858 -81.080195 
L 234.471969 -86.042963 
L 233.623548 -91.005731 
L 232.65619 -95.968498 
L 231.565617 -100.931266 
L 230.350227 -105.894034 
L 229.011609 -110.856801 
L 227.555002 -115.819569 
L 225.989646 -120.782337 
L 224.328999 -125.745105 
L 222.590793 -130.707872 
L 220.796889 -135.67064 
L 218.972938 -140.633408 
L 217.147825 -145.596176 
L 215.352918 -150.558943 
L 213.621142 -155.521711 
L 211.985917 -160.484479 
L 210.480001 -165.447246 
L 209.134302 -170.410014 
L 207.976719 -175.372782 
L 207.031073 -180.33555 
L 206.316187 -185.298317 
L 205.845165 -190.261085 
L 205.624914 -195.223853 
L 205.65593 -200.186621 
L 205.932355 -205.149388 
L 206.442312 -210.112156 
L 207.168469 -215.074924 
L 208.088823 -220.037691 
L 209.17764 -225.000459 
L 210.406502 -229.963227 
L 211.7454 -234.925995 
L 213.163827 -239.888762 
L 214.6318 -244.85153 
L 216.120792 -249.814298 
L 217.604511 -254.777066 
L 219.059526 -259.739833 
L 220.465709 -264.702601 
L 221.806501 -269.665369 
L 223.069004 -274.628136 
L 224.24392 -279.590904 
L 225.325349 -284.553672 
L 226.310481 -289.51644 
L 227.199205 -294.479207 
L 227.993665 -299.441975 
L 228.697791 -304.404743 
L 229.31683 -309.367511 
L 229.856894 -314.330278 
L 230.32455 -319.293046 
L 230.726469 -324.255814 
L 231.069127 -329.218582 
L 231.358586 -334.181349 
L 231.600335 -339.144117 
L 231.799209 -344.106885 
L 231.959364 -349.069652 
L 232.084315 -354.03242 
L 232.177012 -358.995188 
L 232.239962 -363.957956 
L 232.275371 -368.920723 
L 232.285297 -373.883491 
L 232.271807 -378.846259 
L 232.237125 -383.809027 
L 232.18376 -388.771794 
L 232.114604 -393.734562 
L 232.033002 -398.69733 
L 231.942776 -403.660097 
L 231.848212 -408.622865 
L 231.754007 -413.585633 
L 231.66517 -418.548401 
L 231.586899 -423.511168 
L 231.524414 -428.473936 
L 231.482788 -433.436704 
L 231.466753 -438.399472 
L 231.480512 -443.362239 
L 231.527565 -448.325007 
L 231.610551 -453.287775 
L 231.731127 -458.250542 
L 231.889882 -463.21331 
L 232.0863 -468.176078 
L 232.318767 -473.138846 
L 232.58463 -478.101613 
L 232.880301 -483.064381 
L 233.201396 -488.027149 
L 233.542911 -492.989917 
L 233.899417 -497.952684 
L 234.265266 -502.915452 
L 234.634799 -507.87822 
L 235.002543 -512.840987 
L 235.363381 -517.803755 
L 235.712708 -522.766523 
L 236.046543 -527.729291 
L 236.361606 -532.692058 
L 236.655363 -537.654826 
L 236.926033 -542.617594 
L 237.172562 -547.580362 
L 237.394571 -552.543129 
L 237.592283 -557.505897 
L 237.766437 -562.468665 
L 237.918191 -567.431433 
L 238.049019 -572.3942 
L 239.243838 -572.3942 
L 239.243838 -572.3942 
L 239.374667 -567.431433 
L 239.52642 -562.468665 
L 239.700574 -557.505897 
L 239.898287 -552.543129 
L 240.120295 -547.580362 
L 240.366824 -542.617594 
L 240.637494 -537.654826 
L 240.931251 -532.692058 
L 241.246314 -527.729291 
L 241.580149 -522.766523 
L 241.929476 -517.803755 
L 242.290315 -512.840987 
L 242.658058 -507.87822 
L 243.027591 -502.915452 
L 243.393441 -497.952684 
L 243.749946 -492.989917 
L 244.091461 -488.027149 
L 244.412556 -483.064381 
L 244.708227 -478.101613 
L 244.97409 -473.138846 
L 245.206557 -468.176078 
L 245.402975 -463.21331 
L 245.56173 -458.250542 
L 245.682306 -453.287775 
L 245.765292 -448.325007 
L 245.812345 -443.362239 
L 245.826104 -438.399472 
L 245.810069 -433.436704 
L 245.768443 -428.473936 
L 245.705958 -423.511168 
L 245.627687 -418.548401 
L 245.53885 -413.585633 
L 245.444645 -408.622865 
L 245.350081 -403.660097 
L 245.259855 -398.69733 
L 245.178253 -393.734562 
L 245.109097 -388.771794 
L 245.055732 -383.809027 
L 245.02105 -378.846259 
L 245.00756 -373.883491 
L 245.017486 -368.920723 
L 245.052895 -363.957956 
L 245.115846 -358.995188 
L 245.208542 -354.03242 
L 245.333493 -349.069652 
L 245.493648 -344.106885 
L 245.692522 -339.144117 
L 245.934271 -334.181349 
L 246.22373 -329.218582 
L 246.566389 -324.255814 
L 246.968307 -319.293046 
L 247.435964 -314.330278 
L 247.976027 -309.367511 
L 248.595066 -304.404743 
L 249.299192 -299.441975 
L 250.093652 -294.479207 
L 250.982376 -289.51644 
L 251.967508 -284.553672 
L 253.048937 -279.590904 
L 254.223853 -274.628136 
L 255.486356 -269.665369 
L 256.827148 -264.702601 
L 258.233331 -259.739833 
L 259.688346 -254.777066 
L 261.172065 -249.814298 
L 262.661057 -244.85153 
L 264.129031 -239.888762 
L 265.547457 -234.925995 
L 266.886355 -229.963227 
L 268.115217 -225.000459 
L 269.204035 -220.037691 
L 270.124389 -215.074924 
L 270.850545 -210.112156 
L 271.360502 -205.149388 
L 271.636927 -200.186621 
L 271.667943 -195.223853 
L 271.447692 -190.261085 
L 270.97667 -185.298317 
L 270.261784 -180.33555 
L 269.316138 -175.372782 
L 268.158555 -170.410014 
L 266.812856 -165.447246 
L 265.30694 -160.484479 
L 263.671715 -155.521711 
L 261.939939 -150.558943 
L 260.145032 -145.596176 
L 258.319919 -140.633408 
L 256.495968 -135.67064 
L 254.702064 -130.707872 
L 252.963858 -125.745105 
L 251.303212 -120.782337 
L 249.737855 -115.819569 
L 248.281248 -110.856801 
L 246.942631 -105.894034 
L 245.72724 -100.931266 
L 244.636668 -95.968498 
L 243.66931 -91.005731 
L 242.820888 -86.042963 
L 242.084999 -81.080195 
z
" id="m8e73588b54" style="stroke:#3d3d3d;stroke-width:1.5;"/>
    </defs>
    <g clip-path="url(#p24c3271108)">
     <use style="fill:#e1812c;stroke:#3d3d3d;stroke-width:1.5;" x="0" xlink:href="#m8e73588b54" y="649.22125"/>
    </g>
   </g>
   <g id="PolyCollection_3">
    <defs>
     <path d="M 365.645565 -86.111686 
L 357.715864 -86.111686 
L 356.865061 -90.745643 
L 355.882362 -95.3796 
L 354.759587 -100.013557 
L 353.490908 -104.647514 
L 352.073511 -109.281471 
L 350.508249 -113.915428 
L 348.800239 -118.549385 
L 346.95935 -123.183342 
L 345.00056 -127.817299 
L 342.944115 -132.451256 
L 340.81548 -137.085213 
L 338.645034 -141.71917 
L 336.467516 -146.353127 
L 334.321201 -150.987084 
L 332.24685 -155.621041 
L 330.286437 -160.254998 
L 328.481737 -164.888955 
L 326.872815 -169.522912 
L 325.496492 -174.156869 
L 324.384889 -178.790826 
L 323.564097 -183.424783 
L 323.053075 -188.05874 
L 322.862827 -192.692697 
L 322.995909 -197.326654 
L 323.446296 -201.960611 
L 324.199621 -206.594568 
L 325.233766 -211.228525 
L 326.519781 -215.862482 
L 328.023068 -220.496439 
L 329.704768 -225.130396 
L 331.523283 -229.764353 
L 333.435829 -234.39831 
L 335.399973 -239.032267 
L 337.375046 -243.666224 
L 339.323399 -248.300181 
L 341.211436 -252.934138 
L 343.010395 -257.568095 
L 344.696859 -262.202052 
L 346.25301 -266.836009 
L 347.666617 -271.469966 
L 348.930805 -276.103923 
L 350.043639 -280.73788 
L 351.007551 -285.371837 
L 351.828674 -290.005794 
L 352.516112 -294.639751 
L 353.081198 -299.273708 
L 353.536771 -303.907665 
L 353.896503 -308.541622 
L 354.174299 -313.175579 
L 354.383788 -317.809536 
L 354.537909 -322.443493 
L 354.648592 -327.07745 
L 354.726541 -331.711407 
L 354.781101 -336.345364 
L 354.820205 -340.979321 
L 354.850383 -345.613278 
L 354.876834 -350.247235 
L 354.903526 -354.881192 
L 354.933342 -359.515149 
L 354.968233 -364.149106 
L 355.009389 -368.783063 
L 355.057409 -373.41702 
L 355.112469 -378.050977 
L 355.174481 -382.684934 
L 355.243231 -387.318891 
L 355.318501 -391.952848 
L 355.400172 -396.586805 
L 355.488289 -401.220762 
L 355.583113 -405.854719 
L 355.685127 -410.488676 
L 355.795031 -415.122633 
L 355.913695 -419.75659 
L 356.042104 -424.390547 
L 356.181275 -429.024504 
L 356.332167 -433.658461 
L 356.49559 -438.292418 
L 356.672107 -442.926375 
L 356.861958 -447.560332 
L 357.064994 -452.194289 
L 357.280635 -456.828246 
L 357.507851 -461.462203 
L 357.745171 -466.09616 
L 357.990722 -470.730117 
L 358.242283 -475.364074 
L 358.497371 -479.998031 
L 358.753327 -484.631988 
L 359.007425 -489.265945 
L 359.256971 -493.899902 
L 359.499404 -498.533859 
L 359.732383 -503.167816 
L 359.953861 -507.801773 
L 360.162143 -512.43573 
L 360.355917 -517.069687 
L 360.534275 -521.703644 
L 360.696705 -526.337601 
L 360.843074 -530.971558 
L 360.973592 -535.605515 
L 361.088768 -540.239472 
L 361.189359 -544.873429 
L 362.17207 -544.873429 
L 362.17207 -544.873429 
L 362.27266 -540.239472 
L 362.387837 -535.605515 
L 362.518355 -530.971558 
L 362.664724 -526.337601 
L 362.827154 -521.703644 
L 363.005511 -517.069687 
L 363.199285 -512.43573 
L 363.407567 -507.801773 
L 363.629046 -503.167816 
L 363.862025 -498.533859 
L 364.104457 -493.899902 
L 364.354004 -489.265945 
L 364.608102 -484.631988 
L 364.864058 -479.998031 
L 365.119145 -475.364074 
L 365.370707 -470.730117 
L 365.616257 -466.09616 
L 365.853578 -461.462203 
L 366.080794 -456.828246 
L 366.296435 -452.194289 
L 366.499471 -447.560332 
L 366.689322 -442.926375 
L 366.865839 -438.292418 
L 367.029261 -433.658461 
L 367.180154 -429.024504 
L 367.319325 -424.390547 
L 367.447734 -419.75659 
L 367.566398 -415.122633 
L 367.676301 -410.488676 
L 367.778315 -405.854719 
L 367.873139 -401.220762 
L 367.961257 -396.586805 
L 368.042928 -391.952848 
L 368.118198 -387.318891 
L 368.186947 -382.684934 
L 368.248959 -378.050977 
L 368.30402 -373.41702 
L 368.35204 -368.783063 
L 368.393196 -364.149106 
L 368.428087 -359.515149 
L 368.457903 -354.881192 
L 368.484595 -350.247235 
L 368.511045 -345.613278 
L 368.541224 -340.979321 
L 368.580328 -336.345364 
L 368.634888 -331.711407 
L 368.712837 -327.07745 
L 368.82352 -322.443493 
L 368.97764 -317.809536 
L 369.18713 -313.175579 
L 369.464926 -308.541622 
L 369.824657 -303.907665 
L 370.28023 -299.273708 
L 370.845316 -294.639751 
L 371.532754 -290.005794 
L 372.353877 -285.371837 
L 373.31779 -280.73788 
L 374.430624 -276.103923 
L 375.694812 -271.469966 
L 377.108418 -266.836009 
L 378.664569 -262.202052 
L 380.351034 -257.568095 
L 382.149992 -252.934138 
L 384.03803 -248.300181 
L 385.986383 -243.666224 
L 387.961456 -239.032267 
L 389.925599 -234.39831 
L 391.838146 -229.764353 
L 393.65666 -225.130396 
L 395.338361 -220.496439 
L 396.841647 -215.862482 
L 398.127662 -211.228525 
L 399.161807 -206.594568 
L 399.915132 -201.960611 
L 400.365519 -197.326654 
L 400.498601 -192.692697 
L 400.308354 -188.05874 
L 399.797332 -183.424783 
L 398.976539 -178.790826 
L 397.864936 -174.156869 
L 396.488614 -169.522912 
L 394.879691 -164.888955 
L 393.074992 -160.254998 
L 391.114579 -155.621041 
L 389.040227 -150.987084 
L 386.893913 -146.353127 
L 384.716394 -141.71917 
L 382.545949 -137.085213 
L 380.417313 -132.451256 
L 378.360868 -127.817299 
L 376.402078 -123.183342 
L 374.56119 -118.549385 
L 372.85318 -113.915428 
L 371.287918 -109.281471 
L 369.870521 -104.647514 
L 368.601841 -100.013557 
L 367.479067 -95.3796 
L 366.496368 -90.745643 
L 365.645565 -86.111686 
z
" id="m6e79592b86" style="stroke:#3d3d3d;stroke-width:1.5;"/>
    </defs>
    <g clip-path="url(#p24c3271108)">
     <use style="fill:#3a923a;stroke:#3d3d3d;stroke-width:1.5;" x="0" xlink:href="#m6e79592b86" y="649.22125"/>
    </g>
   </g>
   <g id="PolyCollection_4">
    <defs>
     <path d="M 489.593077 -123.073891 
L 479.836923 -123.073891 
L 478.839409 -125.873016 
L 477.694432 -128.67214 
L 476.393205 -131.471265 
L 474.929283 -134.270389 
L 473.299191 -137.069514 
L 471.50304 -139.868638 
L 469.545079 -142.667763 
L 467.434167 -145.466887 
L 465.184102 -148.266012 
L 462.813798 -151.065136 
L 460.34726 -153.864261 
L 457.813347 -156.663385 
L 455.245297 -159.46251 
L 452.68003 -162.261634 
L 450.157232 -165.060759 
L 447.718244 -167.859884 
L 445.404806 -170.659008 
L 443.2577 -173.458133 
L 441.315359 -176.257257 
L 439.612499 -179.056382 
L 438.178853 -181.855506 
L 437.038062 -184.654631 
L 436.206799 -187.453755 
L 435.694146 -190.25288 
L 435.501286 -193.052004 
L 435.621506 -195.851129 
L 436.040528 -198.650253 
L 436.737129 -201.449378 
L 437.684037 -204.248502 
L 438.849044 -207.047627 
L 440.196267 -209.846751 
L 441.687519 -212.645876 
L 443.283692 -215.445001 
L 444.946106 -218.244125 
L 446.637752 -221.04325 
L 448.324388 -223.842374 
L 449.975432 -226.641499 
L 451.564647 -229.440623 
L 453.070585 -232.239748 
L 454.476799 -235.038872 
L 455.771834 -237.837997 
L 456.949026 -240.637121 
L 458.006121 -243.436246 
L 458.944776 -246.23537 
L 459.769956 -249.034495 
L 460.489283 -251.833619 
L 461.11237 -254.632744 
L 461.65016 -257.431868 
L 462.114329 -260.230993 
L 462.516732 -263.030117 
L 462.868957 -265.829242 
L 463.181947 -268.628367 
L 463.465737 -271.427491 
L 463.729275 -274.226616 
L 463.98033 -277.02574 
L 464.225485 -279.824865 
L 464.470185 -282.623989 
L 464.718848 -285.423114 
L 464.975001 -288.222238 
L 465.241441 -291.021363 
L 465.520409 -293.820487 
L 465.813744 -296.619612 
L 466.123035 -299.418736 
L 466.449733 -302.217861 
L 466.79524 -305.016985 
L 467.160956 -307.81611 
L 467.548291 -310.615234 
L 467.958639 -313.414359 
L 468.393322 -316.213484 
L 468.853507 -319.012608 
L 469.340109 -321.811733 
L 469.853675 -324.610857 
L 470.394285 -327.409982 
L 470.961451 -330.209106 
L 471.55404 -333.008231 
L 472.170221 -335.807355 
L 472.807446 -338.60648 
L 473.462468 -341.405604 
L 474.131389 -344.204729 
L 474.809741 -347.003853 
L 475.49261 -349.802978 
L 476.174765 -352.602102 
L 476.850816 -355.401227 
L 477.515378 -358.200351 
L 478.163234 -360.999476 
L 478.789486 -363.798601 
L 479.389695 -366.597725 
L 479.959995 -369.39685 
L 480.497184 -372.195974 
L 480.99878 -374.995099 
L 481.463052 -377.794223 
L 481.889018 -380.593348 
L 482.276414 -383.392472 
L 482.625645 -386.191597 
L 482.937713 -388.990721 
L 483.214132 -391.789846 
L 483.456833 -394.58897 
L 483.668068 -397.388095 
L 483.850313 -400.187219 
L 485.579687 -400.187219 
L 485.579687 -400.187219 
L 485.761932 -397.388095 
L 485.973167 -394.58897 
L 486.215868 -391.789846 
L 486.492287 -388.990721 
L 486.804355 -386.191597 
L 487.153586 -383.392472 
L 487.540982 -380.593348 
L 487.966948 -377.794223 
L 488.43122 -374.995099 
L 488.932816 -372.195974 
L 489.470005 -369.39685 
L 490.040305 -366.597725 
L 490.640514 -363.798601 
L 491.266766 -360.999476 
L 491.914622 -358.200351 
L 492.579184 -355.401227 
L 493.255235 -352.602102 
L 493.93739 -349.802978 
L 494.620259 -347.003853 
L 495.298611 -344.204729 
L 495.967532 -341.405604 
L 496.622554 -338.60648 
L 497.259779 -335.807355 
L 497.87596 -333.008231 
L 498.468549 -330.209106 
L 499.035715 -327.409982 
L 499.576325 -324.610857 
L 500.089891 -321.811733 
L 500.576493 -319.012608 
L 501.036678 -316.213484 
L 501.471361 -313.414359 
L 501.881709 -310.615234 
L 502.269044 -307.81611 
L 502.63476 -305.016985 
L 502.980267 -302.217861 
L 503.306965 -299.418736 
L 503.616256 -296.619612 
L 503.909591 -293.820487 
L 504.188559 -291.021363 
L 504.454999 -288.222238 
L 504.711152 -285.423114 
L 504.959815 -282.623989 
L 505.204515 -279.824865 
L 505.44967 -277.02574 
L 505.700725 -274.226616 
L 505.964263 -271.427491 
L 506.248053 -268.628367 
L 506.561043 -265.829242 
L 506.913268 -263.030117 
L 507.315671 -260.230993 
L 507.77984 -257.431868 
L 508.31763 -254.632744 
L 508.940717 -251.833619 
L 509.660044 -249.034495 
L 510.485224 -246.23537 
L 511.423879 -243.436246 
L 512.480974 -240.637121 
L 513.658166 -237.837997 
L 514.953201 -235.038872 
L 516.359415 -232.239748 
L 517.865353 -229.440623 
L 519.454568 -226.641499 
L 521.105612 -223.842374 
L 522.792248 -221.04325 
L 524.483894 -218.244125 
L 526.146308 -215.445001 
L 527.742481 -212.645876 
L 529.233733 -209.846751 
L 530.580956 -207.047627 
L 531.745963 -204.248502 
L 532.692871 -201.449378 
L 533.389472 -198.650253 
L 533.808494 -195.851129 
L 533.928714 -193.052004 
L 533.735854 -190.25288 
L 533.223201 -187.453755 
L 532.391938 -184.654631 
L 531.251147 -181.855506 
L 529.817501 -179.056382 
L 528.114641 -176.257257 
L 526.1723 -173.458133 
L 524.025194 -170.659008 
L 521.711756 -167.859884 
L 519.272768 -165.060759 
L 516.74997 -162.261634 
L 514.184703 -159.46251 
L 511.616653 -156.663385 
L 509.08274 -153.864261 
L 506.616202 -151.065136 
L 504.245898 -148.266012 
L 501.995833 -145.466887 
L 499.884921 -142.667763 
L 497.92696 -139.868638 
L 496.130809 -137.069514 
L 494.500717 -134.270389 
L 493.036795 -131.471265 
L 491.735568 -128.67214 
L 490.590591 -125.873016 
L 489.593077 -123.073891 
z
" id="m0ccf627e28" style="stroke:#3d3d3d;stroke-width:1.5;"/>
    </defs>
    <g clip-path="url(#p24c3271108)">
     <use style="fill:#c03d3e;stroke:#3d3d3d;stroke-width:1.5;" x="0" xlink:href="#m0ccf627e28" y="649.22125"/>
    </g>
   </g>
   <g id="PolyCollection_5">
    <defs>
     <path d="M 611.140916 -81.700383 
L 604.357655 -81.700383 
L 603.64863 -86.452272 
L 602.832794 -91.204161 
L 601.903853 -95.95605 
L 600.857381 -100.70794 
L 599.691318 -105.459829 
L 598.40647 -110.211718 
L 597.006953 -114.963607 
L 595.500564 -119.715496 
L 593.899045 -124.467385 
L 592.21821 -129.219274 
L 590.477904 -133.971163 
L 588.701786 -138.723053 
L 586.916908 -143.474942 
L 585.153116 -148.226831 
L 583.442252 -152.97872 
L 581.817217 -157.730609 
L 580.310893 -162.482498 
L 578.955004 -167.234387 
L 577.778944 -171.986276 
L 576.808642 -176.738166 
L 576.065516 -181.490055 
L 575.565581 -186.241944 
L 575.31875 -190.993833 
L 575.328371 -195.745722 
L 575.59103 -200.497611 
L 576.096627 -205.2495 
L 576.828729 -210.001389 
L 577.76517 -214.753279 
L 578.878881 -219.505168 
L 580.138897 -224.257057 
L 581.511492 -229.008946 
L 582.961389 -233.760835 
L 584.452987 -238.512724 
L 585.951542 -243.264613 
L 587.424271 -248.016503 
L 588.841313 -252.768392 
L 590.17653 -257.520281 
L 591.408128 -262.27217 
L 592.519068 -267.024059 
L 593.497285 -271.775948 
L 594.335712 -276.527837 
L 595.032121 -281.279726 
L 595.588813 -286.031616 
L 596.01217 -290.783505 
L 596.312105 -295.535394 
L 596.501429 -300.287283 
L 596.595181 -305.039172 
L 596.609931 -309.791061 
L 596.56309 -314.54295 
L 596.472251 -319.294839 
L 596.354584 -324.046729 
L 596.22629 -328.798618 
L 596.102145 -333.550507 
L 595.99513 -338.302396 
L 595.916166 -343.054285 
L 595.873938 -347.806174 
L 595.874831 -352.558063 
L 595.922951 -357.309952 
L 596.020238 -362.061842 
L 596.166647 -366.813731 
L 596.360398 -371.56562 
L 596.598262 -376.317509 
L 596.875883 -381.069398 
L 597.188104 -385.821287 
L 597.529297 -390.573176 
L 597.893662 -395.325065 
L 598.2755 -400.076955 
L 598.669443 -404.828844 
L 599.07063 -409.580733 
L 599.474831 -414.332622 
L 599.878519 -419.084511 
L 600.278887 -423.8364 
L 600.673822 -428.588289 
L 601.061837 -433.340179 
L 601.44198 -438.092068 
L 601.813722 -442.843957 
L 602.176832 -447.595846 
L 602.531263 -452.347735 
L 602.877035 -457.099624 
L 603.21415 -461.851513 
L 603.542511 -466.603402 
L 603.861881 -471.355292 
L 604.171855 -476.107181 
L 604.471863 -480.85907 
L 604.761188 -485.610959 
L 605.039005 -490.362848 
L 605.304427 -495.114737 
L 605.556561 -499.866626 
L 605.794565 -504.618515 
L 606.017699 -509.370405 
L 606.22537 -514.122294 
L 606.41717 -518.874183 
L 606.592899 -523.626072 
L 606.752576 -528.377961 
L 606.89644 -533.12985 
L 607.024936 -537.881739 
L 607.138698 -542.633628 
L 607.238522 -547.385518 
L 607.325327 -552.137407 
L 608.173244 -552.137407 
L 608.173244 -552.137407 
L 608.26005 -547.385518 
L 608.359873 -542.633628 
L 608.473636 -537.881739 
L 608.602132 -533.12985 
L 608.745995 -528.377961 
L 608.905672 -523.626072 
L 609.081401 -518.874183 
L 609.273202 -514.122294 
L 609.480873 -509.370405 
L 609.704006 -504.618515 
L 609.94201 -499.866626 
L 610.194144 -495.114737 
L 610.459566 -490.362848 
L 610.737383 -485.610959 
L 611.026709 -480.85907 
L 611.326717 -476.107181 
L 611.636691 -471.355292 
L 611.956061 -466.603402 
L 612.284422 -461.851513 
L 612.621536 -457.099624 
L 612.967309 -452.347735 
L 613.321739 -447.595846 
L 613.684849 -442.843957 
L 614.056591 -438.092068 
L 614.436735 -433.340179 
L 614.82475 -428.588289 
L 615.219684 -423.8364 
L 615.620052 -419.084511 
L 616.023741 -414.332622 
L 616.427942 -409.580733 
L 616.829129 -404.828844 
L 617.223071 -400.076955 
L 617.60491 -395.325065 
L 617.969274 -390.573176 
L 618.310467 -385.821287 
L 618.622689 -381.069398 
L 618.900309 -376.317509 
L 619.138173 -371.56562 
L 619.331924 -366.813731 
L 619.478334 -362.061842 
L 619.57562 -357.309952 
L 619.623741 -352.558063 
L 619.624634 -347.806174 
L 619.582406 -343.054285 
L 619.503441 -338.302396 
L 619.396427 -333.550507 
L 619.272281 -328.798618 
L 619.143987 -324.046729 
L 619.02632 -319.294839 
L 618.935482 -314.54295 
L 618.88864 -309.791061 
L 618.90339 -305.039172 
L 618.997143 -300.287283 
L 619.186467 -295.535394 
L 619.486401 -290.783505 
L 619.909759 -286.031616 
L 620.466451 -281.279726 
L 621.16286 -276.527837 
L 622.001286 -271.775948 
L 622.979503 -267.024059 
L 624.090443 -262.27217 
L 625.322041 -257.520281 
L 626.657259 -252.768392 
L 628.0743 -248.016503 
L 629.547029 -243.264613 
L 631.045585 -238.512724 
L 632.537182 -233.760835 
L 633.987079 -229.008946 
L 635.359674 -224.257057 
L 636.61969 -219.505168 
L 637.733401 -214.753279 
L 638.669842 -210.001389 
L 639.401944 -205.2495 
L 639.907542 -200.497611 
L 640.1702 -195.745722 
L 640.179821 -190.993833 
L 639.932991 -186.241944 
L 639.433056 -181.490055 
L 638.68993 -176.738166 
L 637.719627 -171.986276 
L 636.543567 -167.234387 
L 635.187678 -162.482498 
L 633.681354 -157.730609 
L 632.056319 -152.97872 
L 630.345456 -148.226831 
L 628.581663 -143.474942 
L 626.796786 -138.723053 
L 625.020667 -133.971163 
L 623.280362 -129.219274 
L 621.599527 -124.467385 
L 619.998008 -119.715496 
L 618.491619 -114.963607 
L 617.092101 -110.211718 
L 615.807254 -105.459829 
L 614.641191 -100.70794 
L 613.594718 -95.95605 
L 612.665778 -91.204161 
L 611.849942 -86.452272 
L 611.140916 -81.700383 
z
" id="m467db391da" style="stroke:#3d3d3d;stroke-width:1.5;"/>
    </defs>
    <g clip-path="url(#p24c3271108)">
     <use style="fill:#9372b2;stroke:#3d3d3d;stroke-width:1.5;" x="0" xlink:href="#m467db391da" y="649.22125"/>
    </g>
   </g>
   <g id="PolyCollection_6">
    <defs>
     <path d="M 735.391642 -101.153418 
L 726.175501 -101.153418 
L 725.419205 -104.212624 
L 724.571132 -107.271831 
L 723.626241 -110.331037 
L 722.580321 -113.390243 
L 721.43021 -116.449449 
L 720.174021 -119.508655 
L 718.811352 -122.567861 
L 717.343503 -125.627067 
L 715.773656 -128.686274 
L 714.10704 -131.74548 
L 712.351049 -134.804686 
L 710.515327 -137.863892 
L 708.611787 -140.923098 
L 706.654577 -143.982304 
L 704.659991 -147.04151 
L 702.646294 -150.100717 
L 700.633498 -153.159923 
L 698.643067 -156.219129 
L 696.697551 -159.278335 
L 694.820183 -162.337541 
L 693.034417 -165.396747 
L 691.363444 -168.455954 
L 689.829675 -171.51516 
L 688.454236 -174.574366 
L 687.256459 -177.633572 
L 686.253409 -180.692778 
L 685.459452 -183.751984 
L 684.88588 -186.81119 
L 684.540602 -189.870397 
L 684.427926 -192.929603 
L 684.548418 -195.988809 
L 684.898867 -199.048015 
L 685.472334 -202.107221 
L 686.258304 -205.166427 
L 687.242922 -208.225633 
L 688.409314 -211.28484 
L 689.737977 -214.344046 
L 691.207228 -217.403252 
L 692.793694 -220.462458 
L 694.472841 -223.521664 
L 696.219503 -226.58087 
L 698.008421 -229.640077 
L 699.814758 -232.699283 
L 701.614587 -235.758489 
L 703.385338 -238.817695 
L 705.106193 -241.876901 
L 706.758421 -244.936107 
L 708.325654 -247.995313 
L 709.794088 -251.05452 
L 711.152623 -254.113726 
L 712.392933 -257.172932 
L 713.509471 -260.232138 
L 714.499418 -263.291344 
L 715.362568 -266.35055 
L 716.101178 -269.409756 
L 716.719761 -272.468963 
L 717.224858 -275.528169 
L 717.624767 -278.587375 
L 717.92927 -281.646581 
L 718.149328 -284.705787 
L 718.296781 -287.764993 
L 718.384044 -290.824199 
L 718.42381 -293.883406 
L 718.428759 -296.942612 
L 718.411292 -300.001818 
L 718.383278 -303.061024 
L 718.355834 -306.12023 
L 718.339125 -309.179436 
L 718.342203 -312.238643 
L 718.372875 -315.297849 
L 718.437611 -318.357055 
L 718.541484 -321.416261 
L 718.688145 -324.475467 
L 718.879841 -327.534673 
L 719.117452 -330.593879 
L 719.400571 -333.653086 
L 719.727606 -336.712292 
L 720.095901 -339.771498 
L 720.501884 -342.830704 
L 720.941218 -345.88991 
L 721.40897 -348.949116 
L 721.899778 -352.008322 
L 722.408016 -355.067529 
L 722.927952 -358.126735 
L 723.453904 -361.185941 
L 723.980369 -364.245147 
L 724.502143 -367.304353 
L 725.014425 -370.363559 
L 725.51289 -373.422766 
L 725.993753 -376.481972 
L 726.453807 -379.541178 
L 726.890439 -382.600384 
L 727.301631 -385.65959 
L 727.685949 -388.718796 
L 728.042509 -391.778002 
L 728.370938 -394.837209 
L 728.671325 -397.896415 
L 728.944165 -400.955621 
L 729.190299 -404.014827 
L 732.376844 -404.014827 
L 732.376844 -404.014827 
L 732.622978 -400.955621 
L 732.895818 -397.896415 
L 733.196205 -394.837209 
L 733.524634 -391.778002 
L 733.881194 -388.718796 
L 734.265512 -385.65959 
L 734.676704 -382.600384 
L 735.113335 -379.541178 
L 735.573389 -376.481972 
L 736.054253 -373.422766 
L 736.552718 -370.363559 
L 737.065 -367.304353 
L 737.586774 -364.245147 
L 738.113239 -361.185941 
L 738.639191 -358.126735 
L 739.159127 -355.067529 
L 739.667365 -352.008322 
L 740.158173 -348.949116 
L 740.625925 -345.88991 
L 741.065259 -342.830704 
L 741.471242 -339.771498 
L 741.839537 -336.712292 
L 742.166572 -333.653086 
L 742.449691 -330.593879 
L 742.687302 -327.534673 
L 742.878997 -324.475467 
L 743.025659 -321.416261 
L 743.129532 -318.357055 
L 743.194268 -315.297849 
L 743.22494 -312.238643 
L 743.228018 -309.179436 
L 743.211308 -306.12023 
L 743.183865 -303.061024 
L 743.155851 -300.001818 
L 743.138384 -296.942612 
L 743.143333 -293.883406 
L 743.183099 -290.824199 
L 743.270362 -287.764993 
L 743.417815 -284.705787 
L 743.637873 -281.646581 
L 743.942376 -278.587375 
L 744.342285 -275.528169 
L 744.847381 -272.468963 
L 745.465965 -269.409756 
L 746.204575 -266.35055 
L 747.067725 -263.291344 
L 748.057671 -260.232138 
L 749.17421 -257.172932 
L 750.41452 -254.113726 
L 751.773055 -251.05452 
L 753.241489 -247.995313 
L 754.808722 -244.936107 
L 756.46095 -241.876901 
L 758.181805 -238.817695 
L 759.952556 -235.758489 
L 761.752385 -232.699283 
L 763.558722 -229.640077 
L 765.34764 -226.58087 
L 767.094302 -223.521664 
L 768.773449 -220.462458 
L 770.359915 -217.403252 
L 771.829166 -214.344046 
L 773.157829 -211.28484 
L 774.324221 -208.225633 
L 775.308839 -205.166427 
L 776.094809 -202.107221 
L 776.668276 -199.048015 
L 777.018725 -195.988809 
L 777.139217 -192.929603 
L 777.026541 -189.870397 
L 776.681263 -186.81119 
L 776.10769 -183.751984 
L 775.313734 -180.692778 
L 774.310684 -177.633572 
L 773.112907 -174.574366 
L 771.737468 -171.51516 
L 770.203699 -168.455954 
L 768.532726 -165.396747 
L 766.74696 -162.337541 
L 764.869592 -159.278335 
L 762.924076 -156.219129 
L 760.933644 -153.159923 
L 758.920849 -150.100717 
L 756.907152 -147.04151 
L 754.912565 -143.982304 
L 752.955356 -140.923098 
L 751.051815 -137.863892 
L 749.216093 -134.804686 
L 747.460103 -131.74548 
L 745.793487 -128.686274 
L 744.22364 -125.627067 
L 742.75579 -122.567861 
L 741.393122 -119.508655 
L 740.136932 -116.449449 
L 738.986822 -113.390243 
L 737.940902 -110.331037 
L 736.996011 -107.271831 
L 736.147938 -104.212624 
L 735.391642 -101.153418 
z
" id="ma802625a76" style="stroke:#3d3d3d;stroke-width:1.5;"/>
    </defs>
    <g clip-path="url(#p24c3271108)">
     <use style="fill:#845b53;stroke:#3d3d3d;stroke-width:1.5;" x="0" xlink:href="#ma802625a76" y="649.22125"/>
    </g>
   </g>
   <g id="PolyCollection_7">
    <defs>
     <path d="M 854.863194 -95.87921 
L 852.77252 -95.87921 
L 852.504621 -100.637705 
L 852.181716 -105.3962 
L 851.796232 -110.154695 
L 851.340479 -114.91319 
L 850.806889 -119.671685 
L 850.188311 -124.43018 
L 849.478335 -129.188676 
L 848.671664 -133.947171 
L 847.764492 -138.705666 
L 846.754887 -143.464161 
L 845.643158 -148.222656 
L 844.432173 -152.981151 
L 843.12762 -157.739647 
L 841.738171 -162.498142 
L 840.275538 -167.256637 
L 838.754403 -172.015132 
L 837.192213 -176.773627 
L 835.608832 -181.532122 
L 834.026055 -186.290618 
L 832.467014 -191.049113 
L 830.955478 -195.807608 
L 829.515094 -200.566103 
L 828.168598 -205.324598 
L 826.937048 -210.083093 
L 825.839104 -214.841588 
L 824.890413 -219.600084 
L 824.103116 -224.358579 
L 823.485517 -229.117074 
L 823.041921 -233.875569 
L 822.772653 -238.634064 
L 822.674243 -243.392559 
L 822.739769 -248.151055 
L 822.959324 -252.90955 
L 823.320581 -257.668045 
L 823.809412 -262.42654 
L 824.410527 -267.185035 
L 825.108089 -271.94353 
L 825.886287 -276.702026 
L 826.729823 -281.460521 
L 827.624306 -286.219016 
L 828.556534 -290.977511 
L 829.514671 -295.736006 
L 830.488313 -300.494501 
L 831.468468 -305.252997 
L 832.44745 -310.011492 
L 833.418722 -314.769987 
L 834.3767 -319.528482 
L 835.316547 -324.286977 
L 836.23397 -329.045472 
L 837.12504 -333.803967 
L 837.986057 -338.562463 
L 838.813456 -343.320958 
L 839.603767 -348.079453 
L 840.353633 -352.837948 
L 841.059872 -357.596443 
L 841.719583 -362.354938 
L 842.33028 -367.113434 
L 842.890039 -371.871929 
L 843.397656 -376.630424 
L 843.852779 -381.388919 
L 844.256022 -386.147414 
L 844.60904 -390.905909 
L 844.914548 -395.664405 
L 845.176307 -400.4229 
L 845.399038 -405.181395 
L 845.5883 -409.93989 
L 845.750322 -414.698385 
L 845.891793 -419.45688 
L 846.019643 -424.215375 
L 846.140794 -428.973871 
L 846.261926 -433.732366 
L 846.38925 -438.490861 
L 846.528297 -443.249356 
L 846.683754 -448.007851 
L 846.85932 -452.766346 
L 847.057619 -457.524842 
L 847.280152 -462.283337 
L 847.527299 -467.041832 
L 847.798356 -471.800327 
L 848.091622 -476.558822 
L 848.40452 -481.317317 
L 848.733733 -486.075813 
L 849.07538 -490.834308 
L 849.425191 -495.592803 
L 849.778687 -500.351298 
L 850.131365 -505.109793 
L 850.478858 -509.868288 
L 850.817089 -514.626783 
L 851.142394 -519.385279 
L 851.451618 -524.143774 
L 851.742187 -528.902269 
L 852.012142 -533.660764 
L 852.260149 -538.419259 
L 852.48548 -543.177754 
L 852.687975 -547.93625 
L 852.867978 -552.694745 
L 853.026269 -557.45324 
L 853.163982 -562.211735 
L 853.282522 -566.97023 
L 854.353192 -566.97023 
L 854.353192 -566.97023 
L 854.471732 -562.211735 
L 854.609446 -557.45324 
L 854.767737 -552.694745 
L 854.94774 -547.93625 
L 855.150234 -543.177754 
L 855.375565 -538.419259 
L 855.623572 -533.660764 
L 855.893527 -528.902269 
L 856.184096 -524.143774 
L 856.493321 -519.385279 
L 856.818625 -514.626783 
L 857.156856 -509.868288 
L 857.50435 -505.109793 
L 857.857027 -500.351298 
L 858.210524 -495.592803 
L 858.560334 -490.834308 
L 858.901982 -486.075813 
L 859.231195 -481.317317 
L 859.544092 -476.558822 
L 859.837359 -471.800327 
L 860.108415 -467.041832 
L 860.355562 -462.283337 
L 860.578096 -457.524842 
L 860.776395 -452.766346 
L 860.95196 -448.007851 
L 861.107417 -443.249356 
L 861.246465 -438.490861 
L 861.373788 -433.732366 
L 861.49492 -428.973871 
L 861.616071 -424.215375 
L 861.743921 -419.45688 
L 861.885393 -414.698385 
L 862.047414 -409.93989 
L 862.236676 -405.181395 
L 862.459407 -400.4229 
L 862.721166 -395.664405 
L 863.026675 -390.905909 
L 863.379692 -386.147414 
L 863.782936 -381.388919 
L 864.238059 -376.630424 
L 864.745675 -371.871929 
L 865.305435 -367.113434 
L 865.916131 -362.354938 
L 866.575842 -357.596443 
L 867.282081 -352.837948 
L 868.031947 -348.079453 
L 868.822258 -343.320958 
L 869.649657 -338.562463 
L 870.510674 -333.803967 
L 871.401744 -329.045472 
L 872.319167 -324.286977 
L 873.259014 -319.528482 
L 874.216993 -314.769987 
L 875.188265 -310.011492 
L 876.167246 -305.252997 
L 877.147401 -300.494501 
L 878.121044 -295.736006 
L 879.07918 -290.977511 
L 880.011408 -286.219016 
L 880.905891 -281.460521 
L 881.749428 -276.702026 
L 882.527626 -271.94353 
L 883.225188 -267.185035 
L 883.826302 -262.42654 
L 884.315133 -257.668045 
L 884.67639 -252.90955 
L 884.895945 -248.151055 
L 884.961471 -243.392559 
L 884.863061 -238.634064 
L 884.593793 -233.875569 
L 884.150197 -229.117074 
L 883.532598 -224.358579 
L 882.745301 -219.600084 
L 881.79661 -214.841588 
L 880.698667 -210.083093 
L 879.467116 -205.324598 
L 878.120621 -200.566103 
L 876.680236 -195.807608 
L 875.1687 -191.049113 
L 873.609659 -186.290618 
L 872.026883 -181.532122 
L 870.443501 -176.773627 
L 868.881311 -172.015132 
L 867.360177 -167.256637 
L 865.897543 -162.498142 
L 864.508094 -157.739647 
L 863.203541 -152.981151 
L 861.992557 -148.222656 
L 860.880827 -143.464161 
L 859.871222 -138.705666 
L 858.96405 -133.947171 
L 858.157379 -129.188676 
L 857.447404 -124.43018 
L 856.828825 -119.671685 
L 856.295236 -114.91319 
L 855.839482 -110.154695 
L 855.453999 -105.3962 
L 855.131093 -100.637705 
L 854.863194 -95.87921 
z
" id="mfe1fb0aa18" style="stroke:#3d3d3d;stroke-width:1.5;"/>
    </defs>
    <g clip-path="url(#p24c3271108)">
     <use style="fill:#d684bd;stroke:#3d3d3d;stroke-width:1.5;" x="0" xlink:href="#mfe1fb0aa18" y="649.22125"/>
    </g>
   </g>
   <g id="matplotlib.axis_1">
    <g id="xtick_1">
     <g id="line2d_1">
      <defs>
       <path d="M 0 0 
L 0 3.5 
" id="m18e895aee3" style="stroke:#000000;stroke-width:0.8;"/>
      </defs>
      <g>
       <use style="stroke:#000000;stroke-width:0.8;" x="115.612143" xlink:href="#m18e895aee3" y="609.2"/>
      </g>
     </g>
     <g id="text_1">
      <!-- firstorder -->
      <defs>
       <path d="M 20.609375 41.21875 
L 20.609375 11.8125 
Q 20.609375 5.5625 21.96875 3.90625 
Q 23.78125 1.765625 26.8125 1.765625 
L 30.859375 1.765625 
L 30.859375 0 
L 4.15625 0 
L 4.15625 1.765625 
L 6.15625 1.765625 
Q 8.109375 1.765625 9.71875 2.734375 
Q 11.328125 3.71875 11.9375 5.375 
Q 12.546875 7.03125 12.546875 11.8125 
L 12.546875 41.21875 
L 3.859375 41.21875 
L 3.859375 44.734375 
L 12.546875 44.734375 
L 12.546875 47.65625 
Q 12.546875 54.34375 14.6875 58.984375 
Q 16.84375 63.625 21.265625 66.484375 
Q 25.6875 69.34375 31.203125 69.34375 
Q 36.328125 69.34375 40.625 66.015625 
Q 43.453125 63.8125 43.453125 61.078125 
Q 43.453125 59.625 42.1875 58.328125 
Q 40.921875 57.03125 39.453125 57.03125 
Q 38.328125 57.03125 37.078125 57.828125 
Q 35.84375 58.640625 34.03125 61.296875 
Q 32.234375 63.96875 30.71875 64.890625 
Q 29.203125 65.828125 27.34375 65.828125 
Q 25.09375 65.828125 23.53125 64.625 
Q 21.96875 63.421875 21.28125 60.90625 
Q 20.609375 58.40625 20.609375 47.953125 
L 20.609375 44.734375 
L 32.125 44.734375 
L 32.125 41.21875 
z
" id="TimesNewRomanPSMT-102"/>
       <path d="M 14.5 69.4375 
Q 16.546875 69.4375 17.984375 67.984375 
Q 19.4375 66.546875 19.4375 64.5 
Q 19.4375 62.453125 17.984375 60.984375 
Q 16.546875 59.515625 14.5 59.515625 
Q 12.453125 59.515625 10.984375 60.984375 
Q 9.515625 62.453125 9.515625 64.5 
Q 9.515625 66.546875 10.953125 67.984375 
Q 12.40625 69.4375 14.5 69.4375 
z
M 18.5625 46.046875 
L 18.5625 10.109375 
Q 18.5625 5.90625 19.171875 4.515625 
Q 19.78125 3.125 20.96875 2.4375 
Q 22.171875 1.765625 25.34375 1.765625 
L 25.34375 0 
L 3.609375 0 
L 3.609375 1.765625 
Q 6.890625 1.765625 8 2.390625 
Q 9.125 3.03125 9.78125 4.484375 
Q 10.453125 5.953125 10.453125 10.109375 
L 10.453125 27.34375 
Q 10.453125 34.625 10.015625 36.765625 
Q 9.671875 38.328125 8.9375 38.9375 
Q 8.203125 39.546875 6.9375 39.546875 
Q 5.5625 39.546875 3.609375 38.8125 
L 2.9375 40.578125 
L 16.40625 46.046875 
z
" id="TimesNewRomanPSMT-105"/>
       <path d="M 16.21875 46.046875 
L 16.21875 35.984375 
Q 21.828125 46.046875 27.734375 46.046875 
Q 30.421875 46.046875 32.171875 44.40625 
Q 33.9375 42.78125 33.9375 40.625 
Q 33.9375 38.71875 32.65625 37.390625 
Q 31.390625 36.078125 29.640625 36.078125 
Q 27.9375 36.078125 25.8125 37.765625 
Q 23.6875 39.453125 22.65625 39.453125 
Q 21.78125 39.453125 20.75 38.484375 
Q 18.5625 36.46875 16.21875 31.890625 
L 16.21875 10.453125 
Q 16.21875 6.734375 17.140625 4.828125 
Q 17.78125 3.515625 19.390625 2.640625 
Q 21 1.765625 24.03125 1.765625 
L 24.03125 0 
L 1.125 0 
L 1.125 1.765625 
Q 4.546875 1.765625 6.203125 2.828125 
Q 7.421875 3.609375 7.90625 5.328125 
Q 8.15625 6.15625 8.15625 10.0625 
L 8.15625 27.390625 
Q 8.15625 35.203125 7.828125 36.6875 
Q 7.515625 38.1875 6.65625 38.859375 
Q 5.8125 39.546875 4.546875 39.546875 
Q 3.03125 39.546875 1.125 38.8125 
L 0.640625 40.578125 
L 14.15625 46.046875 
z
" id="TimesNewRomanPSMT-114"/>
       <path d="M 32.03125 46.046875 
L 32.03125 30.8125 
L 30.421875 30.8125 
Q 28.5625 37.984375 25.65625 40.578125 
Q 22.75 43.171875 18.265625 43.171875 
Q 14.84375 43.171875 12.734375 41.359375 
Q 10.640625 39.546875 10.640625 37.359375 
Q 10.640625 34.625 12.203125 32.671875 
Q 13.71875 30.671875 18.359375 28.421875 
L 25.484375 24.953125 
Q 35.40625 20.125 35.40625 12.203125 
Q 35.40625 6.109375 30.78125 2.359375 
Q 26.171875 -1.375 20.453125 -1.375 
Q 16.359375 -1.375 11.078125 0.09375 
Q 9.46875 0.59375 8.453125 0.59375 
Q 7.328125 0.59375 6.6875 -0.6875 
L 5.078125 -0.6875 
L 5.078125 15.28125 
L 6.6875 15.28125 
Q 8.0625 8.453125 11.90625 4.984375 
Q 15.765625 1.515625 20.5625 1.515625 
Q 23.921875 1.515625 26.046875 3.484375 
Q 28.171875 5.46875 28.171875 8.25 
Q 28.171875 11.625 25.796875 13.921875 
Q 23.4375 16.21875 16.359375 19.734375 
Q 9.28125 23.25 7.078125 26.078125 
Q 4.890625 28.859375 4.890625 33.109375 
Q 4.890625 38.625 8.671875 42.328125 
Q 12.453125 46.046875 18.453125 46.046875 
Q 21.09375 46.046875 24.859375 44.921875 
Q 27.34375 44.1875 28.171875 44.1875 
Q 28.953125 44.1875 29.390625 44.53125 
Q 29.828125 44.875 30.421875 46.046875 
z
" id="TimesNewRomanPSMT-115"/>
       <path d="M 16.109375 59.421875 
L 16.109375 44.734375 
L 26.5625 44.734375 
L 26.5625 41.3125 
L 16.109375 41.3125 
L 16.109375 12.3125 
Q 16.109375 7.953125 17.359375 6.4375 
Q 18.609375 4.9375 20.5625 4.9375 
Q 22.171875 4.9375 23.6875 5.9375 
Q 25.203125 6.9375 26.03125 8.890625 
L 27.9375 8.890625 
Q 26.21875 4.109375 23.09375 1.6875 
Q 19.96875 -0.734375 16.65625 -0.734375 
Q 14.40625 -0.734375 12.25 0.515625 
Q 10.109375 1.765625 9.078125 4.078125 
Q 8.0625 6.390625 8.0625 11.234375 
L 8.0625 41.3125 
L 0.984375 41.3125 
L 0.984375 42.921875 
Q 3.65625 44 6.46875 46.5625 
Q 9.28125 49.125 11.46875 52.640625 
Q 12.59375 54.5 14.59375 59.421875 
z
" id="TimesNewRomanPSMT-116"/>
       <path d="M 25 46.046875 
Q 35.15625 46.046875 41.3125 38.328125 
Q 46.53125 31.734375 46.53125 23.1875 
Q 46.53125 17.1875 43.640625 11.03125 
Q 40.765625 4.890625 35.71875 1.75 
Q 30.671875 -1.375 24.46875 -1.375 
Q 14.359375 -1.375 8.40625 6.6875 
Q 3.375 13.484375 3.375 21.921875 
Q 3.375 28.078125 6.421875 34.15625 
Q 9.46875 40.234375 14.453125 43.140625 
Q 19.4375 46.046875 25 46.046875 
z
M 23.484375 42.875 
Q 20.90625 42.875 18.28125 41.328125 
Q 15.671875 39.796875 14.0625 35.9375 
Q 12.453125 32.078125 12.453125 26.03125 
Q 12.453125 16.265625 16.328125 9.171875 
Q 20.21875 2.09375 26.5625 2.09375 
Q 31.296875 2.09375 34.375 6 
Q 37.453125 9.90625 37.453125 19.4375 
Q 37.453125 31.34375 32.328125 38.1875 
Q 28.859375 42.875 23.484375 42.875 
z
" id="TimesNewRomanPSMT-111"/>
       <path d="M 34.71875 5.03125 
Q 31.453125 1.609375 28.328125 0.109375 
Q 25.203125 -1.375 21.578125 -1.375 
Q 14.265625 -1.375 8.796875 4.75 
Q 3.328125 10.890625 3.328125 20.515625 
Q 3.328125 30.125 9.375 38.109375 
Q 15.4375 46.09375 24.953125 46.09375 
Q 30.859375 46.09375 34.71875 42.328125 
L 34.71875 50.59375 
Q 34.71875 58.25 34.34375 60 
Q 33.984375 61.765625 33.203125 62.390625 
Q 32.421875 63.03125 31.25 63.03125 
Q 29.984375 63.03125 27.875 62.25 
L 27.25 63.96875 
L 40.578125 69.4375 
L 42.78125 69.4375 
L 42.78125 17.71875 
Q 42.78125 9.859375 43.140625 8.125 
Q 43.5 6.390625 44.3125 5.703125 
Q 45.125 5.03125 46.1875 5.03125 
Q 47.515625 5.03125 49.703125 5.859375 
L 50.25 4.15625 
L 36.96875 -1.375 
L 34.71875 -1.375 
z
M 34.71875 8.453125 
L 34.71875 31.5 
Q 34.421875 34.8125 32.953125 37.546875 
Q 31.5 40.28125 29.078125 41.671875 
Q 26.65625 43.0625 24.359375 43.0625 
Q 20.0625 43.0625 16.703125 39.203125 
Q 12.25 34.125 12.25 24.359375 
Q 12.25 14.5 16.546875 9.25 
Q 20.84375 4 26.125 4 
Q 30.5625 4 34.71875 8.453125 
z
" id="TimesNewRomanPSMT-100"/>
       <path d="M 10.640625 27.875 
Q 10.59375 17.921875 15.484375 12.25 
Q 20.359375 6.59375 26.953125 6.59375 
Q 31.34375 6.59375 34.59375 9 
Q 37.84375 11.421875 40.046875 17.28125 
L 41.546875 16.3125 
Q 40.53125 9.625 35.59375 4.125 
Q 30.671875 -1.375 23.25 -1.375 
Q 15.1875 -1.375 9.453125 4.90625 
Q 3.71875 11.1875 3.71875 21.78125 
Q 3.71875 33.25 9.59375 39.671875 
Q 15.484375 46.09375 24.359375 46.09375 
Q 31.890625 46.09375 36.71875 41.140625 
Q 41.546875 36.1875 41.546875 27.875 
z
M 10.640625 30.71875 
L 31.34375 30.71875 
Q 31.109375 35.015625 30.328125 36.765625 
Q 29.109375 39.5 26.6875 41.0625 
Q 24.265625 42.625 21.625 42.625 
Q 17.578125 42.625 14.375 39.46875 
Q 11.1875 36.328125 10.640625 30.71875 
z
" id="TimesNewRomanPSMT-101"/>
      </defs>
      <g transform="translate(93.288393 624.5325)scale(0.12 -0.12)">
       <use xlink:href="#TimesNewRomanPSMT-102"/>
       <use x="33.300781" xlink:href="#TimesNewRomanPSMT-105"/>
       <use x="61.083984" xlink:href="#TimesNewRomanPSMT-114"/>
       <use x="94.384766" xlink:href="#TimesNewRomanPSMT-115"/>
       <use x="133.300781" xlink:href="#TimesNewRomanPSMT-116"/>
       <use x="161.083984" xlink:href="#TimesNewRomanPSMT-111"/>
       <use x="211.083984" xlink:href="#TimesNewRomanPSMT-114"/>
       <use x="244.384766" xlink:href="#TimesNewRomanPSMT-100"/>
       <use x="294.384766" xlink:href="#TimesNewRomanPSMT-101"/>
       <use x="338.769531" xlink:href="#TimesNewRomanPSMT-114"/>
      </g>
     </g>
    </g>
    <g id="xtick_2">
     <g id="line2d_2">
      <g>
       <use style="stroke:#000000;stroke-width:0.8;" x="238.646429" xlink:href="#m18e895aee3" y="609.2"/>
      </g>
     </g>
     <g id="text_2">
      <!-- glcm -->
      <defs>
       <path d="M 15.09375 16.3125 
Q 10.984375 18.3125 8.78125 21.890625 
Q 6.59375 25.484375 6.59375 29.828125 
Q 6.59375 36.46875 11.59375 41.25 
Q 16.609375 46.046875 24.421875 46.046875 
Q 30.8125 46.046875 35.5 42.921875 
L 44.96875 42.921875 
Q 47.078125 42.921875 47.40625 42.796875 
Q 47.75 42.671875 47.90625 42.390625 
Q 48.1875 41.9375 48.1875 40.828125 
Q 48.1875 39.546875 47.953125 39.0625 
Q 47.796875 38.8125 47.4375 38.671875 
Q 47.078125 38.53125 44.96875 38.53125 
L 39.15625 38.53125 
Q 41.890625 35.015625 41.890625 29.546875 
Q 41.890625 23.296875 37.109375 18.84375 
Q 32.328125 14.40625 24.265625 14.40625 
Q 20.953125 14.40625 17.484375 15.375 
Q 15.328125 13.53125 14.5625 12.140625 
Q 13.8125 10.75 13.8125 9.765625 
Q 13.8125 8.9375 14.625 8.15625 
Q 15.4375 7.375 17.78125 7.03125 
Q 19.140625 6.84375 24.609375 6.6875 
Q 34.671875 6.453125 37.640625 6 
Q 42.1875 5.375 44.890625 2.640625 
Q 47.609375 -0.09375 47.609375 -4.109375 
Q 47.609375 -9.625 42.4375 -14.453125 
Q 34.8125 -21.578125 22.5625 -21.578125 
Q 13.140625 -21.578125 6.640625 -17.328125 
Q 2.984375 -14.890625 2.984375 -12.25 
Q 2.984375 -11.078125 3.515625 -9.90625 
Q 4.34375 -8.109375 6.9375 -4.890625 
Q 7.28125 -4.4375 11.921875 0.390625 
Q 9.375 1.90625 8.328125 3.09375 
Q 7.28125 4.296875 7.28125 5.8125 
Q 7.28125 7.515625 8.671875 9.8125 
Q 10.0625 12.109375 15.09375 16.3125 
z
M 23.578125 43.703125 
Q 19.96875 43.703125 17.53125 40.8125 
Q 15.09375 37.9375 15.09375 31.984375 
Q 15.09375 24.265625 18.40625 20.015625 
Q 20.953125 16.796875 24.859375 16.796875 
Q 28.5625 16.796875 30.953125 19.578125 
Q 33.34375 22.359375 33.34375 28.328125 
Q 33.34375 36.078125 29.984375 40.484375 
Q 27.484375 43.703125 23.578125 43.703125 
z
M 14.59375 0 
Q 12.3125 -2.484375 11.140625 -4.625 
Q 9.96875 -6.78125 9.96875 -8.59375 
Q 9.96875 -10.9375 12.796875 -12.703125 
Q 17.671875 -15.71875 26.90625 -15.71875 
Q 35.6875 -15.71875 39.859375 -12.609375 
Q 44.046875 -9.515625 44.046875 -6 
Q 44.046875 -3.46875 41.546875 -2.390625 
Q 39.015625 -1.3125 31.5 -1.125 
Q 20.515625 -0.828125 14.59375 0 
z
" id="TimesNewRomanPSMT-103"/>
       <path d="M 18.5 69.4375 
L 18.5 10.109375 
Q 18.5 5.90625 19.109375 4.53125 
Q 19.734375 3.171875 21 2.46875 
Q 22.265625 1.765625 25.734375 1.765625 
L 25.734375 0 
L 3.8125 0 
L 3.8125 1.765625 
Q 6.890625 1.765625 8 2.390625 
Q 9.125 3.03125 9.765625 4.484375 
Q 10.40625 5.953125 10.40625 10.109375 
L 10.40625 50.734375 
Q 10.40625 58.296875 10.0625 60.03125 
Q 9.71875 61.765625 8.953125 62.390625 
Q 8.203125 63.03125 7.03125 63.03125 
Q 5.765625 63.03125 3.8125 62.25 
L 2.984375 63.96875 
L 16.3125 69.4375 
z
" id="TimesNewRomanPSMT-108"/>
       <path d="M 41.109375 17 
Q 39.3125 8.15625 34.03125 3.390625 
Q 28.765625 -1.375 22.359375 -1.375 
Q 14.75 -1.375 9.078125 5.015625 
Q 3.421875 11.421875 3.421875 22.3125 
Q 3.421875 32.859375 9.6875 39.453125 
Q 15.96875 46.046875 24.75 46.046875 
Q 31.34375 46.046875 35.59375 42.546875 
Q 39.84375 39.0625 39.84375 35.296875 
Q 39.84375 33.453125 38.640625 32.296875 
Q 37.453125 31.15625 35.296875 31.15625 
Q 32.421875 31.15625 30.953125 33.015625 
Q 30.125 34.03125 29.859375 36.90625 
Q 29.59375 39.796875 27.875 41.3125 
Q 26.171875 42.78125 23.140625 42.78125 
Q 18.265625 42.78125 15.28125 39.15625 
Q 11.328125 34.375 11.328125 26.515625 
Q 11.328125 18.5 15.25 12.375 
Q 19.1875 6.25 25.875 6.25 
Q 30.671875 6.25 34.46875 9.515625 
Q 37.15625 11.765625 39.703125 17.671875 
z
" id="TimesNewRomanPSMT-99"/>
       <path d="M 16.40625 36.53125 
Q 21.296875 41.40625 22.171875 42.140625 
Q 24.359375 44 26.890625 45.015625 
Q 29.4375 46.046875 31.9375 46.046875 
Q 36.140625 46.046875 39.15625 43.59375 
Q 42.1875 41.15625 43.21875 36.53125 
Q 48.25 42.390625 51.703125 44.21875 
Q 55.171875 46.046875 58.84375 46.046875 
Q 62.40625 46.046875 65.15625 44.21875 
Q 67.921875 42.390625 69.53125 38.234375 
Q 70.609375 35.40625 70.609375 29.34375 
L 70.609375 10.109375 
Q 70.609375 5.90625 71.234375 4.34375 
Q 71.734375 3.265625 73.046875 2.515625 
Q 74.359375 1.765625 77.34375 1.765625 
L 77.34375 0 
L 55.28125 0 
L 55.28125 1.765625 
L 56.203125 1.765625 
Q 59.078125 1.765625 60.6875 2.875 
Q 61.8125 3.65625 62.3125 5.375 
Q 62.5 6.203125 62.5 10.109375 
L 62.5 29.34375 
Q 62.5 34.8125 61.1875 37.0625 
Q 59.28125 40.1875 55.078125 40.1875 
Q 52.484375 40.1875 49.875 38.890625 
Q 47.265625 37.59375 43.5625 34.078125 
L 43.453125 33.546875 
L 43.5625 31.453125 
L 43.5625 10.109375 
Q 43.5625 5.515625 44.0625 4.390625 
Q 44.578125 3.265625 45.984375 2.515625 
Q 47.40625 1.765625 50.828125 1.765625 
L 50.828125 0 
L 28.21875 0 
L 28.21875 1.765625 
Q 31.9375 1.765625 33.328125 2.640625 
Q 34.71875 3.515625 35.25 5.28125 
Q 35.5 6.109375 35.5 10.109375 
L 35.5 29.34375 
Q 35.5 34.8125 33.890625 37.203125 
Q 31.734375 40.328125 27.875 40.328125 
Q 25.25 40.328125 22.65625 38.921875 
Q 18.609375 36.765625 16.40625 34.078125 
L 16.40625 10.109375 
Q 16.40625 5.71875 17.015625 4.390625 
Q 17.625 3.078125 18.8125 2.421875 
Q 20.015625 1.765625 23.6875 1.765625 
L 23.6875 0 
L 1.5625 0 
L 1.5625 1.765625 
Q 4.640625 1.765625 5.859375 2.421875 
Q 7.078125 3.078125 7.703125 4.515625 
Q 8.34375 5.953125 8.34375 10.109375 
L 8.34375 27.203125 
Q 8.34375 34.578125 7.90625 36.71875 
Q 7.5625 38.328125 6.828125 38.9375 
Q 6.109375 39.546875 4.828125 39.546875 
Q 3.46875 39.546875 1.5625 38.8125 
L 0.828125 40.578125 
L 14.3125 46.046875 
L 16.40625 46.046875 
z
" id="TimesNewRomanPSMT-109"/>
      </defs>
      <g transform="translate(226.649241 624.5325)scale(0.12 -0.12)">
       <use xlink:href="#TimesNewRomanPSMT-103"/>
       <use x="50" xlink:href="#TimesNewRomanPSMT-108"/>
       <use x="77.783203" xlink:href="#TimesNewRomanPSMT-99"/>
       <use x="122.167969" xlink:href="#TimesNewRomanPSMT-109"/>
      </g>
     </g>
    </g>
    <g id="xtick_3">
     <g id="line2d_3">
      <g>
       <use style="stroke:#000000;stroke-width:0.8;" x="361.680714" xlink:href="#m18e895aee3" y="609.2"/>
      </g>
     </g>
     <g id="text_3">
      <!-- gldm -->
      <g transform="translate(349.346964 624.5325)scale(0.12 -0.12)">
       <use xlink:href="#TimesNewRomanPSMT-103"/>
       <use x="50" xlink:href="#TimesNewRomanPSMT-108"/>
       <use x="77.783203" xlink:href="#TimesNewRomanPSMT-100"/>
       <use x="127.783203" xlink:href="#TimesNewRomanPSMT-109"/>
      </g>
     </g>
    </g>
    <g id="xtick_4">
     <g id="line2d_4">
      <g>
       <use style="stroke:#000000;stroke-width:0.8;" x="484.715" xlink:href="#m18e895aee3" y="609.2"/>
      </g>
     </g>
     <g id="text_4">
      <!-- glrlm -->
      <g transform="translate(471.716562 624.5325)scale(0.12 -0.12)">
       <use xlink:href="#TimesNewRomanPSMT-103"/>
       <use x="50" xlink:href="#TimesNewRomanPSMT-108"/>
       <use x="77.783203" xlink:href="#TimesNewRomanPSMT-114"/>
       <use x="111.083984" xlink:href="#TimesNewRomanPSMT-108"/>
       <use x="138.867188" xlink:href="#TimesNewRomanPSMT-109"/>
      </g>
     </g>
    </g>
    <g id="xtick_5">
     <g id="line2d_5">
      <g>
       <use style="stroke:#000000;stroke-width:0.8;" x="607.749286" xlink:href="#m18e895aee3" y="609.2"/>
      </g>
     </g>
     <g id="text_5">
      <!-- glszm -->
      <defs>
       <path d="M 42 13.71875 
L 41.453125 0 
L 2 0 
L 2 1.765625 
L 31.6875 41.3125 
L 17.046875 41.3125 
Q 12.3125 41.3125 10.84375 40.703125 
Q 9.375 40.09375 8.453125 38.375 
Q 7.125 35.9375 6.9375 32.328125 
L 4.984375 32.328125 
L 5.28125 44.734375 
L 42.78125 44.734375 
L 42.78125 42.921875 
L 12.796875 3.265625 
L 29.109375 3.265625 
Q 34.234375 3.265625 36.0625 4.125 
Q 37.890625 4.984375 39.015625 7.125 
Q 39.796875 8.6875 40.328125 13.71875 
z
" id="TimesNewRomanPSMT-122"/>
      </defs>
      <g transform="translate(593.416786 624.5325)scale(0.12 -0.12)">
       <use xlink:href="#TimesNewRomanPSMT-103"/>
       <use x="50" xlink:href="#TimesNewRomanPSMT-108"/>
       <use x="77.783203" xlink:href="#TimesNewRomanPSMT-115"/>
       <use x="116.699219" xlink:href="#TimesNewRomanPSMT-122"/>
       <use x="161.083984" xlink:href="#TimesNewRomanPSMT-109"/>
      </g>
     </g>
    </g>
    <g id="xtick_6">
     <g id="line2d_6">
      <g>
       <use style="stroke:#000000;stroke-width:0.8;" x="730.783571" xlink:href="#m18e895aee3" y="609.2"/>
      </g>
     </g>
     <g id="text_6">
      <!-- ngtdm -->
      <defs>
       <path d="M 16.15625 36.578125 
Q 24.03125 46.046875 31.15625 46.046875 
Q 34.8125 46.046875 37.453125 44.21875 
Q 40.09375 42.390625 41.65625 38.1875 
Q 42.71875 35.25 42.71875 29.203125 
L 42.71875 10.109375 
Q 42.71875 5.859375 43.40625 4.34375 
Q 43.953125 3.125 45.140625 2.4375 
Q 46.34375 1.765625 49.5625 1.765625 
L 49.5625 0 
L 27.4375 0 
L 27.4375 1.765625 
L 28.375 1.765625 
Q 31.5 1.765625 32.734375 2.703125 
Q 33.984375 3.65625 34.46875 5.515625 
Q 34.671875 6.25 34.671875 10.109375 
L 34.671875 28.421875 
Q 34.671875 34.515625 33.078125 37.28125 
Q 31.5 40.046875 27.734375 40.046875 
Q 21.921875 40.046875 16.15625 33.6875 
L 16.15625 10.109375 
Q 16.15625 5.5625 16.703125 4.5 
Q 17.390625 3.078125 18.578125 2.421875 
Q 19.78125 1.765625 23.4375 1.765625 
L 23.4375 0 
L 1.3125 0 
L 1.3125 1.765625 
L 2.296875 1.765625 
Q 5.71875 1.765625 6.90625 3.484375 
Q 8.109375 5.21875 8.109375 10.109375 
L 8.109375 26.703125 
Q 8.109375 34.765625 7.734375 36.515625 
Q 7.375 38.28125 6.609375 38.90625 
Q 5.859375 39.546875 4.59375 39.546875 
Q 3.21875 39.546875 1.3125 38.8125 
L 0.59375 40.578125 
L 14.0625 46.046875 
L 16.15625 46.046875 
z
" id="TimesNewRomanPSMT-110"/>
      </defs>
      <g transform="translate(715.449821 624.5325)scale(0.12 -0.12)">
       <use xlink:href="#TimesNewRomanPSMT-110"/>
       <use x="50" xlink:href="#TimesNewRomanPSMT-103"/>
       <use x="100" xlink:href="#TimesNewRomanPSMT-116"/>
       <use x="127.783203" xlink:href="#TimesNewRomanPSMT-100"/>
       <use x="177.783203" xlink:href="#TimesNewRomanPSMT-109"/>
      </g>
     </g>
    </g>
    <g id="xtick_7">
     <g id="line2d_7">
      <g>
       <use style="stroke:#000000;stroke-width:0.8;" x="853.817857" xlink:href="#m18e895aee3" y="609.2"/>
      </g>
     </g>
     <g id="text_7">
      <!-- shape -->
      <defs>
       <path d="M 16.265625 69.4375 
L 16.265625 36.71875 
Q 21.6875 42.671875 24.859375 44.359375 
Q 28.03125 46.046875 31.203125 46.046875 
Q 35.015625 46.046875 37.75 43.9375 
Q 40.484375 41.84375 41.796875 37.359375 
Q 42.71875 34.234375 42.71875 25.921875 
L 42.71875 10.109375 
Q 42.71875 5.859375 43.40625 4.296875 
Q 43.890625 3.125 45.0625 2.4375 
Q 46.234375 1.765625 49.359375 1.765625 
L 49.359375 0 
L 27.390625 0 
L 27.390625 1.765625 
L 28.421875 1.765625 
Q 31.546875 1.765625 32.765625 2.703125 
Q 33.984375 3.65625 34.46875 5.515625 
Q 34.625 6.296875 34.625 10.109375 
L 34.625 25.921875 
Q 34.625 33.25 33.859375 35.546875 
Q 33.109375 37.84375 31.4375 38.984375 
Q 29.78125 40.140625 27.4375 40.140625 
Q 25.046875 40.140625 22.453125 38.859375 
Q 19.875 37.59375 16.265625 33.734375 
L 16.265625 10.109375 
Q 16.265625 5.515625 16.765625 4.390625 
Q 17.28125 3.265625 18.671875 2.515625 
Q 20.0625 1.765625 23.484375 1.765625 
L 23.484375 0 
L 1.3125 0 
L 1.3125 1.765625 
Q 4.296875 1.765625 6 2.6875 
Q 6.984375 3.171875 7.5625 4.53125 
Q 8.15625 5.90625 8.15625 10.109375 
L 8.15625 50.59375 
Q 8.15625 58.25 7.78125 60 
Q 7.421875 61.765625 6.65625 62.390625 
Q 5.90625 63.03125 4.640625 63.03125 
Q 3.609375 63.03125 1.3125 62.25 
L 0.640625 63.96875 
L 14.015625 69.4375 
z
" id="TimesNewRomanPSMT-104"/>
       <path d="M 28.46875 6.453125 
Q 21.578125 1.125 19.828125 0.296875 
Q 17.1875 -0.921875 14.203125 -0.921875 
Q 9.578125 -0.921875 6.5625 2.25 
Q 3.5625 5.421875 3.5625 10.59375 
Q 3.5625 13.875 5.03125 16.265625 
Q 7.03125 19.578125 11.984375 22.5 
Q 16.9375 25.4375 28.46875 29.640625 
L 28.46875 31.390625 
Q 28.46875 38.09375 26.34375 40.578125 
Q 24.21875 43.0625 20.171875 43.0625 
Q 17.09375 43.0625 15.28125 41.40625 
Q 13.421875 39.75 13.421875 37.59375 
L 13.53125 34.765625 
Q 13.53125 32.515625 12.375 31.296875 
Q 11.234375 30.078125 9.375 30.078125 
Q 7.5625 30.078125 6.421875 31.34375 
Q 5.28125 32.625 5.28125 34.8125 
Q 5.28125 39.015625 9.578125 42.53125 
Q 13.875 46.046875 21.625 46.046875 
Q 27.59375 46.046875 31.390625 44.046875 
Q 34.28125 42.53125 35.640625 39.3125 
Q 36.53125 37.203125 36.53125 30.71875 
L 36.53125 15.53125 
Q 36.53125 9.125 36.765625 7.6875 
Q 37.015625 6.25 37.578125 5.765625 
Q 38.140625 5.28125 38.875 5.28125 
Q 39.65625 5.28125 40.234375 5.609375 
Q 41.265625 6.25 44.1875 9.1875 
L 44.1875 6.453125 
Q 38.71875 -0.875 33.734375 -0.875 
Q 31.34375 -0.875 29.921875 0.78125 
Q 28.515625 2.4375 28.46875 6.453125 
z
M 28.46875 9.625 
L 28.46875 26.65625 
Q 21.09375 23.734375 18.953125 22.515625 
Q 15.09375 20.359375 13.421875 18.015625 
Q 11.765625 15.671875 11.765625 12.890625 
Q 11.765625 9.375 13.859375 7.046875 
Q 15.96875 4.734375 18.703125 4.734375 
Q 22.40625 4.734375 28.46875 9.625 
z
" id="TimesNewRomanPSMT-97"/>
       <path d="M -0.09375 40.28125 
L 13.671875 45.84375 
L 15.53125 45.84375 
L 15.53125 35.40625 
Q 19 41.3125 22.484375 43.671875 
Q 25.984375 46.046875 29.828125 46.046875 
Q 36.578125 46.046875 41.0625 40.765625 
Q 46.578125 34.328125 46.578125 23.96875 
Q 46.578125 12.40625 39.9375 4.828125 
Q 34.46875 -1.375 26.171875 -1.375 
Q 22.5625 -1.375 19.921875 -0.34375 
Q 17.96875 0.390625 15.53125 2.59375 
L 15.53125 -11.03125 
Q 15.53125 -15.625 16.09375 -16.859375 
Q 16.65625 -18.109375 18.046875 -18.84375 
Q 19.4375 -19.578125 23.09375 -19.578125 
L 23.09375 -21.390625 
L -0.34375 -21.390625 
L -0.34375 -19.578125 
L 0.875 -19.578125 
Q 3.5625 -19.625 5.46875 -18.5625 
Q 6.390625 -18.015625 6.90625 -16.8125 
Q 7.421875 -15.625 7.421875 -10.75 
L 7.421875 31.546875 
Q 7.421875 35.890625 7.03125 37.0625 
Q 6.640625 38.234375 5.78125 38.8125 
Q 4.9375 39.40625 3.46875 39.40625 
Q 2.296875 39.40625 0.484375 38.71875 
z
M 15.53125 32.515625 
L 15.53125 15.828125 
Q 15.53125 10.40625 15.96875 8.6875 
Q 16.65625 5.859375 19.3125 3.703125 
Q 21.96875 1.5625 26.03125 1.5625 
Q 30.90625 1.5625 33.9375 5.375 
Q 37.890625 10.359375 37.890625 19.390625 
Q 37.890625 29.640625 33.40625 35.15625 
Q 30.28125 38.96875 25.984375 38.96875 
Q 23.640625 38.96875 21.34375 37.796875 
Q 19.578125 36.921875 15.53125 32.515625 
z
" id="TimesNewRomanPSMT-112"/>
      </defs>
      <g transform="translate(840.15567 624.5325)scale(0.12 -0.12)">
       <use xlink:href="#TimesNewRomanPSMT-115"/>
       <use x="38.916016" xlink:href="#TimesNewRomanPSMT-104"/>
       <use x="88.916016" xlink:href="#TimesNewRomanPSMT-97"/>
       <use x="133.300781" xlink:href="#TimesNewRomanPSMT-112"/>
       <use x="183.300781" xlink:href="#TimesNewRomanPSMT-101"/>
      </g>
     </g>
    </g>
    <g id="text_8">
     <!-- group -->
     <defs>
      <path d="M 42.328125 44.734375 
L 42.328125 17.625 
Q 42.328125 9.859375 42.6875 8.125 
Q 43.0625 6.390625 43.859375 5.703125 
Q 44.671875 5.03125 45.75 5.03125 
Q 47.265625 5.03125 49.171875 5.859375 
L 49.859375 4.15625 
L 36.46875 -1.375 
L 34.28125 -1.375 
L 34.28125 8.109375 
Q 28.515625 1.859375 25.484375 0.234375 
Q 22.46875 -1.375 19.09375 -1.375 
Q 15.328125 -1.375 12.5625 0.796875 
Q 9.8125 2.984375 8.734375 6.390625 
Q 7.671875 9.8125 7.671875 16.0625 
L 7.671875 36.03125 
Q 7.671875 39.203125 6.984375 40.421875 
Q 6.296875 41.65625 4.953125 42.3125 
Q 3.609375 42.96875 0.09375 42.921875 
L 0.09375 44.734375 
L 15.765625 44.734375 
L 15.765625 14.796875 
Q 15.765625 8.546875 17.9375 6.59375 
Q 20.125 4.640625 23.1875 4.640625 
Q 25.296875 4.640625 27.953125 5.953125 
Q 30.609375 7.28125 34.28125 10.984375 
L 34.28125 36.328125 
Q 34.28125 40.140625 32.890625 41.484375 
Q 31.5 42.828125 27.09375 42.921875 
L 27.09375 44.734375 
z
" id="TimesNewRomanPSMT-117"/>
     </defs>
     <g transform="translate(470.717187 639.431875)scale(0.12 -0.12)">
      <use xlink:href="#TimesNewRomanPSMT-103"/>
      <use x="50" xlink:href="#TimesNewRomanPSMT-114"/>
      <use x="83.300781" xlink:href="#TimesNewRomanPSMT-111"/>
      <use x="133.300781" xlink:href="#TimesNewRomanPSMT-117"/>
      <use x="183.300781" xlink:href="#TimesNewRomanPSMT-112"/>
     </g>
    </g>
   </g>
   <g id="matplotlib.axis_2">
    <g id="ytick_1">
     <g id="line2d_8">
      <defs>
       <path d="M 0 0 
L -3.5 0 
" id="m9a6d6ede7b" style="stroke:#000000;stroke-width:0.8;"/>
      </defs>
      <g>
       <use style="stroke:#000000;stroke-width:0.8;" x="54.095" xlink:href="#m9a6d6ede7b" y="545.795"/>
      </g>
     </g>
     <g id="text_9">
      <!-- -0.25 -->
      <defs>
       <path d="M 4.046875 26.125 
L 29.296875 26.125 
L 29.296875 18.75 
L 4.046875 18.75 
z
" id="TimesNewRomanPSMT-45"/>
       <path d="M 3.609375 32.71875 
Q 3.609375 44.046875 7.03125 52.21875 
Q 10.453125 60.40625 16.109375 64.40625 
Q 20.515625 67.578125 25.203125 67.578125 
Q 32.8125 67.578125 38.875 59.8125 
Q 46.4375 50.203125 46.4375 33.734375 
Q 46.4375 22.21875 43.109375 14.15625 
Q 39.796875 6.109375 34.640625 2.46875 
Q 29.5 -1.171875 24.703125 -1.171875 
Q 15.234375 -1.171875 8.9375 10.015625 
Q 3.609375 19.4375 3.609375 32.71875 
z
M 13.1875 31.5 
Q 13.1875 17.828125 16.546875 9.1875 
Q 19.34375 1.90625 24.859375 1.90625 
Q 27.484375 1.90625 30.3125 4.265625 
Q 33.15625 6.640625 34.625 12.203125 
Q 36.859375 20.609375 36.859375 35.890625 
Q 36.859375 47.21875 34.515625 54.78125 
Q 32.765625 60.40625 29.984375 62.75 
Q 27.984375 64.359375 25.140625 64.359375 
Q 21.828125 64.359375 19.234375 61.375 
Q 15.71875 57.328125 14.453125 48.625 
Q 13.1875 39.9375 13.1875 31.5 
z
" id="TimesNewRomanPSMT-48"/>
       <path d="M 12.5 9.46875 
Q 14.796875 9.46875 16.359375 7.875 
Q 17.921875 6.296875 17.921875 4.046875 
Q 17.921875 1.8125 16.328125 0.21875 
Q 14.75 -1.375 12.5 -1.375 
Q 10.25 -1.375 8.65625 0.21875 
Q 7.078125 1.8125 7.078125 4.046875 
Q 7.078125 6.34375 8.65625 7.90625 
Q 10.25 9.46875 12.5 9.46875 
z
" id="TimesNewRomanPSMT-46"/>
       <path d="M 45.84375 12.75 
L 41.21875 0 
L 2.15625 0 
L 2.15625 1.8125 
Q 19.390625 17.53125 26.421875 27.484375 
Q 33.453125 37.453125 33.453125 45.703125 
Q 33.453125 52 29.59375 56.046875 
Q 25.734375 60.109375 20.359375 60.109375 
Q 15.484375 60.109375 11.59375 57.25 
Q 7.71875 54.390625 5.859375 48.875 
L 4.046875 48.875 
Q 5.28125 57.90625 10.328125 62.734375 
Q 15.375 67.578125 22.953125 67.578125 
Q 31 67.578125 36.390625 62.40625 
Q 41.796875 57.234375 41.796875 50.203125 
Q 41.796875 45.171875 39.453125 40.140625 
Q 35.84375 32.234375 27.734375 23.390625 
Q 15.578125 10.109375 12.546875 7.375 
L 29.828125 7.375 
Q 35.109375 7.375 37.234375 7.765625 
Q 39.359375 8.15625 41.0625 9.34375 
Q 42.78125 10.546875 44.046875 12.75 
z
" id="TimesNewRomanPSMT-50"/>
       <path d="M 43.40625 66.21875 
L 39.59375 57.90625 
L 19.671875 57.90625 
L 15.328125 49.03125 
Q 28.265625 47.125 35.84375 39.40625 
Q 42.328125 32.765625 42.328125 23.78125 
Q 42.328125 18.5625 40.203125 14.109375 
Q 38.09375 9.671875 34.859375 6.546875 
Q 31.640625 3.421875 27.6875 1.515625 
Q 22.078125 -1.171875 16.15625 -1.171875 
Q 10.203125 -1.171875 7.484375 0.84375 
Q 4.78125 2.875 4.78125 5.328125 
Q 4.78125 6.6875 5.90625 7.734375 
Q 7.03125 8.796875 8.734375 8.796875 
Q 10.015625 8.796875 10.96875 8.40625 
Q 11.921875 8.015625 14.203125 6.390625 
Q 17.875 3.859375 21.625 3.859375 
Q 27.34375 3.859375 31.65625 8.171875 
Q 35.984375 12.5 35.984375 18.703125 
Q 35.984375 24.703125 32.125 29.90625 
Q 28.265625 35.109375 21.484375 37.9375 
Q 16.15625 40.140625 6.984375 40.484375 
L 19.671875 66.21875 
z
" id="TimesNewRomanPSMT-53"/>
      </defs>
      <g transform="translate(22.099375 549.96125)scale(0.12 -0.12)">
       <use xlink:href="#TimesNewRomanPSMT-45"/>
       <use x="33.300781" xlink:href="#TimesNewRomanPSMT-48"/>
       <use x="83.300781" xlink:href="#TimesNewRomanPSMT-46"/>
       <use x="108.300781" xlink:href="#TimesNewRomanPSMT-50"/>
       <use x="158.300781" xlink:href="#TimesNewRomanPSMT-53"/>
      </g>
     </g>
    </g>
    <g id="ytick_2">
     <g id="line2d_9">
      <g>
       <use style="stroke:#000000;stroke-width:0.8;" x="54.095" xlink:href="#m9a6d6ede7b" y="464.878703"/>
      </g>
     </g>
     <g id="text_10">
      <!-- 0.00 -->
      <g transform="translate(26.095 469.044953)scale(0.12 -0.12)">
       <use xlink:href="#TimesNewRomanPSMT-48"/>
       <use x="50" xlink:href="#TimesNewRomanPSMT-46"/>
       <use x="75" xlink:href="#TimesNewRomanPSMT-48"/>
       <use x="125" xlink:href="#TimesNewRomanPSMT-48"/>
      </g>
     </g>
    </g>
    <g id="ytick_3">
     <g id="line2d_10">
      <g>
       <use style="stroke:#000000;stroke-width:0.8;" x="54.095" xlink:href="#m9a6d6ede7b" y="383.962405"/>
      </g>
     </g>
     <g id="text_11">
      <!-- 0.25 -->
      <g transform="translate(26.095 388.128655)scale(0.12 -0.12)">
       <use xlink:href="#TimesNewRomanPSMT-48"/>
       <use x="50" xlink:href="#TimesNewRomanPSMT-46"/>
       <use x="75" xlink:href="#TimesNewRomanPSMT-50"/>
       <use x="125" xlink:href="#TimesNewRomanPSMT-53"/>
      </g>
     </g>
    </g>
    <g id="ytick_4">
     <g id="line2d_11">
      <g>
       <use style="stroke:#000000;stroke-width:0.8;" x="54.095" xlink:href="#m9a6d6ede7b" y="303.046108"/>
      </g>
     </g>
     <g id="text_12">
      <!-- 0.50 -->
      <g transform="translate(26.095 307.212358)scale(0.12 -0.12)">
       <use xlink:href="#TimesNewRomanPSMT-48"/>
       <use x="50" xlink:href="#TimesNewRomanPSMT-46"/>
       <use x="75" xlink:href="#TimesNewRomanPSMT-53"/>
       <use x="125" xlink:href="#TimesNewRomanPSMT-48"/>
      </g>
     </g>
    </g>
    <g id="ytick_5">
     <g id="line2d_12">
      <g>
       <use style="stroke:#000000;stroke-width:0.8;" x="54.095" xlink:href="#m9a6d6ede7b" y="222.12981"/>
      </g>
     </g>
     <g id="text_13">
      <!-- 0.75 -->
      <defs>
       <path d="M 10.0625 66.21875 
L 45.5625 66.21875 
L 45.5625 64.359375 
L 23.484375 -1.375 
L 18.015625 -1.375 
L 37.796875 58.25 
L 19.578125 58.25 
Q 14.0625 58.25 11.71875 56.9375 
Q 7.625 54.6875 5.125 50 
L 3.71875 50.53125 
z
" id="TimesNewRomanPSMT-55"/>
      </defs>
      <g transform="translate(26.095 226.29606)scale(0.12 -0.12)">
       <use xlink:href="#TimesNewRomanPSMT-48"/>
       <use x="50" xlink:href="#TimesNewRomanPSMT-46"/>
       <use x="75" xlink:href="#TimesNewRomanPSMT-55"/>
       <use x="125" xlink:href="#TimesNewRomanPSMT-53"/>
      </g>
     </g>
    </g>
    <g id="ytick_6">
     <g id="line2d_13">
      <g>
       <use style="stroke:#000000;stroke-width:0.8;" x="54.095" xlink:href="#m9a6d6ede7b" y="141.213513"/>
      </g>
     </g>
     <g id="text_14">
      <!-- 1.00 -->
      <defs>
       <path d="M 11.71875 59.71875 
L 27.828125 67.578125 
L 29.4375 67.578125 
L 29.4375 11.671875 
Q 29.4375 6.109375 29.90625 4.734375 
Q 30.375 3.375 31.828125 2.640625 
Q 33.296875 1.90625 37.796875 1.8125 
L 37.796875 0 
L 12.890625 0 
L 12.890625 1.8125 
Q 17.578125 1.90625 18.9375 2.609375 
Q 20.3125 3.328125 20.84375 4.515625 
Q 21.390625 5.71875 21.390625 11.671875 
L 21.390625 47.40625 
Q 21.390625 54.640625 20.90625 56.6875 
Q 20.5625 58.25 19.65625 58.984375 
Q 18.75 59.71875 17.484375 59.71875 
Q 15.671875 59.71875 12.453125 58.203125 
z
" id="TimesNewRomanPSMT-49"/>
      </defs>
      <g transform="translate(26.095 145.379763)scale(0.12 -0.12)">
       <use xlink:href="#TimesNewRomanPSMT-49"/>
       <use x="50" xlink:href="#TimesNewRomanPSMT-46"/>
       <use x="75" xlink:href="#TimesNewRomanPSMT-48"/>
       <use x="125" xlink:href="#TimesNewRomanPSMT-48"/>
      </g>
     </g>
    </g>
    <g id="ytick_7">
     <g id="line2d_14">
      <g>
       <use style="stroke:#000000;stroke-width:0.8;" x="54.095" xlink:href="#m9a6d6ede7b" y="60.297215"/>
      </g>
     </g>
     <g id="text_15">
      <!-- 1.25 -->
      <g transform="translate(26.095 64.463465)scale(0.12 -0.12)">
       <use xlink:href="#TimesNewRomanPSMT-49"/>
       <use x="50" xlink:href="#TimesNewRomanPSMT-46"/>
       <use x="75" xlink:href="#TimesNewRomanPSMT-50"/>
       <use x="125" xlink:href="#TimesNewRomanPSMT-53"/>
      </g>
     </g>
    </g>
    <g id="text_16">
     <!-- pvalue -->
     <defs>
      <path d="M 0.828125 44.734375 
L 21.875 44.734375 
L 21.875 42.921875 
L 20.515625 42.921875 
Q 18.609375 42.921875 17.609375 41.984375 
Q 16.609375 41.0625 16.609375 39.5 
Q 16.609375 37.796875 17.625 35.453125 
L 28.03125 10.75 
L 38.484375 36.375 
Q 39.59375 39.109375 39.59375 40.53125 
Q 39.59375 41.21875 39.203125 41.65625 
Q 38.671875 42.390625 37.84375 42.65625 
Q 37.015625 42.921875 34.46875 42.921875 
L 34.46875 44.734375 
L 49.078125 44.734375 
L 49.078125 42.921875 
Q 46.53125 42.71875 45.5625 41.890625 
Q 43.84375 40.4375 42.484375 37.015625 
L 26.609375 -1.375 
L 24.609375 -1.375 
L 8.640625 36.375 
Q 7.5625 39.015625 6.578125 40.15625 
Q 5.609375 41.3125 4.109375 42.09375 
Q 3.265625 42.53125 0.828125 42.921875 
z
" id="TimesNewRomanPSMT-118"/>
     </defs>
     <g transform="translate(15.5325 324.19375)rotate(-90)scale(0.12 -0.12)">
      <use xlink:href="#TimesNewRomanPSMT-112"/>
      <use x="50" xlink:href="#TimesNewRomanPSMT-118"/>
      <use x="100" xlink:href="#TimesNewRomanPSMT-97"/>
      <use x="144.384766" xlink:href="#TimesNewRomanPSMT-108"/>
      <use x="172.167969" xlink:href="#TimesNewRomanPSMT-117"/>
      <use x="222.167969" xlink:href="#TimesNewRomanPSMT-101"/>
     </g>
    </g>
   </g>
   <g id="line2d_15">
    <path clip-path="url(#p24c3271108)" d="M 115.612143 464.555037 
L 115.612143 151.844963 
" style="fill:none;stroke:#3d3d3d;stroke-linecap:square;stroke-width:1.5;"/>
   </g>
   <g id="line2d_16">
    <path clip-path="url(#p24c3271108)" d="M 115.612143 451.779271 
L 115.612143 273.391522 
" style="fill:none;stroke:#3d3d3d;stroke-linecap:square;stroke-width:4.5;"/>
   </g>
   <g id="line2d_17">
    <path clip-path="url(#p24c3271108)" d="M 238.646429 464.555037 
L 238.646429 254.312317 
" style="fill:none;stroke:#3d3d3d;stroke-linecap:square;stroke-width:1.5;"/>
   </g>
   <g id="line2d_18">
    <path clip-path="url(#p24c3271108)" d="M 238.646429 463.726983 
L 238.646429 374.955113 
" style="fill:none;stroke:#3d3d3d;stroke-linecap:square;stroke-width:4.5;"/>
   </g>
   <g id="line2d_19">
    <path clip-path="url(#p24c3271108)" d="M 361.680714 464.555037 
L 361.680714 432.273572 
" style="fill:none;stroke:#3d3d3d;stroke-linecap:square;stroke-width:1.5;"/>
   </g>
   <g id="line2d_20">
    <path clip-path="url(#p24c3271108)" d="M 361.680714 461.86962 
L 361.680714 437.274191 
" style="fill:none;stroke:#3d3d3d;stroke-linecap:square;stroke-width:4.5;"/>
   </g>
   <g id="line2d_21">
    <path clip-path="url(#p24c3271108)" d="M 484.715 464.555037 
L 484.715 310.626352 
" style="fill:none;stroke:#3d3d3d;stroke-linecap:square;stroke-width:1.5;"/>
   </g>
   <g id="line2d_22">
    <path clip-path="url(#p24c3271108)" d="M 484.715 463.094231 
L 484.715 385.407933 
" style="fill:none;stroke:#3d3d3d;stroke-linecap:square;stroke-width:4.5;"/>
   </g>
   <g id="line2d_23">
    <path clip-path="url(#p24c3271108)" d="M 607.749286 464.555037 
L 607.749286 200.049673 
" style="fill:none;stroke:#3d3d3d;stroke-linecap:square;stroke-width:1.5;"/>
   </g>
   <g id="line2d_24">
    <path clip-path="url(#p24c3271108)" d="M 607.749286 460.96752 
L 607.749286 315.791046 
" style="fill:none;stroke:#3d3d3d;stroke-linecap:square;stroke-width:4.5;"/>
   </g>
   <g id="line2d_25">
    <path clip-path="url(#p24c3271108)" d="M 730.783571 464.425081 
L 730.783571 446.295186 
" style="fill:none;stroke:#3d3d3d;stroke-linecap:square;stroke-width:1.5;"/>
   </g>
   <g id="line2d_26">
    <path clip-path="url(#p24c3271108)" d="M 730.783571 464.323439 
L 730.783571 446.295186 
" style="fill:none;stroke:#3d3d3d;stroke-linecap:square;stroke-width:4.5;"/>
   </g>
   <g id="line2d_27">
    <path clip-path="url(#p24c3271108)" d="M 853.817857 456.535823 
L 853.817857 226.212611 
" style="fill:none;stroke:#3d3d3d;stroke-linecap:square;stroke-width:1.5;"/>
   </g>
   <g id="line2d_28">
    <path clip-path="url(#p24c3271108)" d="M 853.817857 422.845797 
L 853.817857 326.603299 
" style="fill:none;stroke:#3d3d3d;stroke-linecap:square;stroke-width:4.5;"/>
   </g>
   <g id="patch_3">
    <path d="M 54.095 609.2 
L 54.095 7.2 
" style="fill:none;stroke:#000000;stroke-linecap:square;stroke-linejoin:miter;stroke-width:0.8;"/>
   </g>
   <g id="patch_4">
    <path d="M 54.095 609.2 
L 915.335 609.2 
" style="fill:none;stroke:#000000;stroke-linecap:square;stroke-linejoin:miter;stroke-width:0.8;"/>
   </g>
   <g id="PathCollection_1">
    <defs>
     <path d="M 0 1.5 
C 0.397805 1.5 0.77937 1.341951 1.06066 1.06066 
C 1.341951 0.77937 1.5 0.397805 1.5 0 
C 1.5 -0.397805 1.341951 -0.77937 1.06066 -1.06066 
C 0.77937 -1.341951 0.397805 -1.5 0 -1.5 
C -0.397805 -1.5 -0.77937 -1.341951 -1.06066 -1.06066 
C -1.341951 -0.77937 -1.5 -0.397805 -1.5 0 
C -1.5 0.397805 -1.341951 0.77937 -1.06066 1.06066 
C -0.77937 1.341951 -0.397805 1.5 0 1.5 
z
" id="m962c7189a8" style="stroke:#3d3d3d;"/>
    </defs>
    <g clip-path="url(#p24c3271108)">
     <use style="fill:#ffffff;stroke:#3d3d3d;" x="115.612143" xlink:href="#m962c7189a8" y="318.534358"/>
    </g>
   </g>
   <g id="PathCollection_2">
    <g clip-path="url(#p24c3271108)">
     <use style="fill:#ffffff;stroke:#3d3d3d;" x="238.646429" xlink:href="#m962c7189a8" y="456.037776"/>
    </g>
   </g>
   <g id="PathCollection_3">
    <g clip-path="url(#p24c3271108)">
     <use style="fill:#ffffff;stroke:#3d3d3d;" x="361.680714" xlink:href="#m962c7189a8" y="455.689625"/>
    </g>
   </g>
   <g id="PathCollection_4">
    <g clip-path="url(#p24c3271108)">
     <use style="fill:#ffffff;stroke:#3d3d3d;" x="484.715" xlink:href="#m962c7189a8" y="450.168997"/>
    </g>
   </g>
   <g id="PathCollection_5">
    <g clip-path="url(#p24c3271108)">
     <use style="fill:#ffffff;stroke:#3d3d3d;" x="607.749286" xlink:href="#m962c7189a8" y="455.480353"/>
    </g>
   </g>
   <g id="PathCollection_6">
    <g clip-path="url(#p24c3271108)">
     <use style="fill:#ffffff;stroke:#3d3d3d;" x="730.783571" xlink:href="#m962c7189a8" y="451.537465"/>
    </g>
   </g>
   <g id="PathCollection_7">
    <g clip-path="url(#p24c3271108)">
     <use style="fill:#ffffff;stroke:#3d3d3d;" x="853.817857" xlink:href="#m962c7189a8" y="389.36603"/>
    </g>
   </g>
   <g id="PathCollection_8">
    <defs>
     <path d="M 0 2.5 
C 0.663008 2.5 1.29895 2.236584 1.767767 1.767767 
C 2.236584 1.29895 2.5 0.663008 2.5 0 
C 2.5 -0.663008 2.236584 -1.29895 1.767767 -1.767767 
C 1.29895 -2.236584 0.663008 -2.5 0 -2.5 
C -0.663008 -2.5 -1.29895 -2.236584 -1.767767 -1.767767 
C -2.236584 -1.29895 -2.5 -0.663008 -2.5 0 
C -2.5 0.663008 -2.236584 1.29895 -1.767767 1.767767 
C -1.29895 2.236584 -0.663008 2.5 0 2.5 
z
" id="C0_0_ada4e3c9c3"/>
    </defs>
    <g clip-path="url(#p24c3271108)">
     <use x="112.802262" xlink:href="#C0_0_ada4e3c9c3" y="270.893142"/>
    </g>
    <g clip-path="url(#p24c3271108)">
     <use x="126.984889" xlink:href="#C0_0_ada4e3c9c3" y="280.886661"/>
    </g>
    <g clip-path="url(#p24c3271108)">
     <use x="119.658167" xlink:href="#C0_0_ada4e3c9c3" y="151.844963"/>
    </g>
    <g clip-path="url(#p24c3271108)">
     <use x="120.472972" xlink:href="#C0_0_ada4e3c9c3" y="350.747951"/>
    </g>
    <g clip-path="url(#p24c3271108)">
     <use x="127.543598" xlink:href="#C0_0_ada4e3c9c3" y="227.696171"/>
    </g>
    <g clip-path="url(#p24c3271108)">
     <use x="126.614107" xlink:href="#C0_0_ada4e3c9c3" y="464.493723"/>
    </g>
    <g clip-path="url(#p24c3271108)">
     <use x="119.096006" xlink:href="#C0_0_ada4e3c9c3" y="289.908297"/>
    </g>
    <g clip-path="url(#p24c3271108)">
     <use x="104.805201" xlink:href="#C0_0_ada4e3c9c3" y="212.037527"/>
    </g>
    <g clip-path="url(#p24c3271108)">
     <use x="120.069182" xlink:href="#C0_0_ada4e3c9c3" y="440.710107"/>
    </g>
    <g clip-path="url(#p24c3271108)">
     <use x="121.641758" xlink:href="#C0_0_ada4e3c9c3" y="321.765215"/>
    </g>
    <g clip-path="url(#p24c3271108)">
     <use x="127.604181" xlink:href="#C0_0_ada4e3c9c3" y="463.578601"/>
    </g>
    <g clip-path="url(#p24c3271108)">
     <use x="123.940104" xlink:href="#C0_0_ada4e3c9c3" y="463.554359"/>
    </g>
    <g clip-path="url(#p24c3271108)">
     <use x="123.236993" xlink:href="#C0_0_ada4e3c9c3" y="315.303501"/>
    </g>
    <g clip-path="url(#p24c3271108)">
     <use x="117.277147" xlink:href="#C0_0_ada4e3c9c3" y="285.5853"/>
    </g>
    <g clip-path="url(#p24c3271108)">
     <use x="118.84146" xlink:href="#C0_0_ada4e3c9c3" y="464.555037"/>
    </g>
    <g clip-path="url(#p24c3271108)">
     <use x="127.904301" xlink:href="#C0_0_ada4e3c9c3" y="378.71701"/>
    </g>
    <g clip-path="url(#p24c3271108)">
     <use x="103.361947" xlink:href="#C0_0_ada4e3c9c3" y="196.983492"/>
    </g>
    <g clip-path="url(#p24c3271108)">
     <use x="127.235928" xlink:href="#C0_0_ada4e3c9c3" y="455.468992"/>
    </g>
   </g>
   <g id="PathCollection_9">
    <defs>
     <path d="M 0 2.5 
C 0.663008 2.5 1.29895 2.236584 1.767767 1.767767 
C 2.236584 1.29895 2.5 0.663008 2.5 0 
C 2.5 -0.663008 2.236584 -1.29895 1.767767 -1.767767 
C 1.29895 -2.236584 0.663008 -2.5 0 -2.5 
C -0.663008 -2.5 -1.29895 -2.236584 -1.767767 -1.767767 
C -2.236584 -1.29895 -2.5 -0.663008 -2.5 0 
C -2.5 0.663008 -2.236584 1.29895 -1.767767 1.767767 
C -1.29895 2.236584 -0.663008 2.5 0 2.5 
z
" id="C1_0_097ceb6846"/>
    </defs>
    <g clip-path="url(#p24c3271108)">
     <use x="234.668395" xlink:href="#C1_0_097ceb6846" y="463.759266"/>
    </g>
    <g clip-path="url(#p24c3271108)">
     <use x="248.717155" xlink:href="#C1_0_097ceb6846" y="463.953508"/>
    </g>
    <g clip-path="url(#p24c3271108)">
     <use x="238.674235" xlink:href="#C1_0_097ceb6846" y="464.555037"/>
    </g>
    <g clip-path="url(#p24c3271108)">
     <use x="233.861389" xlink:href="#C1_0_097ceb6846" y="453.318658"/>
    </g>
    <g clip-path="url(#p24c3271108)">
     <use x="233.296012" xlink:href="#C1_0_097ceb6846" y="205.849405"/>
    </g>
    <g clip-path="url(#p24c3271108)">
     <use x="234.385699" xlink:href="#C1_0_097ceb6846" y="458.756893"/>
    </g>
    <g clip-path="url(#p24c3271108)">
     <use x="250.278654" xlink:href="#C1_0_097ceb6846" y="335.342563"/>
    </g>
    <g clip-path="url(#p24c3271108)">
     <use x="228.960361" xlink:href="#C1_0_097ceb6846" y="180.413067"/>
    </g>
    <g clip-path="url(#p24c3271108)">
     <use x="241.341493" xlink:href="#C1_0_097ceb6846" y="254.312317"/>
    </g>
    <g clip-path="url(#p24c3271108)">
     <use x="236.679354" xlink:href="#C1_0_097ceb6846" y="413.075204"/>
    </g>
    <g clip-path="url(#p24c3271108)">
     <use x="239.113415" xlink:href="#C1_0_097ceb6846" y="411.043208"/>
    </g>
    <g clip-path="url(#p24c3271108)">
     <use x="240.765706" xlink:href="#C1_0_097ceb6846" y="464.555037"/>
    </g>
    <g clip-path="url(#p24c3271108)">
     <use x="236.252547" xlink:href="#C1_0_097ceb6846" y="464.555037"/>
    </g>
    <g clip-path="url(#p24c3271108)">
     <use x="248.973242" xlink:href="#C1_0_097ceb6846" y="462.386046"/>
    </g>
    <g clip-path="url(#p24c3271108)">
     <use x="227.838175" xlink:href="#C1_0_097ceb6846" y="463.677284"/>
    </g>
    <g clip-path="url(#p24c3271108)">
     <use x="239.818213" xlink:href="#C1_0_097ceb6846" y="461.594348"/>
    </g>
    <g clip-path="url(#p24c3271108)">
     <use x="247.891035" xlink:href="#C1_0_097ceb6846" y="463.716222"/>
    </g>
    <g clip-path="url(#p24c3271108)">
     <use x="227.098585" xlink:href="#C1_0_097ceb6846" y="388.159296"/>
    </g>
    <g clip-path="url(#p24c3271108)">
     <use x="243.838251" xlink:href="#C1_0_097ceb6846" y="183.782135"/>
    </g>
    <g clip-path="url(#p24c3271108)">
     <use x="246.826172" xlink:href="#C1_0_097ceb6846" y="463.948306"/>
    </g>
    <g clip-path="url(#p24c3271108)">
     <use x="229.601729" xlink:href="#C1_0_097ceb6846" y="438.789293"/>
    </g>
    <g clip-path="url(#p24c3271108)">
     <use x="232.224134" xlink:href="#C1_0_097ceb6846" y="463.716222"/>
    </g>
    <g clip-path="url(#p24c3271108)">
     <use x="237.918125" xlink:href="#C1_0_097ceb6846" y="311.108079"/>
    </g>
    <g clip-path="url(#p24c3271108)">
     <use x="227.760865" xlink:href="#C1_0_097ceb6846" y="434.576085"/>
    </g>
   </g>
   <g id="PathCollection_10">
    <defs>
     <path d="M 0 2.5 
C 0.663008 2.5 1.29895 2.236584 1.767767 1.767767 
C 2.236584 1.29895 2.5 0.663008 2.5 0 
C 2.5 -0.663008 2.236584 -1.29895 1.767767 -1.767767 
C 1.29895 -2.236584 0.663008 -2.5 0 -2.5 
C -0.663008 -2.5 -1.29895 -2.236584 -1.767767 -1.767767 
C -2.236584 -1.29895 -2.5 -0.663008 -2.5 0 
C -2.5 0.663008 -2.236584 1.29895 -1.767767 1.767767 
C -1.29895 2.236584 -0.663008 2.5 0 2.5 
z
" id="C2_0_c8fc65fe8f"/>
    </defs>
    <g clip-path="url(#p24c3271108)">
     <use x="353.726302" xlink:href="#C2_0_c8fc65fe8f" y="456.785583"/>
    </g>
    <g clip-path="url(#p24c3271108)">
     <use x="351.455763" xlink:href="#C2_0_c8fc65fe8f" y="275.757148"/>
    </g>
    <g clip-path="url(#p24c3271108)">
     <use x="353.124207" xlink:href="#C2_0_c8fc65fe8f" y="462.29746"/>
    </g>
    <g clip-path="url(#p24c3271108)">
     <use x="369.592763" xlink:href="#C2_0_c8fc65fe8f" y="457.058115"/>
    </g>
    <g clip-path="url(#p24c3271108)">
     <use x="367.307076" xlink:href="#C2_0_c8fc65fe8f" y="202.902347"/>
    </g>
    <g clip-path="url(#p24c3271108)">
     <use x="370.929029" xlink:href="#C2_0_c8fc65fe8f" y="454.593668"/>
    </g>
    <g clip-path="url(#p24c3271108)">
     <use x="373.804284" xlink:href="#C2_0_c8fc65fe8f" y="463.625588"/>
    </g>
    <g clip-path="url(#p24c3271108)">
     <use x="367.818218" xlink:href="#C2_0_c8fc65fe8f" y="452.97961"/>
    </g>
    <g clip-path="url(#p24c3271108)">
     <use x="370.862207" xlink:href="#C2_0_c8fc65fe8f" y="464.555037"/>
    </g>
    <g clip-path="url(#p24c3271108)">
     <use x="350.303338" xlink:href="#C2_0_c8fc65fe8f" y="432.273572"/>
    </g>
    <g clip-path="url(#p24c3271108)">
     <use x="356.061922" xlink:href="#C2_0_c8fc65fe8f" y="463.800854"/>
    </g>
    <g clip-path="url(#p24c3271108)">
     <use x="365.956844" xlink:href="#C2_0_c8fc65fe8f" y="333.448319"/>
    </g>
    <g clip-path="url(#p24c3271108)">
     <use x="364.013899" xlink:href="#C2_0_c8fc65fe8f" y="452.276051"/>
    </g>
    <g clip-path="url(#p24c3271108)">
     <use x="363.873652" xlink:href="#C2_0_c8fc65fe8f" y="460.586097"/>
    </g>
   </g>
   <g id="PathCollection_11">
    <defs>
     <path d="M 0 2.5 
C 0.663008 2.5 1.29895 2.236584 1.767767 1.767767 
C 2.236584 1.29895 2.5 0.663008 2.5 0 
C 2.5 -0.663008 2.236584 -1.29895 1.767767 -1.767767 
C 1.29895 -2.236584 0.663008 -2.5 0 -2.5 
C -0.663008 -2.5 -1.29895 -2.236584 -1.767767 -1.767767 
C -2.236584 -1.29895 -2.5 -0.663008 -2.5 0 
C -2.5 0.663008 -2.236584 1.29895 -1.767767 1.767767 
C -1.29895 2.236584 -0.663008 2.5 0 2.5 
z
" id="C3_0_850c4b0eb8"/>
    </defs>
    <g clip-path="url(#p24c3271108)">
     <use x="473.393519" xlink:href="#C3_0_850c4b0eb8" y="328.849174"/>
    </g>
    <g clip-path="url(#p24c3271108)">
     <use x="474.378431" xlink:href="#C3_0_850c4b0eb8" y="390.457182"/>
    </g>
    <g clip-path="url(#p24c3271108)">
     <use x="495.29778" xlink:href="#C3_0_850c4b0eb8" y="462.862633"/>
    </g>
    <g clip-path="url(#p24c3271108)">
     <use x="494.520234" xlink:href="#C3_0_850c4b0eb8" y="463.370257"/>
    </g>
    <g clip-path="url(#p24c3271108)">
     <use x="493.476884" xlink:href="#C3_0_850c4b0eb8" y="355.604733"/>
    </g>
    <g clip-path="url(#p24c3271108)">
     <use x="487.73364" xlink:href="#C3_0_850c4b0eb8" y="464.555037"/>
    </g>
    <g clip-path="url(#p24c3271108)">
     <use x="477.67158" xlink:href="#C3_0_850c4b0eb8" y="454.593668"/>
    </g>
    <g clip-path="url(#p24c3271108)">
     <use x="488.135423" xlink:href="#C3_0_850c4b0eb8" y="463.002222"/>
    </g>
    <g clip-path="url(#p24c3271108)">
     <use x="481.152541" xlink:href="#C3_0_850c4b0eb8" y="464.555037"/>
    </g>
    <g clip-path="url(#p24c3271108)">
     <use x="486.262946" xlink:href="#C3_0_850c4b0eb8" y="310.626352"/>
    </g>
    <g clip-path="url(#p24c3271108)">
     <use x="482.049185" xlink:href="#C3_0_850c4b0eb8" y="432.799052"/>
    </g>
    <g clip-path="url(#p24c3271108)">
     <use x="489.40598" xlink:href="#C3_0_850c4b0eb8" y="445.744327"/>
    </g>
    <g clip-path="url(#p24c3271108)">
     <use x="487.380338" xlink:href="#C3_0_850c4b0eb8" y="370.260184"/>
    </g>
    <g clip-path="url(#p24c3271108)">
     <use x="482.784428" xlink:href="#C3_0_850c4b0eb8" y="402.226789"/>
    </g>
    <g clip-path="url(#p24c3271108)">
     <use x="480.763327" xlink:href="#C3_0_850c4b0eb8" y="459.488745"/>
    </g>
    <g clip-path="url(#p24c3271108)">
     <use x="486.672787" xlink:href="#C3_0_850c4b0eb8" y="463.988452"/>
    </g>
   </g>
   <g id="PathCollection_12">
    <defs>
     <path d="M 0 2.5 
C 0.663008 2.5 1.29895 2.236584 1.767767 1.767767 
C 2.236584 1.29895 2.5 0.663008 2.5 0 
C 2.5 -0.663008 2.236584 -1.29895 1.767767 -1.767767 
C 1.29895 -2.236584 0.663008 -2.5 0 -2.5 
C -0.663008 -2.5 -1.29895 -2.236584 -1.767767 -1.767767 
C -2.236584 -1.29895 -2.5 -0.663008 -2.5 0 
C -2.5 0.663008 -2.236584 1.29895 -1.767767 1.767767 
C -1.29895 2.236584 -0.663008 2.5 0 2.5 
z
" id="C4_0_3cc5d41fd5"/>
    </defs>
    <g clip-path="url(#p24c3271108)">
     <use x="603.344822" xlink:href="#C4_0_3cc5d41fd5" y="262.47168"/>
    </g>
    <g clip-path="url(#p24c3271108)">
     <use x="597.803367" xlink:href="#C4_0_3cc5d41fd5" y="453.931863"/>
    </g>
    <g clip-path="url(#p24c3271108)">
     <use x="598.324223" xlink:href="#C4_0_3cc5d41fd5" y="457.028842"/>
    </g>
    <g clip-path="url(#p24c3271108)">
     <use x="608.571085" xlink:href="#C4_0_3cc5d41fd5" y="462.111787"/>
    </g>
    <g clip-path="url(#p24c3271108)">
     <use x="618.003305" xlink:href="#C4_0_3cc5d41fd5" y="303.462924"/>
    </g>
    <g clip-path="url(#p24c3271108)">
     <use x="605.771605" xlink:href="#C4_0_3cc5d41fd5" y="428.128451"/>
    </g>
    <g clip-path="url(#p24c3271108)">
     <use x="608.121383" xlink:href="#C4_0_3cc5d41fd5" y="457.720974"/>
    </g>
    <g clip-path="url(#p24c3271108)">
     <use x="610.501155" xlink:href="#C4_0_3cc5d41fd5" y="460.586097"/>
    </g>
    <g clip-path="url(#p24c3271108)">
     <use x="596.532806" xlink:href="#C4_0_3cc5d41fd5" y="450.762537"/>
    </g>
    <g clip-path="url(#p24c3271108)">
     <use x="597.620114" xlink:href="#C4_0_3cc5d41fd5" y="464.345306"/>
    </g>
    <g clip-path="url(#p24c3271108)">
     <use x="598.486881" xlink:href="#C4_0_3cc5d41fd5" y="464.555037"/>
    </g>
    <g clip-path="url(#p24c3271108)">
     <use x="615.283897" xlink:href="#C4_0_3cc5d41fd5" y="463.625588"/>
    </g>
    <g clip-path="url(#p24c3271108)">
     <use x="614.557814" xlink:href="#C4_0_3cc5d41fd5" y="457.939579"/>
    </g>
    <g clip-path="url(#p24c3271108)">
     <use x="611.979452" xlink:href="#C4_0_3cc5d41fd5" y="200.049673"/>
    </g>
    <g clip-path="url(#p24c3271108)">
     <use x="612.046171" xlink:href="#C4_0_3cc5d41fd5" y="319.90042"/>
    </g>
    <g clip-path="url(#p24c3271108)">
     <use x="613.269885" xlink:href="#C4_0_3cc5d41fd5" y="301.036406"/>
    </g>
   </g>
   <g id="PathCollection_13">
    <defs>
     <path d="M 0 2.5 
C 0.663008 2.5 1.29895 2.236584 1.767767 1.767767 
C 2.236584 1.29895 2.5 0.663008 2.5 0 
C 2.5 -0.663008 2.236584 -1.29895 1.767767 -1.767767 
C 1.29895 -2.236584 0.663008 -2.5 0 -2.5 
C -0.663008 -2.5 -1.29895 -2.236584 -1.767767 -1.767767 
C -2.236584 -1.29895 -2.5 -0.663008 -2.5 0 
C -2.5 0.663008 -2.236584 1.29895 -1.767767 1.767767 
C -1.29895 2.236584 -0.663008 2.5 0 2.5 
z
" id="C5_0_053b893a8a"/>
    </defs>
    <g clip-path="url(#p24c3271108)">
     <use x="741.090966" xlink:href="#C5_0_053b893a8a" y="464.425081"/>
    </g>
    <g clip-path="url(#p24c3271108)">
     <use x="738.452697" xlink:href="#C5_0_053b893a8a" y="328.849174"/>
    </g>
    <g clip-path="url(#p24c3271108)">
     <use x="740.9077" xlink:href="#C5_0_053b893a8a" y="446.295186"/>
    </g>
    <g clip-path="url(#p24c3271108)">
     <use x="722.335155" xlink:href="#C5_0_053b893a8a" y="451.537465"/>
    </g>
    <g clip-path="url(#p24c3271108)">
     <use x="725.347456" xlink:href="#C5_0_053b893a8a" y="464.323439"/>
    </g>
   </g>
   <g id="PathCollection_14">
    <defs>
     <path d="M 0 2.5 
C 0.663008 2.5 1.29895 2.236584 1.767767 1.767767 
C 2.236584 1.29895 2.5 0.663008 2.5 0 
C 2.5 -0.663008 2.236584 -1.29895 1.767767 -1.767767 
C 1.29895 -2.236584 0.663008 -2.5 0 -2.5 
C -0.663008 -2.5 -1.29895 -2.236584 -1.767767 -1.767767 
C -2.236584 -1.29895 -2.5 -0.663008 -2.5 0 
C -2.5 0.663008 -2.236584 1.29895 -1.767767 1.767767 
C -1.29895 2.236584 -0.663008 2.5 0 2.5 
z
" id="C6_0_bd5f2b2021"/>
    </defs>
    <g clip-path="url(#p24c3271108)">
     <use x="841.855747" xlink:href="#C6_0_bd5f2b2021" y="317.437874"/>
    </g>
    <g clip-path="url(#p24c3271108)">
     <use x="845.040468" xlink:href="#C6_0_bd5f2b2021" y="420.646067"/>
    </g>
    <g clip-path="url(#p24c3271108)">
     <use x="857.840651" xlink:href="#C6_0_bd5f2b2021" y="179.057237"/>
    </g>
    <g clip-path="url(#p24c3271108)">
     <use x="862.93579" xlink:href="#C6_0_bd5f2b2021" y="300.858561"/>
    </g>
    <g clip-path="url(#p24c3271108)">
     <use x="846.995119" xlink:href="#C6_0_bd5f2b2021" y="408.471876"/>
    </g>
    <g clip-path="url(#p24c3271108)">
     <use x="846.114992" xlink:href="#C6_0_bd5f2b2021" y="433.056086"/>
    </g>
    <g clip-path="url(#p24c3271108)">
     <use x="854.922479" xlink:href="#C6_0_bd5f2b2021" y="423.57904"/>
    </g>
    <g clip-path="url(#p24c3271108)">
     <use x="858.768532" xlink:href="#C6_0_bd5f2b2021" y="354.099574"/>
    </g>
    <g clip-path="url(#p24c3271108)">
     <use x="853.091403" xlink:href="#C6_0_bd5f2b2021" y="366.726341"/>
    </g>
    <g clip-path="url(#p24c3271108)">
     <use x="859.522177" xlink:href="#C6_0_bd5f2b2021" y="456.535823"/>
    </g>
    <g clip-path="url(#p24c3271108)">
     <use x="857.14117" xlink:href="#C6_0_bd5f2b2021" y="412.039405"/>
    </g>
    <g clip-path="url(#p24c3271108)">
     <use x="843.339406" xlink:href="#C6_0_bd5f2b2021" y="424.522343"/>
    </g>
    <g clip-path="url(#p24c3271108)">
     <use x="864.534825" xlink:href="#C6_0_bd5f2b2021" y="226.212611"/>
    </g>
    <g clip-path="url(#p24c3271108)">
     <use x="863.307837" xlink:href="#C6_0_bd5f2b2021" y="370.260184"/>
    </g>
   </g>
  </g>
 </g>
 <defs>
  <clipPath id="p24c3271108">
   <rect height="602" width="861.24" x="54.095" y="7.2"/>
  </clipPath>
 </defs>
</svg>
