<?xml version="1.0" encoding="utf-8" standalone="no"?>
<!DOCTYPE svg PUBLIC "-//W3C//DTD SVG 1.1//EN"
  "http://www.w3.org/Graphics/SVG/1.1/DTD/svg11.dtd">
<!-- Created with matplotlib (https://matplotlib.org/) -->
<svg height="484.379375pt" version="1.1" viewBox="0 0 613.295 484.379375" width="613.295pt" xmlns="http://www.w3.org/2000/svg" xmlns:xlink="http://www.w3.org/1999/xlink">
 <defs>
  <style type="text/css">
*{stroke-linecap:butt;stroke-linejoin:round;}
  </style>
 </defs>
 <g id="figure_1">
  <g id="patch_1">
   <path d="M 0 484.379375 
L 613.295 484.379375 
L 613.295 0 
L 0 0 
z
" style="fill:#ffffff;"/>
  </g>
  <g id="axes_1">
   <g id="patch_2">
    <path d="M 48.095 442.08 
L 606.095 442.08 
L 606.095 7.2 
L 48.095 7.2 
z
" style="fill:#ffffff;"/>
   </g>
   <g id="matplotlib.axis_1">
    <g id="xtick_1">
     <g id="line2d_1">
      <defs>
       <path d="M 0 0 
L 0 3.5 
" id="m22b7bd912d" style="stroke:#000000;stroke-width:0.8;"/>
      </defs>
      <g>
       <use style="stroke:#000000;stroke-width:0.8;" x="73.458636" xlink:href="#m22b7bd912d" y="442.08"/>
      </g>
     </g>
     <g id="text_1">
      <!-- $\mathdefault{10^{-3}}$ -->
      <defs>
       <path d="M 11.71875 59.71875 
L 27.828125 67.578125 
L 29.4375 67.578125 
L 29.4375 11.671875 
Q 29.4375 6.109375 29.90625 4.734375 
Q 30.375 3.375 31.828125 2.640625 
Q 33.296875 1.90625 37.796875 1.8125 
L 37.796875 0 
L 12.890625 0 
L 12.890625 1.8125 
Q 17.578125 1.90625 18.9375 2.609375 
Q 20.3125 3.328125 20.84375 4.515625 
Q 21.390625 5.71875 21.390625 11.671875 
L 21.390625 47.40625 
Q 21.390625 54.640625 20.90625 56.6875 
Q 20.5625 58.25 19.65625 58.984375 
Q 18.75 59.71875 17.484375 59.71875 
Q 15.671875 59.71875 12.453125 58.203125 
z
" id="TimesNewRomanPSMT-49"/>
       <path d="M 3.609375 32.71875 
Q 3.609375 44.046875 7.03125 52.21875 
Q 10.453125 60.40625 16.109375 64.40625 
Q 20.515625 67.578125 25.203125 67.578125 
Q 32.8125 67.578125 38.875 59.8125 
Q 46.4375 50.203125 46.4375 33.734375 
Q 46.4375 22.21875 43.109375 14.15625 
Q 39.796875 6.109375 34.640625 2.46875 
Q 29.5 -1.171875 24.703125 -1.171875 
Q 15.234375 -1.171875 8.9375 10.015625 
Q 3.609375 19.4375 3.609375 32.71875 
z
M 13.1875 31.5 
Q 13.1875 17.828125 16.546875 9.1875 
Q 19.34375 1.90625 24.859375 1.90625 
Q 27.484375 1.90625 30.3125 4.265625 
Q 33.15625 6.640625 34.625 12.203125 
Q 36.859375 20.609375 36.859375 35.890625 
Q 36.859375 47.21875 34.515625 54.78125 
Q 32.765625 60.40625 29.984375 62.75 
Q 27.984375 64.359375 25.140625 64.359375 
Q 21.828125 64.359375 19.234375 61.375 
Q 15.71875 57.328125 14.453125 48.625 
Q 13.1875 39.9375 13.1875 31.5 
z
" id="TimesNewRomanPSMT-48"/>
       <path d="M 54.4375 31.25 
L 1.8125 31.25 
L 1.8125 35.25 
L 54.4375 35.25 
z
" id="TimesNewRomanPSMT-8722"/>
       <path d="M 5.078125 53.609375 
Q 7.90625 60.296875 12.21875 63.9375 
Q 16.546875 67.578125 23 67.578125 
Q 30.953125 67.578125 35.203125 62.40625 
Q 38.421875 58.546875 38.421875 54.15625 
Q 38.421875 46.921875 29.34375 39.203125 
Q 35.453125 36.8125 38.578125 32.375 
Q 41.703125 27.9375 41.703125 21.921875 
Q 41.703125 13.328125 36.234375 7.03125 
Q 29.109375 -1.171875 15.578125 -1.171875 
Q 8.890625 -1.171875 6.46875 0.484375 
Q 4.046875 2.15625 4.046875 4.046875 
Q 4.046875 5.46875 5.1875 6.546875 
Q 6.34375 7.625 7.953125 7.625 
Q 9.1875 7.625 10.453125 7.234375 
Q 11.28125 6.984375 14.203125 5.4375 
Q 17.140625 3.90625 18.265625 3.609375 
Q 20.0625 3.078125 22.125 3.078125 
Q 27.09375 3.078125 30.78125 6.9375 
Q 34.46875 10.796875 34.46875 16.0625 
Q 34.46875 19.921875 32.765625 23.578125 
Q 31.5 26.3125 29.984375 27.734375 
Q 27.875 29.6875 24.21875 31.265625 
Q 20.5625 32.859375 16.75 32.859375 
L 15.1875 32.859375 
L 15.1875 34.328125 
Q 19.046875 34.8125 22.921875 37.109375 
Q 26.8125 39.40625 28.5625 42.625 
Q 30.328125 45.84375 30.328125 49.703125 
Q 30.328125 54.734375 27.171875 57.828125 
Q 24.03125 60.9375 19.34375 60.9375 
Q 11.765625 60.9375 6.6875 52.828125 
z
" id="TimesNewRomanPSMT-51"/>
      </defs>
      <g transform="translate(62.598636 459.713125)scale(0.12 -0.12)">
       <use transform="translate(0 0.582813)" xlink:href="#TimesNewRomanPSMT-49"/>
       <use transform="translate(50 0.582813)" xlink:href="#TimesNewRomanPSMT-48"/>
       <use transform="translate(101.502813 60.695312)scale(0.7)" xlink:href="#TimesNewRomanPSMT-8722"/>
       <use transform="translate(140.980352 60.695312)scale(0.7)" xlink:href="#TimesNewRomanPSMT-51"/>
      </g>
     </g>
    </g>
    <g id="xtick_2">
     <g id="line2d_2">
      <g>
       <use style="stroke:#000000;stroke-width:0.8;" x="242.549545" xlink:href="#m22b7bd912d" y="442.08"/>
      </g>
     </g>
     <g id="text_2">
      <!-- $\mathdefault{10^{-2}}$ -->
      <defs>
       <path d="M 45.84375 12.75 
L 41.21875 0 
L 2.15625 0 
L 2.15625 1.8125 
Q 19.390625 17.53125 26.421875 27.484375 
Q 33.453125 37.453125 33.453125 45.703125 
Q 33.453125 52 29.59375 56.046875 
Q 25.734375 60.109375 20.359375 60.109375 
Q 15.484375 60.109375 11.59375 57.25 
Q 7.71875 54.390625 5.859375 48.875 
L 4.046875 48.875 
Q 5.28125 57.90625 10.328125 62.734375 
Q 15.375 67.578125 22.953125 67.578125 
Q 31 67.578125 36.390625 62.40625 
Q 41.796875 57.234375 41.796875 50.203125 
Q 41.796875 45.171875 39.453125 40.140625 
Q 35.84375 32.234375 27.734375 23.390625 
Q 15.578125 10.109375 12.546875 7.375 
L 29.828125 7.375 
Q 35.109375 7.375 37.234375 7.765625 
Q 39.359375 8.15625 41.0625 9.34375 
Q 42.78125 10.546875 44.046875 12.75 
z
" id="TimesNewRomanPSMT-50"/>
      </defs>
      <g transform="translate(231.689545 459.713125)scale(0.12 -0.12)">
       <use transform="translate(0 0.582813)" xlink:href="#TimesNewRomanPSMT-49"/>
       <use transform="translate(50 0.582813)" xlink:href="#TimesNewRomanPSMT-48"/>
       <use transform="translate(101.502813 60.695312)scale(0.7)" xlink:href="#TimesNewRomanPSMT-8722"/>
       <use transform="translate(140.980352 60.695312)scale(0.7)" xlink:href="#TimesNewRomanPSMT-50"/>
      </g>
     </g>
    </g>
    <g id="xtick_3">
     <g id="line2d_3">
      <g>
       <use style="stroke:#000000;stroke-width:0.8;" x="411.640455" xlink:href="#m22b7bd912d" y="442.08"/>
      </g>
     </g>
     <g id="text_3">
      <!-- $\mathdefault{10^{-1}}$ -->
      <g transform="translate(400.780455 459.713125)scale(0.12 -0.12)">
       <use transform="translate(0 0.582813)" xlink:href="#TimesNewRomanPSMT-49"/>
       <use transform="translate(50 0.582813)" xlink:href="#TimesNewRomanPSMT-48"/>
       <use transform="translate(101.502813 60.695312)scale(0.7)" xlink:href="#TimesNewRomanPSMT-8722"/>
       <use transform="translate(140.980352 60.695312)scale(0.7)" xlink:href="#TimesNewRomanPSMT-49"/>
      </g>
     </g>
    </g>
    <g id="xtick_4">
     <g id="line2d_4">
      <g>
       <use style="stroke:#000000;stroke-width:0.8;" x="580.731364" xlink:href="#m22b7bd912d" y="442.08"/>
      </g>
     </g>
     <g id="text_4">
      <!-- $\mathdefault{10^{0}}$ -->
      <g transform="translate(572.271364 459.713125)scale(0.12 -0.12)">
       <use transform="translate(0 0.582813)" xlink:href="#TimesNewRomanPSMT-49"/>
       <use transform="translate(50 0.582813)" xlink:href="#TimesNewRomanPSMT-48"/>
       <use transform="translate(101.502813 60.695312)scale(0.7)" xlink:href="#TimesNewRomanPSMT-48"/>
      </g>
     </g>
    </g>
    <g id="xtick_5">
     <g id="line2d_5">
      <defs>
       <path d="M 0 0 
L 0 2 
" id="mad366aa769" style="stroke:#000000;stroke-width:0.6;"/>
      </defs>
      <g>
       <use style="stroke:#000000;stroke-width:0.6;" x="57.072034" xlink:href="#mad366aa769" y="442.08"/>
      </g>
     </g>
    </g>
    <g id="xtick_6">
     <g id="line2d_6">
      <g>
       <use style="stroke:#000000;stroke-width:0.6;" x="65.721461" xlink:href="#mad366aa769" y="442.08"/>
      </g>
     </g>
    </g>
    <g id="xtick_7">
     <g id="line2d_7">
      <g>
       <use style="stroke:#000000;stroke-width:0.6;" x="124.360072" xlink:href="#mad366aa769" y="442.08"/>
      </g>
     </g>
    </g>
    <g id="xtick_8">
     <g id="line2d_8">
      <g>
       <use style="stroke:#000000;stroke-width:0.6;" x="154.135503" xlink:href="#mad366aa769" y="442.08"/>
      </g>
     </g>
    </g>
    <g id="xtick_9">
     <g id="line2d_9">
      <g>
       <use style="stroke:#000000;stroke-width:0.6;" x="175.261508" xlink:href="#mad366aa769" y="442.08"/>
      </g>
     </g>
    </g>
    <g id="xtick_10">
     <g id="line2d_10">
      <g>
       <use style="stroke:#000000;stroke-width:0.6;" x="191.64811" xlink:href="#mad366aa769" y="442.08"/>
      </g>
     </g>
    </g>
    <g id="xtick_11">
     <g id="line2d_11">
      <g>
       <use style="stroke:#000000;stroke-width:0.6;" x="205.036939" xlink:href="#mad366aa769" y="442.08"/>
      </g>
     </g>
    </g>
    <g id="xtick_12">
     <g id="line2d_12">
      <g>
       <use style="stroke:#000000;stroke-width:0.6;" x="216.357032" xlink:href="#mad366aa769" y="442.08"/>
      </g>
     </g>
    </g>
    <g id="xtick_13">
     <g id="line2d_13">
      <g>
       <use style="stroke:#000000;stroke-width:0.6;" x="226.162943" xlink:href="#mad366aa769" y="442.08"/>
      </g>
     </g>
    </g>
    <g id="xtick_14">
     <g id="line2d_14">
      <g>
       <use style="stroke:#000000;stroke-width:0.6;" x="234.81237" xlink:href="#mad366aa769" y="442.08"/>
      </g>
     </g>
    </g>
    <g id="xtick_15">
     <g id="line2d_15">
      <g>
       <use style="stroke:#000000;stroke-width:0.6;" x="293.450981" xlink:href="#mad366aa769" y="442.08"/>
      </g>
     </g>
    </g>
    <g id="xtick_16">
     <g id="line2d_16">
      <g>
       <use style="stroke:#000000;stroke-width:0.6;" x="323.226412" xlink:href="#mad366aa769" y="442.08"/>
      </g>
     </g>
    </g>
    <g id="xtick_17">
     <g id="line2d_17">
      <g>
       <use style="stroke:#000000;stroke-width:0.6;" x="344.352417" xlink:href="#mad366aa769" y="442.08"/>
      </g>
     </g>
    </g>
    <g id="xtick_18">
     <g id="line2d_18">
      <g>
       <use style="stroke:#000000;stroke-width:0.6;" x="360.739019" xlink:href="#mad366aa769" y="442.08"/>
      </g>
     </g>
    </g>
    <g id="xtick_19">
     <g id="line2d_19">
      <g>
       <use style="stroke:#000000;stroke-width:0.6;" x="374.127848" xlink:href="#mad366aa769" y="442.08"/>
      </g>
     </g>
    </g>
    <g id="xtick_20">
     <g id="line2d_20">
      <g>
       <use style="stroke:#000000;stroke-width:0.6;" x="385.447941" xlink:href="#mad366aa769" y="442.08"/>
      </g>
     </g>
    </g>
    <g id="xtick_21">
     <g id="line2d_21">
      <g>
       <use style="stroke:#000000;stroke-width:0.6;" x="395.253852" xlink:href="#mad366aa769" y="442.08"/>
      </g>
     </g>
    </g>
    <g id="xtick_22">
     <g id="line2d_22">
      <g>
       <use style="stroke:#000000;stroke-width:0.6;" x="403.903279" xlink:href="#mad366aa769" y="442.08"/>
      </g>
     </g>
    </g>
    <g id="xtick_23">
     <g id="line2d_23">
      <g>
       <use style="stroke:#000000;stroke-width:0.6;" x="462.54189" xlink:href="#mad366aa769" y="442.08"/>
      </g>
     </g>
    </g>
    <g id="xtick_24">
     <g id="line2d_24">
      <g>
       <use style="stroke:#000000;stroke-width:0.6;" x="492.317321" xlink:href="#mad366aa769" y="442.08"/>
      </g>
     </g>
    </g>
    <g id="xtick_25">
     <g id="line2d_25">
      <g>
       <use style="stroke:#000000;stroke-width:0.6;" x="513.443326" xlink:href="#mad366aa769" y="442.08"/>
      </g>
     </g>
    </g>
    <g id="xtick_26">
     <g id="line2d_26">
      <g>
       <use style="stroke:#000000;stroke-width:0.6;" x="529.829928" xlink:href="#mad366aa769" y="442.08"/>
      </g>
     </g>
    </g>
    <g id="xtick_27">
     <g id="line2d_27">
      <g>
       <use style="stroke:#000000;stroke-width:0.6;" x="543.218757" xlink:href="#mad366aa769" y="442.08"/>
      </g>
     </g>
    </g>
    <g id="xtick_28">
     <g id="line2d_28">
      <g>
       <use style="stroke:#000000;stroke-width:0.6;" x="554.53885" xlink:href="#mad366aa769" y="442.08"/>
      </g>
     </g>
    </g>
    <g id="xtick_29">
     <g id="line2d_29">
      <g>
       <use style="stroke:#000000;stroke-width:0.6;" x="564.344761" xlink:href="#mad366aa769" y="442.08"/>
      </g>
     </g>
    </g>
    <g id="xtick_30">
     <g id="line2d_30">
      <g>
       <use style="stroke:#000000;stroke-width:0.6;" x="572.994188" xlink:href="#mad366aa769" y="442.08"/>
      </g>
     </g>
    </g>
    <g id="text_5">
     <!-- Lambda(λ=0.0450) -->
     <defs>
      <path d="M 57.328125 18.3125 
L 58.9375 17.96875 
L 53.265625 0 
L 2 0 
L 2 1.8125 
L 4.5 1.8125 
Q 8.6875 1.8125 10.5 4.546875 
Q 11.53125 6.109375 11.53125 11.765625 
L 11.53125 54.5 
Q 11.53125 60.6875 10.15625 62.25 
Q 8.25 64.40625 4.5 64.40625 
L 2 64.40625 
L 2 66.21875 
L 31.984375 66.21875 
L 31.984375 64.40625 
Q 26.703125 64.453125 24.578125 63.421875 
Q 22.46875 62.40625 21.6875 60.84375 
Q 20.90625 59.28125 20.90625 53.375 
L 20.90625 11.765625 
Q 20.90625 7.71875 21.6875 6.203125 
Q 22.265625 5.171875 23.484375 4.6875 
Q 24.703125 4.203125 31.109375 4.203125 
L 35.9375 4.203125 
Q 43.5625 4.203125 46.625 5.328125 
Q 49.703125 6.453125 52.234375 9.296875 
Q 54.78125 12.15625 57.328125 18.3125 
z
" id="TimesNewRomanPSMT-76"/>
      <path d="M 28.46875 6.453125 
Q 21.578125 1.125 19.828125 0.296875 
Q 17.1875 -0.921875 14.203125 -0.921875 
Q 9.578125 -0.921875 6.5625 2.25 
Q 3.5625 5.421875 3.5625 10.59375 
Q 3.5625 13.875 5.03125 16.265625 
Q 7.03125 19.578125 11.984375 22.5 
Q 16.9375 25.4375 28.46875 29.640625 
L 28.46875 31.390625 
Q 28.46875 38.09375 26.34375 40.578125 
Q 24.21875 43.0625 20.171875 43.0625 
Q 17.09375 43.0625 15.28125 41.40625 
Q 13.421875 39.75 13.421875 37.59375 
L 13.53125 34.765625 
Q 13.53125 32.515625 12.375 31.296875 
Q 11.234375 30.078125 9.375 30.078125 
Q 7.5625 30.078125 6.421875 31.34375 
Q 5.28125 32.625 5.28125 34.8125 
Q 5.28125 39.015625 9.578125 42.53125 
Q 13.875 46.046875 21.625 46.046875 
Q 27.59375 46.046875 31.390625 44.046875 
Q 34.28125 42.53125 35.640625 39.3125 
Q 36.53125 37.203125 36.53125 30.71875 
L 36.53125 15.53125 
Q 36.53125 9.125 36.765625 7.6875 
Q 37.015625 6.25 37.578125 5.765625 
Q 38.140625 5.28125 38.875 5.28125 
Q 39.65625 5.28125 40.234375 5.609375 
Q 41.265625 6.25 44.1875 9.1875 
L 44.1875 6.453125 
Q 38.71875 -0.875 33.734375 -0.875 
Q 31.34375 -0.875 29.921875 0.78125 
Q 28.515625 2.4375 28.46875 6.453125 
z
M 28.46875 9.625 
L 28.46875 26.65625 
Q 21.09375 23.734375 18.953125 22.515625 
Q 15.09375 20.359375 13.421875 18.015625 
Q 11.765625 15.671875 11.765625 12.890625 
Q 11.765625 9.375 13.859375 7.046875 
Q 15.96875 4.734375 18.703125 4.734375 
Q 22.40625 4.734375 28.46875 9.625 
z
" id="TimesNewRomanPSMT-97"/>
      <path d="M 16.40625 36.53125 
Q 21.296875 41.40625 22.171875 42.140625 
Q 24.359375 44 26.890625 45.015625 
Q 29.4375 46.046875 31.9375 46.046875 
Q 36.140625 46.046875 39.15625 43.59375 
Q 42.1875 41.15625 43.21875 36.53125 
Q 48.25 42.390625 51.703125 44.21875 
Q 55.171875 46.046875 58.84375 46.046875 
Q 62.40625 46.046875 65.15625 44.21875 
Q 67.921875 42.390625 69.53125 38.234375 
Q 70.609375 35.40625 70.609375 29.34375 
L 70.609375 10.109375 
Q 70.609375 5.90625 71.234375 4.34375 
Q 71.734375 3.265625 73.046875 2.515625 
Q 74.359375 1.765625 77.34375 1.765625 
L 77.34375 0 
L 55.28125 0 
L 55.28125 1.765625 
L 56.203125 1.765625 
Q 59.078125 1.765625 60.6875 2.875 
Q 61.8125 3.65625 62.3125 5.375 
Q 62.5 6.203125 62.5 10.109375 
L 62.5 29.34375 
Q 62.5 34.8125 61.1875 37.0625 
Q 59.28125 40.1875 55.078125 40.1875 
Q 52.484375 40.1875 49.875 38.890625 
Q 47.265625 37.59375 43.5625 34.078125 
L 43.453125 33.546875 
L 43.5625 31.453125 
L 43.5625 10.109375 
Q 43.5625 5.515625 44.0625 4.390625 
Q 44.578125 3.265625 45.984375 2.515625 
Q 47.40625 1.765625 50.828125 1.765625 
L 50.828125 0 
L 28.21875 0 
L 28.21875 1.765625 
Q 31.9375 1.765625 33.328125 2.640625 
Q 34.71875 3.515625 35.25 5.28125 
Q 35.5 6.109375 35.5 10.109375 
L 35.5 29.34375 
Q 35.5 34.8125 33.890625 37.203125 
Q 31.734375 40.328125 27.875 40.328125 
Q 25.25 40.328125 22.65625 38.921875 
Q 18.609375 36.765625 16.40625 34.078125 
L 16.40625 10.109375 
Q 16.40625 5.71875 17.015625 4.390625 
Q 17.625 3.078125 18.8125 2.421875 
Q 20.015625 1.765625 23.6875 1.765625 
L 23.6875 0 
L 1.5625 0 
L 1.5625 1.765625 
Q 4.640625 1.765625 5.859375 2.421875 
Q 7.078125 3.078125 7.703125 4.515625 
Q 8.34375 5.953125 8.34375 10.109375 
L 8.34375 27.203125 
Q 8.34375 34.578125 7.90625 36.71875 
Q 7.5625 38.328125 6.828125 38.9375 
Q 6.109375 39.546875 4.828125 39.546875 
Q 3.46875 39.546875 1.5625 38.8125 
L 0.828125 40.578125 
L 14.3125 46.046875 
L 16.40625 46.046875 
z
" id="TimesNewRomanPSMT-109"/>
      <path d="M 15.375 37.015625 
Q 21.875 46.046875 29.390625 46.046875 
Q 36.28125 46.046875 41.40625 40.15625 
Q 46.53125 34.28125 46.53125 24.078125 
Q 46.53125 12.15625 38.625 4.890625 
Q 31.84375 -1.375 23.484375 -1.375 
Q 19.578125 -1.375 15.546875 0.046875 
Q 11.53125 1.46875 7.328125 4.296875 
L 7.328125 50.640625 
Q 7.328125 58.25 6.953125 60 
Q 6.59375 61.765625 5.8125 62.390625 
Q 5.03125 63.03125 3.859375 63.03125 
Q 2.484375 63.03125 0.4375 62.25 
L -0.25 63.96875 
L 13.1875 69.4375 
L 15.375 69.4375 
z
M 15.375 33.890625 
L 15.375 7.125 
Q 17.875 4.6875 20.53125 3.4375 
Q 23.1875 2.203125 25.984375 2.203125 
Q 30.421875 2.203125 34.25 7.078125 
Q 38.09375 11.96875 38.09375 21.296875 
Q 38.09375 29.890625 34.25 34.5 
Q 30.421875 39.109375 25.53125 39.109375 
Q 22.953125 39.109375 20.359375 37.796875 
Q 18.40625 36.8125 15.375 33.890625 
z
" id="TimesNewRomanPSMT-98"/>
      <path d="M 34.71875 5.03125 
Q 31.453125 1.609375 28.328125 0.109375 
Q 25.203125 -1.375 21.578125 -1.375 
Q 14.265625 -1.375 8.796875 4.75 
Q 3.328125 10.890625 3.328125 20.515625 
Q 3.328125 30.125 9.375 38.109375 
Q 15.4375 46.09375 24.953125 46.09375 
Q 30.859375 46.09375 34.71875 42.328125 
L 34.71875 50.59375 
Q 34.71875 58.25 34.34375 60 
Q 33.984375 61.765625 33.203125 62.390625 
Q 32.421875 63.03125 31.25 63.03125 
Q 29.984375 63.03125 27.875 62.25 
L 27.25 63.96875 
L 40.578125 69.4375 
L 42.78125 69.4375 
L 42.78125 17.71875 
Q 42.78125 9.859375 43.140625 8.125 
Q 43.5 6.390625 44.3125 5.703125 
Q 45.125 5.03125 46.1875 5.03125 
Q 47.515625 5.03125 49.703125 5.859375 
L 50.25 4.15625 
L 36.96875 -1.375 
L 34.71875 -1.375 
z
M 34.71875 8.453125 
L 34.71875 31.5 
Q 34.421875 34.8125 32.953125 37.546875 
Q 31.5 40.28125 29.078125 41.671875 
Q 26.65625 43.0625 24.359375 43.0625 
Q 20.0625 43.0625 16.703125 39.203125 
Q 12.25 34.125 12.25 24.359375 
Q 12.25 14.5 16.546875 9.25 
Q 20.84375 4 26.125 4 
Q 30.5625 4 34.71875 8.453125 
z
" id="TimesNewRomanPSMT-100"/>
      <path d="M 31.0625 -19.578125 
L 31.0625 -21.390625 
Q 23.6875 -17.671875 18.75 -12.703125 
Q 11.71875 -5.609375 7.90625 4 
Q 4.109375 13.625 4.109375 23.96875 
Q 4.109375 39.109375 11.578125 51.578125 
Q 19.046875 64.0625 31.0625 69.4375 
L 31.0625 67.390625 
Q 25.046875 64.0625 21.1875 58.296875 
Q 17.328125 52.546875 15.421875 43.703125 
Q 13.53125 34.859375 13.53125 25.25 
Q 13.53125 14.796875 15.140625 6.25 
Q 16.40625 -0.484375 18.203125 -4.5625 
Q 20.015625 -8.640625 23.0625 -12.390625 
Q 26.125 -16.15625 31.0625 -19.578125 
z
" id="TimesNewRomanPSMT-40"/>
      <path d="M 47.21875 14.0625 
L 48.96875 14.0625 
Q 48.96875 6.34375 46.453125 2.828125 
Q 43.953125 -0.6875 40.1875 -0.6875 
Q 37.109375 -0.6875 34.28125 1.625 
Q 31.453125 3.953125 29.203125 14.0625 
L 25 33.015625 
L 10.453125 0 
L 1.21875 0 
L 22.125 45.015625 
Q 20.453125 53.765625 18.109375 57.953125 
Q 15.765625 62.15625 12.3125 62.15625 
Q 9.515625 62.15625 7.4375 60.03125 
Q 5.375 57.90625 5.125 53.46875 
L 3.375 53.46875 
Q 3.515625 60.640625 6.25 64.953125 
Q 8.984375 69.28125 13.09375 69.28125 
Q 15.71875 69.28125 18.078125 67.109375 
Q 20.453125 64.9375 22.1875 59.6875 
Q 23.921875 54.4375 27.59375 37.9375 
L 31.0625 22.46875 
Q 33.15625 12.84375 35.46875 9.59375 
Q 37.796875 6.34375 41.015625 6.34375 
Q 46.484375 6.34375 47.21875 14.0625 
z
" id="TimesNewRomanPSMT-955"/>
      <path d="M 1.8125 43.109375 
L 54.5 43.109375 
L 54.5 39.109375 
L 1.8125 39.109375 
z
M 1.8125 27.203125 
L 54.5 27.203125 
L 54.5 23.1875 
L 1.8125 23.1875 
z
" id="TimesNewRomanPSMT-61"/>
      <path d="M 12.5 9.46875 
Q 14.796875 9.46875 16.359375 7.875 
Q 17.921875 6.296875 17.921875 4.046875 
Q 17.921875 1.8125 16.328125 0.21875 
Q 14.75 -1.375 12.5 -1.375 
Q 10.25 -1.375 8.65625 0.21875 
Q 7.078125 1.8125 7.078125 4.046875 
Q 7.078125 6.34375 8.65625 7.90625 
Q 10.25 9.46875 12.5 9.46875 
z
" id="TimesNewRomanPSMT-46"/>
      <path d="M 46.53125 24.421875 
L 46.53125 17.484375 
L 37.640625 17.484375 
L 37.640625 0 
L 29.59375 0 
L 29.59375 17.484375 
L 1.5625 17.484375 
L 1.5625 23.734375 
L 32.28125 67.578125 
L 37.640625 67.578125 
L 37.640625 24.421875 
z
M 29.59375 24.421875 
L 29.59375 57.28125 
L 6.34375 24.421875 
z
" id="TimesNewRomanPSMT-52"/>
      <path d="M 43.40625 66.21875 
L 39.59375 57.90625 
L 19.671875 57.90625 
L 15.328125 49.03125 
Q 28.265625 47.125 35.84375 39.40625 
Q 42.328125 32.765625 42.328125 23.78125 
Q 42.328125 18.5625 40.203125 14.109375 
Q 38.09375 9.671875 34.859375 6.546875 
Q 31.640625 3.421875 27.6875 1.515625 
Q 22.078125 -1.171875 16.15625 -1.171875 
Q 10.203125 -1.171875 7.484375 0.84375 
Q 4.78125 2.875 4.78125 5.328125 
Q 4.78125 6.6875 5.90625 7.734375 
Q 7.03125 8.796875 8.734375 8.796875 
Q 10.015625 8.796875 10.96875 8.40625 
Q 11.921875 8.015625 14.203125 6.390625 
Q 17.875 3.859375 21.625 3.859375 
Q 27.34375 3.859375 31.65625 8.171875 
Q 35.984375 12.5 35.984375 18.703125 
Q 35.984375 24.703125 32.125 29.90625 
Q 28.265625 35.109375 21.484375 37.9375 
Q 16.15625 40.140625 6.984375 40.484375 
L 19.671875 66.21875 
z
" id="TimesNewRomanPSMT-53"/>
      <path d="M 2.25 67.390625 
L 2.25 69.4375 
Q 9.671875 65.765625 14.59375 60.796875 
Q 21.578125 53.65625 25.390625 44.0625 
Q 29.203125 34.46875 29.203125 24.078125 
Q 29.203125 8.9375 21.75 -3.53125 
Q 14.3125 -16.015625 2.25 -21.390625 
L 2.25 -19.578125 
Q 8.25 -16.21875 12.125 -10.46875 
Q 16.015625 -4.734375 17.890625 4.125 
Q 19.78125 12.984375 19.78125 22.609375 
Q 19.78125 33.015625 18.171875 41.609375 
Q 16.9375 48.34375 15.109375 52.390625 
Q 13.28125 56.453125 10.25 60.203125 
Q 7.234375 63.96875 2.25 67.390625 
z
" id="TimesNewRomanPSMT-41"/>
     </defs>
     <g transform="translate(280.648438 474.6125)scale(0.12 -0.12)">
      <use xlink:href="#TimesNewRomanPSMT-76"/>
      <use x="61.083984" xlink:href="#TimesNewRomanPSMT-97"/>
      <use x="105.46875" xlink:href="#TimesNewRomanPSMT-109"/>
      <use x="183.251953" xlink:href="#TimesNewRomanPSMT-98"/>
      <use x="233.251953" xlink:href="#TimesNewRomanPSMT-100"/>
      <use x="283.251953" xlink:href="#TimesNewRomanPSMT-97"/>
      <use x="327.636719" xlink:href="#TimesNewRomanPSMT-40"/>
      <use x="360.9375" xlink:href="#TimesNewRomanPSMT-955"/>
      <use x="409.423828" xlink:href="#TimesNewRomanPSMT-61"/>
      <use x="465.820312" xlink:href="#TimesNewRomanPSMT-48"/>
      <use x="515.820312" xlink:href="#TimesNewRomanPSMT-46"/>
      <use x="540.820312" xlink:href="#TimesNewRomanPSMT-48"/>
      <use x="590.820312" xlink:href="#TimesNewRomanPSMT-52"/>
      <use x="640.820312" xlink:href="#TimesNewRomanPSMT-53"/>
      <use x="690.820312" xlink:href="#TimesNewRomanPSMT-48"/>
      <use x="740.820312" xlink:href="#TimesNewRomanPSMT-41"/>
     </g>
    </g>
   </g>
   <g id="matplotlib.axis_2">
    <g id="ytick_1">
     <g id="line2d_31">
      <defs>
       <path d="M 0 0 
L -3.5 0 
" id="m2f7fad6829" style="stroke:#000000;stroke-width:0.8;"/>
      </defs>
      <g>
       <use style="stroke:#000000;stroke-width:0.8;" x="48.095" xlink:href="#m2f7fad6829" y="430.555661"/>
      </g>
     </g>
     <g id="text_6">
      <!-- -0.3 -->
      <defs>
       <path d="M 4.046875 26.125 
L 29.296875 26.125 
L 29.296875 18.75 
L 4.046875 18.75 
z
" id="TimesNewRomanPSMT-45"/>
      </defs>
      <g transform="translate(22.099375 434.721911)scale(0.12 -0.12)">
       <use xlink:href="#TimesNewRomanPSMT-45"/>
       <use x="33.300781" xlink:href="#TimesNewRomanPSMT-48"/>
       <use x="83.300781" xlink:href="#TimesNewRomanPSMT-46"/>
       <use x="108.300781" xlink:href="#TimesNewRomanPSMT-51"/>
      </g>
     </g>
    </g>
    <g id="ytick_2">
     <g id="line2d_32">
      <g>
       <use style="stroke:#000000;stroke-width:0.8;" x="48.095" xlink:href="#m2f7fad6829" y="382.046329"/>
      </g>
     </g>
     <g id="text_7">
      <!-- -0.2 -->
      <g transform="translate(22.099375 386.212579)scale(0.12 -0.12)">
       <use xlink:href="#TimesNewRomanPSMT-45"/>
       <use x="33.300781" xlink:href="#TimesNewRomanPSMT-48"/>
       <use x="83.300781" xlink:href="#TimesNewRomanPSMT-46"/>
       <use x="108.300781" xlink:href="#TimesNewRomanPSMT-50"/>
      </g>
     </g>
    </g>
    <g id="ytick_3">
     <g id="line2d_33">
      <g>
       <use style="stroke:#000000;stroke-width:0.8;" x="48.095" xlink:href="#m2f7fad6829" y="333.536997"/>
      </g>
     </g>
     <g id="text_8">
      <!-- -0.1 -->
      <g transform="translate(22.099375 337.703247)scale(0.12 -0.12)">
       <use xlink:href="#TimesNewRomanPSMT-45"/>
       <use x="33.300781" xlink:href="#TimesNewRomanPSMT-48"/>
       <use x="83.300781" xlink:href="#TimesNewRomanPSMT-46"/>
       <use x="108.300781" xlink:href="#TimesNewRomanPSMT-49"/>
      </g>
     </g>
    </g>
    <g id="ytick_4">
     <g id="line2d_34">
      <g>
       <use style="stroke:#000000;stroke-width:0.8;" x="48.095" xlink:href="#m2f7fad6829" y="285.027664"/>
      </g>
     </g>
     <g id="text_9">
      <!-- 0.0 -->
      <g transform="translate(26.095 289.193914)scale(0.12 -0.12)">
       <use xlink:href="#TimesNewRomanPSMT-48"/>
       <use x="50" xlink:href="#TimesNewRomanPSMT-46"/>
       <use x="75" xlink:href="#TimesNewRomanPSMT-48"/>
      </g>
     </g>
    </g>
    <g id="ytick_5">
     <g id="line2d_35">
      <g>
       <use style="stroke:#000000;stroke-width:0.8;" x="48.095" xlink:href="#m2f7fad6829" y="236.518332"/>
      </g>
     </g>
     <g id="text_10">
      <!-- 0.1 -->
      <g transform="translate(26.095 240.684582)scale(0.12 -0.12)">
       <use xlink:href="#TimesNewRomanPSMT-48"/>
       <use x="50" xlink:href="#TimesNewRomanPSMT-46"/>
       <use x="75" xlink:href="#TimesNewRomanPSMT-49"/>
      </g>
     </g>
    </g>
    <g id="ytick_6">
     <g id="line2d_36">
      <g>
       <use style="stroke:#000000;stroke-width:0.8;" x="48.095" xlink:href="#m2f7fad6829" y="188.009"/>
      </g>
     </g>
     <g id="text_11">
      <!-- 0.2 -->
      <g transform="translate(26.095 192.17525)scale(0.12 -0.12)">
       <use xlink:href="#TimesNewRomanPSMT-48"/>
       <use x="50" xlink:href="#TimesNewRomanPSMT-46"/>
       <use x="75" xlink:href="#TimesNewRomanPSMT-50"/>
      </g>
     </g>
    </g>
    <g id="ytick_7">
     <g id="line2d_37">
      <g>
       <use style="stroke:#000000;stroke-width:0.8;" x="48.095" xlink:href="#m2f7fad6829" y="139.499668"/>
      </g>
     </g>
     <g id="text_12">
      <!-- 0.3 -->
      <g transform="translate(26.095 143.665918)scale(0.12 -0.12)">
       <use xlink:href="#TimesNewRomanPSMT-48"/>
       <use x="50" xlink:href="#TimesNewRomanPSMT-46"/>
       <use x="75" xlink:href="#TimesNewRomanPSMT-51"/>
      </g>
     </g>
    </g>
    <g id="ytick_8">
     <g id="line2d_38">
      <g>
       <use style="stroke:#000000;stroke-width:0.8;" x="48.095" xlink:href="#m2f7fad6829" y="90.990336"/>
      </g>
     </g>
     <g id="text_13">
      <!-- 0.4 -->
      <g transform="translate(26.095 95.156586)scale(0.12 -0.12)">
       <use xlink:href="#TimesNewRomanPSMT-48"/>
       <use x="50" xlink:href="#TimesNewRomanPSMT-46"/>
       <use x="75" xlink:href="#TimesNewRomanPSMT-52"/>
      </g>
     </g>
    </g>
    <g id="ytick_9">
     <g id="line2d_39">
      <g>
       <use style="stroke:#000000;stroke-width:0.8;" x="48.095" xlink:href="#m2f7fad6829" y="42.481004"/>
      </g>
     </g>
     <g id="text_14">
      <!-- 0.5 -->
      <g transform="translate(26.095 46.647254)scale(0.12 -0.12)">
       <use xlink:href="#TimesNewRomanPSMT-48"/>
       <use x="50" xlink:href="#TimesNewRomanPSMT-46"/>
       <use x="75" xlink:href="#TimesNewRomanPSMT-53"/>
      </g>
     </g>
    </g>
    <g id="text_15">
     <!-- Coefficients -->
     <defs>
      <path d="M 60.203125 67.71875 
L 61.71875 45.21875 
L 60.203125 45.21875 
Q 57.171875 55.328125 51.5625 59.765625 
Q 45.953125 64.203125 38.09375 64.203125 
Q 31.5 64.203125 26.171875 60.859375 
Q 20.84375 57.515625 17.796875 50.1875 
Q 14.75 42.875 14.75 31.984375 
Q 14.75 23 17.625 16.40625 
Q 20.515625 9.8125 26.296875 6.296875 
Q 32.078125 2.78125 39.5 2.78125 
Q 45.953125 2.78125 50.875 5.53125 
Q 55.8125 8.296875 61.71875 16.5 
L 63.234375 15.53125 
Q 58.25 6.6875 51.609375 2.578125 
Q 44.96875 -1.515625 35.84375 -1.515625 
Q 19.390625 -1.515625 10.359375 10.6875 
Q 3.609375 19.78125 3.609375 32.078125 
Q 3.609375 42 8.046875 50.296875 
Q 12.5 58.59375 20.28125 63.15625 
Q 28.078125 67.71875 37.3125 67.71875 
Q 44.484375 67.71875 51.46875 64.203125 
Q 53.515625 63.140625 54.390625 63.140625 
Q 55.71875 63.140625 56.6875 64.0625 
Q 57.953125 65.375 58.5 67.71875 
z
" id="TimesNewRomanPSMT-67"/>
      <path d="M 25 46.046875 
Q 35.15625 46.046875 41.3125 38.328125 
Q 46.53125 31.734375 46.53125 23.1875 
Q 46.53125 17.1875 43.640625 11.03125 
Q 40.765625 4.890625 35.71875 1.75 
Q 30.671875 -1.375 24.46875 -1.375 
Q 14.359375 -1.375 8.40625 6.6875 
Q 3.375 13.484375 3.375 21.921875 
Q 3.375 28.078125 6.421875 34.15625 
Q 9.46875 40.234375 14.453125 43.140625 
Q 19.4375 46.046875 25 46.046875 
z
M 23.484375 42.875 
Q 20.90625 42.875 18.28125 41.328125 
Q 15.671875 39.796875 14.0625 35.9375 
Q 12.453125 32.078125 12.453125 26.03125 
Q 12.453125 16.265625 16.328125 9.171875 
Q 20.21875 2.09375 26.5625 2.09375 
Q 31.296875 2.09375 34.375 6 
Q 37.453125 9.90625 37.453125 19.4375 
Q 37.453125 31.34375 32.328125 38.1875 
Q 28.859375 42.875 23.484375 42.875 
z
" id="TimesNewRomanPSMT-111"/>
      <path d="M 10.640625 27.875 
Q 10.59375 17.921875 15.484375 12.25 
Q 20.359375 6.59375 26.953125 6.59375 
Q 31.34375 6.59375 34.59375 9 
Q 37.84375 11.421875 40.046875 17.28125 
L 41.546875 16.3125 
Q 40.53125 9.625 35.59375 4.125 
Q 30.671875 -1.375 23.25 -1.375 
Q 15.1875 -1.375 9.453125 4.90625 
Q 3.71875 11.1875 3.71875 21.78125 
Q 3.71875 33.25 9.59375 39.671875 
Q 15.484375 46.09375 24.359375 46.09375 
Q 31.890625 46.09375 36.71875 41.140625 
Q 41.546875 36.1875 41.546875 27.875 
z
M 10.640625 30.71875 
L 31.34375 30.71875 
Q 31.109375 35.015625 30.328125 36.765625 
Q 29.109375 39.5 26.6875 41.0625 
Q 24.265625 42.625 21.625 42.625 
Q 17.578125 42.625 14.375 39.46875 
Q 11.1875 36.328125 10.640625 30.71875 
z
" id="TimesNewRomanPSMT-101"/>
      <path d="M 20.609375 41.21875 
L 20.609375 11.8125 
Q 20.609375 5.5625 21.96875 3.90625 
Q 23.78125 1.765625 26.8125 1.765625 
L 30.859375 1.765625 
L 30.859375 0 
L 4.15625 0 
L 4.15625 1.765625 
L 6.15625 1.765625 
Q 8.109375 1.765625 9.71875 2.734375 
Q 11.328125 3.71875 11.9375 5.375 
Q 12.546875 7.03125 12.546875 11.8125 
L 12.546875 41.21875 
L 3.859375 41.21875 
L 3.859375 44.734375 
L 12.546875 44.734375 
L 12.546875 47.65625 
Q 12.546875 54.34375 14.6875 58.984375 
Q 16.84375 63.625 21.265625 66.484375 
Q 25.6875 69.34375 31.203125 69.34375 
Q 36.328125 69.34375 40.625 66.015625 
Q 43.453125 63.8125 43.453125 61.078125 
Q 43.453125 59.625 42.1875 58.328125 
Q 40.921875 57.03125 39.453125 57.03125 
Q 38.328125 57.03125 37.078125 57.828125 
Q 35.84375 58.640625 34.03125 61.296875 
Q 32.234375 63.96875 30.71875 64.890625 
Q 29.203125 65.828125 27.34375 65.828125 
Q 25.09375 65.828125 23.53125 64.625 
Q 21.96875 63.421875 21.28125 60.90625 
Q 20.609375 58.40625 20.609375 47.953125 
L 20.609375 44.734375 
L 32.125 44.734375 
L 32.125 41.21875 
z
" id="TimesNewRomanPSMT-102"/>
      <path d="M 14.5 69.4375 
Q 16.546875 69.4375 17.984375 67.984375 
Q 19.4375 66.546875 19.4375 64.5 
Q 19.4375 62.453125 17.984375 60.984375 
Q 16.546875 59.515625 14.5 59.515625 
Q 12.453125 59.515625 10.984375 60.984375 
Q 9.515625 62.453125 9.515625 64.5 
Q 9.515625 66.546875 10.953125 67.984375 
Q 12.40625 69.4375 14.5 69.4375 
z
M 18.5625 46.046875 
L 18.5625 10.109375 
Q 18.5625 5.90625 19.171875 4.515625 
Q 19.78125 3.125 20.96875 2.4375 
Q 22.171875 1.765625 25.34375 1.765625 
L 25.34375 0 
L 3.609375 0 
L 3.609375 1.765625 
Q 6.890625 1.765625 8 2.390625 
Q 9.125 3.03125 9.78125 4.484375 
Q 10.453125 5.953125 10.453125 10.109375 
L 10.453125 27.34375 
Q 10.453125 34.625 10.015625 36.765625 
Q 9.671875 38.328125 8.9375 38.9375 
Q 8.203125 39.546875 6.9375 39.546875 
Q 5.5625 39.546875 3.609375 38.8125 
L 2.9375 40.578125 
L 16.40625 46.046875 
z
" id="TimesNewRomanPSMT-105"/>
      <path d="M 41.109375 17 
Q 39.3125 8.15625 34.03125 3.390625 
Q 28.765625 -1.375 22.359375 -1.375 
Q 14.75 -1.375 9.078125 5.015625 
Q 3.421875 11.421875 3.421875 22.3125 
Q 3.421875 32.859375 9.6875 39.453125 
Q 15.96875 46.046875 24.75 46.046875 
Q 31.34375 46.046875 35.59375 42.546875 
Q 39.84375 39.0625 39.84375 35.296875 
Q 39.84375 33.453125 38.640625 32.296875 
Q 37.453125 31.15625 35.296875 31.15625 
Q 32.421875 31.15625 30.953125 33.015625 
Q 30.125 34.03125 29.859375 36.90625 
Q 29.59375 39.796875 27.875 41.3125 
Q 26.171875 42.78125 23.140625 42.78125 
Q 18.265625 42.78125 15.28125 39.15625 
Q 11.328125 34.375 11.328125 26.515625 
Q 11.328125 18.5 15.25 12.375 
Q 19.1875 6.25 25.875 6.25 
Q 30.671875 6.25 34.46875 9.515625 
Q 37.15625 11.765625 39.703125 17.671875 
z
" id="TimesNewRomanPSMT-99"/>
      <path d="M 16.15625 36.578125 
Q 24.03125 46.046875 31.15625 46.046875 
Q 34.8125 46.046875 37.453125 44.21875 
Q 40.09375 42.390625 41.65625 38.1875 
Q 42.71875 35.25 42.71875 29.203125 
L 42.71875 10.109375 
Q 42.71875 5.859375 43.40625 4.34375 
Q 43.953125 3.125 45.140625 2.4375 
Q 46.34375 1.765625 49.5625 1.765625 
L 49.5625 0 
L 27.4375 0 
L 27.4375 1.765625 
L 28.375 1.765625 
Q 31.5 1.765625 32.734375 2.703125 
Q 33.984375 3.65625 34.46875 5.515625 
Q 34.671875 6.25 34.671875 10.109375 
L 34.671875 28.421875 
Q 34.671875 34.515625 33.078125 37.28125 
Q 31.5 40.046875 27.734375 40.046875 
Q 21.921875 40.046875 16.15625 33.6875 
L 16.15625 10.109375 
Q 16.15625 5.5625 16.703125 4.5 
Q 17.390625 3.078125 18.578125 2.421875 
Q 19.78125 1.765625 23.4375 1.765625 
L 23.4375 0 
L 1.3125 0 
L 1.3125 1.765625 
L 2.296875 1.765625 
Q 5.71875 1.765625 6.90625 3.484375 
Q 8.109375 5.21875 8.109375 10.109375 
L 8.109375 26.703125 
Q 8.109375 34.765625 7.734375 36.515625 
Q 7.375 38.28125 6.609375 38.90625 
Q 5.859375 39.546875 4.59375 39.546875 
Q 3.21875 39.546875 1.3125 38.8125 
L 0.59375 40.578125 
L 14.0625 46.046875 
L 16.15625 46.046875 
z
" id="TimesNewRomanPSMT-110"/>
      <path d="M 16.109375 59.421875 
L 16.109375 44.734375 
L 26.5625 44.734375 
L 26.5625 41.3125 
L 16.109375 41.3125 
L 16.109375 12.3125 
Q 16.109375 7.953125 17.359375 6.4375 
Q 18.609375 4.9375 20.5625 4.9375 
Q 22.171875 4.9375 23.6875 5.9375 
Q 25.203125 6.9375 26.03125 8.890625 
L 27.9375 8.890625 
Q 26.21875 4.109375 23.09375 1.6875 
Q 19.96875 -0.734375 16.65625 -0.734375 
Q 14.40625 -0.734375 12.25 0.515625 
Q 10.109375 1.765625 9.078125 4.078125 
Q 8.0625 6.390625 8.0625 11.234375 
L 8.0625 41.3125 
L 0.984375 41.3125 
L 0.984375 42.921875 
Q 3.65625 44 6.46875 46.5625 
Q 9.28125 49.125 11.46875 52.640625 
Q 12.59375 54.5 14.59375 59.421875 
z
" id="TimesNewRomanPSMT-116"/>
      <path d="M 32.03125 46.046875 
L 32.03125 30.8125 
L 30.421875 30.8125 
Q 28.5625 37.984375 25.65625 40.578125 
Q 22.75 43.171875 18.265625 43.171875 
Q 14.84375 43.171875 12.734375 41.359375 
Q 10.640625 39.546875 10.640625 37.359375 
Q 10.640625 34.625 12.203125 32.671875 
Q 13.71875 30.671875 18.359375 28.421875 
L 25.484375 24.953125 
Q 35.40625 20.125 35.40625 12.203125 
Q 35.40625 6.109375 30.78125 2.359375 
Q 26.171875 -1.375 20.453125 -1.375 
Q 16.359375 -1.375 11.078125 0.09375 
Q 9.46875 0.59375 8.453125 0.59375 
Q 7.328125 0.59375 6.6875 -0.6875 
L 5.078125 -0.6875 
L 5.078125 15.28125 
L 6.6875 15.28125 
Q 8.0625 8.453125 11.90625 4.984375 
Q 15.765625 1.515625 20.5625 1.515625 
Q 23.921875 1.515625 26.046875 3.484375 
Q 28.171875 5.46875 28.171875 8.25 
Q 28.171875 11.625 25.796875 13.921875 
Q 23.4375 16.21875 16.359375 19.734375 
Q 9.28125 23.25 7.078125 26.078125 
Q 4.890625 28.859375 4.890625 33.109375 
Q 4.890625 38.625 8.671875 42.328125 
Q 12.453125 46.046875 18.453125 46.046875 
Q 21.09375 46.046875 24.859375 44.921875 
Q 27.34375 44.1875 28.171875 44.1875 
Q 28.953125 44.1875 29.390625 44.53125 
Q 29.828125 44.875 30.421875 46.046875 
z
" id="TimesNewRomanPSMT-115"/>
     </defs>
     <g transform="translate(15.5325 253.859062)rotate(-90)scale(0.12 -0.12)">
      <use xlink:href="#TimesNewRomanPSMT-67"/>
      <use x="66.699219" xlink:href="#TimesNewRomanPSMT-111"/>
      <use x="116.699219" xlink:href="#TimesNewRomanPSMT-101"/>
      <use x="161.083984" xlink:href="#TimesNewRomanPSMT-102"/>
      <use x="192.634766" xlink:href="#TimesNewRomanPSMT-102"/>
      <use x="225.935547" xlink:href="#TimesNewRomanPSMT-105"/>
      <use x="253.71875" xlink:href="#TimesNewRomanPSMT-99"/>
      <use x="298.103516" xlink:href="#TimesNewRomanPSMT-105"/>
      <use x="325.886719" xlink:href="#TimesNewRomanPSMT-101"/>
      <use x="370.271484" xlink:href="#TimesNewRomanPSMT-110"/>
      <use x="420.271484" xlink:href="#TimesNewRomanPSMT-116"/>
      <use x="448.054688" xlink:href="#TimesNewRomanPSMT-115"/>
     </g>
    </g>
   </g>
   <g id="line2d_40">
    <path clip-path="url(#p934eee80e8)" d="M 580.731364 285.027664 
L 570.378859 285.027664 
L 560.026354 285.027664 
L 549.67385 285.027664 
L 539.321345 285.027664 
L 528.96884 285.027664 
L 518.616336 285.027664 
L 508.263831 285.027664 
L 497.911327 285.027664 
L 487.558822 285.027664 
L 477.206317 285.027664 
L 466.853813 285.027664 
L 456.501308 285.027664 
L 446.148803 285.027664 
L 435.796299 285.027664 
L 425.443794 285.027664 
L 415.091289 285.027664 
L 404.738785 285.027664 
L 394.38628 285.027664 
L 384.033776 285.027664 
L 373.681271 285.027664 
L 363.328766 285.027664 
L 352.976262 285.027664 
L 342.623757 285.027664 
L 332.271252 285.027664 
L 321.918748 285.027664 
L 311.566243 285.027664 
L 301.213738 285.027664 
L 290.861234 285.027664 
L 280.508729 285.027664 
L 270.156224 285.027664 
L 259.80372 285.027664 
L 249.451215 285.027664 
L 239.098711 285.027664 
L 228.746206 285.027664 
L 218.393701 285.027664 
L 208.041197 285.027664 
L 197.688692 285.027664 
L 187.336187 285.027664 
L 176.983683 285.027664 
L 166.631178 285.027664 
L 156.278673 293.761841 
L 145.926169 302.174518 
L 135.573664 309.542285 
L 125.22116 315.741099 
L 114.868655 319.927177 
L 104.51615 323.441304 
L 94.163646 326.528268 
L 83.811141 329.220412 
L 73.458636 331.560946 
" style="fill:none;stroke:#1f77b4;stroke-linecap:square;stroke-width:1.5;"/>
   </g>
   <g id="line2d_41">
    <path clip-path="url(#p934eee80e8)" d="M 580.731364 285.027664 
L 570.378859 285.027664 
L 560.026354 285.027664 
L 549.67385 285.027664 
L 539.321345 285.027664 
L 528.96884 285.027664 
L 518.616336 285.027664 
L 508.263831 285.027664 
L 497.911327 285.027664 
L 487.558822 285.027664 
L 477.206317 285.027664 
L 466.853813 285.027664 
L 456.501308 285.027664 
L 446.148803 285.027664 
L 435.796299 285.027664 
L 425.443794 285.027664 
L 415.091289 285.027664 
L 404.738785 285.027664 
L 394.38628 285.027664 
L 384.033776 285.027664 
L 373.681271 285.027664 
L 363.328766 285.027664 
L 352.976262 285.027664 
L 342.623757 285.027664 
L 332.271252 285.027664 
L 321.918748 285.027664 
L 311.566243 285.027664 
L 301.213738 285.027664 
L 290.861234 285.027664 
L 280.508729 285.027664 
L 270.156224 285.027664 
L 259.80372 285.027664 
L 249.451215 279.761744 
L 239.098711 271.185619 
L 228.746206 263.462489 
L 218.393701 256.172613 
L 208.041197 249.627328 
L 197.688692 235.913466 
L 187.336187 221.025617 
L 176.983683 198.474383 
L 166.631178 176.522323 
L 156.278673 147.629583 
L 145.926169 121.99251 
L 135.573664 99.653141 
L 125.22116 80.454817 
L 114.868655 65.209214 
L 104.51615 52.358761 
L 94.163646 42.694091 
L 83.811141 34.279333 
L 73.458636 26.967273 
" style="fill:none;stroke:#ff7f0e;stroke-linecap:square;stroke-width:1.5;"/>
   </g>
   <g id="line2d_42">
    <path clip-path="url(#p934eee80e8)" d="M 580.731364 285.027664 
L 570.378859 285.027664 
L 560.026354 285.027664 
L 549.67385 285.027664 
L 539.321345 285.027664 
L 528.96884 285.027664 
L 518.616336 285.027664 
L 508.263831 285.027664 
L 497.911327 285.027664 
L 487.558822 285.027664 
L 477.206317 285.027664 
L 466.853813 283.782815 
L 456.501308 273.630849 
L 446.148803 264.690817 
L 435.796299 256.925423 
L 425.443794 250.048674 
L 415.091289 243.458764 
L 404.738785 237.735705 
L 394.38628 232.764873 
L 384.033776 228.448503 
L 373.681271 225.525743 
L 363.328766 222.990514 
L 352.976262 220.788082 
L 342.623757 219.273389 
L 332.271252 218.309542 
L 321.918748 217.472466 
L 311.566243 216.745466 
L 301.213738 216.03112 
L 290.861234 214.686743 
L 280.508729 213.047862 
L 270.156224 211.624651 
L 259.80372 210.515903 
L 249.451215 210.875676 
L 239.098711 209.836741 
L 228.746206 208.228429 
L 218.393701 205.024675 
L 208.041197 202.79708 
L 197.688692 197.63727 
L 187.336187 192.6664 
L 176.983683 186.997204 
L 166.631178 181.748523 
L 156.278673 183.773827 
L 145.926169 186.265461 
L 135.573664 188.478127 
L 125.22116 190.37828 
L 114.868655 191.674395 
L 104.51615 192.648164 
L 94.163646 193.044424 
L 83.811141 193.39783 
L 73.458636 193.706744 
" style="fill:none;stroke:#2ca02c;stroke-linecap:square;stroke-width:1.5;"/>
   </g>
   <g id="line2d_43">
    <path clip-path="url(#p934eee80e8)" d="M 580.731364 285.027664 
L 570.378859 285.027664 
L 560.026354 285.027664 
L 549.67385 285.027664 
L 539.321345 285.027664 
L 528.96884 285.027664 
L 518.616336 285.027664 
L 508.263831 285.027664 
L 497.911327 285.027664 
L 487.558822 285.027664 
L 477.206317 285.027664 
L 466.853813 285.027664 
L 456.501308 285.027664 
L 446.148803 285.027664 
L 435.796299 285.027664 
L 425.443794 285.027664 
L 415.091289 285.027664 
L 404.738785 285.027664 
L 394.38628 285.027664 
L 384.033776 285.027664 
L 373.681271 285.027664 
L 363.328766 285.027664 
L 352.976262 285.027664 
L 342.623757 285.027664 
L 332.271252 285.027664 
L 321.918748 285.027664 
L 311.566243 285.027664 
L 301.213738 285.027664 
L 290.861234 285.027664 
L 280.508729 285.027664 
L 270.156224 285.027664 
L 259.80372 285.027664 
L 249.451215 285.027664 
L 239.098711 287.747701 
L 228.746206 290.960886 
L 218.393701 294.909099 
L 208.041197 298.002877 
L 197.688692 301.934182 
L 187.336187 306.062955 
L 176.983683 311.407983 
L 166.631178 316.432047 
L 156.278673 317.615834 
L 145.926169 318.235349 
L 135.573664 318.750046 
L 125.22116 319.170993 
L 114.868655 319.531328 
L 104.51615 319.914101 
L 94.163646 320.487847 
L 83.811141 320.982182 
L 73.458636 321.410609 
" style="fill:none;stroke:#d62728;stroke-linecap:square;stroke-width:1.5;"/>
   </g>
   <g id="line2d_44">
    <path clip-path="url(#p934eee80e8)" d="M 580.731364 285.027664 
L 570.378859 285.027664 
L 560.026354 285.027664 
L 549.67385 285.027664 
L 539.321345 285.027664 
L 528.96884 285.027664 
L 518.616336 285.027664 
L 508.263831 285.027664 
L 497.911327 285.027664 
L 487.558822 285.027664 
L 477.206317 285.027664 
L 466.853813 285.027664 
L 456.501308 292.222675 
L 446.148803 296.034223 
L 435.796299 299.343184 
L 425.443794 302.360082 
L 415.091289 305.653348 
L 404.738785 308.512785 
L 394.38628 310.996984 
L 384.033776 313.154354 
L 373.681271 316.752849 
L 363.328766 319.882675 
L 352.976262 322.601682 
L 342.623757 316.985946 
L 332.271252 312.101254 
L 321.918748 307.859675 
L 311.566243 304.176028 
L 301.213738 299.779151 
L 290.861234 295.003588 
L 280.508729 290.344994 
L 270.156224 286.301042 
L 259.80372 285.027664 
L 249.451215 285.027664 
L 239.098711 285.027664 
L 228.746206 285.027664 
L 218.393701 285.027664 
L 208.041197 285.027664 
L 197.688692 285.027664 
L 187.336187 289.244542 
L 176.983683 305.657708 
L 166.631178 322.900589 
L 156.278673 340.43703 
L 145.926169 355.543548 
L 135.573664 368.685274 
L 125.22116 380.467817 
L 114.868655 392.107781 
L 104.51615 402.011481 
L 94.163646 409.744708 
L 83.811141 416.470239 
L 73.458636 422.312727 
" style="fill:none;stroke:#9467bd;stroke-linecap:square;stroke-width:1.5;"/>
   </g>
   <g id="line2d_45">
    <path clip-path="url(#p934eee80e8)" d="M 580.731364 285.027664 
L 570.378859 285.027664 
L 560.026354 285.027664 
L 549.67385 285.027664 
L 539.321345 285.027664 
L 528.96884 285.027664 
L 518.616336 285.027664 
L 508.263831 285.027664 
L 497.911327 285.027664 
L 487.558822 285.027664 
L 477.206317 285.027664 
L 466.853813 285.027664 
L 456.501308 285.027664 
L 446.148803 285.027664 
L 435.796299 285.027664 
L 425.443794 285.027664 
L 415.091289 285.027664 
L 404.738785 285.027664 
L 394.38628 285.027664 
L 384.033776 285.027664 
L 373.681271 285.027664 
L 363.328766 285.027664 
L 352.976262 285.027664 
L 342.623757 283.552814 
L 332.271252 281.380034 
L 321.918748 279.492944 
L 311.566243 277.853984 
L 301.213738 275.431757 
L 290.861234 273.974984 
L 280.508729 273.245344 
L 270.156224 272.612255 
L 259.80372 272.382617 
L 249.451215 269.863666 
L 239.098711 266.625002 
L 228.746206 263.911442 
L 218.393701 262.853169 
L 208.041197 263.388259 
L 197.688692 261.499174 
L 187.336187 259.650658 
L 176.983683 256.72846 
L 166.631178 253.769813 
L 156.278673 250.12459 
L 145.926169 246.955456 
L 135.573664 244.19275 
L 125.22116 241.764829 
L 114.868655 239.572693 
L 104.51615 237.678113 
L 94.163646 235.923729 
L 83.811141 234.398072 
L 73.458636 233.072657 
" style="fill:none;stroke:#8c564b;stroke-linecap:square;stroke-width:1.5;"/>
   </g>
   <g id="line2d_46">
    <path clip-path="url(#p934eee80e8)" d="M 580.731364 285.027664 
L 570.378859 285.027664 
L 560.026354 285.027664 
L 549.67385 285.027664 
L 539.321345 285.027664 
L 528.96884 285.027664 
L 518.616336 285.027664 
L 508.263831 285.027664 
L 497.911327 285.027664 
L 487.558822 285.027664 
L 477.206317 285.027664 
L 466.853813 285.027664 
L 456.501308 285.027664 
L 446.148803 285.027664 
L 435.796299 285.027664 
L 425.443794 286.323306 
L 415.091289 293.525876 
L 404.738785 299.778269 
L 394.38628 305.211342 
L 384.033776 309.927391 
L 373.681271 312.797446 
L 363.328766 315.283805 
L 352.976262 317.447044 
L 342.623757 318.664512 
L 332.271252 319.748413 
L 321.918748 320.690027 
L 311.566243 321.507889 
L 301.213738 323.588508 
L 290.861234 322.379607 
L 280.508729 319.169237 
L 270.156224 316.38 
L 259.80372 313.977738 
L 249.451215 312.371138 
L 239.098711 312.084833 
L 228.746206 312.077894 
L 218.393701 312.262917 
L 208.041197 312.695698 
L 197.688692 314.320489 
L 187.336187 315.507954 
L 176.983683 315.508578 
L 166.631178 315.243786 
L 156.278673 314.619886 
L 145.926169 314.02475 
L 135.573664 313.505621 
L 125.22116 313.069568 
L 114.868655 312.760396 
L 104.51615 312.532371 
L 94.163646 312.579586 
L 83.811141 312.619635 
L 73.458636 312.654201 
" style="fill:none;stroke:#e377c2;stroke-linecap:square;stroke-width:1.5;"/>
   </g>
   <g id="line2d_47">
    <path clip-path="url(#p934eee80e8)" d="M 580.731364 285.027664 
L 570.378859 285.027664 
L 560.026354 285.027664 
L 549.67385 285.027664 
L 539.321345 285.027664 
L 528.96884 285.027664 
L 518.616336 285.027664 
L 508.263831 285.027664 
L 497.911327 285.027664 
L 487.558822 285.027664 
L 477.206317 285.027664 
L 466.853813 285.027664 
L 456.501308 285.027664 
L 446.148803 285.027664 
L 435.796299 285.027664 
L 425.443794 285.027664 
L 415.091289 285.027664 
L 404.738785 285.027664 
L 394.38628 285.027664 
L 384.033776 285.027664 
L 373.681271 285.027664 
L 363.328766 285.027664 
L 352.976262 285.027664 
L 342.623757 285.027664 
L 332.271252 285.027664 
L 321.918748 285.027664 
L 311.566243 285.027664 
L 301.213738 285.027664 
L 290.861234 285.027664 
L 280.508729 285.027664 
L 270.156224 285.027664 
L 259.80372 285.027664 
L 249.451215 285.027664 
L 239.098711 285.027664 
L 228.746206 285.027664 
L 218.393701 281.908717 
L 208.041197 275.77477 
L 197.688692 274.538227 
L 187.336187 275.384399 
L 176.983683 276.642332 
L 166.631178 277.320802 
L 156.278673 278.476918 
L 145.926169 279.296294 
L 135.573664 280.017167 
L 125.22116 280.209709 
L 114.868655 278.509992 
L 104.51615 276.964727 
L 94.163646 275.330243 
L 83.811141 273.914071 
L 73.458636 272.684938 
" style="fill:none;stroke:#7f7f7f;stroke-linecap:square;stroke-width:1.5;"/>
   </g>
   <g id="line2d_48">
    <path clip-path="url(#p934eee80e8)" d="M 580.731364 285.027664 
L 570.378859 285.027664 
L 560.026354 285.027664 
L 549.67385 285.027664 
L 539.321345 285.027664 
L 528.96884 285.027664 
L 518.616336 285.027664 
L 508.263831 285.027664 
L 497.911327 285.027664 
L 487.558822 285.027664 
L 477.206317 285.027664 
L 466.853813 285.027664 
L 456.501308 285.027664 
L 446.148803 285.027664 
L 435.796299 285.027664 
L 425.443794 285.027664 
L 415.091289 285.027664 
L 404.738785 285.027664 
L 394.38628 285.027664 
L 384.033776 285.027664 
L 373.681271 285.027664 
L 363.328766 285.027664 
L 352.976262 285.027664 
L 342.623757 285.027664 
L 332.271252 285.027664 
L 321.918748 285.027664 
L 311.566243 285.027664 
L 301.213738 285.027664 
L 290.861234 285.027664 
L 280.508729 285.027664 
L 270.156224 285.027664 
L 259.80372 285.027664 
L 249.451215 285.027664 
L 239.098711 285.027664 
L 228.746206 285.248659 
L 218.393701 291.280836 
L 208.041197 296.297962 
L 197.688692 304.065875 
L 187.336187 311.801552 
L 176.983683 323.629307 
L 166.631178 335.350793 
L 156.278673 346.333217 
L 145.926169 355.80041 
L 135.573664 364.026241 
L 125.22116 371.26276 
L 114.868655 377.897684 
L 104.51615 383.618697 
L 94.163646 388.450159 
L 83.811141 392.648573 
L 73.458636 396.295186 
" style="fill:none;stroke:#bcbd22;stroke-linecap:square;stroke-width:1.5;"/>
   </g>
   <g id="line2d_49">
    <path clip-path="url(#p934eee80e8)" d="M 580.731364 285.027664 
L 570.378859 285.027664 
L 560.026354 285.027664 
L 549.67385 285.027664 
L 539.321345 285.027664 
L 528.96884 285.027664 
L 518.616336 285.027664 
L 508.263831 285.027664 
L 497.911327 285.027664 
L 487.558822 285.027664 
L 477.206317 285.027664 
L 466.853813 285.027664 
L 456.501308 285.027664 
L 446.148803 285.027664 
L 435.796299 285.027664 
L 425.443794 285.027664 
L 415.091289 285.027664 
L 404.738785 285.027664 
L 394.38628 285.027664 
L 384.033776 285.027664 
L 373.681271 285.027664 
L 363.328766 285.027664 
L 352.976262 285.027664 
L 342.623757 285.027664 
L 332.271252 285.027664 
L 321.918748 285.027664 
L 311.566243 285.027664 
L 301.213738 285.027664 
L 290.861234 285.027664 
L 280.508729 285.027664 
L 270.156224 285.027664 
L 259.80372 285.027664 
L 249.451215 285.027664 
L 239.098711 285.027664 
L 228.746206 285.027664 
L 218.393701 285.027664 
L 208.041197 285.027664 
L 197.688692 285.027664 
L 187.336187 285.027664 
L 176.983683 285.027664 
L 166.631178 285.027664 
L 156.278673 285.027664 
L 145.926169 285.027664 
L 135.573664 285.027664 
L 125.22116 285.027664 
L 114.868655 285.027664 
L 104.51615 285.027664 
L 94.163646 285.027664 
L 83.811141 285.027664 
L 73.458636 285.027664 
" style="fill:none;stroke:#17becf;stroke-linecap:square;stroke-width:1.5;"/>
   </g>
   <g id="line2d_50">
    <path clip-path="url(#p934eee80e8)" d="M 580.731364 285.027664 
L 570.378859 285.027664 
L 560.026354 285.027664 
L 549.67385 285.027664 
L 539.321345 285.027664 
L 528.96884 285.027664 
L 518.616336 285.027664 
L 508.263831 285.027664 
L 497.911327 285.027664 
L 487.558822 285.027664 
L 477.206317 285.027664 
L 466.853813 285.027664 
L 456.501308 285.027664 
L 446.148803 285.027664 
L 435.796299 285.027664 
L 425.443794 285.027664 
L 415.091289 285.027664 
L 404.738785 285.027664 
L 394.38628 285.027664 
L 384.033776 285.027664 
L 373.681271 285.027664 
L 363.328766 285.027664 
L 352.976262 285.027664 
L 342.623757 285.027664 
L 332.271252 285.027664 
L 321.918748 285.027664 
L 311.566243 285.027664 
L 301.213738 285.027664 
L 290.861234 285.027664 
L 280.508729 285.027664 
L 270.156224 285.027664 
L 259.80372 285.027664 
L 249.451215 285.027664 
L 239.098711 285.027664 
L 228.746206 285.027664 
L 218.393701 285.027664 
L 208.041197 285.027664 
L 197.688692 285.027664 
L 187.336187 285.027664 
L 176.983683 285.027664 
L 166.631178 285.027664 
L 156.278673 285.027664 
L 145.926169 285.027664 
L 135.573664 285.027664 
L 125.22116 285.027664 
L 114.868655 285.027664 
L 104.51615 285.027664 
L 94.163646 285.027664 
L 83.811141 285.027664 
L 73.458636 285.027664 
" style="fill:none;stroke:#1f77b4;stroke-linecap:square;stroke-width:1.5;"/>
   </g>
   <g id="line2d_51">
    <path clip-path="url(#p934eee80e8)" d="M 580.731364 285.027664 
L 570.378859 285.027664 
L 560.026354 285.027664 
L 549.67385 285.027664 
L 539.321345 285.027664 
L 528.96884 285.027664 
L 518.616336 285.027664 
L 508.263831 285.027664 
L 497.911327 285.027664 
L 487.558822 285.027664 
L 477.206317 285.027664 
L 466.853813 285.027664 
L 456.501308 285.027664 
L 446.148803 285.027664 
L 435.796299 285.027664 
L 425.443794 285.027664 
L 415.091289 285.027664 
L 404.738785 285.027664 
L 394.38628 285.027664 
L 384.033776 285.027664 
L 373.681271 285.027664 
L 363.328766 285.027664 
L 352.976262 285.027664 
L 342.623757 285.027664 
L 332.271252 285.027664 
L 321.918748 285.027664 
L 311.566243 285.027664 
L 301.213738 285.027664 
L 290.861234 285.027664 
L 280.508729 285.027664 
L 270.156224 285.027664 
L 259.80372 285.027664 
L 249.451215 281.153607 
L 239.098711 275.462739 
L 228.746206 270.51518 
L 218.393701 268.025572 
L 208.041197 265.263667 
L 197.688692 260.675104 
L 187.336187 257.563487 
L 176.983683 246.391586 
L 166.631178 233.452468 
L 156.278673 221.519968 
L 145.926169 211.147703 
L 135.573664 202.13703 
L 125.22116 193.614323 
L 114.868655 183.257702 
L 104.51615 174.250057 
L 94.163646 166.217312 
L 83.811141 159.240144 
L 73.458636 153.180709 
" style="fill:none;stroke:#ff7f0e;stroke-linecap:square;stroke-width:1.5;"/>
   </g>
   <g id="line2d_52">
    <path clip-path="url(#p934eee80e8)" d="M 580.731364 285.027664 
L 570.378859 285.027664 
L 560.026354 285.027664 
L 549.67385 285.027664 
L 539.321345 285.027664 
L 528.96884 285.027664 
L 518.616336 285.027664 
L 508.263831 285.027664 
L 497.911327 285.027664 
L 487.558822 285.027664 
L 477.206317 285.027664 
L 466.853813 285.027664 
L 456.501308 286.138296 
L 446.148803 294.209797 
L 435.796299 301.220865 
L 425.443794 306.236462 
L 415.091289 305.555024 
L 404.738785 304.966005 
L 394.38628 304.451889 
L 384.033776 304.007339 
L 373.681271 304.672273 
L 363.328766 305.254872 
L 352.976262 305.757468 
L 342.623757 308.849258 
L 332.271252 310.661837 
L 321.918748 312.23553 
L 311.566243 313.60216 
L 301.213738 312.738979 
L 290.861234 316.551811 
L 280.508729 323.118473 
L 270.156224 328.822328 
L 259.80372 333.028718 
L 249.451215 334.880019 
L 239.098711 335.229952 
L 228.746206 335.560836 
L 218.393701 343.06314 
L 208.041197 353.071452 
L 197.688692 358.545651 
L 187.336187 360.751377 
L 176.983683 364.115507 
L 166.631178 368.328056 
L 156.278673 371.337287 
L 145.926169 374.176859 
L 135.573664 376.627681 
L 125.22116 379.148686 
L 114.868655 383.049471 
L 104.51615 386.507163 
L 94.163646 389.733119 
L 83.811141 392.530529 
L 73.458636 394.959099 
" style="fill:none;stroke:#2ca02c;stroke-linecap:square;stroke-width:1.5;"/>
   </g>
   <g id="line2d_53">
    <path clip-path="url(#p934eee80e8)" d="M 580.731364 285.027664 
L 570.378859 285.027664 
L 560.026354 285.027664 
L 549.67385 285.027664 
L 539.321345 285.027664 
L 528.96884 285.027664 
L 518.616336 285.027664 
L 508.263831 285.027664 
L 497.911327 285.027664 
L 487.558822 285.027664 
L 477.206317 285.027664 
L 466.853813 285.027664 
L 456.501308 285.027664 
L 446.148803 285.027664 
L 435.796299 285.027664 
L 425.443794 285.027664 
L 415.091289 285.027664 
L 404.738785 285.027664 
L 394.38628 285.027664 
L 384.033776 285.027664 
L 373.681271 285.027664 
L 363.328766 285.027664 
L 352.976262 285.027664 
L 342.623757 285.027664 
L 332.271252 285.027664 
L 321.918748 285.027664 
L 311.566243 285.027664 
L 301.213738 282.869666 
L 290.861234 279.265372 
L 280.508729 275.199757 
L 270.156224 271.669341 
L 259.80372 268.973119 
L 249.451215 264.873804 
L 239.098711 260.3385 
L 228.746206 256.569512 
L 218.393701 255.967612 
L 208.041197 255.652211 
L 197.688692 257.808379 
L 187.336187 259.726914 
L 176.983683 263.411429 
L 166.631178 267.296667 
L 156.278673 269.050427 
L 145.926169 270.381722 
L 135.573664 271.523233 
L 125.22116 272.511667 
L 114.868655 273.432731 
L 104.51615 274.277303 
L 94.163646 275.157987 
L 83.811141 275.920241 
L 73.458636 276.581682 
" style="fill:none;stroke:#d62728;stroke-linecap:square;stroke-width:1.5;"/>
   </g>
   <g id="line2d_54">
    <path clip-path="url(#p934eee80e8)" d="M 580.731364 285.027664 
L 570.378859 285.027664 
L 560.026354 285.027664 
L 549.67385 285.027664 
L 539.321345 285.027664 
L 528.96884 285.027664 
L 518.616336 285.027664 
L 508.263831 285.027664 
L 497.911327 285.027664 
L 487.558822 285.027664 
L 477.206317 285.027664 
L 466.853813 285.027664 
L 456.501308 285.027664 
L 446.148803 285.027664 
L 435.796299 285.027664 
L 425.443794 285.027664 
L 415.091289 285.027664 
L 404.738785 285.027664 
L 394.38628 285.027664 
L 384.033776 285.027664 
L 373.681271 285.027664 
L 363.328766 285.027664 
L 352.976262 285.027664 
L 342.623757 285.027664 
L 332.271252 285.027664 
L 321.918748 285.027664 
L 311.566243 285.027664 
L 301.213738 285.027664 
L 290.861234 285.027664 
L 280.508729 285.027664 
L 270.156224 285.027664 
L 259.80372 285.027664 
L 249.451215 285.027664 
L 239.098711 285.027664 
L 228.746206 285.027664 
L 218.393701 285.027664 
L 208.041197 285.052533 
L 197.688692 293.246825 
L 187.336187 301.743226 
L 176.983683 312.804791 
L 166.631178 323.252332 
L 156.278673 331.562953 
L 145.926169 338.502601 
L 135.573664 344.526103 
L 125.22116 349.714185 
L 114.868655 353.996943 
L 104.51615 357.764383 
L 94.163646 361.470537 
L 83.811141 364.689312 
L 73.458636 367.484644 
" style="fill:none;stroke:#9467bd;stroke-linecap:square;stroke-width:1.5;"/>
   </g>
   <g id="line2d_55">
    <path clip-path="url(#p934eee80e8)" d="M 580.731364 285.027664 
L 570.378859 285.027664 
L 560.026354 285.027664 
L 549.67385 285.027664 
L 539.321345 285.027664 
L 528.96884 285.027664 
L 518.616336 285.027664 
L 508.263831 285.027664 
L 497.911327 285.027664 
L 487.558822 285.027664 
L 477.206317 285.027664 
L 466.853813 285.027664 
L 456.501308 285.027664 
L 446.148803 285.027664 
L 435.796299 285.027664 
L 425.443794 285.027664 
L 415.091289 285.027664 
L 404.738785 285.027664 
L 394.38628 285.027664 
L 384.033776 285.027664 
L 373.681271 285.027664 
L 363.328766 285.027664 
L 352.976262 285.027664 
L 342.623757 286.747438 
L 332.271252 289.950903 
L 321.918748 292.733227 
L 311.566243 295.149728 
L 301.213738 297.130764 
L 290.861234 299.398127 
L 280.508729 301.745637 
L 270.156224 303.784801 
L 259.80372 305.746533 
L 249.451215 308.337258 
L 239.098711 310.768704 
L 228.746206 312.76698 
L 218.393701 312.251538 
L 208.041197 311.365916 
L 197.688692 311.522063 
L 187.336187 311.473889 
L 176.983683 312.191076 
L 166.631178 313.146703 
L 156.278673 313.765247 
L 145.926169 314.267228 
L 135.573664 314.702275 
L 125.22116 314.550312 
L 114.868655 312.098442 
L 104.51615 309.953079 
L 94.163646 307.989709 
L 83.811141 306.285121 
L 73.458636 304.804948 
" style="fill:none;stroke:#8c564b;stroke-linecap:square;stroke-width:1.5;"/>
   </g>
   <g id="line2d_56">
    <path clip-path="url(#p934eee80e8)" d="M 580.731364 285.027664 
L 570.378859 285.027664 
L 560.026354 285.027664 
L 549.67385 285.027664 
L 539.321345 285.027664 
L 528.96884 285.027664 
L 518.616336 285.027664 
L 508.263831 285.027664 
L 497.911327 285.027664 
L 487.558822 285.027664 
L 477.206317 285.027664 
L 466.853813 285.027664 
L 456.501308 285.027664 
L 446.148803 285.027664 
L 435.796299 285.027664 
L 425.443794 285.027664 
L 415.091289 285.027664 
L 404.738785 285.027664 
L 394.38628 285.027664 
L 384.033776 285.027664 
L 373.681271 285.027664 
L 363.328766 285.027664 
L 352.976262 285.027664 
L 342.623757 285.027664 
L 332.271252 285.027664 
L 321.918748 285.027664 
L 311.566243 285.027664 
L 301.213738 285.027664 
L 290.861234 278.728656 
L 280.508729 269.069428 
L 270.156224 260.680016 
L 259.80372 253.530835 
L 249.451215 248.479987 
L 239.098711 246.12686 
L 228.746206 244.430263 
L 218.393701 241.766281 
L 208.041197 239.668248 
L 197.688692 237.516948 
L 187.336187 236.030632 
L 176.983683 236.476673 
L 166.631178 237.342569 
L 156.278673 238.052351 
L 145.926169 238.599596 
L 135.573664 239.075601 
L 125.22116 239.359379 
L 114.868655 239.000176 
L 104.51615 238.669015 
L 94.163646 238.306774 
L 83.811141 237.993324 
L 73.458636 237.721249 
" style="fill:none;stroke:#e377c2;stroke-linecap:square;stroke-width:1.5;"/>
   </g>
   <g id="line2d_57">
    <path clip-path="url(#p934eee80e8)" d="M 580.731364 285.027664 
L 570.378859 285.027664 
L 560.026354 285.027664 
L 549.67385 285.027664 
L 539.321345 285.027664 
L 528.96884 285.027664 
L 518.616336 285.027664 
L 508.263831 285.027664 
L 497.911327 285.027664 
L 487.558822 285.027664 
L 477.206317 285.027664 
L 466.853813 285.027664 
L 456.501308 291.190411 
L 446.148803 297.354419 
L 435.796299 302.70779 
L 425.443794 307.320897 
L 415.091289 311.15798 
L 404.738785 314.490688 
L 394.38628 317.385048 
L 384.033776 319.899121 
L 373.681271 321.151246 
L 363.328766 322.236533 
L 352.976262 323.179011 
L 342.623757 325.227637 
L 332.271252 327.400204 
L 321.918748 329.287038 
L 311.566243 330.925759 
L 301.213738 332.349967 
L 290.861234 336.321729 
L 280.508729 341.588252 
L 270.156224 346.162223 
L 259.80372 349.889866 
L 249.451215 352.838491 
L 239.098711 354.532445 
L 228.746206 355.805522 
L 218.393701 357.762401 
L 208.041197 359.004441 
L 197.688692 359.586036 
L 187.336187 360.231051 
L 176.983683 358.523584 
L 166.631178 356.207021 
L 156.278673 354.76715 
L 145.926169 353.595214 
L 135.573664 352.582576 
L 125.22116 351.765639 
L 114.868655 351.33498 
L 104.51615 350.96336 
L 94.163646 350.695282 
L 83.811141 350.462688 
L 73.458636 350.260799 
" style="fill:none;stroke:#7f7f7f;stroke-linecap:square;stroke-width:1.5;"/>
   </g>
   <g id="line2d_58">
    <path clip-path="url(#p934eee80e8)" d="M 580.731364 285.027664 
L 570.378859 285.027664 
L 560.026354 285.027664 
L 549.67385 285.027664 
L 539.321345 285.027664 
L 528.96884 285.027664 
L 518.616336 285.027664 
L 508.263831 285.027664 
L 497.911327 285.027664 
L 487.558822 285.027664 
L 477.206317 285.027664 
L 466.853813 285.027664 
L 456.501308 285.027664 
L 446.148803 285.027664 
L 435.796299 285.027664 
L 425.443794 285.027664 
L 415.091289 285.027664 
L 404.738785 285.027664 
L 394.38628 285.027664 
L 384.033776 285.027664 
L 373.681271 285.027664 
L 363.328766 285.027664 
L 352.976262 285.027664 
L 342.623757 285.027664 
L 332.271252 285.027664 
L 321.918748 285.027664 
L 311.566243 285.027664 
L 301.213738 285.027664 
L 290.861234 285.027664 
L 280.508729 285.027664 
L 270.156224 285.027664 
L 259.80372 285.027664 
L 249.451215 285.027664 
L 239.098711 285.027664 
L 228.746206 285.027664 
L 218.393701 285.027664 
L 208.041197 285.027664 
L 197.688692 285.027664 
L 187.336187 285.027664 
L 176.983683 295.688555 
L 166.631178 308.631418 
L 156.278673 319.197329 
L 145.926169 328.222397 
L 135.573664 336.052827 
L 125.22116 343.232256 
L 114.868655 351.097386 
L 104.51615 357.925966 
L 94.163646 363.857048 
L 83.811141 369.007946 
L 73.458636 373.481158 
" style="fill:none;stroke:#bcbd22;stroke-linecap:square;stroke-width:1.5;"/>
   </g>
   <g id="line2d_59">
    <path clip-path="url(#p934eee80e8)" d="M 580.731364 285.027664 
L 570.378859 285.027664 
L 560.026354 285.027664 
L 549.67385 285.027664 
L 539.321345 285.027664 
L 528.96884 285.027664 
L 518.616336 285.027664 
L 508.263831 285.027664 
L 497.911327 285.027664 
L 487.558822 285.027664 
L 477.206317 285.027664 
L 466.853813 285.027664 
L 456.501308 285.027664 
L 446.148803 285.027664 
L 435.796299 285.027664 
L 425.443794 285.027664 
L 415.091289 285.027664 
L 404.738785 285.027664 
L 394.38628 285.027664 
L 384.033776 285.027664 
L 373.681271 285.027664 
L 363.328766 285.027664 
L 352.976262 285.027664 
L 342.623757 285.027664 
L 332.271252 285.027664 
L 321.918748 285.027664 
L 311.566243 285.027664 
L 301.213738 285.027664 
L 290.861234 285.027664 
L 280.508729 285.027664 
L 270.156224 285.027664 
L 259.80372 285.027664 
L 249.451215 285.027664 
L 239.098711 285.027664 
L 228.746206 285.027664 
L 218.393701 285.027664 
L 208.041197 285.027664 
L 197.688692 285.027664 
L 187.336187 285.027664 
L 176.983683 285.027664 
L 166.631178 285.027664 
L 156.278673 285.027664 
L 145.926169 285.027664 
L 135.573664 285.027664 
L 125.22116 286.053018 
L 114.868655 291.473332 
L 104.51615 296.218554 
L 94.163646 300.563828 
L 83.811141 304.336186 
L 73.458636 307.611922 
" style="fill:none;stroke:#17becf;stroke-linecap:square;stroke-width:1.5;"/>
   </g>
   <g id="line2d_60">
    <path clip-path="url(#p934eee80e8)" d="M 580.731364 285.027664 
L 570.378859 285.027664 
L 560.026354 285.027664 
L 549.67385 285.027664 
L 539.321345 285.027664 
L 528.96884 285.027664 
L 518.616336 285.027664 
L 508.263831 285.027664 
L 497.911327 285.027664 
L 487.558822 285.027664 
L 477.206317 285.027664 
L 466.853813 285.027664 
L 456.501308 285.027664 
L 446.148803 285.027664 
L 435.796299 285.027664 
L 425.443794 285.027664 
L 415.091289 285.027664 
L 404.738785 285.027664 
L 394.38628 285.027664 
L 384.033776 285.027664 
L 373.681271 285.027664 
L 363.328766 285.027664 
L 352.976262 285.027664 
L 342.623757 277.5026 
L 332.271252 270.940866 
L 321.918748 265.242525 
L 311.566243 260.293604 
L 301.213738 255.282514 
L 290.861234 249.942489 
L 280.508729 244.723412 
L 270.156224 240.192014 
L 259.80372 237.844244 
L 249.451215 235.254108 
L 239.098711 232.598409 
L 228.746206 230.33111 
L 218.393701 226.340738 
L 208.041197 223.234842 
L 197.688692 217.729261 
L 187.336187 214.528961 
L 176.983683 213.155342 
L 166.631178 211.901248 
L 156.278673 211.363378 
L 145.926169 210.87767 
L 135.573664 210.46175 
L 125.22116 210.118022 
L 114.868655 209.856572 
L 104.51615 209.580827 
L 94.163646 209.149565 
L 83.811141 208.77711 
L 73.458636 208.453993 
" style="fill:none;stroke:#1f77b4;stroke-linecap:square;stroke-width:1.5;"/>
   </g>
   <g id="line2d_61">
    <path clip-path="url(#p934eee80e8)" d="M 580.731364 285.027664 
L 570.378859 285.027664 
L 560.026354 285.027664 
L 549.67385 285.027664 
L 539.321345 285.027664 
L 528.96884 285.027664 
L 518.616336 285.027664 
L 508.263831 285.027664 
L 497.911327 285.027664 
L 487.558822 285.027664 
L 477.206317 285.027664 
L 466.853813 285.027664 
L 456.501308 285.027664 
L 446.148803 285.027664 
L 435.796299 285.027664 
L 425.443794 285.027664 
L 415.091289 285.027664 
L 404.738785 285.027664 
L 394.38628 285.027664 
L 384.033776 285.027664 
L 373.681271 285.027664 
L 363.328766 285.027664 
L 352.976262 285.027664 
L 342.623757 285.027664 
L 332.271252 285.027664 
L 321.918748 285.027664 
L 311.566243 285.027664 
L 301.213738 285.027664 
L 290.861234 285.027664 
L 280.508729 285.027664 
L 270.156224 285.027664 
L 259.80372 285.027664 
L 249.451215 285.027664 
L 239.098711 285.027664 
L 228.746206 285.027664 
L 218.393701 285.027664 
L 208.041197 285.027664 
L 197.688692 285.027664 
L 187.336187 285.027664 
L 176.983683 285.027664 
L 166.631178 285.027664 
L 156.278673 285.027664 
L 145.926169 285.027664 
L 135.573664 285.027664 
L 125.22116 285.027664 
L 114.868655 285.027664 
L 104.51615 284.828746 
L 94.163646 283.139441 
L 83.811141 281.676126 
L 73.458636 280.405908 
" style="fill:none;stroke:#ff7f0e;stroke-linecap:square;stroke-width:1.5;"/>
   </g>
   <g id="line2d_62">
    <path clip-path="url(#p934eee80e8)" d="M 580.731364 285.027664 
L 570.378859 285.027664 
L 560.026354 285.027664 
L 549.67385 285.027664 
L 539.321345 285.027664 
L 528.96884 285.027664 
L 518.616336 285.027664 
L 508.263831 285.027664 
L 497.911327 285.027664 
L 487.558822 285.027664 
L 477.206317 285.027664 
L 466.853813 285.027664 
L 456.501308 285.027664 
L 446.148803 285.027664 
L 435.796299 285.027664 
L 425.443794 285.027664 
L 415.091289 285.027664 
L 404.738785 285.027664 
L 394.38628 285.027664 
L 384.033776 285.027664 
L 373.681271 279.901545 
L 363.328766 275.436043 
L 352.976262 271.558031 
L 342.623757 266.465954 
L 332.271252 261.214299 
L 321.918748 256.653179 
L 311.566243 252.691796 
L 301.213738 249.822644 
L 290.861234 248.822745 
L 280.508729 248.886858 
L 270.156224 248.942302 
L 259.80372 248.872236 
L 249.451215 248.64436 
L 239.098711 248.270251 
L 228.746206 247.948573 
L 218.393701 248.654585 
L 208.041197 249.20234 
L 197.688692 250.051423 
L 187.336187 250.744643 
L 176.983683 251.250247 
L 166.631178 251.673602 
L 156.278673 252.086691 
L 145.926169 252.450591 
L 135.573664 252.766424 
L 125.22116 252.813088 
L 114.868655 251.846416 
L 104.51615 250.994625 
L 94.163646 250.167761 
L 83.811141 249.449993 
L 73.458636 248.826741 
" style="fill:none;stroke:#2ca02c;stroke-linecap:square;stroke-width:1.5;"/>
   </g>
   <g id="line2d_63">
    <path clip-path="url(#p934eee80e8)" d="M 352.976262 442.08 
L 352.976262 7.2 
" style="fill:none;stroke:#000000;stroke-dasharray:5.55,2.4;stroke-dashoffset:0;stroke-width:1.5;"/>
   </g>
   <g id="patch_3">
    <path d="M 48.095 442.08 
L 48.095 7.2 
" style="fill:none;stroke:#000000;stroke-linecap:square;stroke-linejoin:miter;stroke-width:0.8;"/>
   </g>
   <g id="patch_4">
    <path d="M 606.095 442.08 
L 606.095 7.2 
" style="fill:none;stroke:#000000;stroke-linecap:square;stroke-linejoin:miter;stroke-width:0.8;"/>
   </g>
   <g id="patch_5">
    <path d="M 48.095 442.08 
L 606.095 442.08 
" style="fill:none;stroke:#000000;stroke-linecap:square;stroke-linejoin:miter;stroke-width:0.8;"/>
   </g>
   <g id="patch_6">
    <path d="M 48.095 7.2 
L 606.095 7.2 
" style="fill:none;stroke:#000000;stroke-linecap:square;stroke-linejoin:miter;stroke-width:0.8;"/>
   </g>
  </g>
 </g>
 <defs>
  <clipPath id="p934eee80e8">
   <rect height="434.88" width="558" x="48.095" y="7.2"/>
  </clipPath>
 </defs>
</svg>
