<?xml version="1.0" encoding="utf-8" standalone="no"?>
<!DOCTYPE svg PUBLIC "-//W3C//DTD SVG 1.1//EN"
  "http://www.w3.org/Graphics/SVG/1.1/DTD/svg11.dtd">
<!-- Created with matplotlib (https://matplotlib.org/) -->
<svg height="484.379375pt" version="1.1" viewBox="0 0 609.299375 484.379375" width="609.299375pt" xmlns="http://www.w3.org/2000/svg" xmlns:xlink="http://www.w3.org/1999/xlink">
 <defs>
  <style type="text/css">
*{stroke-linecap:butt;stroke-linejoin:round;}
  </style>
 </defs>
 <g id="figure_1">
  <g id="patch_1">
   <path d="M 0 484.379375 
L 609.299375 484.379375 
L 609.299375 0 
L 0 0 
z
" style="fill:#ffffff;"/>
  </g>
  <g id="axes_1">
   <g id="patch_2">
    <path d="M 44.099375 442.08 
L 602.099375 442.08 
L 602.099375 7.2 
L 44.099375 7.2 
z
" style="fill:#ffffff;"/>
   </g>
   <g id="matplotlib.axis_1">
    <g id="xtick_1">
     <g id="line2d_1">
      <defs>
       <path d="M 0 0 
L 0 3.5 
" id="m804c32d3e9" style="stroke:#000000;stroke-width:0.8;"/>
      </defs>
      <g>
       <use style="stroke:#000000;stroke-width:0.8;" x="69.463011" xlink:href="#m804c32d3e9" y="442.08"/>
      </g>
     </g>
     <g id="text_1">
      <!-- $\mathdefault{10^{-3}}$ -->
      <defs>
       <path d="M 11.71875 59.71875 
L 27.828125 67.578125 
L 29.4375 67.578125 
L 29.4375 11.671875 
Q 29.4375 6.109375 29.90625 4.734375 
Q 30.375 3.375 31.828125 2.640625 
Q 33.296875 1.90625 37.796875 1.8125 
L 37.796875 0 
L 12.890625 0 
L 12.890625 1.8125 
Q 17.578125 1.90625 18.9375 2.609375 
Q 20.3125 3.328125 20.84375 4.515625 
Q 21.390625 5.71875 21.390625 11.671875 
L 21.390625 47.40625 
Q 21.390625 54.640625 20.90625 56.6875 
Q 20.5625 58.25 19.65625 58.984375 
Q 18.75 59.71875 17.484375 59.71875 
Q 15.671875 59.71875 12.453125 58.203125 
z
" id="TimesNewRomanPSMT-49"/>
       <path d="M 3.609375 32.71875 
Q 3.609375 44.046875 7.03125 52.21875 
Q 10.453125 60.40625 16.109375 64.40625 
Q 20.515625 67.578125 25.203125 67.578125 
Q 32.8125 67.578125 38.875 59.8125 
Q 46.4375 50.203125 46.4375 33.734375 
Q 46.4375 22.21875 43.109375 14.15625 
Q 39.796875 6.109375 34.640625 2.46875 
Q 29.5 -1.171875 24.703125 -1.171875 
Q 15.234375 -1.171875 8.9375 10.015625 
Q 3.609375 19.4375 3.609375 32.71875 
z
M 13.1875 31.5 
Q 13.1875 17.828125 16.546875 9.1875 
Q 19.34375 1.90625 24.859375 1.90625 
Q 27.484375 1.90625 30.3125 4.265625 
Q 33.15625 6.640625 34.625 12.203125 
Q 36.859375 20.609375 36.859375 35.890625 
Q 36.859375 47.21875 34.515625 54.78125 
Q 32.765625 60.40625 29.984375 62.75 
Q 27.984375 64.359375 25.140625 64.359375 
Q 21.828125 64.359375 19.234375 61.375 
Q 15.71875 57.328125 14.453125 48.625 
Q 13.1875 39.9375 13.1875 31.5 
z
" id="TimesNewRomanPSMT-48"/>
       <path d="M 54.4375 31.25 
L 1.8125 31.25 
L 1.8125 35.25 
L 54.4375 35.25 
z
" id="TimesNewRomanPSMT-8722"/>
       <path d="M 5.078125 53.609375 
Q 7.90625 60.296875 12.21875 63.9375 
Q 16.546875 67.578125 23 67.578125 
Q 30.953125 67.578125 35.203125 62.40625 
Q 38.421875 58.546875 38.421875 54.15625 
Q 38.421875 46.921875 29.34375 39.203125 
Q 35.453125 36.8125 38.578125 32.375 
Q 41.703125 27.9375 41.703125 21.921875 
Q 41.703125 13.328125 36.234375 7.03125 
Q 29.109375 -1.171875 15.578125 -1.171875 
Q 8.890625 -1.171875 6.46875 0.484375 
Q 4.046875 2.15625 4.046875 4.046875 
Q 4.046875 5.46875 5.1875 6.546875 
Q 6.34375 7.625 7.953125 7.625 
Q 9.1875 7.625 10.453125 7.234375 
Q 11.28125 6.984375 14.203125 5.4375 
Q 17.140625 3.90625 18.265625 3.609375 
Q 20.0625 3.078125 22.125 3.078125 
Q 27.09375 3.078125 30.78125 6.9375 
Q 34.46875 10.796875 34.46875 16.0625 
Q 34.46875 19.921875 32.765625 23.578125 
Q 31.5 26.3125 29.984375 27.734375 
Q 27.875 29.6875 24.21875 31.265625 
Q 20.5625 32.859375 16.75 32.859375 
L 15.1875 32.859375 
L 15.1875 34.328125 
Q 19.046875 34.8125 22.921875 37.109375 
Q 26.8125 39.40625 28.5625 42.625 
Q 30.328125 45.84375 30.328125 49.703125 
Q 30.328125 54.734375 27.171875 57.828125 
Q 24.03125 60.9375 19.34375 60.9375 
Q 11.765625 60.9375 6.6875 52.828125 
z
" id="TimesNewRomanPSMT-51"/>
      </defs>
      <g transform="translate(58.603011 459.713125)scale(0.12 -0.12)">
       <use transform="translate(0 0.582813)" xlink:href="#TimesNewRomanPSMT-49"/>
       <use transform="translate(50 0.582813)" xlink:href="#TimesNewRomanPSMT-48"/>
       <use transform="translate(101.502813 60.695312)scale(0.7)" xlink:href="#TimesNewRomanPSMT-8722"/>
       <use transform="translate(140.980352 60.695312)scale(0.7)" xlink:href="#TimesNewRomanPSMT-51"/>
      </g>
     </g>
    </g>
    <g id="xtick_2">
     <g id="line2d_2">
      <g>
       <use style="stroke:#000000;stroke-width:0.8;" x="238.55392" xlink:href="#m804c32d3e9" y="442.08"/>
      </g>
     </g>
     <g id="text_2">
      <!-- $\mathdefault{10^{-2}}$ -->
      <defs>
       <path d="M 45.84375 12.75 
L 41.21875 0 
L 2.15625 0 
L 2.15625 1.8125 
Q 19.390625 17.53125 26.421875 27.484375 
Q 33.453125 37.453125 33.453125 45.703125 
Q 33.453125 52 29.59375 56.046875 
Q 25.734375 60.109375 20.359375 60.109375 
Q 15.484375 60.109375 11.59375 57.25 
Q 7.71875 54.390625 5.859375 48.875 
L 4.046875 48.875 
Q 5.28125 57.90625 10.328125 62.734375 
Q 15.375 67.578125 22.953125 67.578125 
Q 31 67.578125 36.390625 62.40625 
Q 41.796875 57.234375 41.796875 50.203125 
Q 41.796875 45.171875 39.453125 40.140625 
Q 35.84375 32.234375 27.734375 23.390625 
Q 15.578125 10.109375 12.546875 7.375 
L 29.828125 7.375 
Q 35.109375 7.375 37.234375 7.765625 
Q 39.359375 8.15625 41.0625 9.34375 
Q 42.78125 10.546875 44.046875 12.75 
z
" id="TimesNewRomanPSMT-50"/>
      </defs>
      <g transform="translate(227.69392 459.713125)scale(0.12 -0.12)">
       <use transform="translate(0 0.582813)" xlink:href="#TimesNewRomanPSMT-49"/>
       <use transform="translate(50 0.582813)" xlink:href="#TimesNewRomanPSMT-48"/>
       <use transform="translate(101.502813 60.695312)scale(0.7)" xlink:href="#TimesNewRomanPSMT-8722"/>
       <use transform="translate(140.980352 60.695312)scale(0.7)" xlink:href="#TimesNewRomanPSMT-50"/>
      </g>
     </g>
    </g>
    <g id="xtick_3">
     <g id="line2d_3">
      <g>
       <use style="stroke:#000000;stroke-width:0.8;" x="407.64483" xlink:href="#m804c32d3e9" y="442.08"/>
      </g>
     </g>
     <g id="text_3">
      <!-- $\mathdefault{10^{-1}}$ -->
      <g transform="translate(396.78483 459.713125)scale(0.12 -0.12)">
       <use transform="translate(0 0.582813)" xlink:href="#TimesNewRomanPSMT-49"/>
       <use transform="translate(50 0.582813)" xlink:href="#TimesNewRomanPSMT-48"/>
       <use transform="translate(101.502813 60.695312)scale(0.7)" xlink:href="#TimesNewRomanPSMT-8722"/>
       <use transform="translate(140.980352 60.695312)scale(0.7)" xlink:href="#TimesNewRomanPSMT-49"/>
      </g>
     </g>
    </g>
    <g id="xtick_4">
     <g id="line2d_4">
      <g>
       <use style="stroke:#000000;stroke-width:0.8;" x="576.735739" xlink:href="#m804c32d3e9" y="442.08"/>
      </g>
     </g>
     <g id="text_4">
      <!-- $\mathdefault{10^{0}}$ -->
      <g transform="translate(568.275739 459.713125)scale(0.12 -0.12)">
       <use transform="translate(0 0.582813)" xlink:href="#TimesNewRomanPSMT-49"/>
       <use transform="translate(50 0.582813)" xlink:href="#TimesNewRomanPSMT-48"/>
       <use transform="translate(101.502813 60.695312)scale(0.7)" xlink:href="#TimesNewRomanPSMT-48"/>
      </g>
     </g>
    </g>
    <g id="xtick_5">
     <g id="line2d_5">
      <defs>
       <path d="M 0 0 
L 0 2 
" id="me080c7c447" style="stroke:#000000;stroke-width:0.6;"/>
      </defs>
      <g>
       <use style="stroke:#000000;stroke-width:0.6;" x="53.076409" xlink:href="#me080c7c447" y="442.08"/>
      </g>
     </g>
    </g>
    <g id="xtick_6">
     <g id="line2d_6">
      <g>
       <use style="stroke:#000000;stroke-width:0.6;" x="61.725836" xlink:href="#me080c7c447" y="442.08"/>
      </g>
     </g>
    </g>
    <g id="xtick_7">
     <g id="line2d_7">
      <g>
       <use style="stroke:#000000;stroke-width:0.6;" x="120.364447" xlink:href="#me080c7c447" y="442.08"/>
      </g>
     </g>
    </g>
    <g id="xtick_8">
     <g id="line2d_8">
      <g>
       <use style="stroke:#000000;stroke-width:0.6;" x="150.139878" xlink:href="#me080c7c447" y="442.08"/>
      </g>
     </g>
    </g>
    <g id="xtick_9">
     <g id="line2d_9">
      <g>
       <use style="stroke:#000000;stroke-width:0.6;" x="171.265883" xlink:href="#me080c7c447" y="442.08"/>
      </g>
     </g>
    </g>
    <g id="xtick_10">
     <g id="line2d_10">
      <g>
       <use style="stroke:#000000;stroke-width:0.6;" x="187.652485" xlink:href="#me080c7c447" y="442.08"/>
      </g>
     </g>
    </g>
    <g id="xtick_11">
     <g id="line2d_11">
      <g>
       <use style="stroke:#000000;stroke-width:0.6;" x="201.041314" xlink:href="#me080c7c447" y="442.08"/>
      </g>
     </g>
    </g>
    <g id="xtick_12">
     <g id="line2d_12">
      <g>
       <use style="stroke:#000000;stroke-width:0.6;" x="212.361407" xlink:href="#me080c7c447" y="442.08"/>
      </g>
     </g>
    </g>
    <g id="xtick_13">
     <g id="line2d_13">
      <g>
       <use style="stroke:#000000;stroke-width:0.6;" x="222.167318" xlink:href="#me080c7c447" y="442.08"/>
      </g>
     </g>
    </g>
    <g id="xtick_14">
     <g id="line2d_14">
      <g>
       <use style="stroke:#000000;stroke-width:0.6;" x="230.816745" xlink:href="#me080c7c447" y="442.08"/>
      </g>
     </g>
    </g>
    <g id="xtick_15">
     <g id="line2d_15">
      <g>
       <use style="stroke:#000000;stroke-width:0.6;" x="289.455356" xlink:href="#me080c7c447" y="442.08"/>
      </g>
     </g>
    </g>
    <g id="xtick_16">
     <g id="line2d_16">
      <g>
       <use style="stroke:#000000;stroke-width:0.6;" x="319.230787" xlink:href="#me080c7c447" y="442.08"/>
      </g>
     </g>
    </g>
    <g id="xtick_17">
     <g id="line2d_17">
      <g>
       <use style="stroke:#000000;stroke-width:0.6;" x="340.356792" xlink:href="#me080c7c447" y="442.08"/>
      </g>
     </g>
    </g>
    <g id="xtick_18">
     <g id="line2d_18">
      <g>
       <use style="stroke:#000000;stroke-width:0.6;" x="356.743394" xlink:href="#me080c7c447" y="442.08"/>
      </g>
     </g>
    </g>
    <g id="xtick_19">
     <g id="line2d_19">
      <g>
       <use style="stroke:#000000;stroke-width:0.6;" x="370.132223" xlink:href="#me080c7c447" y="442.08"/>
      </g>
     </g>
    </g>
    <g id="xtick_20">
     <g id="line2d_20">
      <g>
       <use style="stroke:#000000;stroke-width:0.6;" x="381.452316" xlink:href="#me080c7c447" y="442.08"/>
      </g>
     </g>
    </g>
    <g id="xtick_21">
     <g id="line2d_21">
      <g>
       <use style="stroke:#000000;stroke-width:0.6;" x="391.258227" xlink:href="#me080c7c447" y="442.08"/>
      </g>
     </g>
    </g>
    <g id="xtick_22">
     <g id="line2d_22">
      <g>
       <use style="stroke:#000000;stroke-width:0.6;" x="399.907654" xlink:href="#me080c7c447" y="442.08"/>
      </g>
     </g>
    </g>
    <g id="xtick_23">
     <g id="line2d_23">
      <g>
       <use style="stroke:#000000;stroke-width:0.6;" x="458.546265" xlink:href="#me080c7c447" y="442.08"/>
      </g>
     </g>
    </g>
    <g id="xtick_24">
     <g id="line2d_24">
      <g>
       <use style="stroke:#000000;stroke-width:0.6;" x="488.321696" xlink:href="#me080c7c447" y="442.08"/>
      </g>
     </g>
    </g>
    <g id="xtick_25">
     <g id="line2d_25">
      <g>
       <use style="stroke:#000000;stroke-width:0.6;" x="509.447701" xlink:href="#me080c7c447" y="442.08"/>
      </g>
     </g>
    </g>
    <g id="xtick_26">
     <g id="line2d_26">
      <g>
       <use style="stroke:#000000;stroke-width:0.6;" x="525.834303" xlink:href="#me080c7c447" y="442.08"/>
      </g>
     </g>
    </g>
    <g id="xtick_27">
     <g id="line2d_27">
      <g>
       <use style="stroke:#000000;stroke-width:0.6;" x="539.223132" xlink:href="#me080c7c447" y="442.08"/>
      </g>
     </g>
    </g>
    <g id="xtick_28">
     <g id="line2d_28">
      <g>
       <use style="stroke:#000000;stroke-width:0.6;" x="550.543225" xlink:href="#me080c7c447" y="442.08"/>
      </g>
     </g>
    </g>
    <g id="xtick_29">
     <g id="line2d_29">
      <g>
       <use style="stroke:#000000;stroke-width:0.6;" x="560.349136" xlink:href="#me080c7c447" y="442.08"/>
      </g>
     </g>
    </g>
    <g id="xtick_30">
     <g id="line2d_30">
      <g>
       <use style="stroke:#000000;stroke-width:0.6;" x="568.998563" xlink:href="#me080c7c447" y="442.08"/>
      </g>
     </g>
    </g>
    <g id="text_5">
     <!-- Lambda(λ=0.0450) -->
     <defs>
      <path d="M 57.328125 18.3125 
L 58.9375 17.96875 
L 53.265625 0 
L 2 0 
L 2 1.8125 
L 4.5 1.8125 
Q 8.6875 1.8125 10.5 4.546875 
Q 11.53125 6.109375 11.53125 11.765625 
L 11.53125 54.5 
Q 11.53125 60.6875 10.15625 62.25 
Q 8.25 64.40625 4.5 64.40625 
L 2 64.40625 
L 2 66.21875 
L 31.984375 66.21875 
L 31.984375 64.40625 
Q 26.703125 64.453125 24.578125 63.421875 
Q 22.46875 62.40625 21.6875 60.84375 
Q 20.90625 59.28125 20.90625 53.375 
L 20.90625 11.765625 
Q 20.90625 7.71875 21.6875 6.203125 
Q 22.265625 5.171875 23.484375 4.6875 
Q 24.703125 4.203125 31.109375 4.203125 
L 35.9375 4.203125 
Q 43.5625 4.203125 46.625 5.328125 
Q 49.703125 6.453125 52.234375 9.296875 
Q 54.78125 12.15625 57.328125 18.3125 
z
" id="TimesNewRomanPSMT-76"/>
      <path d="M 28.46875 6.453125 
Q 21.578125 1.125 19.828125 0.296875 
Q 17.1875 -0.921875 14.203125 -0.921875 
Q 9.578125 -0.921875 6.5625 2.25 
Q 3.5625 5.421875 3.5625 10.59375 
Q 3.5625 13.875 5.03125 16.265625 
Q 7.03125 19.578125 11.984375 22.5 
Q 16.9375 25.4375 28.46875 29.640625 
L 28.46875 31.390625 
Q 28.46875 38.09375 26.34375 40.578125 
Q 24.21875 43.0625 20.171875 43.0625 
Q 17.09375 43.0625 15.28125 41.40625 
Q 13.421875 39.75 13.421875 37.59375 
L 13.53125 34.765625 
Q 13.53125 32.515625 12.375 31.296875 
Q 11.234375 30.078125 9.375 30.078125 
Q 7.5625 30.078125 6.421875 31.34375 
Q 5.28125 32.625 5.28125 34.8125 
Q 5.28125 39.015625 9.578125 42.53125 
Q 13.875 46.046875 21.625 46.046875 
Q 27.59375 46.046875 31.390625 44.046875 
Q 34.28125 42.53125 35.640625 39.3125 
Q 36.53125 37.203125 36.53125 30.71875 
L 36.53125 15.53125 
Q 36.53125 9.125 36.765625 7.6875 
Q 37.015625 6.25 37.578125 5.765625 
Q 38.140625 5.28125 38.875 5.28125 
Q 39.65625 5.28125 40.234375 5.609375 
Q 41.265625 6.25 44.1875 9.1875 
L 44.1875 6.453125 
Q 38.71875 -0.875 33.734375 -0.875 
Q 31.34375 -0.875 29.921875 0.78125 
Q 28.515625 2.4375 28.46875 6.453125 
z
M 28.46875 9.625 
L 28.46875 26.65625 
Q 21.09375 23.734375 18.953125 22.515625 
Q 15.09375 20.359375 13.421875 18.015625 
Q 11.765625 15.671875 11.765625 12.890625 
Q 11.765625 9.375 13.859375 7.046875 
Q 15.96875 4.734375 18.703125 4.734375 
Q 22.40625 4.734375 28.46875 9.625 
z
" id="TimesNewRomanPSMT-97"/>
      <path d="M 16.40625 36.53125 
Q 21.296875 41.40625 22.171875 42.140625 
Q 24.359375 44 26.890625 45.015625 
Q 29.4375 46.046875 31.9375 46.046875 
Q 36.140625 46.046875 39.15625 43.59375 
Q 42.1875 41.15625 43.21875 36.53125 
Q 48.25 42.390625 51.703125 44.21875 
Q 55.171875 46.046875 58.84375 46.046875 
Q 62.40625 46.046875 65.15625 44.21875 
Q 67.921875 42.390625 69.53125 38.234375 
Q 70.609375 35.40625 70.609375 29.34375 
L 70.609375 10.109375 
Q 70.609375 5.90625 71.234375 4.34375 
Q 71.734375 3.265625 73.046875 2.515625 
Q 74.359375 1.765625 77.34375 1.765625 
L 77.34375 0 
L 55.28125 0 
L 55.28125 1.765625 
L 56.203125 1.765625 
Q 59.078125 1.765625 60.6875 2.875 
Q 61.8125 3.65625 62.3125 5.375 
Q 62.5 6.203125 62.5 10.109375 
L 62.5 29.34375 
Q 62.5 34.8125 61.1875 37.0625 
Q 59.28125 40.1875 55.078125 40.1875 
Q 52.484375 40.1875 49.875 38.890625 
Q 47.265625 37.59375 43.5625 34.078125 
L 43.453125 33.546875 
L 43.5625 31.453125 
L 43.5625 10.109375 
Q 43.5625 5.515625 44.0625 4.390625 
Q 44.578125 3.265625 45.984375 2.515625 
Q 47.40625 1.765625 50.828125 1.765625 
L 50.828125 0 
L 28.21875 0 
L 28.21875 1.765625 
Q 31.9375 1.765625 33.328125 2.640625 
Q 34.71875 3.515625 35.25 5.28125 
Q 35.5 6.109375 35.5 10.109375 
L 35.5 29.34375 
Q 35.5 34.8125 33.890625 37.203125 
Q 31.734375 40.328125 27.875 40.328125 
Q 25.25 40.328125 22.65625 38.921875 
Q 18.609375 36.765625 16.40625 34.078125 
L 16.40625 10.109375 
Q 16.40625 5.71875 17.015625 4.390625 
Q 17.625 3.078125 18.8125 2.421875 
Q 20.015625 1.765625 23.6875 1.765625 
L 23.6875 0 
L 1.5625 0 
L 1.5625 1.765625 
Q 4.640625 1.765625 5.859375 2.421875 
Q 7.078125 3.078125 7.703125 4.515625 
Q 8.34375 5.953125 8.34375 10.109375 
L 8.34375 27.203125 
Q 8.34375 34.578125 7.90625 36.71875 
Q 7.5625 38.328125 6.828125 38.9375 
Q 6.109375 39.546875 4.828125 39.546875 
Q 3.46875 39.546875 1.5625 38.8125 
L 0.828125 40.578125 
L 14.3125 46.046875 
L 16.40625 46.046875 
z
" id="TimesNewRomanPSMT-109"/>
      <path d="M 15.375 37.015625 
Q 21.875 46.046875 29.390625 46.046875 
Q 36.28125 46.046875 41.40625 40.15625 
Q 46.53125 34.28125 46.53125 24.078125 
Q 46.53125 12.15625 38.625 4.890625 
Q 31.84375 -1.375 23.484375 -1.375 
Q 19.578125 -1.375 15.546875 0.046875 
Q 11.53125 1.46875 7.328125 4.296875 
L 7.328125 50.640625 
Q 7.328125 58.25 6.953125 60 
Q 6.59375 61.765625 5.8125 62.390625 
Q 5.03125 63.03125 3.859375 63.03125 
Q 2.484375 63.03125 0.4375 62.25 
L -0.25 63.96875 
L 13.1875 69.4375 
L 15.375 69.4375 
z
M 15.375 33.890625 
L 15.375 7.125 
Q 17.875 4.6875 20.53125 3.4375 
Q 23.1875 2.203125 25.984375 2.203125 
Q 30.421875 2.203125 34.25 7.078125 
Q 38.09375 11.96875 38.09375 21.296875 
Q 38.09375 29.890625 34.25 34.5 
Q 30.421875 39.109375 25.53125 39.109375 
Q 22.953125 39.109375 20.359375 37.796875 
Q 18.40625 36.8125 15.375 33.890625 
z
" id="TimesNewRomanPSMT-98"/>
      <path d="M 34.71875 5.03125 
Q 31.453125 1.609375 28.328125 0.109375 
Q 25.203125 -1.375 21.578125 -1.375 
Q 14.265625 -1.375 8.796875 4.75 
Q 3.328125 10.890625 3.328125 20.515625 
Q 3.328125 30.125 9.375 38.109375 
Q 15.4375 46.09375 24.953125 46.09375 
Q 30.859375 46.09375 34.71875 42.328125 
L 34.71875 50.59375 
Q 34.71875 58.25 34.34375 60 
Q 33.984375 61.765625 33.203125 62.390625 
Q 32.421875 63.03125 31.25 63.03125 
Q 29.984375 63.03125 27.875 62.25 
L 27.25 63.96875 
L 40.578125 69.4375 
L 42.78125 69.4375 
L 42.78125 17.71875 
Q 42.78125 9.859375 43.140625 8.125 
Q 43.5 6.390625 44.3125 5.703125 
Q 45.125 5.03125 46.1875 5.03125 
Q 47.515625 5.03125 49.703125 5.859375 
L 50.25 4.15625 
L 36.96875 -1.375 
L 34.71875 -1.375 
z
M 34.71875 8.453125 
L 34.71875 31.5 
Q 34.421875 34.8125 32.953125 37.546875 
Q 31.5 40.28125 29.078125 41.671875 
Q 26.65625 43.0625 24.359375 43.0625 
Q 20.0625 43.0625 16.703125 39.203125 
Q 12.25 34.125 12.25 24.359375 
Q 12.25 14.5 16.546875 9.25 
Q 20.84375 4 26.125 4 
Q 30.5625 4 34.71875 8.453125 
z
" id="TimesNewRomanPSMT-100"/>
      <path d="M 31.0625 -19.578125 
L 31.0625 -21.390625 
Q 23.6875 -17.671875 18.75 -12.703125 
Q 11.71875 -5.609375 7.90625 4 
Q 4.109375 13.625 4.109375 23.96875 
Q 4.109375 39.109375 11.578125 51.578125 
Q 19.046875 64.0625 31.0625 69.4375 
L 31.0625 67.390625 
Q 25.046875 64.0625 21.1875 58.296875 
Q 17.328125 52.546875 15.421875 43.703125 
Q 13.53125 34.859375 13.53125 25.25 
Q 13.53125 14.796875 15.140625 6.25 
Q 16.40625 -0.484375 18.203125 -4.5625 
Q 20.015625 -8.640625 23.0625 -12.390625 
Q 26.125 -16.15625 31.0625 -19.578125 
z
" id="TimesNewRomanPSMT-40"/>
      <path d="M 47.21875 14.0625 
L 48.96875 14.0625 
Q 48.96875 6.34375 46.453125 2.828125 
Q 43.953125 -0.6875 40.1875 -0.6875 
Q 37.109375 -0.6875 34.28125 1.625 
Q 31.453125 3.953125 29.203125 14.0625 
L 25 33.015625 
L 10.453125 0 
L 1.21875 0 
L 22.125 45.015625 
Q 20.453125 53.765625 18.109375 57.953125 
Q 15.765625 62.15625 12.3125 62.15625 
Q 9.515625 62.15625 7.4375 60.03125 
Q 5.375 57.90625 5.125 53.46875 
L 3.375 53.46875 
Q 3.515625 60.640625 6.25 64.953125 
Q 8.984375 69.28125 13.09375 69.28125 
Q 15.71875 69.28125 18.078125 67.109375 
Q 20.453125 64.9375 22.1875 59.6875 
Q 23.921875 54.4375 27.59375 37.9375 
L 31.0625 22.46875 
Q 33.15625 12.84375 35.46875 9.59375 
Q 37.796875 6.34375 41.015625 6.34375 
Q 46.484375 6.34375 47.21875 14.0625 
z
" id="TimesNewRomanPSMT-955"/>
      <path d="M 1.8125 43.109375 
L 54.5 43.109375 
L 54.5 39.109375 
L 1.8125 39.109375 
z
M 1.8125 27.203125 
L 54.5 27.203125 
L 54.5 23.1875 
L 1.8125 23.1875 
z
" id="TimesNewRomanPSMT-61"/>
      <path d="M 12.5 9.46875 
Q 14.796875 9.46875 16.359375 7.875 
Q 17.921875 6.296875 17.921875 4.046875 
Q 17.921875 1.8125 16.328125 0.21875 
Q 14.75 -1.375 12.5 -1.375 
Q 10.25 -1.375 8.65625 0.21875 
Q 7.078125 1.8125 7.078125 4.046875 
Q 7.078125 6.34375 8.65625 7.90625 
Q 10.25 9.46875 12.5 9.46875 
z
" id="TimesNewRomanPSMT-46"/>
      <path d="M 46.53125 24.421875 
L 46.53125 17.484375 
L 37.640625 17.484375 
L 37.640625 0 
L 29.59375 0 
L 29.59375 17.484375 
L 1.5625 17.484375 
L 1.5625 23.734375 
L 32.28125 67.578125 
L 37.640625 67.578125 
L 37.640625 24.421875 
z
M 29.59375 24.421875 
L 29.59375 57.28125 
L 6.34375 24.421875 
z
" id="TimesNewRomanPSMT-52"/>
      <path d="M 43.40625 66.21875 
L 39.59375 57.90625 
L 19.671875 57.90625 
L 15.328125 49.03125 
Q 28.265625 47.125 35.84375 39.40625 
Q 42.328125 32.765625 42.328125 23.78125 
Q 42.328125 18.5625 40.203125 14.109375 
Q 38.09375 9.671875 34.859375 6.546875 
Q 31.640625 3.421875 27.6875 1.515625 
Q 22.078125 -1.171875 16.15625 -1.171875 
Q 10.203125 -1.171875 7.484375 0.84375 
Q 4.78125 2.875 4.78125 5.328125 
Q 4.78125 6.6875 5.90625 7.734375 
Q 7.03125 8.796875 8.734375 8.796875 
Q 10.015625 8.796875 10.96875 8.40625 
Q 11.921875 8.015625 14.203125 6.390625 
Q 17.875 3.859375 21.625 3.859375 
Q 27.34375 3.859375 31.65625 8.171875 
Q 35.984375 12.5 35.984375 18.703125 
Q 35.984375 24.703125 32.125 29.90625 
Q 28.265625 35.109375 21.484375 37.9375 
Q 16.15625 40.140625 6.984375 40.484375 
L 19.671875 66.21875 
z
" id="TimesNewRomanPSMT-53"/>
      <path d="M 2.25 67.390625 
L 2.25 69.4375 
Q 9.671875 65.765625 14.59375 60.796875 
Q 21.578125 53.65625 25.390625 44.0625 
Q 29.203125 34.46875 29.203125 24.078125 
Q 29.203125 8.9375 21.75 -3.53125 
Q 14.3125 -16.015625 2.25 -21.390625 
L 2.25 -19.578125 
Q 8.25 -16.21875 12.125 -10.46875 
Q 16.015625 -4.734375 17.890625 4.125 
Q 19.78125 12.984375 19.78125 22.609375 
Q 19.78125 33.015625 18.171875 41.609375 
Q 16.9375 48.34375 15.109375 52.390625 
Q 13.28125 56.453125 10.25 60.203125 
Q 7.234375 63.96875 2.25 67.390625 
z
" id="TimesNewRomanPSMT-41"/>
     </defs>
     <g transform="translate(276.652812 474.6125)scale(0.12 -0.12)">
      <use xlink:href="#TimesNewRomanPSMT-76"/>
      <use x="61.083984" xlink:href="#TimesNewRomanPSMT-97"/>
      <use x="105.46875" xlink:href="#TimesNewRomanPSMT-109"/>
      <use x="183.251953" xlink:href="#TimesNewRomanPSMT-98"/>
      <use x="233.251953" xlink:href="#TimesNewRomanPSMT-100"/>
      <use x="283.251953" xlink:href="#TimesNewRomanPSMT-97"/>
      <use x="327.636719" xlink:href="#TimesNewRomanPSMT-40"/>
      <use x="360.9375" xlink:href="#TimesNewRomanPSMT-955"/>
      <use x="409.423828" xlink:href="#TimesNewRomanPSMT-61"/>
      <use x="465.820312" xlink:href="#TimesNewRomanPSMT-48"/>
      <use x="515.820312" xlink:href="#TimesNewRomanPSMT-46"/>
      <use x="540.820312" xlink:href="#TimesNewRomanPSMT-48"/>
      <use x="590.820312" xlink:href="#TimesNewRomanPSMT-52"/>
      <use x="640.820312" xlink:href="#TimesNewRomanPSMT-53"/>
      <use x="690.820312" xlink:href="#TimesNewRomanPSMT-48"/>
      <use x="740.820312" xlink:href="#TimesNewRomanPSMT-41"/>
     </g>
    </g>
   </g>
   <g id="matplotlib.axis_2">
    <g id="ytick_1">
     <g id="line2d_31">
      <defs>
       <path d="M 0 0 
L -3.5 0 
" id="m022120210c" style="stroke:#000000;stroke-width:0.8;"/>
      </defs>
      <g>
       <use style="stroke:#000000;stroke-width:0.8;" x="44.099375" xlink:href="#m022120210c" y="407.877392"/>
      </g>
     </g>
     <g id="text_6">
      <!-- 0.1 -->
      <g transform="translate(22.099375 412.043642)scale(0.12 -0.12)">
       <use xlink:href="#TimesNewRomanPSMT-48"/>
       <use x="50" xlink:href="#TimesNewRomanPSMT-46"/>
       <use x="75" xlink:href="#TimesNewRomanPSMT-49"/>
      </g>
     </g>
    </g>
    <g id="ytick_2">
     <g id="line2d_32">
      <g>
       <use style="stroke:#000000;stroke-width:0.8;" x="44.099375" xlink:href="#m022120210c" y="288.819452"/>
      </g>
     </g>
     <g id="text_7">
      <!-- 0.2 -->
      <g transform="translate(22.099375 292.985702)scale(0.12 -0.12)">
       <use xlink:href="#TimesNewRomanPSMT-48"/>
       <use x="50" xlink:href="#TimesNewRomanPSMT-46"/>
       <use x="75" xlink:href="#TimesNewRomanPSMT-50"/>
      </g>
     </g>
    </g>
    <g id="ytick_3">
     <g id="line2d_33">
      <g>
       <use style="stroke:#000000;stroke-width:0.8;" x="44.099375" xlink:href="#m022120210c" y="169.761512"/>
      </g>
     </g>
     <g id="text_8">
      <!-- 0.3 -->
      <g transform="translate(22.099375 173.927762)scale(0.12 -0.12)">
       <use xlink:href="#TimesNewRomanPSMT-48"/>
       <use x="50" xlink:href="#TimesNewRomanPSMT-46"/>
       <use x="75" xlink:href="#TimesNewRomanPSMT-51"/>
      </g>
     </g>
    </g>
    <g id="ytick_4">
     <g id="line2d_34">
      <g>
       <use style="stroke:#000000;stroke-width:0.8;" x="44.099375" xlink:href="#m022120210c" y="50.703572"/>
      </g>
     </g>
     <g id="text_9">
      <!-- 0.4 -->
      <g transform="translate(22.099375 54.869822)scale(0.12 -0.12)">
       <use xlink:href="#TimesNewRomanPSMT-48"/>
       <use x="50" xlink:href="#TimesNewRomanPSMT-46"/>
       <use x="75" xlink:href="#TimesNewRomanPSMT-52"/>
      </g>
     </g>
    </g>
    <g id="text_10">
     <!-- MSE -->
     <defs>
      <path d="M 40.921875 0 
L 15.328125 55.71875 
L 15.328125 11.46875 
Q 15.328125 5.375 16.65625 3.859375 
Q 18.453125 1.8125 22.359375 1.8125 
L 24.703125 1.8125 
L 24.703125 0 
L 1.65625 0 
L 1.65625 1.8125 
L 4 1.8125 
Q 8.203125 1.8125 9.96875 4.34375 
Q 11.03125 5.90625 11.03125 11.46875 
L 11.03125 54.734375 
Q 11.03125 59.125 10.0625 61.078125 
Q 9.375 62.5 7.546875 63.453125 
Q 5.71875 64.40625 1.65625 64.40625 
L 1.65625 66.21875 
L 20.40625 66.21875 
L 44.4375 14.40625 
L 68.0625 66.21875 
L 86.8125 66.21875 
L 86.8125 64.40625 
L 84.515625 64.40625 
Q 80.28125 64.40625 78.515625 61.859375 
Q 77.4375 60.296875 77.4375 54.734375 
L 77.4375 11.46875 
Q 77.4375 5.375 78.8125 3.859375 
Q 80.609375 1.8125 84.515625 1.8125 
L 86.8125 1.8125 
L 86.8125 0 
L 58.6875 0 
L 58.6875 1.8125 
L 61.03125 1.8125 
Q 65.28125 1.8125 67 4.34375 
Q 68.0625 5.90625 68.0625 11.46875 
L 68.0625 55.71875 
L 42.53125 0 
z
" id="TimesNewRomanPSMT-77"/>
      <path d="M 45.84375 67.71875 
L 45.84375 44.828125 
L 44.046875 44.828125 
Q 43.171875 51.421875 40.890625 55.328125 
Q 38.625 59.234375 34.421875 61.515625 
Q 30.21875 63.8125 25.734375 63.8125 
Q 20.65625 63.8125 17.328125 60.71875 
Q 14.015625 57.625 14.015625 53.65625 
Q 14.015625 50.640625 16.109375 48.140625 
Q 19.140625 44.484375 30.515625 38.375 
Q 39.796875 33.40625 43.1875 30.734375 
Q 46.578125 28.078125 48.40625 24.453125 
Q 50.25 20.84375 50.25 16.890625 
Q 50.25 9.375 44.40625 3.921875 
Q 38.578125 -1.515625 29.390625 -1.515625 
Q 26.515625 -1.515625 23.96875 -1.078125 
Q 22.46875 -0.828125 17.703125 0.703125 
Q 12.9375 2.25 11.671875 2.25 
Q 10.453125 2.25 9.734375 1.515625 
Q 9.03125 0.78125 8.6875 -1.515625 
L 6.890625 -1.515625 
L 6.890625 21.1875 
L 8.6875 21.1875 
Q 9.96875 14.0625 12.109375 10.515625 
Q 14.265625 6.984375 18.671875 4.640625 
Q 23.09375 2.296875 28.375 2.296875 
Q 34.46875 2.296875 38 5.515625 
Q 41.546875 8.734375 41.546875 13.140625 
Q 41.546875 15.578125 40.203125 18.0625 
Q 38.875 20.5625 36.03125 22.703125 
Q 34.125 24.171875 25.625 28.921875 
Q 17.140625 33.6875 13.546875 36.515625 
Q 9.96875 39.359375 8.109375 42.765625 
Q 6.25 46.1875 6.25 50.296875 
Q 6.25 57.421875 11.71875 62.5625 
Q 17.1875 67.71875 25.640625 67.71875 
Q 30.90625 67.71875 36.8125 65.140625 
Q 39.546875 63.921875 40.671875 63.921875 
Q 41.9375 63.921875 42.75 64.671875 
Q 43.5625 65.4375 44.046875 67.71875 
z
" id="TimesNewRomanPSMT-83"/>
      <path d="M 20.90625 62.59375 
L 20.90625 36.421875 
L 35.453125 36.421875 
Q 41.109375 36.421875 43.015625 38.140625 
Q 45.5625 40.375 45.84375 46.046875 
L 47.65625 46.046875 
L 47.65625 23 
L 45.84375 23 
Q 45.171875 27.828125 44.484375 29.203125 
Q 43.609375 30.90625 41.59375 31.875 
Q 39.59375 32.859375 35.453125 32.859375 
L 20.90625 32.859375 
L 20.90625 11.03125 
Q 20.90625 6.640625 21.296875 5.6875 
Q 21.6875 4.734375 22.65625 4.171875 
Q 23.640625 3.609375 26.375 3.609375 
L 37.59375 3.609375 
Q 43.21875 3.609375 45.75 4.390625 
Q 48.296875 5.171875 50.640625 7.46875 
Q 53.65625 10.5 56.84375 16.609375 
L 58.796875 16.609375 
L 53.078125 0 
L 2.046875 0 
L 2.046875 1.8125 
L 4.390625 1.8125 
Q 6.734375 1.8125 8.84375 2.9375 
Q 10.40625 3.71875 10.96875 5.28125 
Q 11.53125 6.84375 11.53125 11.671875 
L 11.53125 54.6875 
Q 11.53125 60.984375 10.25 62.453125 
Q 8.5 64.40625 4.390625 64.40625 
L 2.046875 64.40625 
L 2.046875 66.21875 
L 53.078125 66.21875 
L 53.8125 51.703125 
L 51.90625 51.703125 
Q 50.875 56.9375 49.625 58.890625 
Q 48.390625 60.84375 45.953125 61.859375 
Q 44 62.59375 39.0625 62.59375 
z
" id="TimesNewRomanPSMT-69"/>
     </defs>
     <g transform="translate(15.5325 236.976562)rotate(-90)scale(0.12 -0.12)">
      <use xlink:href="#TimesNewRomanPSMT-77"/>
      <use x="88.916016" xlink:href="#TimesNewRomanPSMT-83"/>
      <use x="144.53125" xlink:href="#TimesNewRomanPSMT-69"/>
     </g>
    </g>
   </g>
   <g id="LineCollection_1">
    <path clip-path="url(#pec5a7e2307)" d="M 576.735739 299.024926 
L 576.735739 121.05198 
" style="fill:none;stroke:#0000ff;stroke-width:2;"/>
    <path clip-path="url(#pec5a7e2307)" d="M 566.383234 299.024926 
L 566.383234 121.05198 
" style="fill:none;stroke:#0000ff;stroke-width:2;"/>
    <path clip-path="url(#pec5a7e2307)" d="M 556.030729 299.024926 
L 556.030729 121.05198 
" style="fill:none;stroke:#0000ff;stroke-width:2;"/>
    <path clip-path="url(#pec5a7e2307)" d="M 545.678225 299.024926 
L 545.678225 121.05198 
" style="fill:none;stroke:#0000ff;stroke-width:2;"/>
    <path clip-path="url(#pec5a7e2307)" d="M 535.32572 299.024926 
L 535.32572 121.05198 
" style="fill:none;stroke:#0000ff;stroke-width:2;"/>
    <path clip-path="url(#pec5a7e2307)" d="M 524.973215 299.024926 
L 524.973215 121.05198 
" style="fill:none;stroke:#0000ff;stroke-width:2;"/>
    <path clip-path="url(#pec5a7e2307)" d="M 514.620711 299.024926 
L 514.620711 121.05198 
" style="fill:none;stroke:#0000ff;stroke-width:2;"/>
    <path clip-path="url(#pec5a7e2307)" d="M 504.268206 299.024926 
L 504.268206 121.05198 
" style="fill:none;stroke:#0000ff;stroke-width:2;"/>
    <path clip-path="url(#pec5a7e2307)" d="M 493.915702 299.024926 
L 493.915702 121.05198 
" style="fill:none;stroke:#0000ff;stroke-width:2;"/>
    <path clip-path="url(#pec5a7e2307)" d="M 483.563197 299.024926 
L 483.563197 121.05198 
" style="fill:none;stroke:#0000ff;stroke-width:2;"/>
    <path clip-path="url(#pec5a7e2307)" d="M 473.210692 299.024926 
L 473.210692 121.05198 
" style="fill:none;stroke:#0000ff;stroke-width:2;"/>
    <path clip-path="url(#pec5a7e2307)" d="M 462.858188 301.254055 
L 462.858188 121.193728 
" style="fill:none;stroke:#0000ff;stroke-width:2;"/>
    <path clip-path="url(#pec5a7e2307)" d="M 452.505683 313.635354 
L 452.505683 126.472897 
" style="fill:none;stroke:#0000ff;stroke-width:2;"/>
    <path clip-path="url(#pec5a7e2307)" d="M 442.153178 336.565388 
L 442.153178 141.830355 
" style="fill:none;stroke:#0000ff;stroke-width:2;"/>
    <path clip-path="url(#pec5a7e2307)" d="M 431.800674 359.747802 
L 431.800674 158.38461 
" style="fill:none;stroke:#0000ff;stroke-width:2;"/>
    <path clip-path="url(#pec5a7e2307)" d="M 421.448169 379.454211 
L 421.448169 171.044669 
" style="fill:none;stroke:#0000ff;stroke-width:2;"/>
    <path clip-path="url(#pec5a7e2307)" d="M 411.095664 394.783691 
L 411.095664 179.980468 
" style="fill:none;stroke:#0000ff;stroke-width:2;"/>
    <path clip-path="url(#pec5a7e2307)" d="M 400.74316 405.422719 
L 400.74316 185.649162 
" style="fill:none;stroke:#0000ff;stroke-width:2;"/>
    <path clip-path="url(#pec5a7e2307)" d="M 390.390655 412.027978 
L 390.390655 188.826048 
" style="fill:none;stroke:#0000ff;stroke-width:2;"/>
    <path clip-path="url(#pec5a7e2307)" d="M 380.038151 416.101854 
L 380.038151 189.873459 
" style="fill:none;stroke:#0000ff;stroke-width:2;"/>
    <path clip-path="url(#pec5a7e2307)" d="M 369.685646 417.889012 
L 369.685646 189.681745 
" style="fill:none;stroke:#0000ff;stroke-width:2;"/>
    <path clip-path="url(#pec5a7e2307)" d="M 359.333141 420.488637 
L 359.333141 189.429808 
" style="fill:none;stroke:#0000ff;stroke-width:2;"/>
    <path clip-path="url(#pec5a7e2307)" d="M 348.980637 421.357472 
L 348.980637 188.798306 
" style="fill:none;stroke:#0000ff;stroke-width:2;"/>
    <path clip-path="url(#pec5a7e2307)" d="M 338.628132 421.562428 
L 338.628132 187.913548 
" style="fill:none;stroke:#0000ff;stroke-width:2;"/>
    <path clip-path="url(#pec5a7e2307)" d="M 328.275627 422.08558 
L 328.275627 185.669947 
" style="fill:none;stroke:#0000ff;stroke-width:2;"/>
    <path clip-path="url(#pec5a7e2307)" d="M 317.923123 422.312727 
L 317.923123 182.872276 
" style="fill:none;stroke:#0000ff;stroke-width:2;"/>
    <path clip-path="url(#pec5a7e2307)" d="M 307.570618 421.290061 
L 307.570618 180.304291 
" style="fill:none;stroke:#0000ff;stroke-width:2;"/>
    <path clip-path="url(#pec5a7e2307)" d="M 297.218113 419.65595 
L 297.218113 176.117725 
" style="fill:none;stroke:#0000ff;stroke-width:2;"/>
    <path clip-path="url(#pec5a7e2307)" d="M 286.865609 418.887356 
L 286.865609 170.727774 
" style="fill:none;stroke:#0000ff;stroke-width:2;"/>
    <path clip-path="url(#pec5a7e2307)" d="M 276.513104 416.828074 
L 276.513104 164.576054 
" style="fill:none;stroke:#0000ff;stroke-width:2;"/>
    <path clip-path="url(#pec5a7e2307)" d="M 266.160599 413.2499 
L 266.160599 156.305658 
" style="fill:none;stroke:#0000ff;stroke-width:2;"/>
    <path clip-path="url(#pec5a7e2307)" d="M 255.808095 411.787757 
L 255.808095 152.023409 
" style="fill:none;stroke:#0000ff;stroke-width:2;"/>
    <path clip-path="url(#pec5a7e2307)" d="M 245.45559 410.372768 
L 245.45559 146.923935 
" style="fill:none;stroke:#0000ff;stroke-width:2;"/>
    <path clip-path="url(#pec5a7e2307)" d="M 235.103086 408.648604 
L 235.103086 142.047443 
" style="fill:none;stroke:#0000ff;stroke-width:2;"/>
    <path clip-path="url(#pec5a7e2307)" d="M 224.750581 406.867617 
L 224.750581 137.000978 
" style="fill:none;stroke:#0000ff;stroke-width:2;"/>
    <path clip-path="url(#pec5a7e2307)" d="M 214.398076 404.554595 
L 214.398076 127.393785 
" style="fill:none;stroke:#0000ff;stroke-width:2;"/>
    <path clip-path="url(#pec5a7e2307)" d="M 204.045572 401.33158 
L 204.045572 112.557166 
" style="fill:none;stroke:#0000ff;stroke-width:2;"/>
    <path clip-path="url(#pec5a7e2307)" d="M 193.693067 398.012363 
L 193.693067 94.266639 
" style="fill:none;stroke:#0000ff;stroke-width:2;"/>
    <path clip-path="url(#pec5a7e2307)" d="M 183.340562 395.594844 
L 183.340562 78.430471 
" style="fill:none;stroke:#0000ff;stroke-width:2;"/>
    <path clip-path="url(#pec5a7e2307)" d="M 172.988058 395.949368 
L 172.988058 62.536143 
" style="fill:none;stroke:#0000ff;stroke-width:2;"/>
    <path clip-path="url(#pec5a7e2307)" d="M 162.635553 396.892469 
L 162.635553 45.333871 
" style="fill:none;stroke:#0000ff;stroke-width:2;"/>
    <path clip-path="url(#pec5a7e2307)" d="M 152.283048 397.377325 
L 152.283048 26.967273 
" style="fill:none;stroke:#0000ff;stroke-width:2;"/>
    <path clip-path="url(#pec5a7e2307)" d="M 141.930544 389.841671 
L 141.930544 28.804211 
" style="fill:none;stroke:#0000ff;stroke-width:2;"/>
    <path clip-path="url(#pec5a7e2307)" d="M 131.578039 379.928207 
L 131.578039 37.600354 
" style="fill:none;stroke:#0000ff;stroke-width:2;"/>
    <path clip-path="url(#pec5a7e2307)" d="M 121.225535 371.386861 
L 121.225535 45.49374 
" style="fill:none;stroke:#0000ff;stroke-width:2;"/>
    <path clip-path="url(#pec5a7e2307)" d="M 110.87303 364.293028 
L 110.87303 51.431548 
" style="fill:none;stroke:#0000ff;stroke-width:2;"/>
    <path clip-path="url(#pec5a7e2307)" d="M 100.520525 356.981757 
L 100.520525 51.964778 
" style="fill:none;stroke:#0000ff;stroke-width:2;"/>
    <path clip-path="url(#pec5a7e2307)" d="M 90.168021 342.283615 
L 90.168021 52.311977 
" style="fill:none;stroke:#0000ff;stroke-width:2;"/>
    <path clip-path="url(#pec5a7e2307)" d="M 79.815516 327.670517 
L 79.815516 50.8771 
" style="fill:none;stroke:#0000ff;stroke-width:2;"/>
    <path clip-path="url(#pec5a7e2307)" d="M 69.463011 320.030269 
L 69.463011 45.513582 
" style="fill:none;stroke:#0000ff;stroke-width:2;"/>
   </g>
   <g id="line2d_35">
    <defs>
     <path d="M 2 0 
L -2 -0 
" id="m41d90441cf" style="stroke:#0000ff;"/>
    </defs>
    <g clip-path="url(#pec5a7e2307)">
     <use style="fill:#0000ff;stroke:#0000ff;" x="576.735739" xlink:href="#m41d90441cf" y="299.024926"/>
     <use style="fill:#0000ff;stroke:#0000ff;" x="566.383234" xlink:href="#m41d90441cf" y="299.024926"/>
     <use style="fill:#0000ff;stroke:#0000ff;" x="556.030729" xlink:href="#m41d90441cf" y="299.024926"/>
     <use style="fill:#0000ff;stroke:#0000ff;" x="545.678225" xlink:href="#m41d90441cf" y="299.024926"/>
     <use style="fill:#0000ff;stroke:#0000ff;" x="535.32572" xlink:href="#m41d90441cf" y="299.024926"/>
     <use style="fill:#0000ff;stroke:#0000ff;" x="524.973215" xlink:href="#m41d90441cf" y="299.024926"/>
     <use style="fill:#0000ff;stroke:#0000ff;" x="514.620711" xlink:href="#m41d90441cf" y="299.024926"/>
     <use style="fill:#0000ff;stroke:#0000ff;" x="504.268206" xlink:href="#m41d90441cf" y="299.024926"/>
     <use style="fill:#0000ff;stroke:#0000ff;" x="493.915702" xlink:href="#m41d90441cf" y="299.024926"/>
     <use style="fill:#0000ff;stroke:#0000ff;" x="483.563197" xlink:href="#m41d90441cf" y="299.024926"/>
     <use style="fill:#0000ff;stroke:#0000ff;" x="473.210692" xlink:href="#m41d90441cf" y="299.024926"/>
     <use style="fill:#0000ff;stroke:#0000ff;" x="462.858188" xlink:href="#m41d90441cf" y="301.254055"/>
     <use style="fill:#0000ff;stroke:#0000ff;" x="452.505683" xlink:href="#m41d90441cf" y="313.635354"/>
     <use style="fill:#0000ff;stroke:#0000ff;" x="442.153178" xlink:href="#m41d90441cf" y="336.565388"/>
     <use style="fill:#0000ff;stroke:#0000ff;" x="431.800674" xlink:href="#m41d90441cf" y="359.747802"/>
     <use style="fill:#0000ff;stroke:#0000ff;" x="421.448169" xlink:href="#m41d90441cf" y="379.454211"/>
     <use style="fill:#0000ff;stroke:#0000ff;" x="411.095664" xlink:href="#m41d90441cf" y="394.783691"/>
     <use style="fill:#0000ff;stroke:#0000ff;" x="400.74316" xlink:href="#m41d90441cf" y="405.422719"/>
     <use style="fill:#0000ff;stroke:#0000ff;" x="390.390655" xlink:href="#m41d90441cf" y="412.027978"/>
     <use style="fill:#0000ff;stroke:#0000ff;" x="380.038151" xlink:href="#m41d90441cf" y="416.101854"/>
     <use style="fill:#0000ff;stroke:#0000ff;" x="369.685646" xlink:href="#m41d90441cf" y="417.889012"/>
     <use style="fill:#0000ff;stroke:#0000ff;" x="359.333141" xlink:href="#m41d90441cf" y="420.488637"/>
     <use style="fill:#0000ff;stroke:#0000ff;" x="348.980637" xlink:href="#m41d90441cf" y="421.357472"/>
     <use style="fill:#0000ff;stroke:#0000ff;" x="338.628132" xlink:href="#m41d90441cf" y="421.562428"/>
     <use style="fill:#0000ff;stroke:#0000ff;" x="328.275627" xlink:href="#m41d90441cf" y="422.08558"/>
     <use style="fill:#0000ff;stroke:#0000ff;" x="317.923123" xlink:href="#m41d90441cf" y="422.312727"/>
     <use style="fill:#0000ff;stroke:#0000ff;" x="307.570618" xlink:href="#m41d90441cf" y="421.290061"/>
     <use style="fill:#0000ff;stroke:#0000ff;" x="297.218113" xlink:href="#m41d90441cf" y="419.65595"/>
     <use style="fill:#0000ff;stroke:#0000ff;" x="286.865609" xlink:href="#m41d90441cf" y="418.887356"/>
     <use style="fill:#0000ff;stroke:#0000ff;" x="276.513104" xlink:href="#m41d90441cf" y="416.828074"/>
     <use style="fill:#0000ff;stroke:#0000ff;" x="266.160599" xlink:href="#m41d90441cf" y="413.2499"/>
     <use style="fill:#0000ff;stroke:#0000ff;" x="255.808095" xlink:href="#m41d90441cf" y="411.787757"/>
     <use style="fill:#0000ff;stroke:#0000ff;" x="245.45559" xlink:href="#m41d90441cf" y="410.372768"/>
     <use style="fill:#0000ff;stroke:#0000ff;" x="235.103086" xlink:href="#m41d90441cf" y="408.648604"/>
     <use style="fill:#0000ff;stroke:#0000ff;" x="224.750581" xlink:href="#m41d90441cf" y="406.867617"/>
     <use style="fill:#0000ff;stroke:#0000ff;" x="214.398076" xlink:href="#m41d90441cf" y="404.554595"/>
     <use style="fill:#0000ff;stroke:#0000ff;" x="204.045572" xlink:href="#m41d90441cf" y="401.33158"/>
     <use style="fill:#0000ff;stroke:#0000ff;" x="193.693067" xlink:href="#m41d90441cf" y="398.012363"/>
     <use style="fill:#0000ff;stroke:#0000ff;" x="183.340562" xlink:href="#m41d90441cf" y="395.594844"/>
     <use style="fill:#0000ff;stroke:#0000ff;" x="172.988058" xlink:href="#m41d90441cf" y="395.949368"/>
     <use style="fill:#0000ff;stroke:#0000ff;" x="162.635553" xlink:href="#m41d90441cf" y="396.892469"/>
     <use style="fill:#0000ff;stroke:#0000ff;" x="152.283048" xlink:href="#m41d90441cf" y="397.377325"/>
     <use style="fill:#0000ff;stroke:#0000ff;" x="141.930544" xlink:href="#m41d90441cf" y="389.841671"/>
     <use style="fill:#0000ff;stroke:#0000ff;" x="131.578039" xlink:href="#m41d90441cf" y="379.928207"/>
     <use style="fill:#0000ff;stroke:#0000ff;" x="121.225535" xlink:href="#m41d90441cf" y="371.386861"/>
     <use style="fill:#0000ff;stroke:#0000ff;" x="110.87303" xlink:href="#m41d90441cf" y="364.293028"/>
     <use style="fill:#0000ff;stroke:#0000ff;" x="100.520525" xlink:href="#m41d90441cf" y="356.981757"/>
     <use style="fill:#0000ff;stroke:#0000ff;" x="90.168021" xlink:href="#m41d90441cf" y="342.283615"/>
     <use style="fill:#0000ff;stroke:#0000ff;" x="79.815516" xlink:href="#m41d90441cf" y="327.670517"/>
     <use style="fill:#0000ff;stroke:#0000ff;" x="69.463011" xlink:href="#m41d90441cf" y="320.030269"/>
    </g>
   </g>
   <g id="line2d_36">
    <g clip-path="url(#pec5a7e2307)">
     <use style="fill:#0000ff;stroke:#0000ff;" x="576.735739" xlink:href="#m41d90441cf" y="121.05198"/>
     <use style="fill:#0000ff;stroke:#0000ff;" x="566.383234" xlink:href="#m41d90441cf" y="121.05198"/>
     <use style="fill:#0000ff;stroke:#0000ff;" x="556.030729" xlink:href="#m41d90441cf" y="121.05198"/>
     <use style="fill:#0000ff;stroke:#0000ff;" x="545.678225" xlink:href="#m41d90441cf" y="121.05198"/>
     <use style="fill:#0000ff;stroke:#0000ff;" x="535.32572" xlink:href="#m41d90441cf" y="121.05198"/>
     <use style="fill:#0000ff;stroke:#0000ff;" x="524.973215" xlink:href="#m41d90441cf" y="121.05198"/>
     <use style="fill:#0000ff;stroke:#0000ff;" x="514.620711" xlink:href="#m41d90441cf" y="121.05198"/>
     <use style="fill:#0000ff;stroke:#0000ff;" x="504.268206" xlink:href="#m41d90441cf" y="121.05198"/>
     <use style="fill:#0000ff;stroke:#0000ff;" x="493.915702" xlink:href="#m41d90441cf" y="121.05198"/>
     <use style="fill:#0000ff;stroke:#0000ff;" x="483.563197" xlink:href="#m41d90441cf" y="121.05198"/>
     <use style="fill:#0000ff;stroke:#0000ff;" x="473.210692" xlink:href="#m41d90441cf" y="121.05198"/>
     <use style="fill:#0000ff;stroke:#0000ff;" x="462.858188" xlink:href="#m41d90441cf" y="121.193728"/>
     <use style="fill:#0000ff;stroke:#0000ff;" x="452.505683" xlink:href="#m41d90441cf" y="126.472897"/>
     <use style="fill:#0000ff;stroke:#0000ff;" x="442.153178" xlink:href="#m41d90441cf" y="141.830355"/>
     <use style="fill:#0000ff;stroke:#0000ff;" x="431.800674" xlink:href="#m41d90441cf" y="158.38461"/>
     <use style="fill:#0000ff;stroke:#0000ff;" x="421.448169" xlink:href="#m41d90441cf" y="171.044669"/>
     <use style="fill:#0000ff;stroke:#0000ff;" x="411.095664" xlink:href="#m41d90441cf" y="179.980468"/>
     <use style="fill:#0000ff;stroke:#0000ff;" x="400.74316" xlink:href="#m41d90441cf" y="185.649162"/>
     <use style="fill:#0000ff;stroke:#0000ff;" x="390.390655" xlink:href="#m41d90441cf" y="188.826048"/>
     <use style="fill:#0000ff;stroke:#0000ff;" x="380.038151" xlink:href="#m41d90441cf" y="189.873459"/>
     <use style="fill:#0000ff;stroke:#0000ff;" x="369.685646" xlink:href="#m41d90441cf" y="189.681745"/>
     <use style="fill:#0000ff;stroke:#0000ff;" x="359.333141" xlink:href="#m41d90441cf" y="189.429808"/>
     <use style="fill:#0000ff;stroke:#0000ff;" x="348.980637" xlink:href="#m41d90441cf" y="188.798306"/>
     <use style="fill:#0000ff;stroke:#0000ff;" x="338.628132" xlink:href="#m41d90441cf" y="187.913548"/>
     <use style="fill:#0000ff;stroke:#0000ff;" x="328.275627" xlink:href="#m41d90441cf" y="185.669947"/>
     <use style="fill:#0000ff;stroke:#0000ff;" x="317.923123" xlink:href="#m41d90441cf" y="182.872276"/>
     <use style="fill:#0000ff;stroke:#0000ff;" x="307.570618" xlink:href="#m41d90441cf" y="180.304291"/>
     <use style="fill:#0000ff;stroke:#0000ff;" x="297.218113" xlink:href="#m41d90441cf" y="176.117725"/>
     <use style="fill:#0000ff;stroke:#0000ff;" x="286.865609" xlink:href="#m41d90441cf" y="170.727774"/>
     <use style="fill:#0000ff;stroke:#0000ff;" x="276.513104" xlink:href="#m41d90441cf" y="164.576054"/>
     <use style="fill:#0000ff;stroke:#0000ff;" x="266.160599" xlink:href="#m41d90441cf" y="156.305658"/>
     <use style="fill:#0000ff;stroke:#0000ff;" x="255.808095" xlink:href="#m41d90441cf" y="152.023409"/>
     <use style="fill:#0000ff;stroke:#0000ff;" x="245.45559" xlink:href="#m41d90441cf" y="146.923935"/>
     <use style="fill:#0000ff;stroke:#0000ff;" x="235.103086" xlink:href="#m41d90441cf" y="142.047443"/>
     <use style="fill:#0000ff;stroke:#0000ff;" x="224.750581" xlink:href="#m41d90441cf" y="137.000978"/>
     <use style="fill:#0000ff;stroke:#0000ff;" x="214.398076" xlink:href="#m41d90441cf" y="127.393785"/>
     <use style="fill:#0000ff;stroke:#0000ff;" x="204.045572" xlink:href="#m41d90441cf" y="112.557166"/>
     <use style="fill:#0000ff;stroke:#0000ff;" x="193.693067" xlink:href="#m41d90441cf" y="94.266639"/>
     <use style="fill:#0000ff;stroke:#0000ff;" x="183.340562" xlink:href="#m41d90441cf" y="78.430471"/>
     <use style="fill:#0000ff;stroke:#0000ff;" x="172.988058" xlink:href="#m41d90441cf" y="62.536143"/>
     <use style="fill:#0000ff;stroke:#0000ff;" x="162.635553" xlink:href="#m41d90441cf" y="45.333871"/>
     <use style="fill:#0000ff;stroke:#0000ff;" x="152.283048" xlink:href="#m41d90441cf" y="26.967273"/>
     <use style="fill:#0000ff;stroke:#0000ff;" x="141.930544" xlink:href="#m41d90441cf" y="28.804211"/>
     <use style="fill:#0000ff;stroke:#0000ff;" x="131.578039" xlink:href="#m41d90441cf" y="37.600354"/>
     <use style="fill:#0000ff;stroke:#0000ff;" x="121.225535" xlink:href="#m41d90441cf" y="45.49374"/>
     <use style="fill:#0000ff;stroke:#0000ff;" x="110.87303" xlink:href="#m41d90441cf" y="51.431548"/>
     <use style="fill:#0000ff;stroke:#0000ff;" x="100.520525" xlink:href="#m41d90441cf" y="51.964778"/>
     <use style="fill:#0000ff;stroke:#0000ff;" x="90.168021" xlink:href="#m41d90441cf" y="52.311977"/>
     <use style="fill:#0000ff;stroke:#0000ff;" x="79.815516" xlink:href="#m41d90441cf" y="50.8771"/>
     <use style="fill:#0000ff;stroke:#0000ff;" x="69.463011" xlink:href="#m41d90441cf" y="45.513582"/>
    </g>
   </g>
   <g id="line2d_37">
    <path clip-path="url(#pec5a7e2307)" d="M 348.980637 442.08 
L 348.980637 7.2 
" style="fill:none;stroke:#000000;stroke-dasharray:5.55,2.4;stroke-dashoffset:0;stroke-width:1.5;"/>
   </g>
   <g id="line2d_38">
    <defs>
     <path d="M 0 1.5 
C 0.397805 1.5 0.77937 1.341951 1.06066 1.06066 
C 1.341951 0.77937 1.5 0.397805 1.5 0 
C 1.5 -0.397805 1.341951 -0.77937 1.06066 -1.06066 
C 0.77937 -1.341951 0.397805 -1.5 0 -1.5 
C -0.397805 -1.5 -0.77937 -1.341951 -1.06066 -1.06066 
C -1.341951 -0.77937 -1.5 -0.397805 -1.5 0 
C -1.5 0.397805 -1.341951 0.77937 -1.06066 1.06066 
C -0.77937 1.341951 -0.397805 1.5 0 1.5 
z
" id="md71ac26a0c" style="stroke:#ff0000;"/>
    </defs>
    <g clip-path="url(#pec5a7e2307)">
     <use style="fill:#ff0000;stroke:#ff0000;" x="576.735739" xlink:href="#md71ac26a0c" y="210.038453"/>
     <use style="fill:#ff0000;stroke:#ff0000;" x="566.383234" xlink:href="#md71ac26a0c" y="210.038453"/>
     <use style="fill:#ff0000;stroke:#ff0000;" x="556.030729" xlink:href="#md71ac26a0c" y="210.038453"/>
     <use style="fill:#ff0000;stroke:#ff0000;" x="545.678225" xlink:href="#md71ac26a0c" y="210.038453"/>
     <use style="fill:#ff0000;stroke:#ff0000;" x="535.32572" xlink:href="#md71ac26a0c" y="210.038453"/>
     <use style="fill:#ff0000;stroke:#ff0000;" x="524.973215" xlink:href="#md71ac26a0c" y="210.038453"/>
     <use style="fill:#ff0000;stroke:#ff0000;" x="514.620711" xlink:href="#md71ac26a0c" y="210.038453"/>
     <use style="fill:#ff0000;stroke:#ff0000;" x="504.268206" xlink:href="#md71ac26a0c" y="210.038453"/>
     <use style="fill:#ff0000;stroke:#ff0000;" x="493.915702" xlink:href="#md71ac26a0c" y="210.038453"/>
     <use style="fill:#ff0000;stroke:#ff0000;" x="483.563197" xlink:href="#md71ac26a0c" y="210.038453"/>
     <use style="fill:#ff0000;stroke:#ff0000;" x="473.210692" xlink:href="#md71ac26a0c" y="210.038453"/>
     <use style="fill:#ff0000;stroke:#ff0000;" x="462.858188" xlink:href="#md71ac26a0c" y="211.223892"/>
     <use style="fill:#ff0000;stroke:#ff0000;" x="452.505683" xlink:href="#md71ac26a0c" y="220.054125"/>
     <use style="fill:#ff0000;stroke:#ff0000;" x="442.153178" xlink:href="#md71ac26a0c" y="239.197871"/>
     <use style="fill:#ff0000;stroke:#ff0000;" x="431.800674" xlink:href="#md71ac26a0c" y="259.066206"/>
     <use style="fill:#ff0000;stroke:#ff0000;" x="421.448169" xlink:href="#md71ac26a0c" y="275.24944"/>
     <use style="fill:#ff0000;stroke:#ff0000;" x="411.095664" xlink:href="#md71ac26a0c" y="287.38208"/>
     <use style="fill:#ff0000;stroke:#ff0000;" x="400.74316" xlink:href="#md71ac26a0c" y="295.53594"/>
     <use style="fill:#ff0000;stroke:#ff0000;" x="390.390655" xlink:href="#md71ac26a0c" y="300.427013"/>
     <use style="fill:#ff0000;stroke:#ff0000;" x="380.038151" xlink:href="#md71ac26a0c" y="302.987656"/>
     <use style="fill:#ff0000;stroke:#ff0000;" x="369.685646" xlink:href="#md71ac26a0c" y="303.785379"/>
     <use style="fill:#ff0000;stroke:#ff0000;" x="359.333141" xlink:href="#md71ac26a0c" y="304.959223"/>
     <use style="fill:#ff0000;stroke:#ff0000;" x="348.980637" xlink:href="#md71ac26a0c" y="305.077889"/>
     <use style="fill:#ff0000;stroke:#ff0000;" x="338.628132" xlink:href="#md71ac26a0c" y="304.737988"/>
     <use style="fill:#ff0000;stroke:#ff0000;" x="328.275627" xlink:href="#md71ac26a0c" y="303.877764"/>
     <use style="fill:#ff0000;stroke:#ff0000;" x="317.923123" xlink:href="#md71ac26a0c" y="302.592502"/>
     <use style="fill:#ff0000;stroke:#ff0000;" x="307.570618" xlink:href="#md71ac26a0c" y="300.797176"/>
     <use style="fill:#ff0000;stroke:#ff0000;" x="297.218113" xlink:href="#md71ac26a0c" y="297.886837"/>
     <use style="fill:#ff0000;stroke:#ff0000;" x="286.865609" xlink:href="#md71ac26a0c" y="294.807565"/>
     <use style="fill:#ff0000;stroke:#ff0000;" x="276.513104" xlink:href="#md71ac26a0c" y="290.702064"/>
     <use style="fill:#ff0000;stroke:#ff0000;" x="266.160599" xlink:href="#md71ac26a0c" y="284.777779"/>
     <use style="fill:#ff0000;stroke:#ff0000;" x="255.808095" xlink:href="#md71ac26a0c" y="281.905583"/>
     <use style="fill:#ff0000;stroke:#ff0000;" x="245.45559" xlink:href="#md71ac26a0c" y="278.648351"/>
     <use style="fill:#ff0000;stroke:#ff0000;" x="235.103086" xlink:href="#md71ac26a0c" y="275.348024"/>
     <use style="fill:#ff0000;stroke:#ff0000;" x="224.750581" xlink:href="#md71ac26a0c" y="271.934298"/>
     <use style="fill:#ff0000;stroke:#ff0000;" x="214.398076" xlink:href="#md71ac26a0c" y="265.97419"/>
     <use style="fill:#ff0000;stroke:#ff0000;" x="204.045572" xlink:href="#md71ac26a0c" y="256.944373"/>
     <use style="fill:#ff0000;stroke:#ff0000;" x="193.693067" xlink:href="#md71ac26a0c" y="246.139501"/>
     <use style="fill:#ff0000;stroke:#ff0000;" x="183.340562" xlink:href="#md71ac26a0c" y="237.012657"/>
     <use style="fill:#ff0000;stroke:#ff0000;" x="172.988058" xlink:href="#md71ac26a0c" y="229.242755"/>
     <use style="fill:#ff0000;stroke:#ff0000;" x="162.635553" xlink:href="#md71ac26a0c" y="221.11317"/>
     <use style="fill:#ff0000;stroke:#ff0000;" x="152.283048" xlink:href="#md71ac26a0c" y="212.172299"/>
     <use style="fill:#ff0000;stroke:#ff0000;" x="141.930544" xlink:href="#md71ac26a0c" y="209.322941"/>
     <use style="fill:#ff0000;stroke:#ff0000;" x="131.578039" xlink:href="#md71ac26a0c" y="208.76428"/>
     <use style="fill:#ff0000;stroke:#ff0000;" x="121.225535" xlink:href="#md71ac26a0c" y="208.440301"/>
     <use style="fill:#ff0000;stroke:#ff0000;" x="110.87303" xlink:href="#md71ac26a0c" y="207.862288"/>
     <use style="fill:#ff0000;stroke:#ff0000;" x="100.520525" xlink:href="#md71ac26a0c" y="204.473267"/>
     <use style="fill:#ff0000;stroke:#ff0000;" x="90.168021" xlink:href="#md71ac26a0c" y="197.297796"/>
     <use style="fill:#ff0000;stroke:#ff0000;" x="79.815516" xlink:href="#md71ac26a0c" y="189.273808"/>
     <use style="fill:#ff0000;stroke:#ff0000;" x="69.463011" xlink:href="#md71ac26a0c" y="182.771926"/>
    </g>
   </g>
   <g id="patch_3">
    <path d="M 44.099375 442.08 
L 44.099375 7.2 
" style="fill:none;stroke:#000000;stroke-linecap:square;stroke-linejoin:miter;stroke-width:0.8;"/>
   </g>
   <g id="patch_4">
    <path d="M 602.099375 442.08 
L 602.099375 7.2 
" style="fill:none;stroke:#000000;stroke-linecap:square;stroke-linejoin:miter;stroke-width:0.8;"/>
   </g>
   <g id="patch_5">
    <path d="M 44.099375 442.08 
L 602.099375 442.08 
" style="fill:none;stroke:#000000;stroke-linecap:square;stroke-linejoin:miter;stroke-width:0.8;"/>
   </g>
   <g id="patch_6">
    <path d="M 44.099375 7.2 
L 602.099375 7.2 
" style="fill:none;stroke:#000000;stroke-linecap:square;stroke-linejoin:miter;stroke-width:0.8;"/>
   </g>
  </g>
 </g>
 <defs>
  <clipPath id="pec5a7e2307">
   <rect height="434.88" width="558" x="44.099375" y="7.2"/>
  </clipPath>
 </defs>
</svg>
