<?xml version="1.0" encoding="utf-8" standalone="no"?>
<!DOCTYPE svg PUBLIC "-//W3C//DTD SVG 1.1//EN"
  "http://www.w3.org/Graphics/SVG/1.1/DTD/svg11.dtd">
<!-- Created with matplotlib (https://matplotlib.org/) -->
<svg height="649.22125pt" version="1.1" viewBox="0 0 922.535 649.22125" width="922.535pt" xmlns="http://www.w3.org/2000/svg" xmlns:xlink="http://www.w3.org/1999/xlink">
 <defs>
  <style type="text/css">
*{stroke-linecap:butt;stroke-linejoin:round;}
  </style>
 </defs>
 <g id="figure_1">
  <g id="patch_1">
   <path d="M 0 649.22125 
L 922.535 649.22125 
L 922.535 0 
L 0 0 
z
" style="fill:#ffffff;"/>
  </g>
  <g id="axes_1">
   <g id="patch_2">
    <path d="M 54.095 609.2 
L 915.335 609.2 
L 915.335 7.2 
L 54.095 7.2 
z
" style="fill:#ffffff;"/>
   </g>
   <g id="PolyCollection_1">
    <defs>
     <path d="M 117.076471 -67.384886 
L 114.147815 -67.384886 
L 113.840289 -72.912894 
L 113.486676 -78.440901 
L 113.084439 -83.968908 
L 112.631889 -89.496916 
L 112.128396 -95.024923 
L 111.574583 -100.55293 
L 110.972493 -106.080938 
L 110.325713 -111.608945 
L 109.639443 -117.136952 
L 108.920496 -122.66496 
L 108.17722 -128.192967 
L 107.41934 -133.720975 
L 106.65771 -139.248982 
L 105.903994 -144.776989 
L 105.170275 -150.304997 
L 104.468612 -155.833004 
L 103.810564 -161.361011 
L 103.206711 -166.889019 
L 102.666189 -172.417026 
L 102.196271 -177.945033 
L 101.802026 -183.473041 
L 101.486058 -189.001048 
L 101.248368 -194.529055 
L 101.086329 -200.057063 
L 100.994783 -205.58507 
L 100.966268 -211.113077 
L 100.99134 -216.641085 
L 101.058996 -222.169092 
L 101.15716 -227.697099 
L 101.273217 -233.225107 
L 101.394554 -238.753114 
L 101.509091 -244.281121 
L 101.605773 -249.809129 
L 101.675004 -255.337136 
L 101.70899 -260.865143 
L 101.702002 -266.393151 
L 101.650534 -271.921158 
L 101.553355 -277.449166 
L 101.411473 -282.977173 
L 101.227998 -288.50518 
L 101.007933 -294.033188 
L 100.757898 -299.561195 
L 100.4858 -305.089202 
L 100.200476 -310.61721 
L 99.911319 -316.145217 
L 99.627904 -321.673224 
L 99.359628 -327.201232 
L 99.115384 -332.729239 
L 98.903273 -338.257246 
L 98.730371 -343.785254 
L 98.602548 -349.313261 
L 98.524355 -354.841268 
L 98.498966 -360.369276 
L 98.528191 -365.897283 
L 98.61253 -371.42529 
L 98.751288 -376.953298 
L 98.942722 -382.481305 
L 99.184217 -388.009312 
L 99.472475 -393.53732 
L 99.803713 -399.065327 
L 100.173851 -404.593334 
L 100.578681 -410.121342 
L 101.014015 -415.649349 
L 101.475803 -421.177357 
L 101.960216 -426.705364 
L 102.463693 -432.233371 
L 102.982968 -437.761379 
L 103.515056 -443.289386 
L 104.057228 -448.817393 
L 104.606964 -454.345401 
L 105.161905 -459.873408 
L 105.719796 -465.401415 
L 106.278436 -470.929423 
L 106.835639 -476.45743 
L 107.389203 -481.985437 
L 107.936893 -487.513445 
L 108.476444 -493.041452 
L 109.005573 -498.569459 
L 109.522002 -504.097467 
L 110.023497 -509.625474 
L 110.507908 -515.153481 
L 110.973218 -520.681489 
L 111.417585 -526.209496 
L 111.839388 -531.737503 
L 112.237267 -537.265511 
L 112.610152 -542.793518 
L 112.957287 -548.321525 
L 113.278241 -553.849533 
L 113.572911 -559.37754 
L 113.841514 -564.905548 
L 114.084567 -570.433555 
L 114.302867 -575.961562 
L 114.497452 -581.48957 
L 114.669567 -587.017577 
L 114.82062 -592.545584 
L 114.952142 -598.073592 
L 115.065744 -603.601599 
L 115.163075 -609.129606 
L 115.245783 -614.657614 
L 115.978503 -614.657614 
L 115.978503 -614.657614 
L 116.061211 -609.129606 
L 116.158542 -603.601599 
L 116.272144 -598.073592 
L 116.403666 -592.545584 
L 116.554719 -587.017577 
L 116.726833 -581.48957 
L 116.921418 -575.961562 
L 117.139718 -570.433555 
L 117.382772 -564.905548 
L 117.651375 -559.37754 
L 117.946045 -553.849533 
L 118.266999 -548.321525 
L 118.614134 -542.793518 
L 118.987019 -537.265511 
L 119.384898 -531.737503 
L 119.806701 -526.209496 
L 120.251067 -520.681489 
L 120.716377 -515.153481 
L 121.200789 -509.625474 
L 121.702284 -504.097467 
L 122.218713 -498.569459 
L 122.747842 -493.041452 
L 123.287393 -487.513445 
L 123.835083 -481.985437 
L 124.388646 -476.45743 
L 124.94585 -470.929423 
L 125.50449 -465.401415 
L 126.062381 -459.873408 
L 126.617322 -454.345401 
L 127.167058 -448.817393 
L 127.70923 -443.289386 
L 128.241318 -437.761379 
L 128.760593 -432.233371 
L 129.26407 -426.705364 
L 129.748483 -421.177357 
L 130.210271 -415.649349 
L 130.645605 -410.121342 
L 131.050435 -404.593334 
L 131.420572 -399.065327 
L 131.751811 -393.53732 
L 132.040069 -388.009312 
L 132.281563 -382.481305 
L 132.472998 -376.953298 
L 132.611756 -371.42529 
L 132.696095 -365.897283 
L 132.725319 -360.369276 
L 132.699931 -354.841268 
L 132.621738 -349.313261 
L 132.493915 -343.785254 
L 132.321013 -338.257246 
L 132.108902 -332.729239 
L 131.864658 -327.201232 
L 131.596382 -321.673224 
L 131.312967 -316.145217 
L 131.02381 -310.61721 
L 130.738486 -305.089202 
L 130.466388 -299.561195 
L 130.216352 -294.033188 
L 129.996288 -288.50518 
L 129.812813 -282.977173 
L 129.670931 -277.449166 
L 129.573752 -271.921158 
L 129.522283 -266.393151 
L 129.515296 -260.865143 
L 129.549282 -255.337136 
L 129.618512 -249.809129 
L 129.715195 -244.281121 
L 129.829732 -238.753114 
L 129.951068 -233.225107 
L 130.067126 -227.697099 
L 130.16529 -222.169092 
L 130.232945 -216.641085 
L 130.258017 -211.113077 
L 130.229502 -205.58507 
L 130.137957 -200.057063 
L 129.975918 -194.529055 
L 129.738228 -189.001048 
L 129.42226 -183.473041 
L 129.028014 -177.945033 
L 128.558097 -172.417026 
L 128.017575 -166.889019 
L 127.413722 -161.361011 
L 126.755674 -155.833004 
L 126.054011 -150.304997 
L 125.320292 -144.776989 
L 124.566576 -139.248982 
L 123.804946 -133.720975 
L 123.047065 -128.192967 
L 122.30379 -122.66496 
L 121.584843 -117.136952 
L 120.898573 -111.608945 
L 120.251792 -106.080938 
L 119.649702 -100.55293 
L 119.095889 -95.024923 
L 118.592397 -89.496916 
L 118.139847 -83.968908 
L 117.73761 -78.440901 
L 117.383997 -72.912894 
L 117.076471 -67.384886 
z
" id="ma54e54ebcc" style="stroke:#3d3d3d;stroke-width:1.5;"/>
    </defs>
    <g clip-path="url(#p1b737452dc)">
     <use style="fill:#3274a1;stroke:#3d3d3d;stroke-width:1.5;" x="0" xlink:href="#ma54e54ebcc" y="649.22125"/>
    </g>
   </g>
   <g id="PolyCollection_2">
    <defs>
     <path d="M 242.128152 -87.814013 
L 235.164705 -87.814013 
L 234.372427 -92.715257 
L 233.451848 -97.6165 
L 232.395438 -102.517744 
L 231.198461 -107.418988 
L 229.859729 -112.320232 
L 228.382295 -117.221475 
L 226.774056 -122.122719 
L 225.048186 -127.023963 
L 223.22337 -131.925206 
L 221.323774 -136.82645 
L 219.37873 -141.727694 
L 217.422109 -146.628938 
L 215.491404 -151.530181 
L 213.626526 -156.431425 
L 211.868381 -161.332669 
L 210.257289 -166.233912 
L 208.83133 -171.135156 
L 207.624717 -176.0364 
L 206.666293 -180.937644 
L 205.978247 -185.838887 
L 205.575138 -190.740131 
L 205.463276 -195.641375 
L 205.640511 -200.542618 
L 206.096445 -205.443862 
L 206.813025 -210.345106 
L 207.765497 -215.24635 
L 208.923643 -220.147593 
L 210.253208 -225.048837 
L 211.717436 -229.950081 
L 213.278615 -234.851324 
L 214.899533 -239.752568 
L 216.544782 -244.653812 
L 218.181843 -249.555056 
L 219.781913 -254.456299 
L 221.320469 -259.357543 
L 222.777552 -264.258787 
L 224.137815 -269.16003 
L 225.390359 -274.061274 
L 226.528402 -278.962518 
L 227.548835 -283.863762 
L 228.451702 -288.765005 
L 229.239663 -293.666249 
L 229.917461 -298.567493 
L 230.491432 -303.468736 
L 230.969063 -308.36998 
L 231.358626 -313.271224 
L 231.668863 -318.172468 
L 231.908744 -323.073711 
L 232.087269 -327.974955 
L 232.213311 -332.876199 
L 232.295492 -337.777442 
L 232.342071 -342.678686 
L 232.360856 -347.57993 
L 232.359112 -352.481174 
L 232.343488 -357.382417 
L 232.319943 -362.283661 
L 232.29369 -367.184905 
L 232.269161 -372.086148 
L 232.249986 -376.987392 
L 232.239002 -381.888636 
L 232.238299 -386.78988 
L 232.249277 -391.691123 
L 232.27275 -396.592367 
L 232.309053 -401.493611 
L 232.358175 -406.394854 
L 232.419888 -411.296098 
L 232.493873 -416.197342 
L 232.57983 -421.098586 
L 232.677563 -425.999829 
L 232.787034 -430.901073 
L 232.908379 -435.802317 
L 233.041896 -440.70356 
L 233.18799 -445.604804 
L 233.347106 -450.506048 
L 233.51963 -455.407292 
L 233.705791 -460.308535 
L 233.905563 -465.209779 
L 234.118582 -470.111023 
L 234.34408 -475.012267 
L 234.580851 -479.91351 
L 234.82725 -484.814754 
L 235.081217 -489.715998 
L 235.340341 -494.617241 
L 235.601944 -499.518485 
L 235.863181 -504.419729 
L 236.121156 -509.320973 
L 236.37304 -514.222216 
L 236.616177 -519.12346 
L 236.848186 -524.024704 
L 237.067037 -528.925947 
L 237.271108 -533.827191 
L 237.459218 -538.728435 
L 237.630635 -543.629679 
L 237.785064 -548.530922 
L 237.922613 -553.432166 
L 238.043746 -558.33341 
L 238.149225 -563.234653 
L 238.240049 -568.135897 
L 238.317384 -573.037141 
L 238.975473 -573.037141 
L 238.975473 -573.037141 
L 239.052809 -568.135897 
L 239.143632 -563.234653 
L 239.249112 -558.33341 
L 239.370244 -553.432166 
L 239.507793 -548.530922 
L 239.662222 -543.629679 
L 239.833639 -538.728435 
L 240.021749 -533.827191 
L 240.22582 -528.925947 
L 240.444671 -524.024704 
L 240.67668 -519.12346 
L 240.919817 -514.222216 
L 241.171701 -509.320973 
L 241.429676 -504.419729 
L 241.690913 -499.518485 
L 241.952516 -494.617241 
L 242.21164 -489.715998 
L 242.465607 -484.814754 
L 242.712006 -479.91351 
L 242.948777 -475.012267 
L 243.174275 -470.111023 
L 243.387294 -465.209779 
L 243.587066 -460.308535 
L 243.773227 -455.407292 
L 243.945751 -450.506048 
L 244.104867 -445.604804 
L 244.250961 -440.70356 
L 244.384478 -435.802317 
L 244.505823 -430.901073 
L 244.615294 -425.999829 
L 244.713027 -421.098586 
L 244.798985 -416.197342 
L 244.872969 -411.296098 
L 244.934682 -406.394854 
L 244.983804 -401.493611 
L 245.020107 -396.592367 
L 245.04358 -391.691123 
L 245.054558 -386.78988 
L 245.053855 -381.888636 
L 245.042872 -376.987392 
L 245.023696 -372.086148 
L 244.999167 -367.184905 
L 244.972915 -362.283661 
L 244.949369 -357.382417 
L 244.933745 -352.481174 
L 244.932001 -347.57993 
L 244.950786 -342.678686 
L 244.997365 -337.777442 
L 245.079546 -332.876199 
L 245.205588 -327.974955 
L 245.384113 -323.073711 
L 245.623995 -318.172468 
L 245.934231 -313.271224 
L 246.323794 -308.36998 
L 246.801425 -303.468736 
L 247.375396 -298.567493 
L 248.053194 -293.666249 
L 248.841155 -288.765005 
L 249.744022 -283.863762 
L 250.764455 -278.962518 
L 251.902498 -274.061274 
L 253.155042 -269.16003 
L 254.515305 -264.258787 
L 255.972388 -259.357543 
L 257.510944 -254.456299 
L 259.111015 -249.555056 
L 260.748075 -244.653812 
L 262.393324 -239.752568 
L 264.014242 -234.851324 
L 265.575421 -229.950081 
L 267.039649 -225.048837 
L 268.369214 -220.147593 
L 269.52736 -215.24635 
L 270.479833 -210.345106 
L 271.196412 -205.443862 
L 271.652346 -200.542618 
L 271.829582 -195.641375 
L 271.717719 -190.740131 
L 271.31461 -185.838887 
L 270.626564 -180.937644 
L 269.66814 -176.0364 
L 268.461527 -171.135156 
L 267.035568 -166.233912 
L 265.424476 -161.332669 
L 263.666331 -156.431425 
L 261.801453 -151.530181 
L 259.870748 -146.628938 
L 257.914128 -141.727694 
L 255.969083 -136.82645 
L 254.069487 -131.925206 
L 252.244672 -127.023963 
L 250.518802 -122.122719 
L 248.910562 -117.221475 
L 247.433128 -112.320232 
L 246.094396 -107.418988 
L 244.897419 -102.517744 
L 243.841009 -97.6165 
L 242.92043 -92.715257 
L 242.128152 -87.814013 
z
" id="m9e207490ab" style="stroke:#3d3d3d;stroke-width:1.5;"/>
    </defs>
    <g clip-path="url(#p1b737452dc)">
     <use style="fill:#e1812c;stroke:#3d3d3d;stroke-width:1.5;" x="0" xlink:href="#m9e207490ab" y="649.22125"/>
    </g>
   </g>
   <g id="PolyCollection_3">
    <defs>
     <path d="M 365.827497 -97.148818 
L 357.533932 -97.148818 
L 356.577758 -101.559793 
L 355.462927 -105.970768 
L 354.179026 -110.381743 
L 352.718871 -114.792718 
L 351.079455 -119.203693 
L 349.262862 -123.614668 
L 347.277082 -128.025643 
L 345.136641 -132.436618 
L 342.863009 -136.847593 
L 340.484688 -141.258568 
L 338.036963 -145.669543 
L 335.561265 -150.080518 
L 333.104159 -154.491493 
L 330.715953 -158.902468 
L 328.449011 -163.313443 
L 326.355809 -167.724418 
L 324.486864 -172.135393 
L 322.888627 -176.546368 
L 321.601482 -180.957343 
L 320.657958 -185.368318 
L 320.08127 -189.779293 
L 319.884288 -194.190268 
L 320.068982 -198.601243 
L 320.626393 -203.012218 
L 321.537113 -207.423193 
L 322.772246 -211.834168 
L 324.294785 -216.245143 
L 326.061297 -220.656118 
L 328.023842 -225.067093 
L 330.131976 -229.478068 
L 332.334743 -233.889043 
L 334.58256 -238.300018 
L 336.828884 -242.710993 
L 339.03161 -247.121968 
L 341.154158 -251.532943 
L 343.166209 -255.943918 
L 345.044111 -260.354893 
L 346.770966 -264.765868 
L 348.336425 -269.176843 
L 349.736243 -273.587818 
L 350.971651 -277.998793 
L 352.048572 -282.409768 
L 352.976766 -286.820743 
L 353.768918 -291.231718 
L 354.439737 -295.642693 
L 355.005084 -300.053668 
L 355.481172 -304.464643 
L 355.883851 -308.875618 
L 356.227998 -313.286593 
L 356.527027 -317.697568 
L 356.792524 -322.108543 
L 357.034002 -326.519518 
L 357.258784 -330.930493 
L 357.471996 -335.341469 
L 357.676668 -339.752444 
L 357.873927 -344.163419 
L 358.063257 -348.574394 
L 358.242825 -352.985369 
L 358.409839 -357.396344 
L 358.56092 -361.807319 
L 358.692487 -366.218294 
L 358.801103 -370.629269 
L 358.88381 -375.040244 
L 358.938396 -379.451219 
L 358.96362 -383.862194 
L 358.959361 -388.273169 
L 358.926705 -392.684144 
L 358.867956 -397.095119 
L 358.786579 -401.506094 
L 358.68708 -405.917069 
L 358.574823 -410.328044 
L 358.45581 -414.739019 
L 358.336414 -419.149994 
L 358.223101 -423.560969 
L 358.122142 -427.971944 
L 358.039333 -432.382919 
L 357.979743 -436.793894 
L 357.9475 -441.204869 
L 357.945625 -445.615844 
L 357.975924 -450.026819 
L 358.038948 -454.437794 
L 358.134008 -458.848769 
L 358.259259 -463.259744 
L 358.411835 -467.670719 
L 358.588025 -472.081694 
L 358.783484 -476.492669 
L 358.99346 -480.903644 
L 359.213023 -485.314619 
L 359.437286 -489.725594 
L 359.661607 -494.136569 
L 359.881747 -498.547544 
L 360.09401 -502.958519 
L 360.295323 -507.369494 
L 360.48329 -511.780469 
L 360.656195 -516.191444 
L 360.812981 -520.602419 
L 360.953196 -525.013394 
L 361.076914 -529.424369 
L 361.184657 -533.835344 
L 362.176772 -533.835344 
L 362.176772 -533.835344 
L 362.284514 -529.424369 
L 362.408233 -525.013394 
L 362.548447 -520.602419 
L 362.705234 -516.191444 
L 362.878139 -511.780469 
L 363.066105 -507.369494 
L 363.267419 -502.958519 
L 363.479681 -498.547544 
L 363.699822 -494.136569 
L 363.924142 -489.725594 
L 364.148406 -485.314619 
L 364.367969 -480.903644 
L 364.577944 -476.492669 
L 364.773403 -472.081694 
L 364.949593 -467.670719 
L 365.10217 -463.259744 
L 365.227421 -458.848769 
L 365.322481 -454.437794 
L 365.385504 -450.026819 
L 365.415804 -445.615844 
L 365.413928 -441.204869 
L 365.381685 -436.793894 
L 365.322095 -432.382919 
L 365.239286 -427.971944 
L 365.138327 -423.560969 
L 365.025015 -419.149994 
L 364.905619 -414.739019 
L 364.786606 -410.328044 
L 364.674349 -405.917069 
L 364.57485 -401.506094 
L 364.493473 -397.095119 
L 364.434724 -392.684144 
L 364.402068 -388.273169 
L 364.397809 -383.862194 
L 364.423032 -379.451219 
L 364.477619 -375.040244 
L 364.560325 -370.629269 
L 364.668942 -366.218294 
L 364.800508 -361.807319 
L 364.95159 -357.396344 
L 365.118603 -352.985369 
L 365.298171 -348.574394 
L 365.487502 -344.163419 
L 365.68476 -339.752444 
L 365.889433 -335.341469 
L 366.102644 -330.930493 
L 366.327426 -326.519518 
L 366.568905 -322.108543 
L 366.834402 -317.697568 
L 367.133431 -313.286593 
L 367.477578 -308.875618 
L 367.880256 -304.464643 
L 368.356345 -300.053668 
L 368.921692 -295.642693 
L 369.59251 -291.231718 
L 370.384662 -286.820743 
L 371.312856 -282.409768 
L 372.389778 -277.998793 
L 373.625185 -273.587818 
L 375.025004 -269.176843 
L 376.590462 -264.765868 
L 378.317317 -260.354893 
L 380.19522 -255.943918 
L 382.20727 -251.532943 
L 384.329818 -247.121968 
L 386.532545 -242.710993 
L 388.778869 -238.300018 
L 391.026686 -233.889043 
L 393.229453 -229.478068 
L 395.337586 -225.067093 
L 397.300131 -220.656118 
L 399.066644 -216.245143 
L 400.589182 -211.834168 
L 401.824316 -207.423193 
L 402.735036 -203.012218 
L 403.292447 -198.601243 
L 403.477141 -194.190268 
L 403.280158 -189.779293 
L 402.703471 -185.368318 
L 401.759947 -180.957343 
L 400.472802 -176.546368 
L 398.874565 -172.135393 
L 397.005619 -167.724418 
L 394.912417 -163.313443 
L 392.645475 -158.902468 
L 390.25727 -154.491493 
L 387.800163 -150.080518 
L 385.324466 -145.669543 
L 382.87674 -141.258568 
L 380.498419 -136.847593 
L 378.224787 -132.436618 
L 376.084347 -128.025643 
L 374.098566 -123.614668 
L 372.281974 -119.203693 
L 370.642557 -114.792718 
L 369.182402 -110.381743 
L 367.898502 -105.970768 
L 366.783671 -101.559793 
L 365.827497 -97.148818 
z
" id="m3fdc5d3535" style="stroke:#3d3d3d;stroke-width:1.5;"/>
    </defs>
    <g clip-path="url(#p1b737452dc)">
     <use style="fill:#3a923a;stroke:#3d3d3d;stroke-width:1.5;" x="0" xlink:href="#m3fdc5d3535" y="649.22125"/>
    </g>
   </g>
   <g id="PolyCollection_4">
    <defs>
     <path d="M 488.071065 -79.292487 
L 481.358935 -79.292487 
L 480.615085 -84.488025 
L 479.753996 -89.683564 
L 478.769057 -94.879103 
L 477.656135 -100.074642 
L 476.414204 -105.270181 
L 475.045945 -110.465719 
L 473.558249 -115.661258 
L 471.962595 -120.856797 
L 470.275237 -126.052336 
L 468.517186 -131.247874 
L 466.713942 -136.443413 
L 464.894971 -141.638952 
L 463.092929 -146.834491 
L 461.342647 -152.03003 
L 459.67993 -157.225568 
L 458.140216 -162.421107 
L 456.757173 -167.616646 
L 455.561306 -172.812185 
L 454.578676 -178.007724 
L 453.829783 -183.203262 
L 453.32871 -188.398801 
L 453.082574 -193.59434 
L 453.091315 -198.789879 
L 453.347834 -203.985417 
L 453.838479 -209.180956 
L 454.543834 -214.376495 
L 455.439744 -219.572034 
L 456.498533 -224.767573 
L 457.690306 -229.963111 
L 458.984265 -235.15865 
L 460.34996 -240.354189 
L 461.758403 -245.549728 
L 463.18299 -250.745266 
L 464.600199 -255.940805 
L 465.990039 -261.136344 
L 467.33626 -266.331883 
L 468.62633 -271.527422 
L 469.851234 -276.72296 
L 471.005102 -281.918499 
L 472.08475 -287.114038 
L 473.089159 -292.309577 
L 474.018937 -297.505115 
L 474.87582 -302.700654 
L 475.662231 -307.896193 
L 476.380914 -313.091732 
L 477.034665 -318.287271 
L 477.626164 -323.482809 
L 478.157887 -328.678348 
L 478.632098 -333.873887 
L 479.050905 -339.069426 
L 479.416351 -344.264964 
L 479.730525 -349.460503 
L 479.995681 -354.656042 
L 480.214338 -359.851581 
L 480.389354 -365.04712 
L 480.523965 -370.242658 
L 480.621793 -375.438197 
L 480.68681 -380.633736 
L 480.723273 -385.829275 
L 480.735637 -391.024813 
L 480.728448 -396.220352 
L 480.706238 -401.415891 
L 480.673415 -406.61143 
L 480.634174 -411.806969 
L 480.592416 -417.002507 
L 480.551703 -422.198046 
L 480.515219 -427.393585 
L 480.485765 -432.589124 
L 480.465763 -437.784662 
L 480.457275 -442.980201 
L 480.462029 -448.17574 
L 480.481438 -453.371279 
L 480.516625 -458.566818 
L 480.568428 -463.762356 
L 480.637405 -468.957895 
L 480.723824 -474.153434 
L 480.827648 -479.348973 
L 480.948516 -484.544512 
L 481.085727 -489.74005 
L 481.238227 -494.935589 
L 481.40461 -500.131128 
L 481.583137 -505.326667 
L 481.771761 -510.522205 
L 481.968179 -515.717744 
L 482.169896 -520.913283 
L 482.374302 -526.108822 
L 482.578755 -531.304361 
L 482.780668 -536.499899 
L 482.977597 -541.695438 
L 483.167316 -546.890977 
L 483.347884 -552.086516 
L 483.517692 -557.282054 
L 483.675495 -562.477593 
L 483.820428 -567.673132 
L 483.951998 -572.868671 
L 484.070064 -578.06421 
L 484.174804 -583.259748 
L 484.26667 -588.455287 
L 484.346339 -593.650826 
L 485.083661 -593.650826 
L 485.083661 -593.650826 
L 485.16333 -588.455287 
L 485.255196 -583.259748 
L 485.359936 -578.06421 
L 485.478002 -572.868671 
L 485.609572 -567.673132 
L 485.754505 -562.477593 
L 485.912308 -557.282054 
L 486.082116 -552.086516 
L 486.262684 -546.890977 
L 486.452403 -541.695438 
L 486.649332 -536.499899 
L 486.851245 -531.304361 
L 487.055698 -526.108822 
L 487.260104 -520.913283 
L 487.461821 -515.717744 
L 487.658239 -510.522205 
L 487.846863 -505.326667 
L 488.02539 -500.131128 
L 488.191773 -494.935589 
L 488.344273 -489.74005 
L 488.481484 -484.544512 
L 488.602352 -479.348973 
L 488.706176 -474.153434 
L 488.792595 -468.957895 
L 488.861572 -463.762356 
L 488.913375 -458.566818 
L 488.948562 -453.371279 
L 488.967971 -448.17574 
L 488.972725 -442.980201 
L 488.964237 -437.784662 
L 488.944235 -432.589124 
L 488.914781 -427.393585 
L 488.878297 -422.198046 
L 488.837584 -417.002507 
L 488.795826 -411.806969 
L 488.756585 -406.61143 
L 488.723762 -401.415891 
L 488.701552 -396.220352 
L 488.694363 -391.024813 
L 488.706727 -385.829275 
L 488.74319 -380.633736 
L 488.808207 -375.438197 
L 488.906035 -370.242658 
L 489.040646 -365.04712 
L 489.215662 -359.851581 
L 489.434319 -354.656042 
L 489.699475 -349.460503 
L 490.013649 -344.264964 
L 490.379095 -339.069426 
L 490.797902 -333.873887 
L 491.272113 -328.678348 
L 491.803836 -323.482809 
L 492.395335 -318.287271 
L 493.049086 -313.091732 
L 493.767769 -307.896193 
L 494.55418 -302.700654 
L 495.411063 -297.505115 
L 496.340841 -292.309577 
L 497.34525 -287.114038 
L 498.424898 -281.918499 
L 499.578766 -276.72296 
L 500.80367 -271.527422 
L 502.09374 -266.331883 
L 503.439961 -261.136344 
L 504.829801 -255.940805 
L 506.24701 -250.745266 
L 507.671597 -245.549728 
L 509.08004 -240.354189 
L 510.445735 -235.15865 
L 511.739694 -229.963111 
L 512.931467 -224.767573 
L 513.990256 -219.572034 
L 514.886166 -214.376495 
L 515.591521 -209.180956 
L 516.082166 -203.985417 
L 516.338685 -198.789879 
L 516.347426 -193.59434 
L 516.10129 -188.398801 
L 515.600217 -183.203262 
L 514.851324 -178.007724 
L 513.868694 -172.812185 
L 512.672827 -167.616646 
L 511.289784 -162.421107 
L 509.75007 -157.225568 
L 508.087353 -152.03003 
L 506.337071 -146.834491 
L 504.535029 -141.638952 
L 502.716058 -136.443413 
L 500.912814 -131.247874 
L 499.154763 -126.052336 
L 497.467405 -120.856797 
L 495.871751 -115.661258 
L 494.384055 -110.465719 
L 493.015796 -105.270181 
L 491.773865 -100.074642 
L 490.660943 -94.879103 
L 489.676004 -89.683564 
L 488.814915 -84.488025 
L 488.071065 -79.292487 
z
" id="m87874b4878" style="stroke:#3d3d3d;stroke-width:1.5;"/>
    </defs>
    <g clip-path="url(#p1b737452dc)">
     <use style="fill:#c03d3e;stroke:#3d3d3d;stroke-width:1.5;" x="0" xlink:href="#m87874b4878" y="649.22125"/>
    </g>
   </g>
   <g id="PolyCollection_5">
    <defs>
     <path d="M 610.842986 -81.695538 
L 604.655585 -81.695538 
L 604.008843 -86.447516 
L 603.264672 -91.199494 
L 602.417333 -95.951472 
L 601.462785 -100.70345 
L 600.399152 -105.455428 
L 599.227169 -110.207406 
L 597.95059 -114.959384 
L 596.576526 -119.711362 
L 595.115689 -124.463339 
L 593.582503 -129.215317 
L 591.995071 -133.967295 
L 590.374972 -138.719273 
L 588.746883 -143.471251 
L 587.138027 -148.223229 
L 585.577451 -152.975207 
L 584.095163 -157.727185 
L 582.721159 -162.479163 
L 581.484375 -167.231141 
L 580.411624 -171.983119 
L 579.526555 -176.735096 
L 578.848707 -181.487074 
L 578.392688 -186.239052 
L 578.16754 -190.99103 
L 578.176316 -195.743008 
L 578.415902 -200.494986 
L 578.877086 -205.246964 
L 579.544878 -209.998942 
L 580.399059 -214.75092 
L 581.414939 -219.502898 
L 582.564272 -224.254875 
L 583.816294 -229.006853 
L 585.138828 -233.758831 
L 586.499399 -238.510809 
L 587.866317 -243.262787 
L 589.209678 -248.014765 
L 590.502242 -252.766743 
L 591.720171 -257.518721 
L 592.843582 -262.270699 
L 593.856933 -267.022677 
L 594.749221 -271.774655 
L 595.513998 -276.526632 
L 596.149232 -281.27861 
L 596.657023 -286.030588 
L 597.043192 -290.782566 
L 597.316779 -295.534544 
L 597.489472 -300.286522 
L 597.574989 -305.0385 
L 597.588443 -309.790478 
L 597.545717 -314.542456 
L 597.462858 -319.294434 
L 597.355527 -324.046411 
L 597.238502 -328.798389 
L 597.125262 -333.550367 
L 597.027648 -338.302345 
L 596.95562 -343.054323 
L 596.917102 -347.806301 
L 596.917916 -352.558279 
L 596.96181 -357.310257 
L 597.05055 -362.062235 
L 597.184099 -366.814213 
L 597.36083 -371.56619 
L 597.577799 -376.318168 
L 597.831033 -381.070146 
L 598.115828 -385.822124 
L 598.42705 -390.574102 
L 598.759408 -395.32608 
L 599.107704 -400.078058 
L 599.467042 -404.830036 
L 599.832987 -409.582014 
L 600.201682 -414.333992 
L 600.569909 -419.08597 
L 600.935108 -423.837947 
L 601.295351 -428.589925 
L 601.649281 -433.341903 
L 601.996032 -438.093881 
L 602.335119 -442.845859 
L 602.666332 -447.597837 
L 602.989629 -452.349815 
L 603.305028 -457.101793 
L 603.612529 -461.853771 
L 603.912046 -466.605749 
L 604.203361 -471.357726 
L 604.486106 -476.109704 
L 604.759761 -480.861682 
L 605.023671 -485.61366 
L 605.277084 -490.365638 
L 605.51919 -495.117616 
L 605.749176 -499.869594 
L 605.966274 -504.621572 
L 606.169806 -509.37355 
L 606.359235 -514.125528 
L 606.534187 -518.877506 
L 606.694479 -523.629483 
L 606.84013 -528.381461 
L 606.971356 -533.133439 
L 607.088565 -537.885417 
L 607.192334 -542.637395 
L 607.283389 -547.389373 
L 607.362569 -552.141351 
L 608.136003 -552.141351 
L 608.136003 -552.141351 
L 608.215183 -547.389373 
L 608.306237 -542.637395 
L 608.410007 -537.885417 
L 608.527215 -533.133439 
L 608.658442 -528.381461 
L 608.804092 -523.629483 
L 608.964385 -518.877506 
L 609.139337 -514.125528 
L 609.328765 -509.37355 
L 609.532298 -504.621572 
L 609.749395 -499.869594 
L 609.979381 -495.117616 
L 610.221488 -490.365638 
L 610.4749 -485.61366 
L 610.73881 -480.861682 
L 611.012465 -476.109704 
L 611.29521 -471.357726 
L 611.586526 -466.605749 
L 611.886043 -461.853771 
L 612.193544 -457.101793 
L 612.508943 -452.349815 
L 612.832239 -447.597837 
L 613.163453 -442.845859 
L 613.50254 -438.093881 
L 613.84929 -433.341903 
L 614.203221 -428.589925 
L 614.563463 -423.837947 
L 614.928662 -419.08597 
L 615.296889 -414.333992 
L 615.665584 -409.582014 
L 616.03153 -404.830036 
L 616.390867 -400.078058 
L 616.739164 -395.32608 
L 617.071522 -390.574102 
L 617.382743 -385.822124 
L 617.667539 -381.070146 
L 617.920772 -376.318168 
L 618.137741 -371.56619 
L 618.314473 -366.814213 
L 618.448021 -362.062235 
L 618.536762 -357.310257 
L 618.580655 -352.558279 
L 618.58147 -347.806301 
L 618.542951 -343.054323 
L 618.470923 -338.302345 
L 618.373309 -333.550367 
L 618.260069 -328.798389 
L 618.143045 -324.046411 
L 618.035714 -319.294434 
L 617.952855 -314.542456 
L 617.910128 -309.790478 
L 617.923582 -305.0385 
L 618.009099 -300.286522 
L 618.181792 -295.534544 
L 618.45538 -290.782566 
L 618.841548 -286.030588 
L 619.349339 -281.27861 
L 619.984573 -276.526632 
L 620.74935 -271.774655 
L 621.641638 -267.022677 
L 622.65499 -262.270699 
L 623.778401 -257.518721 
L 624.996329 -252.766743 
L 626.288894 -248.014765 
L 627.632254 -243.262787 
L 628.999172 -238.510809 
L 630.359743 -233.758831 
L 631.682278 -229.006853 
L 632.9343 -224.254875 
L 634.083632 -219.502898 
L 635.099512 -214.75092 
L 635.953694 -209.998942 
L 636.621486 -205.246964 
L 637.08267 -200.494986 
L 637.322256 -195.743008 
L 637.331032 -190.99103 
L 637.105883 -186.239052 
L 636.649864 -181.487074 
L 635.972016 -176.735096 
L 635.086948 -171.983119 
L 634.014196 -167.231141 
L 632.777413 -162.479163 
L 631.403408 -157.727185 
L 629.921121 -152.975207 
L 628.360545 -148.223229 
L 626.751689 -143.471251 
L 625.1236 -138.719273 
L 623.5035 -133.967295 
L 621.916068 -129.215317 
L 620.382882 -124.463339 
L 618.922046 -119.711362 
L 617.547982 -114.959384 
L 616.271402 -110.207406 
L 615.099419 -105.455428 
L 614.035786 -100.70345 
L 613.081239 -95.951472 
L 612.233899 -91.199494 
L 611.489728 -86.447516 
L 610.842986 -81.695538 
z
" id="m4eb40efbd4" style="stroke:#3d3d3d;stroke-width:1.5;"/>
    </defs>
    <g clip-path="url(#p1b737452dc)">
     <use style="fill:#9372b2;stroke:#3d3d3d;stroke-width:1.5;" x="0" xlink:href="#m4eb40efbd4" y="649.22125"/>
    </g>
   </g>
   <g id="PolyCollection_6">
    <defs>
     <path d="M 735.429148 -115.784561 
L 726.137994 -115.784561 
L 725.376456 -118.315801 
L 724.522477 -120.84704 
L 723.570874 -123.37828 
L 722.517256 -125.90952 
L 721.358223 -128.44076 
L 720.091583 -130.971999 
L 718.716561 -133.503239 
L 717.233989 -136.034479 
L 715.646495 -138.565719 
L 713.958648 -141.096959 
L 712.177082 -143.628198 
L 710.310571 -146.159438 
L 708.370061 -148.690678 
L 706.368645 -151.221918 
L 704.321481 -153.753157 
L 702.245655 -156.284397 
L 700.159974 -158.815637 
L 698.084708 -161.346877 
L 696.041273 -163.878116 
L 694.051869 -166.409356 
L 692.139068 -168.940596 
L 690.325384 -171.471836 
L 688.632813 -174.003075 
L 687.082369 -176.534315 
L 685.693625 -179.065555 
L 684.484283 -181.596795 
L 683.469758 -184.128034 
L 682.662827 -186.659274 
L 682.073324 -189.190514 
L 681.707899 -191.721754 
L 681.569857 -194.252993 
L 681.659069 -196.784233 
L 681.971965 -199.315473 
L 682.501608 -201.846713 
L 683.237844 -204.377952 
L 684.167527 -206.909192 
L 685.274803 -209.440432 
L 686.541461 -211.971672 
L 687.947323 -214.502911 
L 689.47067 -217.034151 
L 691.088696 -219.565391 
L 692.777971 -222.096631 
L 694.514905 -224.627871 
L 696.276198 -227.15911 
L 698.039277 -229.69035 
L 699.782694 -232.22159 
L 701.48649 -234.75283 
L 703.132515 -237.284069 
L 704.704695 -239.815309 
L 706.189248 -242.346549 
L 707.574846 -244.877789 
L 708.852713 -247.409028 
L 710.016673 -249.940268 
L 711.063141 -252.471508 
L 711.99106 -255.002748 
L 712.801791 -257.533987 
L 713.498952 -260.065227 
L 714.088225 -262.596467 
L 714.57712 -265.127707 
L 714.974715 -267.658946 
L 715.291374 -270.190186 
L 715.538442 -272.721426 
L 715.727944 -275.252666 
L 715.872271 -277.783905 
L 715.983874 -280.315145 
L 716.074976 -282.846385 
L 716.157297 -285.377625 
L 716.241805 -287.908864 
L 716.338497 -290.440104 
L 716.456218 -292.971344 
L 716.602511 -295.502584 
L 716.783512 -298.033823 
L 717.003888 -300.565063 
L 717.26681 -303.096303 
L 717.573976 -305.627543 
L 717.925661 -308.158783 
L 718.320809 -310.690022 
L 718.757154 -313.221262 
L 719.231364 -315.752502 
L 719.739203 -318.283742 
L 720.27571 -320.814981 
L 720.835386 -323.346221 
L 721.412373 -325.877461 
L 722.000639 -328.408701 
L 722.594147 -330.93994 
L 723.187011 -333.47118 
L 723.773636 -336.00242 
L 724.348832 -338.53366 
L 724.907911 -341.064899 
L 725.446761 -343.596139 
L 725.961889 -346.127379 
L 726.45045 -348.658619 
L 726.910254 -351.189858 
L 727.339748 -353.721098 
L 727.737986 -356.252338 
L 728.10459 -358.783578 
L 728.439693 -361.314817 
L 728.743878 -363.846057 
L 729.018114 -366.377297 
L 732.549029 -366.377297 
L 732.549029 -366.377297 
L 732.823264 -363.846057 
L 733.12745 -361.314817 
L 733.462553 -358.783578 
L 733.829157 -356.252338 
L 734.227395 -353.721098 
L 734.656888 -351.189858 
L 735.116692 -348.658619 
L 735.605254 -346.127379 
L 736.120382 -343.596139 
L 736.659232 -341.064899 
L 737.218311 -338.53366 
L 737.793507 -336.00242 
L 738.380132 -333.47118 
L 738.972996 -330.93994 
L 739.566504 -328.408701 
L 740.15477 -325.877461 
L 740.731757 -323.346221 
L 741.291432 -320.814981 
L 741.82794 -318.283742 
L 742.335779 -315.752502 
L 742.809989 -313.221262 
L 743.246334 -310.690022 
L 743.641482 -308.158783 
L 743.993167 -305.627543 
L 744.300333 -303.096303 
L 744.563255 -300.565063 
L 744.783631 -298.033823 
L 744.964632 -295.502584 
L 745.110924 -292.971344 
L 745.228646 -290.440104 
L 745.325338 -287.908864 
L 745.409846 -285.377625 
L 745.492167 -282.846385 
L 745.583269 -280.315145 
L 745.694872 -277.783905 
L 745.839198 -275.252666 
L 746.028701 -272.721426 
L 746.275769 -270.190186 
L 746.592428 -267.658946 
L 746.990023 -265.127707 
L 747.478918 -262.596467 
L 748.06819 -260.065227 
L 748.765352 -257.533987 
L 749.576083 -255.002748 
L 750.504002 -252.471508 
L 751.55047 -249.940268 
L 752.71443 -247.409028 
L 753.992297 -244.877789 
L 755.377895 -242.346549 
L 756.862448 -239.815309 
L 758.434628 -237.284069 
L 760.080653 -234.75283 
L 761.784449 -232.22159 
L 763.527866 -229.69035 
L 765.290945 -227.15911 
L 767.052238 -224.627871 
L 768.789171 -222.096631 
L 770.478447 -219.565391 
L 772.096473 -217.034151 
L 773.61982 -214.502911 
L 775.025681 -211.971672 
L 776.29234 -209.440432 
L 777.399616 -206.909192 
L 778.329298 -204.377952 
L 779.065535 -201.846713 
L 779.595178 -199.315473 
L 779.908074 -196.784233 
L 779.997286 -194.252993 
L 779.859244 -191.721754 
L 779.493819 -189.190514 
L 778.904316 -186.659274 
L 778.097385 -184.128034 
L 777.08286 -181.596795 
L 775.873517 -179.065555 
L 774.484774 -176.534315 
L 772.93433 -174.003075 
L 771.241759 -171.471836 
L 769.428075 -168.940596 
L 767.515274 -166.409356 
L 765.52587 -163.878116 
L 763.482435 -161.346877 
L 761.407169 -158.815637 
L 759.321488 -156.284397 
L 757.245662 -153.753157 
L 755.198498 -151.221918 
L 753.197082 -148.690678 
L 751.256571 -146.159438 
L 749.390061 -143.628198 
L 747.608495 -141.096959 
L 745.920648 -138.565719 
L 744.333154 -136.034479 
L 742.850582 -133.503239 
L 741.475559 -130.971999 
L 740.20892 -128.44076 
L 739.049887 -125.90952 
L 737.996269 -123.37828 
L 737.044666 -120.84704 
L 736.190686 -118.315801 
L 735.429148 -115.784561 
z
" id="m9e4de64065" style="stroke:#3d3d3d;stroke-width:1.5;"/>
    </defs>
    <g clip-path="url(#p1b737452dc)">
     <use style="fill:#845b53;stroke:#3d3d3d;stroke-width:1.5;" x="0" xlink:href="#m9e4de64065" y="649.22125"/>
    </g>
   </g>
   <g id="PolyCollection_7">
    <defs>
     <path d="M 854.670985 -103.257291 
L 852.964729 -103.257291 
L 852.739455 -107.86673 
L 852.466797 -112.476169 
L 852.140134 -117.085609 
L 851.75275 -121.695048 
L 851.298055 -126.304488 
L 850.769847 -130.913927 
L 850.162601 -135.523366 
L 849.471791 -140.132806 
L 848.694228 -144.742245 
L 847.828378 -149.351685 
L 846.874678 -153.961124 
L 845.835795 -158.570563 
L 844.716821 -163.180003 
L 843.525393 -167.789442 
L 842.2717 -172.398882 
L 840.968378 -177.008321 
L 839.630286 -181.61776 
L 838.274152 -186.2272 
L 836.918113 -190.836639 
L 835.581151 -195.446079 
L 834.282462 -200.055518 
L 833.040781 -204.664957 
L 831.873702 -209.274397 
L 830.797039 -213.883836 
L 829.824254 -218.493275 
L 828.965995 -223.102715 
L 828.229774 -227.712154 
L 827.619796 -232.321594 
L 827.136963 -236.931033 
L 826.779034 -241.540472 
L 826.540937 -246.149912 
L 826.415215 -250.759351 
L 826.392565 -255.368791 
L 826.462432 -259.97823 
L 826.613635 -264.587669 
L 826.834968 -269.197109 
L 827.115747 -273.806548 
L 827.446279 -278.415988 
L 827.818226 -283.025427 
L 828.224842 -287.634866 
L 828.661099 -292.244306 
L 829.123682 -296.853745 
L 829.610877 -301.463185 
L 830.122365 -306.072624 
L 830.658935 -310.682063 
L 831.222155 -315.291503 
L 831.814007 -319.900942 
L 832.436519 -324.510382 
L 833.091412 -329.119821 
L 833.779782 -333.72926 
L 834.501833 -338.3387 
L 835.256669 -342.948139 
L 836.042159 -347.557578 
L 836.85487 -352.167018 
L 837.690078 -356.776457 
L 838.541849 -361.385897 
L 839.403183 -365.995336 
L 840.266224 -370.604775 
L 841.122505 -375.214215 
L 841.963245 -379.823654 
L 842.77966 -384.433094 
L 843.563288 -389.042533 
L 844.306316 -393.651972 
L 845.001881 -398.261412 
L 845.644345 -402.870851 
L 846.22953 -407.480291 
L 846.754882 -412.08973 
L 847.219585 -416.699169 
L 847.624587 -421.308609 
L 847.972548 -425.918048 
L 848.267723 -430.527488 
L 848.515748 -435.136927 
L 848.723381 -439.746366 
L 848.898176 -444.355806 
L 849.048133 -448.965245 
L 849.181322 -453.574684 
L 849.305519 -458.184124 
L 849.427868 -462.793563 
L 849.554585 -467.403003 
L 849.690727 -472.012442 
L 849.840034 -476.621881 
L 850.004852 -481.231321 
L 850.186132 -485.84076 
L 850.383516 -490.4502 
L 850.595476 -495.059639 
L 850.819518 -499.669078 
L 851.052415 -504.278518 
L 851.290459 -508.887957 
L 851.529717 -513.497397 
L 851.766269 -518.106836 
L 851.996417 -522.716275 
L 852.216857 -527.325715 
L 852.424806 -531.935154 
L 852.618084 -536.544594 
L 852.795143 -541.154033 
L 852.955067 -545.763472 
L 853.097529 -550.372912 
L 853.222727 -554.982351 
L 853.331298 -559.59179 
L 854.304416 -559.59179 
L 854.304416 -559.59179 
L 854.412987 -554.982351 
L 854.538185 -550.372912 
L 854.680648 -545.763472 
L 854.840572 -541.154033 
L 855.017631 -536.544594 
L 855.210908 -531.935154 
L 855.418858 -527.325715 
L 855.639298 -522.716275 
L 855.869446 -518.106836 
L 856.105997 -513.497397 
L 856.345255 -508.887957 
L 856.583299 -504.278518 
L 856.816196 -499.669078 
L 857.040238 -495.059639 
L 857.252199 -490.4502 
L 857.449582 -485.84076 
L 857.630863 -481.231321 
L 857.79568 -476.621881 
L 857.944988 -472.012442 
L 858.08113 -467.403003 
L 858.207847 -462.793563 
L 858.330196 -458.184124 
L 858.454393 -453.574684 
L 858.587581 -448.965245 
L 858.737538 -444.355806 
L 858.912334 -439.746366 
L 859.119966 -435.136927 
L 859.367991 -430.527488 
L 859.663166 -425.918048 
L 860.011128 -421.308609 
L 860.416129 -416.699169 
L 860.880832 -412.08973 
L 861.406185 -407.480291 
L 861.991369 -402.870851 
L 862.633833 -398.261412 
L 863.329398 -393.651972 
L 864.072426 -389.042533 
L 864.856055 -384.433094 
L 865.67247 -379.823654 
L 866.51321 -375.214215 
L 867.369491 -370.604775 
L 868.232531 -365.995336 
L 869.093865 -361.385897 
L 869.945636 -356.776457 
L 870.780844 -352.167018 
L 871.593555 -347.557578 
L 872.379045 -342.948139 
L 873.133882 -338.3387 
L 873.855932 -333.72926 
L 874.544302 -329.119821 
L 875.199195 -324.510382 
L 875.821707 -319.900942 
L 876.413559 -315.291503 
L 876.97678 -310.682063 
L 877.51335 -306.072624 
L 878.024837 -301.463185 
L 878.512032 -296.853745 
L 878.974616 -292.244306 
L 879.410873 -287.634866 
L 879.817489 -283.025427 
L 880.189435 -278.415988 
L 880.519967 -273.806548 
L 880.800746 -269.197109 
L 881.022079 -264.587669 
L 881.173283 -259.97823 
L 881.24315 -255.368791 
L 881.220499 -250.759351 
L 881.094777 -246.149912 
L 880.85668 -241.540472 
L 880.498751 -236.931033 
L 880.015918 -232.321594 
L 879.405941 -227.712154 
L 878.669719 -223.102715 
L 877.81146 -218.493275 
L 876.838675 -213.883836 
L 875.762012 -209.274397 
L 874.594934 -204.664957 
L 873.353252 -200.055518 
L 872.054563 -195.446079 
L 870.717602 -190.836639 
L 869.361562 -186.2272 
L 868.005428 -181.61776 
L 866.667336 -177.008321 
L 865.364014 -172.398882 
L 864.110321 -167.789442 
L 862.918893 -163.180003 
L 861.79992 -158.570563 
L 860.761036 -153.961124 
L 859.807336 -149.351685 
L 858.941487 -144.742245 
L 858.163923 -140.132806 
L 857.473114 -135.523366 
L 856.865867 -130.913927 
L 856.337659 -126.304488 
L 855.882965 -121.695048 
L 855.495581 -117.085609 
L 855.168917 -112.476169 
L 854.89626 -107.86673 
L 854.670985 -103.257291 
z
" id="ma13328f57d" style="stroke:#3d3d3d;stroke-width:1.5;"/>
    </defs>
    <g clip-path="url(#p1b737452dc)">
     <use style="fill:#d684bd;stroke:#3d3d3d;stroke-width:1.5;" x="0" xlink:href="#ma13328f57d" y="649.22125"/>
    </g>
   </g>
   <g id="matplotlib.axis_1">
    <g id="xtick_1">
     <g id="line2d_1">
      <defs>
       <path d="M 0 0 
L 0 3.5 
" id="m9223409bbf" style="stroke:#000000;stroke-width:0.8;"/>
      </defs>
      <g>
       <use style="stroke:#000000;stroke-width:0.8;" x="115.612143" xlink:href="#m9223409bbf" y="609.2"/>
      </g>
     </g>
     <g id="text_1">
      <!-- firstorder -->
      <defs>
       <path d="M 20.609375 41.21875 
L 20.609375 11.8125 
Q 20.609375 5.5625 21.96875 3.90625 
Q 23.78125 1.765625 26.8125 1.765625 
L 30.859375 1.765625 
L 30.859375 0 
L 4.15625 0 
L 4.15625 1.765625 
L 6.15625 1.765625 
Q 8.109375 1.765625 9.71875 2.734375 
Q 11.328125 3.71875 11.9375 5.375 
Q 12.546875 7.03125 12.546875 11.8125 
L 12.546875 41.21875 
L 3.859375 41.21875 
L 3.859375 44.734375 
L 12.546875 44.734375 
L 12.546875 47.65625 
Q 12.546875 54.34375 14.6875 58.984375 
Q 16.84375 63.625 21.265625 66.484375 
Q 25.6875 69.34375 31.203125 69.34375 
Q 36.328125 69.34375 40.625 66.015625 
Q 43.453125 63.8125 43.453125 61.078125 
Q 43.453125 59.625 42.1875 58.328125 
Q 40.921875 57.03125 39.453125 57.03125 
Q 38.328125 57.03125 37.078125 57.828125 
Q 35.84375 58.640625 34.03125 61.296875 
Q 32.234375 63.96875 30.71875 64.890625 
Q 29.203125 65.828125 27.34375 65.828125 
Q 25.09375 65.828125 23.53125 64.625 
Q 21.96875 63.421875 21.28125 60.90625 
Q 20.609375 58.40625 20.609375 47.953125 
L 20.609375 44.734375 
L 32.125 44.734375 
L 32.125 41.21875 
z
" id="TimesNewRomanPSMT-102"/>
       <path d="M 14.5 69.4375 
Q 16.546875 69.4375 17.984375 67.984375 
Q 19.4375 66.546875 19.4375 64.5 
Q 19.4375 62.453125 17.984375 60.984375 
Q 16.546875 59.515625 14.5 59.515625 
Q 12.453125 59.515625 10.984375 60.984375 
Q 9.515625 62.453125 9.515625 64.5 
Q 9.515625 66.546875 10.953125 67.984375 
Q 12.40625 69.4375 14.5 69.4375 
z
M 18.5625 46.046875 
L 18.5625 10.109375 
Q 18.5625 5.90625 19.171875 4.515625 
Q 19.78125 3.125 20.96875 2.4375 
Q 22.171875 1.765625 25.34375 1.765625 
L 25.34375 0 
L 3.609375 0 
L 3.609375 1.765625 
Q 6.890625 1.765625 8 2.390625 
Q 9.125 3.03125 9.78125 4.484375 
Q 10.453125 5.953125 10.453125 10.109375 
L 10.453125 27.34375 
Q 10.453125 34.625 10.015625 36.765625 
Q 9.671875 38.328125 8.9375 38.9375 
Q 8.203125 39.546875 6.9375 39.546875 
Q 5.5625 39.546875 3.609375 38.8125 
L 2.9375 40.578125 
L 16.40625 46.046875 
z
" id="TimesNewRomanPSMT-105"/>
       <path d="M 16.21875 46.046875 
L 16.21875 35.984375 
Q 21.828125 46.046875 27.734375 46.046875 
Q 30.421875 46.046875 32.171875 44.40625 
Q 33.9375 42.78125 33.9375 40.625 
Q 33.9375 38.71875 32.65625 37.390625 
Q 31.390625 36.078125 29.640625 36.078125 
Q 27.9375 36.078125 25.8125 37.765625 
Q 23.6875 39.453125 22.65625 39.453125 
Q 21.78125 39.453125 20.75 38.484375 
Q 18.5625 36.46875 16.21875 31.890625 
L 16.21875 10.453125 
Q 16.21875 6.734375 17.140625 4.828125 
Q 17.78125 3.515625 19.390625 2.640625 
Q 21 1.765625 24.03125 1.765625 
L 24.03125 0 
L 1.125 0 
L 1.125 1.765625 
Q 4.546875 1.765625 6.203125 2.828125 
Q 7.421875 3.609375 7.90625 5.328125 
Q 8.15625 6.15625 8.15625 10.0625 
L 8.15625 27.390625 
Q 8.15625 35.203125 7.828125 36.6875 
Q 7.515625 38.1875 6.65625 38.859375 
Q 5.8125 39.546875 4.546875 39.546875 
Q 3.03125 39.546875 1.125 38.8125 
L 0.640625 40.578125 
L 14.15625 46.046875 
z
" id="TimesNewRomanPSMT-114"/>
       <path d="M 32.03125 46.046875 
L 32.03125 30.8125 
L 30.421875 30.8125 
Q 28.5625 37.984375 25.65625 40.578125 
Q 22.75 43.171875 18.265625 43.171875 
Q 14.84375 43.171875 12.734375 41.359375 
Q 10.640625 39.546875 10.640625 37.359375 
Q 10.640625 34.625 12.203125 32.671875 
Q 13.71875 30.671875 18.359375 28.421875 
L 25.484375 24.953125 
Q 35.40625 20.125 35.40625 12.203125 
Q 35.40625 6.109375 30.78125 2.359375 
Q 26.171875 -1.375 20.453125 -1.375 
Q 16.359375 -1.375 11.078125 0.09375 
Q 9.46875 0.59375 8.453125 0.59375 
Q 7.328125 0.59375 6.6875 -0.6875 
L 5.078125 -0.6875 
L 5.078125 15.28125 
L 6.6875 15.28125 
Q 8.0625 8.453125 11.90625 4.984375 
Q 15.765625 1.515625 20.5625 1.515625 
Q 23.921875 1.515625 26.046875 3.484375 
Q 28.171875 5.46875 28.171875 8.25 
Q 28.171875 11.625 25.796875 13.921875 
Q 23.4375 16.21875 16.359375 19.734375 
Q 9.28125 23.25 7.078125 26.078125 
Q 4.890625 28.859375 4.890625 33.109375 
Q 4.890625 38.625 8.671875 42.328125 
Q 12.453125 46.046875 18.453125 46.046875 
Q 21.09375 46.046875 24.859375 44.921875 
Q 27.34375 44.1875 28.171875 44.1875 
Q 28.953125 44.1875 29.390625 44.53125 
Q 29.828125 44.875 30.421875 46.046875 
z
" id="TimesNewRomanPSMT-115"/>
       <path d="M 16.109375 59.421875 
L 16.109375 44.734375 
L 26.5625 44.734375 
L 26.5625 41.3125 
L 16.109375 41.3125 
L 16.109375 12.3125 
Q 16.109375 7.953125 17.359375 6.4375 
Q 18.609375 4.9375 20.5625 4.9375 
Q 22.171875 4.9375 23.6875 5.9375 
Q 25.203125 6.9375 26.03125 8.890625 
L 27.9375 8.890625 
Q 26.21875 4.109375 23.09375 1.6875 
Q 19.96875 -0.734375 16.65625 -0.734375 
Q 14.40625 -0.734375 12.25 0.515625 
Q 10.109375 1.765625 9.078125 4.078125 
Q 8.0625 6.390625 8.0625 11.234375 
L 8.0625 41.3125 
L 0.984375 41.3125 
L 0.984375 42.921875 
Q 3.65625 44 6.46875 46.5625 
Q 9.28125 49.125 11.46875 52.640625 
Q 12.59375 54.5 14.59375 59.421875 
z
" id="TimesNewRomanPSMT-116"/>
       <path d="M 25 46.046875 
Q 35.15625 46.046875 41.3125 38.328125 
Q 46.53125 31.734375 46.53125 23.1875 
Q 46.53125 17.1875 43.640625 11.03125 
Q 40.765625 4.890625 35.71875 1.75 
Q 30.671875 -1.375 24.46875 -1.375 
Q 14.359375 -1.375 8.40625 6.6875 
Q 3.375 13.484375 3.375 21.921875 
Q 3.375 28.078125 6.421875 34.15625 
Q 9.46875 40.234375 14.453125 43.140625 
Q 19.4375 46.046875 25 46.046875 
z
M 23.484375 42.875 
Q 20.90625 42.875 18.28125 41.328125 
Q 15.671875 39.796875 14.0625 35.9375 
Q 12.453125 32.078125 12.453125 26.03125 
Q 12.453125 16.265625 16.328125 9.171875 
Q 20.21875 2.09375 26.5625 2.09375 
Q 31.296875 2.09375 34.375 6 
Q 37.453125 9.90625 37.453125 19.4375 
Q 37.453125 31.34375 32.328125 38.1875 
Q 28.859375 42.875 23.484375 42.875 
z
" id="TimesNewRomanPSMT-111"/>
       <path d="M 34.71875 5.03125 
Q 31.453125 1.609375 28.328125 0.109375 
Q 25.203125 -1.375 21.578125 -1.375 
Q 14.265625 -1.375 8.796875 4.75 
Q 3.328125 10.890625 3.328125 20.515625 
Q 3.328125 30.125 9.375 38.109375 
Q 15.4375 46.09375 24.953125 46.09375 
Q 30.859375 46.09375 34.71875 42.328125 
L 34.71875 50.59375 
Q 34.71875 58.25 34.34375 60 
Q 33.984375 61.765625 33.203125 62.390625 
Q 32.421875 63.03125 31.25 63.03125 
Q 29.984375 63.03125 27.875 62.25 
L 27.25 63.96875 
L 40.578125 69.4375 
L 42.78125 69.4375 
L 42.78125 17.71875 
Q 42.78125 9.859375 43.140625 8.125 
Q 43.5 6.390625 44.3125 5.703125 
Q 45.125 5.03125 46.1875 5.03125 
Q 47.515625 5.03125 49.703125 5.859375 
L 50.25 4.15625 
L 36.96875 -1.375 
L 34.71875 -1.375 
z
M 34.71875 8.453125 
L 34.71875 31.5 
Q 34.421875 34.8125 32.953125 37.546875 
Q 31.5 40.28125 29.078125 41.671875 
Q 26.65625 43.0625 24.359375 43.0625 
Q 20.0625 43.0625 16.703125 39.203125 
Q 12.25 34.125 12.25 24.359375 
Q 12.25 14.5 16.546875 9.25 
Q 20.84375 4 26.125 4 
Q 30.5625 4 34.71875 8.453125 
z
" id="TimesNewRomanPSMT-100"/>
       <path d="M 10.640625 27.875 
Q 10.59375 17.921875 15.484375 12.25 
Q 20.359375 6.59375 26.953125 6.59375 
Q 31.34375 6.59375 34.59375 9 
Q 37.84375 11.421875 40.046875 17.28125 
L 41.546875 16.3125 
Q 40.53125 9.625 35.59375 4.125 
Q 30.671875 -1.375 23.25 -1.375 
Q 15.1875 -1.375 9.453125 4.90625 
Q 3.71875 11.1875 3.71875 21.78125 
Q 3.71875 33.25 9.59375 39.671875 
Q 15.484375 46.09375 24.359375 46.09375 
Q 31.890625 46.09375 36.71875 41.140625 
Q 41.546875 36.1875 41.546875 27.875 
z
M 10.640625 30.71875 
L 31.34375 30.71875 
Q 31.109375 35.015625 30.328125 36.765625 
Q 29.109375 39.5 26.6875 41.0625 
Q 24.265625 42.625 21.625 42.625 
Q 17.578125 42.625 14.375 39.46875 
Q 11.1875 36.328125 10.640625 30.71875 
z
" id="TimesNewRomanPSMT-101"/>
      </defs>
      <g transform="translate(93.288393 624.5325)scale(0.12 -0.12)">
       <use xlink:href="#TimesNewRomanPSMT-102"/>
       <use x="33.300781" xlink:href="#TimesNewRomanPSMT-105"/>
       <use x="61.083984" xlink:href="#TimesNewRomanPSMT-114"/>
       <use x="94.384766" xlink:href="#TimesNewRomanPSMT-115"/>
       <use x="133.300781" xlink:href="#TimesNewRomanPSMT-116"/>
       <use x="161.083984" xlink:href="#TimesNewRomanPSMT-111"/>
       <use x="211.083984" xlink:href="#TimesNewRomanPSMT-114"/>
       <use x="244.384766" xlink:href="#TimesNewRomanPSMT-100"/>
       <use x="294.384766" xlink:href="#TimesNewRomanPSMT-101"/>
       <use x="338.769531" xlink:href="#TimesNewRomanPSMT-114"/>
      </g>
     </g>
    </g>
    <g id="xtick_2">
     <g id="line2d_2">
      <g>
       <use style="stroke:#000000;stroke-width:0.8;" x="238.646429" xlink:href="#m9223409bbf" y="609.2"/>
      </g>
     </g>
     <g id="text_2">
      <!-- glcm -->
      <defs>
       <path d="M 15.09375 16.3125 
Q 10.984375 18.3125 8.78125 21.890625 
Q 6.59375 25.484375 6.59375 29.828125 
Q 6.59375 36.46875 11.59375 41.25 
Q 16.609375 46.046875 24.421875 46.046875 
Q 30.8125 46.046875 35.5 42.921875 
L 44.96875 42.921875 
Q 47.078125 42.921875 47.40625 42.796875 
Q 47.75 42.671875 47.90625 42.390625 
Q 48.1875 41.9375 48.1875 40.828125 
Q 48.1875 39.546875 47.953125 39.0625 
Q 47.796875 38.8125 47.4375 38.671875 
Q 47.078125 38.53125 44.96875 38.53125 
L 39.15625 38.53125 
Q 41.890625 35.015625 41.890625 29.546875 
Q 41.890625 23.296875 37.109375 18.84375 
Q 32.328125 14.40625 24.265625 14.40625 
Q 20.953125 14.40625 17.484375 15.375 
Q 15.328125 13.53125 14.5625 12.140625 
Q 13.8125 10.75 13.8125 9.765625 
Q 13.8125 8.9375 14.625 8.15625 
Q 15.4375 7.375 17.78125 7.03125 
Q 19.140625 6.84375 24.609375 6.6875 
Q 34.671875 6.453125 37.640625 6 
Q 42.1875 5.375 44.890625 2.640625 
Q 47.609375 -0.09375 47.609375 -4.109375 
Q 47.609375 -9.625 42.4375 -14.453125 
Q 34.8125 -21.578125 22.5625 -21.578125 
Q 13.140625 -21.578125 6.640625 -17.328125 
Q 2.984375 -14.890625 2.984375 -12.25 
Q 2.984375 -11.078125 3.515625 -9.90625 
Q 4.34375 -8.109375 6.9375 -4.890625 
Q 7.28125 -4.4375 11.921875 0.390625 
Q 9.375 1.90625 8.328125 3.09375 
Q 7.28125 4.296875 7.28125 5.8125 
Q 7.28125 7.515625 8.671875 9.8125 
Q 10.0625 12.109375 15.09375 16.3125 
z
M 23.578125 43.703125 
Q 19.96875 43.703125 17.53125 40.8125 
Q 15.09375 37.9375 15.09375 31.984375 
Q 15.09375 24.265625 18.40625 20.015625 
Q 20.953125 16.796875 24.859375 16.796875 
Q 28.5625 16.796875 30.953125 19.578125 
Q 33.34375 22.359375 33.34375 28.328125 
Q 33.34375 36.078125 29.984375 40.484375 
Q 27.484375 43.703125 23.578125 43.703125 
z
M 14.59375 0 
Q 12.3125 -2.484375 11.140625 -4.625 
Q 9.96875 -6.78125 9.96875 -8.59375 
Q 9.96875 -10.9375 12.796875 -12.703125 
Q 17.671875 -15.71875 26.90625 -15.71875 
Q 35.6875 -15.71875 39.859375 -12.609375 
Q 44.046875 -9.515625 44.046875 -6 
Q 44.046875 -3.46875 41.546875 -2.390625 
Q 39.015625 -1.3125 31.5 -1.125 
Q 20.515625 -0.828125 14.59375 0 
z
" id="TimesNewRomanPSMT-103"/>
       <path d="M 18.5 69.4375 
L 18.5 10.109375 
Q 18.5 5.90625 19.109375 4.53125 
Q 19.734375 3.171875 21 2.46875 
Q 22.265625 1.765625 25.734375 1.765625 
L 25.734375 0 
L 3.8125 0 
L 3.8125 1.765625 
Q 6.890625 1.765625 8 2.390625 
Q 9.125 3.03125 9.765625 4.484375 
Q 10.40625 5.953125 10.40625 10.109375 
L 10.40625 50.734375 
Q 10.40625 58.296875 10.0625 60.03125 
Q 9.71875 61.765625 8.953125 62.390625 
Q 8.203125 63.03125 7.03125 63.03125 
Q 5.765625 63.03125 3.8125 62.25 
L 2.984375 63.96875 
L 16.3125 69.4375 
z
" id="TimesNewRomanPSMT-108"/>
       <path d="M 41.109375 17 
Q 39.3125 8.15625 34.03125 3.390625 
Q 28.765625 -1.375 22.359375 -1.375 
Q 14.75 -1.375 9.078125 5.015625 
Q 3.421875 11.421875 3.421875 22.3125 
Q 3.421875 32.859375 9.6875 39.453125 
Q 15.96875 46.046875 24.75 46.046875 
Q 31.34375 46.046875 35.59375 42.546875 
Q 39.84375 39.0625 39.84375 35.296875 
Q 39.84375 33.453125 38.640625 32.296875 
Q 37.453125 31.15625 35.296875 31.15625 
Q 32.421875 31.15625 30.953125 33.015625 
Q 30.125 34.03125 29.859375 36.90625 
Q 29.59375 39.796875 27.875 41.3125 
Q 26.171875 42.78125 23.140625 42.78125 
Q 18.265625 42.78125 15.28125 39.15625 
Q 11.328125 34.375 11.328125 26.515625 
Q 11.328125 18.5 15.25 12.375 
Q 19.1875 6.25 25.875 6.25 
Q 30.671875 6.25 34.46875 9.515625 
Q 37.15625 11.765625 39.703125 17.671875 
z
" id="TimesNewRomanPSMT-99"/>
       <path d="M 16.40625 36.53125 
Q 21.296875 41.40625 22.171875 42.140625 
Q 24.359375 44 26.890625 45.015625 
Q 29.4375 46.046875 31.9375 46.046875 
Q 36.140625 46.046875 39.15625 43.59375 
Q 42.1875 41.15625 43.21875 36.53125 
Q 48.25 42.390625 51.703125 44.21875 
Q 55.171875 46.046875 58.84375 46.046875 
Q 62.40625 46.046875 65.15625 44.21875 
Q 67.921875 42.390625 69.53125 38.234375 
Q 70.609375 35.40625 70.609375 29.34375 
L 70.609375 10.109375 
Q 70.609375 5.90625 71.234375 4.34375 
Q 71.734375 3.265625 73.046875 2.515625 
Q 74.359375 1.765625 77.34375 1.765625 
L 77.34375 0 
L 55.28125 0 
L 55.28125 1.765625 
L 56.203125 1.765625 
Q 59.078125 1.765625 60.6875 2.875 
Q 61.8125 3.65625 62.3125 5.375 
Q 62.5 6.203125 62.5 10.109375 
L 62.5 29.34375 
Q 62.5 34.8125 61.1875 37.0625 
Q 59.28125 40.1875 55.078125 40.1875 
Q 52.484375 40.1875 49.875 38.890625 
Q 47.265625 37.59375 43.5625 34.078125 
L 43.453125 33.546875 
L 43.5625 31.453125 
L 43.5625 10.109375 
Q 43.5625 5.515625 44.0625 4.390625 
Q 44.578125 3.265625 45.984375 2.515625 
Q 47.40625 1.765625 50.828125 1.765625 
L 50.828125 0 
L 28.21875 0 
L 28.21875 1.765625 
Q 31.9375 1.765625 33.328125 2.640625 
Q 34.71875 3.515625 35.25 5.28125 
Q 35.5 6.109375 35.5 10.109375 
L 35.5 29.34375 
Q 35.5 34.8125 33.890625 37.203125 
Q 31.734375 40.328125 27.875 40.328125 
Q 25.25 40.328125 22.65625 38.921875 
Q 18.609375 36.765625 16.40625 34.078125 
L 16.40625 10.109375 
Q 16.40625 5.71875 17.015625 4.390625 
Q 17.625 3.078125 18.8125 2.421875 
Q 20.015625 1.765625 23.6875 1.765625 
L 23.6875 0 
L 1.5625 0 
L 1.5625 1.765625 
Q 4.640625 1.765625 5.859375 2.421875 
Q 7.078125 3.078125 7.703125 4.515625 
Q 8.34375 5.953125 8.34375 10.109375 
L 8.34375 27.203125 
Q 8.34375 34.578125 7.90625 36.71875 
Q 7.5625 38.328125 6.828125 38.9375 
Q 6.109375 39.546875 4.828125 39.546875 
Q 3.46875 39.546875 1.5625 38.8125 
L 0.828125 40.578125 
L 14.3125 46.046875 
L 16.40625 46.046875 
z
" id="TimesNewRomanPSMT-109"/>
      </defs>
      <g transform="translate(226.649241 624.5325)scale(0.12 -0.12)">
       <use xlink:href="#TimesNewRomanPSMT-103"/>
       <use x="50" xlink:href="#TimesNewRomanPSMT-108"/>
       <use x="77.783203" xlink:href="#TimesNewRomanPSMT-99"/>
       <use x="122.167969" xlink:href="#TimesNewRomanPSMT-109"/>
      </g>
     </g>
    </g>
    <g id="xtick_3">
     <g id="line2d_3">
      <g>
       <use style="stroke:#000000;stroke-width:0.8;" x="361.680714" xlink:href="#m9223409bbf" y="609.2"/>
      </g>
     </g>
     <g id="text_3">
      <!-- gldm -->
      <g transform="translate(349.346964 624.5325)scale(0.12 -0.12)">
       <use xlink:href="#TimesNewRomanPSMT-103"/>
       <use x="50" xlink:href="#TimesNewRomanPSMT-108"/>
       <use x="77.783203" xlink:href="#TimesNewRomanPSMT-100"/>
       <use x="127.783203" xlink:href="#TimesNewRomanPSMT-109"/>
      </g>
     </g>
    </g>
    <g id="xtick_4">
     <g id="line2d_4">
      <g>
       <use style="stroke:#000000;stroke-width:0.8;" x="484.715" xlink:href="#m9223409bbf" y="609.2"/>
      </g>
     </g>
     <g id="text_4">
      <!-- glrlm -->
      <g transform="translate(471.716562 624.5325)scale(0.12 -0.12)">
       <use xlink:href="#TimesNewRomanPSMT-103"/>
       <use x="50" xlink:href="#TimesNewRomanPSMT-108"/>
       <use x="77.783203" xlink:href="#TimesNewRomanPSMT-114"/>
       <use x="111.083984" xlink:href="#TimesNewRomanPSMT-108"/>
       <use x="138.867188" xlink:href="#TimesNewRomanPSMT-109"/>
      </g>
     </g>
    </g>
    <g id="xtick_5">
     <g id="line2d_5">
      <g>
       <use style="stroke:#000000;stroke-width:0.8;" x="607.749286" xlink:href="#m9223409bbf" y="609.2"/>
      </g>
     </g>
     <g id="text_5">
      <!-- glszm -->
      <defs>
       <path d="M 42 13.71875 
L 41.453125 0 
L 2 0 
L 2 1.765625 
L 31.6875 41.3125 
L 17.046875 41.3125 
Q 12.3125 41.3125 10.84375 40.703125 
Q 9.375 40.09375 8.453125 38.375 
Q 7.125 35.9375 6.9375 32.328125 
L 4.984375 32.328125 
L 5.28125 44.734375 
L 42.78125 44.734375 
L 42.78125 42.921875 
L 12.796875 3.265625 
L 29.109375 3.265625 
Q 34.234375 3.265625 36.0625 4.125 
Q 37.890625 4.984375 39.015625 7.125 
Q 39.796875 8.6875 40.328125 13.71875 
z
" id="TimesNewRomanPSMT-122"/>
      </defs>
      <g transform="translate(593.416786 624.5325)scale(0.12 -0.12)">
       <use xlink:href="#TimesNewRomanPSMT-103"/>
       <use x="50" xlink:href="#TimesNewRomanPSMT-108"/>
       <use x="77.783203" xlink:href="#TimesNewRomanPSMT-115"/>
       <use x="116.699219" xlink:href="#TimesNewRomanPSMT-122"/>
       <use x="161.083984" xlink:href="#TimesNewRomanPSMT-109"/>
      </g>
     </g>
    </g>
    <g id="xtick_6">
     <g id="line2d_6">
      <g>
       <use style="stroke:#000000;stroke-width:0.8;" x="730.783571" xlink:href="#m9223409bbf" y="609.2"/>
      </g>
     </g>
     <g id="text_6">
      <!-- ngtdm -->
      <defs>
       <path d="M 16.15625 36.578125 
Q 24.03125 46.046875 31.15625 46.046875 
Q 34.8125 46.046875 37.453125 44.21875 
Q 40.09375 42.390625 41.65625 38.1875 
Q 42.71875 35.25 42.71875 29.203125 
L 42.71875 10.109375 
Q 42.71875 5.859375 43.40625 4.34375 
Q 43.953125 3.125 45.140625 2.4375 
Q 46.34375 1.765625 49.5625 1.765625 
L 49.5625 0 
L 27.4375 0 
L 27.4375 1.765625 
L 28.375 1.765625 
Q 31.5 1.765625 32.734375 2.703125 
Q 33.984375 3.65625 34.46875 5.515625 
Q 34.671875 6.25 34.671875 10.109375 
L 34.671875 28.421875 
Q 34.671875 34.515625 33.078125 37.28125 
Q 31.5 40.046875 27.734375 40.046875 
Q 21.921875 40.046875 16.15625 33.6875 
L 16.15625 10.109375 
Q 16.15625 5.5625 16.703125 4.5 
Q 17.390625 3.078125 18.578125 2.421875 
Q 19.78125 1.765625 23.4375 1.765625 
L 23.4375 0 
L 1.3125 0 
L 1.3125 1.765625 
L 2.296875 1.765625 
Q 5.71875 1.765625 6.90625 3.484375 
Q 8.109375 5.21875 8.109375 10.109375 
L 8.109375 26.703125 
Q 8.109375 34.765625 7.734375 36.515625 
Q 7.375 38.28125 6.609375 38.90625 
Q 5.859375 39.546875 4.59375 39.546875 
Q 3.21875 39.546875 1.3125 38.8125 
L 0.59375 40.578125 
L 14.0625 46.046875 
L 16.15625 46.046875 
z
" id="TimesNewRomanPSMT-110"/>
      </defs>
      <g transform="translate(715.449821 624.5325)scale(0.12 -0.12)">
       <use xlink:href="#TimesNewRomanPSMT-110"/>
       <use x="50" xlink:href="#TimesNewRomanPSMT-103"/>
       <use x="100" xlink:href="#TimesNewRomanPSMT-116"/>
       <use x="127.783203" xlink:href="#TimesNewRomanPSMT-100"/>
       <use x="177.783203" xlink:href="#TimesNewRomanPSMT-109"/>
      </g>
     </g>
    </g>
    <g id="xtick_7">
     <g id="line2d_7">
      <g>
       <use style="stroke:#000000;stroke-width:0.8;" x="853.817857" xlink:href="#m9223409bbf" y="609.2"/>
      </g>
     </g>
     <g id="text_7">
      <!-- shape -->
      <defs>
       <path d="M 16.265625 69.4375 
L 16.265625 36.71875 
Q 21.6875 42.671875 24.859375 44.359375 
Q 28.03125 46.046875 31.203125 46.046875 
Q 35.015625 46.046875 37.75 43.9375 
Q 40.484375 41.84375 41.796875 37.359375 
Q 42.71875 34.234375 42.71875 25.921875 
L 42.71875 10.109375 
Q 42.71875 5.859375 43.40625 4.296875 
Q 43.890625 3.125 45.0625 2.4375 
Q 46.234375 1.765625 49.359375 1.765625 
L 49.359375 0 
L 27.390625 0 
L 27.390625 1.765625 
L 28.421875 1.765625 
Q 31.546875 1.765625 32.765625 2.703125 
Q 33.984375 3.65625 34.46875 5.515625 
Q 34.625 6.296875 34.625 10.109375 
L 34.625 25.921875 
Q 34.625 33.25 33.859375 35.546875 
Q 33.109375 37.84375 31.4375 38.984375 
Q 29.78125 40.140625 27.4375 40.140625 
Q 25.046875 40.140625 22.453125 38.859375 
Q 19.875 37.59375 16.265625 33.734375 
L 16.265625 10.109375 
Q 16.265625 5.515625 16.765625 4.390625 
Q 17.28125 3.265625 18.671875 2.515625 
Q 20.0625 1.765625 23.484375 1.765625 
L 23.484375 0 
L 1.3125 0 
L 1.3125 1.765625 
Q 4.296875 1.765625 6 2.6875 
Q 6.984375 3.171875 7.5625 4.53125 
Q 8.15625 5.90625 8.15625 10.109375 
L 8.15625 50.59375 
Q 8.15625 58.25 7.78125 60 
Q 7.421875 61.765625 6.65625 62.390625 
Q 5.90625 63.03125 4.640625 63.03125 
Q 3.609375 63.03125 1.3125 62.25 
L 0.640625 63.96875 
L 14.015625 69.4375 
z
" id="TimesNewRomanPSMT-104"/>
       <path d="M 28.46875 6.453125 
Q 21.578125 1.125 19.828125 0.296875 
Q 17.1875 -0.921875 14.203125 -0.921875 
Q 9.578125 -0.921875 6.5625 2.25 
Q 3.5625 5.421875 3.5625 10.59375 
Q 3.5625 13.875 5.03125 16.265625 
Q 7.03125 19.578125 11.984375 22.5 
Q 16.9375 25.4375 28.46875 29.640625 
L 28.46875 31.390625 
Q 28.46875 38.09375 26.34375 40.578125 
Q 24.21875 43.0625 20.171875 43.0625 
Q 17.09375 43.0625 15.28125 41.40625 
Q 13.421875 39.75 13.421875 37.59375 
L 13.53125 34.765625 
Q 13.53125 32.515625 12.375 31.296875 
Q 11.234375 30.078125 9.375 30.078125 
Q 7.5625 30.078125 6.421875 31.34375 
Q 5.28125 32.625 5.28125 34.8125 
Q 5.28125 39.015625 9.578125 42.53125 
Q 13.875 46.046875 21.625 46.046875 
Q 27.59375 46.046875 31.390625 44.046875 
Q 34.28125 42.53125 35.640625 39.3125 
Q 36.53125 37.203125 36.53125 30.71875 
L 36.53125 15.53125 
Q 36.53125 9.125 36.765625 7.6875 
Q 37.015625 6.25 37.578125 5.765625 
Q 38.140625 5.28125 38.875 5.28125 
Q 39.65625 5.28125 40.234375 5.609375 
Q 41.265625 6.25 44.1875 9.1875 
L 44.1875 6.453125 
Q 38.71875 -0.875 33.734375 -0.875 
Q 31.34375 -0.875 29.921875 0.78125 
Q 28.515625 2.4375 28.46875 6.453125 
z
M 28.46875 9.625 
L 28.46875 26.65625 
Q 21.09375 23.734375 18.953125 22.515625 
Q 15.09375 20.359375 13.421875 18.015625 
Q 11.765625 15.671875 11.765625 12.890625 
Q 11.765625 9.375 13.859375 7.046875 
Q 15.96875 4.734375 18.703125 4.734375 
Q 22.40625 4.734375 28.46875 9.625 
z
" id="TimesNewRomanPSMT-97"/>
       <path d="M -0.09375 40.28125 
L 13.671875 45.84375 
L 15.53125 45.84375 
L 15.53125 35.40625 
Q 19 41.3125 22.484375 43.671875 
Q 25.984375 46.046875 29.828125 46.046875 
Q 36.578125 46.046875 41.0625 40.765625 
Q 46.578125 34.328125 46.578125 23.96875 
Q 46.578125 12.40625 39.9375 4.828125 
Q 34.46875 -1.375 26.171875 -1.375 
Q 22.5625 -1.375 19.921875 -0.34375 
Q 17.96875 0.390625 15.53125 2.59375 
L 15.53125 -11.03125 
Q 15.53125 -15.625 16.09375 -16.859375 
Q 16.65625 -18.109375 18.046875 -18.84375 
Q 19.4375 -19.578125 23.09375 -19.578125 
L 23.09375 -21.390625 
L -0.34375 -21.390625 
L -0.34375 -19.578125 
L 0.875 -19.578125 
Q 3.5625 -19.625 5.46875 -18.5625 
Q 6.390625 -18.015625 6.90625 -16.8125 
Q 7.421875 -15.625 7.421875 -10.75 
L 7.421875 31.546875 
Q 7.421875 35.890625 7.03125 37.0625 
Q 6.640625 38.234375 5.78125 38.8125 
Q 4.9375 39.40625 3.46875 39.40625 
Q 2.296875 39.40625 0.484375 38.71875 
z
M 15.53125 32.515625 
L 15.53125 15.828125 
Q 15.53125 10.40625 15.96875 8.6875 
Q 16.65625 5.859375 19.3125 3.703125 
Q 21.96875 1.5625 26.03125 1.5625 
Q 30.90625 1.5625 33.9375 5.375 
Q 37.890625 10.359375 37.890625 19.390625 
Q 37.890625 29.640625 33.40625 35.15625 
Q 30.28125 38.96875 25.984375 38.96875 
Q 23.640625 38.96875 21.34375 37.796875 
Q 19.578125 36.921875 15.53125 32.515625 
z
" id="TimesNewRomanPSMT-112"/>
      </defs>
      <g transform="translate(840.15567 624.5325)scale(0.12 -0.12)">
       <use xlink:href="#TimesNewRomanPSMT-115"/>
       <use x="38.916016" xlink:href="#TimesNewRomanPSMT-104"/>
       <use x="88.916016" xlink:href="#TimesNewRomanPSMT-97"/>
       <use x="133.300781" xlink:href="#TimesNewRomanPSMT-112"/>
       <use x="183.300781" xlink:href="#TimesNewRomanPSMT-101"/>
      </g>
     </g>
    </g>
    <g id="text_8">
     <!-- group -->
     <defs>
      <path d="M 42.328125 44.734375 
L 42.328125 17.625 
Q 42.328125 9.859375 42.6875 8.125 
Q 43.0625 6.390625 43.859375 5.703125 
Q 44.671875 5.03125 45.75 5.03125 
Q 47.265625 5.03125 49.171875 5.859375 
L 49.859375 4.15625 
L 36.46875 -1.375 
L 34.28125 -1.375 
L 34.28125 8.109375 
Q 28.515625 1.859375 25.484375 0.234375 
Q 22.46875 -1.375 19.09375 -1.375 
Q 15.328125 -1.375 12.5625 0.796875 
Q 9.8125 2.984375 8.734375 6.390625 
Q 7.671875 9.8125 7.671875 16.0625 
L 7.671875 36.03125 
Q 7.671875 39.203125 6.984375 40.421875 
Q 6.296875 41.65625 4.953125 42.3125 
Q 3.609375 42.96875 0.09375 42.921875 
L 0.09375 44.734375 
L 15.765625 44.734375 
L 15.765625 14.796875 
Q 15.765625 8.546875 17.9375 6.59375 
Q 20.125 4.640625 23.1875 4.640625 
Q 25.296875 4.640625 27.953125 5.953125 
Q 30.609375 7.28125 34.28125 10.984375 
L 34.28125 36.328125 
Q 34.28125 40.140625 32.890625 41.484375 
Q 31.5 42.828125 27.09375 42.921875 
L 27.09375 44.734375 
z
" id="TimesNewRomanPSMT-117"/>
     </defs>
     <g transform="translate(470.717187 639.431875)scale(0.12 -0.12)">
      <use xlink:href="#TimesNewRomanPSMT-103"/>
      <use x="50" xlink:href="#TimesNewRomanPSMT-114"/>
      <use x="83.300781" xlink:href="#TimesNewRomanPSMT-111"/>
      <use x="133.300781" xlink:href="#TimesNewRomanPSMT-117"/>
      <use x="183.300781" xlink:href="#TimesNewRomanPSMT-112"/>
     </g>
    </g>
   </g>
   <g id="matplotlib.axis_2">
    <g id="ytick_1">
     <g id="line2d_8">
      <defs>
       <path d="M 0 0 
L -3.5 0 
" id="mce74e3c032" style="stroke:#000000;stroke-width:0.8;"/>
      </defs>
      <g>
       <use style="stroke:#000000;stroke-width:0.8;" x="54.095" xlink:href="#mce74e3c032" y="545.799439"/>
      </g>
     </g>
     <g id="text_9">
      <!-- -0.25 -->
      <defs>
       <path d="M 4.046875 26.125 
L 29.296875 26.125 
L 29.296875 18.75 
L 4.046875 18.75 
z
" id="TimesNewRomanPSMT-45"/>
       <path d="M 3.609375 32.71875 
Q 3.609375 44.046875 7.03125 52.21875 
Q 10.453125 60.40625 16.109375 64.40625 
Q 20.515625 67.578125 25.203125 67.578125 
Q 32.8125 67.578125 38.875 59.8125 
Q 46.4375 50.203125 46.4375 33.734375 
Q 46.4375 22.21875 43.109375 14.15625 
Q 39.796875 6.109375 34.640625 2.46875 
Q 29.5 -1.171875 24.703125 -1.171875 
Q 15.234375 -1.171875 8.9375 10.015625 
Q 3.609375 19.4375 3.609375 32.71875 
z
M 13.1875 31.5 
Q 13.1875 17.828125 16.546875 9.1875 
Q 19.34375 1.90625 24.859375 1.90625 
Q 27.484375 1.90625 30.3125 4.265625 
Q 33.15625 6.640625 34.625 12.203125 
Q 36.859375 20.609375 36.859375 35.890625 
Q 36.859375 47.21875 34.515625 54.78125 
Q 32.765625 60.40625 29.984375 62.75 
Q 27.984375 64.359375 25.140625 64.359375 
Q 21.828125 64.359375 19.234375 61.375 
Q 15.71875 57.328125 14.453125 48.625 
Q 13.1875 39.9375 13.1875 31.5 
z
" id="TimesNewRomanPSMT-48"/>
       <path d="M 12.5 9.46875 
Q 14.796875 9.46875 16.359375 7.875 
Q 17.921875 6.296875 17.921875 4.046875 
Q 17.921875 1.8125 16.328125 0.21875 
Q 14.75 -1.375 12.5 -1.375 
Q 10.25 -1.375 8.65625 0.21875 
Q 7.078125 1.8125 7.078125 4.046875 
Q 7.078125 6.34375 8.65625 7.90625 
Q 10.25 9.46875 12.5 9.46875 
z
" id="TimesNewRomanPSMT-46"/>
       <path d="M 45.84375 12.75 
L 41.21875 0 
L 2.15625 0 
L 2.15625 1.8125 
Q 19.390625 17.53125 26.421875 27.484375 
Q 33.453125 37.453125 33.453125 45.703125 
Q 33.453125 52 29.59375 56.046875 
Q 25.734375 60.109375 20.359375 60.109375 
Q 15.484375 60.109375 11.59375 57.25 
Q 7.71875 54.390625 5.859375 48.875 
L 4.046875 48.875 
Q 5.28125 57.90625 10.328125 62.734375 
Q 15.375 67.578125 22.953125 67.578125 
Q 31 67.578125 36.390625 62.40625 
Q 41.796875 57.234375 41.796875 50.203125 
Q 41.796875 45.171875 39.453125 40.140625 
Q 35.84375 32.234375 27.734375 23.390625 
Q 15.578125 10.109375 12.546875 7.375 
L 29.828125 7.375 
Q 35.109375 7.375 37.234375 7.765625 
Q 39.359375 8.15625 41.0625 9.34375 
Q 42.78125 10.546875 44.046875 12.75 
z
" id="TimesNewRomanPSMT-50"/>
       <path d="M 43.40625 66.21875 
L 39.59375 57.90625 
L 19.671875 57.90625 
L 15.328125 49.03125 
Q 28.265625 47.125 35.84375 39.40625 
Q 42.328125 32.765625 42.328125 23.78125 
Q 42.328125 18.5625 40.203125 14.109375 
Q 38.09375 9.671875 34.859375 6.546875 
Q 31.640625 3.421875 27.6875 1.515625 
Q 22.078125 -1.171875 16.15625 -1.171875 
Q 10.203125 -1.171875 7.484375 0.84375 
Q 4.78125 2.875 4.78125 5.328125 
Q 4.78125 6.6875 5.90625 7.734375 
Q 7.03125 8.796875 8.734375 8.796875 
Q 10.015625 8.796875 10.96875 8.40625 
Q 11.921875 8.015625 14.203125 6.390625 
Q 17.875 3.859375 21.625 3.859375 
Q 27.34375 3.859375 31.65625 8.171875 
Q 35.984375 12.5 35.984375 18.703125 
Q 35.984375 24.703125 32.125 29.90625 
Q 28.265625 35.109375 21.484375 37.9375 
Q 16.15625 40.140625 6.984375 40.484375 
L 19.671875 66.21875 
z
" id="TimesNewRomanPSMT-53"/>
      </defs>
      <g transform="translate(22.099375 549.965689)scale(0.12 -0.12)">
       <use xlink:href="#TimesNewRomanPSMT-45"/>
       <use x="33.300781" xlink:href="#TimesNewRomanPSMT-48"/>
       <use x="83.300781" xlink:href="#TimesNewRomanPSMT-46"/>
       <use x="108.300781" xlink:href="#TimesNewRomanPSMT-50"/>
       <use x="158.300781" xlink:href="#TimesNewRomanPSMT-53"/>
      </g>
     </g>
    </g>
    <g id="ytick_2">
     <g id="line2d_9">
      <g>
       <use style="stroke:#000000;stroke-width:0.8;" x="54.095" xlink:href="#mce74e3c032" y="464.88163"/>
      </g>
     </g>
     <g id="text_10">
      <!-- 0.00 -->
      <g transform="translate(26.095 469.04788)scale(0.12 -0.12)">
       <use xlink:href="#TimesNewRomanPSMT-48"/>
       <use x="50" xlink:href="#TimesNewRomanPSMT-46"/>
       <use x="75" xlink:href="#TimesNewRomanPSMT-48"/>
       <use x="125" xlink:href="#TimesNewRomanPSMT-48"/>
      </g>
     </g>
    </g>
    <g id="ytick_3">
     <g id="line2d_10">
      <g>
       <use style="stroke:#000000;stroke-width:0.8;" x="54.095" xlink:href="#mce74e3c032" y="383.96382"/>
      </g>
     </g>
     <g id="text_11">
      <!-- 0.25 -->
      <g transform="translate(26.095 388.13007)scale(0.12 -0.12)">
       <use xlink:href="#TimesNewRomanPSMT-48"/>
       <use x="50" xlink:href="#TimesNewRomanPSMT-46"/>
       <use x="75" xlink:href="#TimesNewRomanPSMT-50"/>
       <use x="125" xlink:href="#TimesNewRomanPSMT-53"/>
      </g>
     </g>
    </g>
    <g id="ytick_4">
     <g id="line2d_11">
      <g>
       <use style="stroke:#000000;stroke-width:0.8;" x="54.095" xlink:href="#mce74e3c032" y="303.046011"/>
      </g>
     </g>
     <g id="text_12">
      <!-- 0.50 -->
      <g transform="translate(26.095 307.212261)scale(0.12 -0.12)">
       <use xlink:href="#TimesNewRomanPSMT-48"/>
       <use x="50" xlink:href="#TimesNewRomanPSMT-46"/>
       <use x="75" xlink:href="#TimesNewRomanPSMT-53"/>
       <use x="125" xlink:href="#TimesNewRomanPSMT-48"/>
      </g>
     </g>
    </g>
    <g id="ytick_5">
     <g id="line2d_12">
      <g>
       <use style="stroke:#000000;stroke-width:0.8;" x="54.095" xlink:href="#mce74e3c032" y="222.128202"/>
      </g>
     </g>
     <g id="text_13">
      <!-- 0.75 -->
      <defs>
       <path d="M 10.0625 66.21875 
L 45.5625 66.21875 
L 45.5625 64.359375 
L 23.484375 -1.375 
L 18.015625 -1.375 
L 37.796875 58.25 
L 19.578125 58.25 
Q 14.0625 58.25 11.71875 56.9375 
Q 7.625 54.6875 5.125 50 
L 3.71875 50.53125 
z
" id="TimesNewRomanPSMT-55"/>
      </defs>
      <g transform="translate(26.095 226.294452)scale(0.12 -0.12)">
       <use xlink:href="#TimesNewRomanPSMT-48"/>
       <use x="50" xlink:href="#TimesNewRomanPSMT-46"/>
       <use x="75" xlink:href="#TimesNewRomanPSMT-55"/>
       <use x="125" xlink:href="#TimesNewRomanPSMT-53"/>
      </g>
     </g>
    </g>
    <g id="ytick_6">
     <g id="line2d_13">
      <g>
       <use style="stroke:#000000;stroke-width:0.8;" x="54.095" xlink:href="#mce74e3c032" y="141.210393"/>
      </g>
     </g>
     <g id="text_14">
      <!-- 1.00 -->
      <defs>
       <path d="M 11.71875 59.71875 
L 27.828125 67.578125 
L 29.4375 67.578125 
L 29.4375 11.671875 
Q 29.4375 6.109375 29.90625 4.734375 
Q 30.375 3.375 31.828125 2.640625 
Q 33.296875 1.90625 37.796875 1.8125 
L 37.796875 0 
L 12.890625 0 
L 12.890625 1.8125 
Q 17.578125 1.90625 18.9375 2.609375 
Q 20.3125 3.328125 20.84375 4.515625 
Q 21.390625 5.71875 21.390625 11.671875 
L 21.390625 47.40625 
Q 21.390625 54.640625 20.90625 56.6875 
Q 20.5625 58.25 19.65625 58.984375 
Q 18.75 59.71875 17.484375 59.71875 
Q 15.671875 59.71875 12.453125 58.203125 
z
" id="TimesNewRomanPSMT-49"/>
      </defs>
      <g transform="translate(26.095 145.376643)scale(0.12 -0.12)">
       <use xlink:href="#TimesNewRomanPSMT-49"/>
       <use x="50" xlink:href="#TimesNewRomanPSMT-46"/>
       <use x="75" xlink:href="#TimesNewRomanPSMT-48"/>
       <use x="125" xlink:href="#TimesNewRomanPSMT-48"/>
      </g>
     </g>
    </g>
    <g id="ytick_7">
     <g id="line2d_14">
      <g>
       <use style="stroke:#000000;stroke-width:0.8;" x="54.095" xlink:href="#mce74e3c032" y="60.292584"/>
      </g>
     </g>
     <g id="text_15">
      <!-- 1.25 -->
      <g transform="translate(26.095 64.458834)scale(0.12 -0.12)">
       <use xlink:href="#TimesNewRomanPSMT-49"/>
       <use x="50" xlink:href="#TimesNewRomanPSMT-46"/>
       <use x="75" xlink:href="#TimesNewRomanPSMT-50"/>
       <use x="125" xlink:href="#TimesNewRomanPSMT-53"/>
      </g>
     </g>
    </g>
    <g id="text_16">
     <!-- pvalue -->
     <defs>
      <path d="M 0.828125 44.734375 
L 21.875 44.734375 
L 21.875 42.921875 
L 20.515625 42.921875 
Q 18.609375 42.921875 17.609375 41.984375 
Q 16.609375 41.0625 16.609375 39.5 
Q 16.609375 37.796875 17.625 35.453125 
L 28.03125 10.75 
L 38.484375 36.375 
Q 39.59375 39.109375 39.59375 40.53125 
Q 39.59375 41.21875 39.203125 41.65625 
Q 38.671875 42.390625 37.84375 42.65625 
Q 37.015625 42.921875 34.46875 42.921875 
L 34.46875 44.734375 
L 49.078125 44.734375 
L 49.078125 42.921875 
Q 46.53125 42.71875 45.5625 41.890625 
Q 43.84375 40.4375 42.484375 37.015625 
L 26.609375 -1.375 
L 24.609375 -1.375 
L 8.640625 36.375 
Q 7.5625 39.015625 6.578125 40.15625 
Q 5.609375 41.3125 4.109375 42.09375 
Q 3.265625 42.53125 0.828125 42.921875 
z
" id="TimesNewRomanPSMT-118"/>
     </defs>
     <g transform="translate(15.5325 324.19375)rotate(-90)scale(0.12 -0.12)">
      <use xlink:href="#TimesNewRomanPSMT-112"/>
      <use x="50" xlink:href="#TimesNewRomanPSMT-118"/>
      <use x="100" xlink:href="#TimesNewRomanPSMT-97"/>
      <use x="144.384766" xlink:href="#TimesNewRomanPSMT-108"/>
      <use x="172.167969" xlink:href="#TimesNewRomanPSMT-117"/>
      <use x="222.167969" xlink:href="#TimesNewRomanPSMT-101"/>
     </g>
    </g>
   </g>
   <g id="line2d_15">
    <path clip-path="url(#p1b737452dc)" d="M 115.612143 464.557958 
L 115.612143 151.842042 
" style="fill:none;stroke:#3d3d3d;stroke-linecap:square;stroke-width:1.5;"/>
   </g>
   <g id="line2d_16">
    <path clip-path="url(#p1b737452dc)" d="M 115.612143 451.781954 
L 115.612143 273.485299 
" style="fill:none;stroke:#3d3d3d;stroke-linecap:square;stroke-width:4.5;"/>
   </g>
   <g id="line2d_17">
    <path clip-path="url(#p1b737452dc)" d="M 238.646429 464.557958 
L 238.646429 261.844559 
" style="fill:none;stroke:#3d3d3d;stroke-linecap:square;stroke-width:1.5;"/>
   </g>
   <g id="line2d_18">
    <path clip-path="url(#p1b737452dc)" d="M 238.646429 463.651151 
L 238.646429 382.673644 
" style="fill:none;stroke:#3d3d3d;stroke-linecap:square;stroke-width:4.5;"/>
   </g>
   <g id="line2d_19">
    <path clip-path="url(#p1b737452dc)" d="M 361.680714 464.557958 
L 361.680714 410.042806 
" style="fill:none;stroke:#3d3d3d;stroke-linecap:square;stroke-width:1.5;"/>
   </g>
   <g id="line2d_20">
    <path clip-path="url(#p1b737452dc)" d="M 361.680714 463.534343 
L 361.680714 440.902989 
" style="fill:none;stroke:#3d3d3d;stroke-linecap:square;stroke-width:4.5;"/>
   </g>
   <g id="line2d_21">
    <path clip-path="url(#p1b737452dc)" d="M 484.715 464.557958 
L 484.715 341.646624 
" style="fill:none;stroke:#3d3d3d;stroke-linecap:square;stroke-width:1.5;"/>
   </g>
   <g id="line2d_22">
    <path clip-path="url(#p1b737452dc)" d="M 484.715 463.097125 
L 484.715 392.795195 
" style="fill:none;stroke:#3d3d3d;stroke-linecap:square;stroke-width:4.5;"/>
   </g>
   <g id="line2d_23">
    <path clip-path="url(#p1b737452dc)" d="M 607.749286 464.557958 
L 607.749286 200.047652 
" style="fill:none;stroke:#3d3d3d;stroke-linecap:square;stroke-width:1.5;"/>
   </g>
   <g id="line2d_24">
    <path clip-path="url(#p1b737452dc)" d="M 607.749286 460.970374 
L 607.749286 315.791188 
" style="fill:none;stroke:#3d3d3d;stroke-linecap:square;stroke-width:4.5;"/>
   </g>
   <g id="line2d_25">
    <path clip-path="url(#p1b737452dc)" d="M 730.783571 464.555576 
L 730.783571 434.578446 
" style="fill:none;stroke:#3d3d3d;stroke-linecap:square;stroke-width:1.5;"/>
   </g>
   <g id="line2d_26">
    <path clip-path="url(#p1b737452dc)" d="M 730.783571 464.496643 
L 730.783571 434.578446 
" style="fill:none;stroke:#3d3d3d;stroke-linecap:square;stroke-width:4.5;"/>
   </g>
   <g id="line2d_27">
    <path clip-path="url(#p1b737452dc)" d="M 853.817857 456.538594 
L 853.817857 179.054825 
" style="fill:none;stroke:#3d3d3d;stroke-linecap:square;stroke-width:1.5;"/>
   </g>
   <g id="line2d_28">
    <path clip-path="url(#p1b737452dc)" d="M 853.817857 417.61286 
L 853.817857 319.270723 
" style="fill:none;stroke:#3d3d3d;stroke-linecap:square;stroke-width:4.5;"/>
   </g>
   <g id="patch_3">
    <path d="M 54.095 609.2 
L 54.095 7.2 
" style="fill:none;stroke:#000000;stroke-linecap:square;stroke-linejoin:miter;stroke-width:0.8;"/>
   </g>
   <g id="patch_4">
    <path d="M 54.095 609.2 
L 915.335 609.2 
" style="fill:none;stroke:#000000;stroke-linecap:square;stroke-linejoin:miter;stroke-width:0.8;"/>
   </g>
   <g id="PathCollection_1">
    <defs>
     <path d="M 0 1.5 
C 0.397805 1.5 0.77937 1.341951 1.06066 1.06066 
C 1.341951 0.77937 1.5 0.397805 1.5 0 
C 1.5 -0.397805 1.341951 -0.77937 1.06066 -1.06066 
C 0.77937 -1.341951 0.397805 -1.5 0 -1.5 
C -0.397805 -1.5 -0.77937 -1.341951 -1.06066 -1.06066 
C -1.341951 -0.77937 -1.5 -0.397805 -1.5 0 
C -1.5 0.397805 -1.341951 0.77937 -1.06066 1.06066 
C -0.77937 1.341951 -0.397805 1.5 0 1.5 
z
" id="mea34eb5a75" style="stroke:#3d3d3d;"/>
    </defs>
    <g clip-path="url(#p1b737452dc)">
     <use style="fill:#ffffff;stroke:#3d3d3d;" x="115.612143" xlink:href="#mea34eb5a75" y="318.534551"/>
    </g>
   </g>
   <g id="PathCollection_2">
    <g clip-path="url(#p1b737452dc)">
     <use style="fill:#ffffff;stroke:#3d3d3d;" x="238.646429" xlink:href="#mea34eb5a75" y="457.799196"/>
    </g>
   </g>
   <g id="PathCollection_3">
    <g clip-path="url(#p1b737452dc)">
     <use style="fill:#ffffff;stroke:#3d3d3d;" x="361.680714" xlink:href="#mea34eb5a75" y="456.827672"/>
    </g>
   </g>
   <g id="PathCollection_4">
    <g clip-path="url(#p1b737452dc)">
     <use style="fill:#ffffff;stroke:#3d3d3d;" x="484.715" xlink:href="#mea34eb5a75" y="458.563688"/>
    </g>
   </g>
   <g id="PathCollection_5">
    <g clip-path="url(#p1b737452dc)">
     <use style="fill:#ffffff;stroke:#3d3d3d;" x="607.749286" xlink:href="#mea34eb5a75" y="455.483104"/>
    </g>
   </g>
   <g id="PathCollection_6">
    <g clip-path="url(#p1b737452dc)">
     <use style="fill:#ffffff;stroke:#3d3d3d;" x="730.783571" xlink:href="#mea34eb5a75" y="453.974811"/>
    </g>
   </g>
   <g id="PathCollection_7">
    <g clip-path="url(#p1b737452dc)">
     <use style="fill:#ffffff;stroke:#3d3d3d;" x="853.817857" xlink:href="#mea34eb5a75" y="370.261344"/>
    </g>
   </g>
   <g id="PathCollection_8">
    <defs>
     <path d="M 0 2.5 
C 0.663008 2.5 1.29895 2.236584 1.767767 1.767767 
C 2.236584 1.29895 2.5 0.663008 2.5 0 
C 2.5 -0.663008 2.236584 -1.29895 1.767767 -1.767767 
C 1.29895 -2.236584 0.663008 -2.5 0 -2.5 
C -0.663008 -2.5 -1.29895 -2.236584 -1.767767 -1.767767 
C -2.236584 -1.29895 -2.5 -0.663008 -2.5 0 
C -2.5 0.663008 -2.236584 1.29895 -1.767767 1.767767 
C -1.29895 2.236584 -0.663008 2.5 0 2.5 
z
" id="C0_0_6110f47411"/>
    </defs>
    <g clip-path="url(#p1b737452dc)">
     <use x="111.831888" xlink:href="#C0_0_6110f47411" y="271.018348"/>
    </g>
    <g clip-path="url(#p1b737452dc)">
     <use x="115.695638" xlink:href="#C0_0_6110f47411" y="280.88615"/>
    </g>
    <g clip-path="url(#p1b737452dc)">
     <use x="126.011165" xlink:href="#C0_0_6110f47411" y="151.842042"/>
    </g>
    <g clip-path="url(#p1b737452dc)">
     <use x="107.933594" xlink:href="#C0_0_6110f47411" y="350.748746"/>
    </g>
    <g clip-path="url(#p1b737452dc)">
     <use x="121.660433" xlink:href="#C0_0_6110f47411" y="227.694667"/>
    </g>
    <g clip-path="url(#p1b737452dc)">
     <use x="108.083459" xlink:href="#C0_0_6110f47411" y="464.496643"/>
    </g>
    <g clip-path="url(#p1b737452dc)">
     <use x="127.70793" xlink:href="#C0_0_6110f47411" y="289.907956"/>
    </g>
    <g clip-path="url(#p1b737452dc)">
     <use x="117.070455" xlink:href="#C0_0_6110f47411" y="212.035731"/>
    </g>
    <g clip-path="url(#p1b737452dc)">
     <use x="110.340681" xlink:href="#C0_0_6110f47411" y="440.712583"/>
    </g>
    <g clip-path="url(#p1b737452dc)">
     <use x="110.372224" xlink:href="#C0_0_6110f47411" y="321.765468"/>
    </g>
    <g clip-path="url(#p1b737452dc)">
     <use x="116.674105" xlink:href="#C0_0_6110f47411" y="463.581503"/>
    </g>
    <g clip-path="url(#p1b737452dc)">
     <use x="106.184179" xlink:href="#C0_0_6110f47411" y="463.557261"/>
    </g>
    <g clip-path="url(#p1b737452dc)">
     <use x="103.940668" xlink:href="#C0_0_6110f47411" y="315.303634"/>
    </g>
    <g clip-path="url(#p1b737452dc)">
     <use x="116.036873" xlink:href="#C0_0_6110f47411" y="285.584877"/>
    </g>
    <g clip-path="url(#p1b737452dc)">
     <use x="116.602702" xlink:href="#C0_0_6110f47411" y="464.557958"/>
    </g>
    <g clip-path="url(#p1b737452dc)">
     <use x="109.59876" xlink:href="#C0_0_6110f47411" y="378.718327"/>
    </g>
    <g clip-path="url(#p1b737452dc)">
     <use x="126.152963" xlink:href="#C0_0_6110f47411" y="196.981414"/>
    </g>
    <g clip-path="url(#p1b737452dc)">
     <use x="114.994646" xlink:href="#C0_0_6110f47411" y="455.471744"/>
    </g>
   </g>
   <g id="PathCollection_9">
    <defs>
     <path d="M 0 2.5 
C 0.663008 2.5 1.29895 2.236584 1.767767 1.767767 
C 2.236584 1.29895 2.5 0.663008 2.5 0 
C 2.5 -0.663008 2.236584 -1.29895 1.767767 -1.767767 
C 1.29895 -2.236584 0.663008 -2.5 0 -2.5 
C -0.663008 -2.5 -1.29895 -2.236584 -1.767767 -1.767767 
C -2.236584 -1.29895 -2.5 -0.663008 -2.5 0 
C -2.5 0.663008 -2.236584 1.29895 -1.767767 1.767767 
C -1.29895 2.236584 -0.663008 2.5 0 2.5 
z
" id="C1_0_a8fb95ebdd"/>
    </defs>
    <g clip-path="url(#p1b737452dc)">
     <use x="236.499685" xlink:href="#C1_0_a8fb95ebdd" y="463.719127"/>
    </g>
    <g clip-path="url(#p1b737452dc)">
     <use x="240.206953" xlink:href="#C1_0_a8fb95ebdd" y="464.255713"/>
    </g>
    <g clip-path="url(#p1b737452dc)">
     <use x="249.108688" xlink:href="#C1_0_a8fb95ebdd" y="464.557958"/>
    </g>
    <g clip-path="url(#p1b737452dc)">
     <use x="249.572227" xlink:href="#C1_0_a8fb95ebdd" y="456.282191"/>
    </g>
    <g clip-path="url(#p1b737452dc)">
     <use x="227.31804" xlink:href="#C1_0_a8fb95ebdd" y="265.160063"/>
    </g>
    <g clip-path="url(#p1b737452dc)">
     <use x="233.866084" xlink:href="#C1_0_a8fb95ebdd" y="459.3162"/>
    </g>
    <g clip-path="url(#p1b737452dc)">
     <use x="244.678425" xlink:href="#C1_0_a8fb95ebdd" y="375.400125"/>
    </g>
    <g clip-path="url(#p1b737452dc)">
     <use x="244.112885" xlink:href="#C1_0_a8fb95ebdd" y="261.844559"/>
    </g>
    <g clip-path="url(#p1b737452dc)">
     <use x="250.540048" xlink:href="#C1_0_a8fb95ebdd" y="173.033388"/>
    </g>
    <g clip-path="url(#p1b737452dc)">
     <use x="228.920273" xlink:href="#C1_0_a8fb95ebdd" y="437.723091"/>
    </g>
    <g clip-path="url(#p1b737452dc)">
     <use x="241.256028" xlink:href="#C1_0_a8fb95ebdd" y="436.016682"/>
    </g>
    <g clip-path="url(#p1b737452dc)">
     <use x="249.990508" xlink:href="#C1_0_a8fb95ebdd" y="464.557958"/>
    </g>
    <g clip-path="url(#p1b737452dc)">
     <use x="230.496071" xlink:href="#C1_0_a8fb95ebdd" y="464.557958"/>
    </g>
    <g clip-path="url(#p1b737452dc)">
     <use x="228.660011" xlink:href="#C1_0_a8fb95ebdd" y="463.135931"/>
    </g>
    <g clip-path="url(#p1b737452dc)">
     <use x="242.772907" xlink:href="#C1_0_a8fb95ebdd" y="464.17502"/>
    </g>
    <g clip-path="url(#p1b737452dc)">
     <use x="244.016883" xlink:href="#C1_0_a8fb95ebdd" y="463.628492"/>
    </g>
    <g clip-path="url(#p1b737452dc)">
     <use x="233.438892" xlink:href="#C1_0_a8fb95ebdd" y="463.628492"/>
    </g>
    <g clip-path="url(#p1b737452dc)">
     <use x="241.598845" xlink:href="#C1_0_a8fb95ebdd" y="385.09815"/>
    </g>
    <g clip-path="url(#p1b737452dc)">
     <use x="227.471886" xlink:href="#C1_0_a8fb95ebdd" y="202.201087"/>
    </g>
    <g clip-path="url(#p1b737452dc)">
     <use x="241.841283" xlink:href="#C1_0_a8fb95ebdd" y="462.930197"/>
    </g>
    <g clip-path="url(#p1b737452dc)">
     <use x="248.069243" xlink:href="#C1_0_a8fb95ebdd" y="436.039675"/>
    </g>
    <g clip-path="url(#p1b737452dc)">
     <use x="245.035437" xlink:href="#C1_0_a8fb95ebdd" y="463.628492"/>
    </g>
    <g clip-path="url(#p1b737452dc)">
     <use x="230.367568" xlink:href="#C1_0_a8fb95ebdd" y="314.532995"/>
    </g>
    <g clip-path="url(#p1b737452dc)">
     <use x="227.278798" xlink:href="#C1_0_a8fb95ebdd" y="438.791733"/>
    </g>
   </g>
   <g id="PathCollection_10">
    <defs>
     <path d="M 0 2.5 
C 0.663008 2.5 1.29895 2.236584 1.767767 1.767767 
C 2.236584 1.29895 2.5 0.663008 2.5 0 
C 2.5 -0.663008 2.236584 -1.29895 1.767767 -1.767767 
C 1.29895 -2.236584 0.663008 -2.5 0 -2.5 
C -0.663008 -2.5 -1.29895 -2.236584 -1.767767 -1.767767 
C -2.236584 -1.29895 -2.5 -0.663008 -2.5 0 
C -2.5 0.663008 -2.236584 1.29895 -1.767767 1.767767 
C -1.29895 2.236584 -0.663008 2.5 0 2.5 
z
" id="C2_0_1e0891a549"/>
    </defs>
    <g clip-path="url(#p1b737452dc)">
     <use x="350.225302" xlink:href="#C2_0_1e0891a549" y="454.895639"/>
    </g>
    <g clip-path="url(#p1b737452dc)">
     <use x="354.511612" xlink:href="#C2_0_1e0891a549" y="326.643278"/>
    </g>
    <g clip-path="url(#p1b737452dc)">
     <use x="372.520994" xlink:href="#C2_0_1e0891a549" y="463.251897"/>
    </g>
    <g clip-path="url(#p1b737452dc)">
     <use x="362.212082" xlink:href="#C2_0_1e0891a549" y="459.954928"/>
    </g>
    <g clip-path="url(#p1b737452dc)">
     <use x="372.047977" xlink:href="#C2_0_1e0891a549" y="202.90038"/>
    </g>
    <g clip-path="url(#p1b737452dc)">
     <use x="356.921021" xlink:href="#C2_0_1e0891a549" y="454.596403"/>
    </g>
    <g clip-path="url(#p1b737452dc)">
     <use x="364.485601" xlink:href="#C2_0_1e0891a549" y="463.628492"/>
    </g>
    <g clip-path="url(#p1b737452dc)">
     <use x="371.237876" xlink:href="#C2_0_1e0891a549" y="458.759706"/>
    </g>
    <g clip-path="url(#p1b737452dc)">
     <use x="362.360095" xlink:href="#C2_0_1e0891a549" y="464.557958"/>
    </g>
    <g clip-path="url(#p1b737452dc)">
     <use x="370.15598" xlink:href="#C2_0_1e0891a549" y="439.445341"/>
    </g>
    <g clip-path="url(#p1b737452dc)">
     <use x="367.653507" xlink:href="#C2_0_1e0891a549" y="463.803761"/>
    </g>
    <g clip-path="url(#p1b737452dc)">
     <use x="370.004702" xlink:href="#C2_0_1e0891a549" y="410.042806"/>
    </g>
    <g clip-path="url(#p1b737452dc)">
     <use x="373.312017" xlink:href="#C2_0_1e0891a549" y="445.275933"/>
    </g>
    <g clip-path="url(#p1b737452dc)">
     <use x="350.521179" xlink:href="#C2_0_1e0891a549" y="464.541681"/>
    </g>
   </g>
   <g id="PathCollection_11">
    <defs>
     <path d="M 0 2.5 
C 0.663008 2.5 1.29895 2.236584 1.767767 1.767767 
C 2.236584 1.29895 2.5 0.663008 2.5 0 
C 2.5 -0.663008 2.236584 -1.29895 1.767767 -1.767767 
C 1.29895 -2.236584 0.663008 -2.5 0 -2.5 
C -0.663008 -2.5 -1.29895 -2.236584 -1.767767 -1.767767 
C -2.236584 -1.29895 -2.5 -0.663008 -2.5 0 
C -2.5 0.663008 -2.236584 1.29895 -1.767767 1.767767 
C -1.29895 2.236584 -0.663008 2.5 0 2.5 
z
" id="C3_0_e5e7985c17"/>
    </defs>
    <g clip-path="url(#p1b737452dc)">
     <use x="481.040289" xlink:href="#C3_0_e5e7985c17" y="341.646624"/>
    </g>
    <g clip-path="url(#p1b737452dc)">
     <use x="491.677438" xlink:href="#C3_0_e5e7985c17" y="398.593552"/>
    </g>
    <g clip-path="url(#p1b737452dc)">
     <use x="493.085652" xlink:href="#C3_0_e5e7985c17" y="462.79228"/>
    </g>
    <g clip-path="url(#p1b737452dc)">
     <use x="486.77575" xlink:href="#C3_0_e5e7985c17" y="463.373156"/>
    </g>
    <g clip-path="url(#p1b737452dc)">
     <use x="485.726387" xlink:href="#C3_0_e5e7985c17" y="160.941229"/>
    </g>
    <g clip-path="url(#p1b737452dc)">
     <use x="495.023254" xlink:href="#C3_0_e5e7985c17" y="464.480445"/>
    </g>
    <g clip-path="url(#p1b737452dc)">
     <use x="478.706802" xlink:href="#C3_0_e5e7985c17" y="458.563688"/>
    </g>
    <g clip-path="url(#p1b737452dc)">
     <use x="495.422462" xlink:href="#C3_0_e5e7985c17" y="463.005114"/>
    </g>
    <g clip-path="url(#p1b737452dc)">
     <use x="494.476538" xlink:href="#C3_0_e5e7985c17" y="464.557958"/>
    </g>
    <g clip-path="url(#p1b737452dc)">
     <use x="488.475757" xlink:href="#C3_0_e5e7985c17" y="375.400125"/>
    </g>
    <g clip-path="url(#p1b737452dc)">
     <use x="483.63441" xlink:href="#C3_0_e5e7985c17" y="448.845171"/>
    </g>
    <g clip-path="url(#p1b737452dc)">
     <use x="479.189761" xlink:href="#C3_0_e5e7985c17" y="458.827465"/>
    </g>
    <g clip-path="url(#p1b737452dc)">
     <use x="493.197065" xlink:href="#C3_0_e5e7985c17" y="234.775611"/>
    </g>
    <g clip-path="url(#p1b737452dc)">
     <use x="487.154773" xlink:href="#C3_0_e5e7985c17" y="449.531712"/>
    </g>
    <g clip-path="url(#p1b737452dc)">
     <use x="486.42096" xlink:href="#C3_0_e5e7985c17" y="458.563688"/>
    </g>
    <g clip-path="url(#p1b737452dc)">
     <use x="476.870488" xlink:href="#C3_0_e5e7985c17" y="464.089087"/>
    </g>
   </g>
   <g id="PathCollection_12">
    <defs>
     <path d="M 0 2.5 
C 0.663008 2.5 1.29895 2.236584 1.767767 1.767767 
C 2.236584 1.29895 2.5 0.663008 2.5 0 
C 2.5 -0.663008 2.236584 -1.29895 1.767767 -1.767767 
C 1.29895 -2.236584 0.663008 -2.5 0 -2.5 
C -0.663008 -2.5 -1.29895 -2.236584 -1.767767 -1.767767 
C -2.236584 -1.29895 -2.5 -0.663008 -2.5 0 
C -2.5 0.663008 -2.236584 1.29895 -1.767767 1.767767 
C -1.29895 2.236584 -0.663008 2.5 0 2.5 
z
" id="C4_0_7dd15f2f02"/>
    </defs>
    <g clip-path="url(#p1b737452dc)">
     <use x="602.383297" xlink:href="#C4_0_7dd15f2f02" y="262.470826"/>
    </g>
    <g clip-path="url(#p1b737452dc)">
     <use x="618.254773" xlink:href="#C4_0_7dd15f2f02" y="453.934586"/>
    </g>
    <g clip-path="url(#p1b737452dc)">
     <use x="600.338172" xlink:href="#C4_0_7dd15f2f02" y="457.031622"/>
    </g>
    <g clip-path="url(#p1b737452dc)">
     <use x="605.223719" xlink:href="#C4_0_7dd15f2f02" y="462.114663"/>
    </g>
    <g clip-path="url(#p1b737452dc)">
     <use x="609.188818" xlink:href="#C4_0_7dd15f2f02" y="303.462836"/>
    </g>
    <g clip-path="url(#p1b737452dc)">
     <use x="610.441598" xlink:href="#C4_0_7dd15f2f02" y="428.130691"/>
    </g>
    <g clip-path="url(#p1b737452dc)">
     <use x="608.27033" xlink:href="#C4_0_7dd15f2f02" y="457.723768"/>
    </g>
    <g clip-path="url(#p1b737452dc)">
     <use x="607.51115" xlink:href="#C4_0_7dd15f2f02" y="460.588944"/>
    </g>
    <g clip-path="url(#p1b737452dc)">
     <use x="607.713877" xlink:href="#C4_0_7dd15f2f02" y="450.765201"/>
    </g>
    <g clip-path="url(#p1b737452dc)">
     <use x="605.631873" xlink:href="#C4_0_7dd15f2f02" y="464.348223"/>
    </g>
    <g clip-path="url(#p1b737452dc)">
     <use x="604.953355" xlink:href="#C4_0_7dd15f2f02" y="464.557958"/>
    </g>
    <g clip-path="url(#p1b737452dc)">
     <use x="596.236412" xlink:href="#C4_0_7dd15f2f02" y="463.628492"/>
    </g>
    <g clip-path="url(#p1b737452dc)">
     <use x="600.412918" xlink:href="#C4_0_7dd15f2f02" y="457.942376"/>
    </g>
    <g clip-path="url(#p1b737452dc)">
     <use x="602.279285" xlink:href="#C4_0_7dd15f2f02" y="200.047652"/>
    </g>
    <g clip-path="url(#p1b737452dc)">
     <use x="606.48845" xlink:href="#C4_0_7dd15f2f02" y="319.900638"/>
    </g>
    <g clip-path="url(#p1b737452dc)">
     <use x="603.580142" xlink:href="#C4_0_7dd15f2f02" y="301.036272"/>
    </g>
   </g>
   <g id="PathCollection_13">
    <defs>
     <path d="M 0 2.5 
C 0.663008 2.5 1.29895 2.236584 1.767767 1.767767 
C 2.236584 1.29895 2.5 0.663008 2.5 0 
C 2.5 -0.663008 2.236584 -1.29895 1.767767 -1.767767 
C 1.29895 -2.236584 0.663008 -2.5 0 -2.5 
C -0.663008 -2.5 -1.29895 -2.236584 -1.767767 -1.767767 
C -2.236584 -1.29895 -2.5 -0.663008 -2.5 0 
C -2.5 0.663008 -2.236584 1.29895 -1.767767 1.767767 
C -1.29895 2.236584 -0.663008 2.5 0 2.5 
z
" id="C5_0_63937507b4"/>
    </defs>
    <g clip-path="url(#p1b737452dc)">
     <use x="739.854109" xlink:href="#C5_0_63937507b4" y="464.555576"/>
    </g>
    <g clip-path="url(#p1b737452dc)">
     <use x="741.984779" xlink:href="#C5_0_63937507b4" y="351.725066"/>
    </g>
    <g clip-path="url(#p1b737452dc)">
     <use x="720.746405" xlink:href="#C5_0_63937507b4" y="434.578446"/>
    </g>
    <g clip-path="url(#p1b737452dc)">
     <use x="731.893573" xlink:href="#C5_0_63937507b4" y="453.974811"/>
    </g>
    <g clip-path="url(#p1b737452dc)">
     <use x="725.111729" xlink:href="#C5_0_63937507b4" y="464.496643"/>
    </g>
   </g>
   <g id="PathCollection_14">
    <defs>
     <path d="M 0 2.5 
C 0.663008 2.5 1.29895 2.236584 1.767767 1.767767 
C 2.236584 1.29895 2.5 0.663008 2.5 0 
C 2.5 -0.663008 2.236584 -1.29895 1.767767 -1.767767 
C 1.29895 -2.236584 0.663008 -2.5 0 -2.5 
C -0.663008 -2.5 -1.29895 -2.236584 -1.767767 -1.767767 
C -2.236584 -1.29895 -2.5 -0.663008 -2.5 0 
C -2.5 0.663008 -2.236584 1.29895 -1.767767 1.767767 
C -1.29895 2.236584 -0.663008 2.5 0 2.5 
z
" id="C6_0_ca1f8fdff4"/>
    </defs>
    <g clip-path="url(#p1b737452dc)">
     <use x="842.763616" xlink:href="#C6_0_ca1f8fdff4" y="317.555536"/>
    </g>
    <g clip-path="url(#p1b737452dc)">
     <use x="850.942072" xlink:href="#C6_0_ca1f8fdff4" y="420.648168"/>
    </g>
    <g clip-path="url(#p1b737452dc)">
     <use x="844.52284" xlink:href="#C6_0_ca1f8fdff4" y="179.054825"/>
    </g>
    <g clip-path="url(#p1b737452dc)">
     <use x="843.008574" xlink:href="#C6_0_ca1f8fdff4" y="300.796865"/>
    </g>
    <g clip-path="url(#p1b737452dc)">
     <use x="849.210859" xlink:href="#C6_0_ca1f8fdff4" y="407.229045"/>
    </g>
    <g clip-path="url(#p1b737452dc)">
     <use x="853.620203" xlink:href="#C6_0_ca1f8fdff4" y="433.058418"/>
    </g>
    <g clip-path="url(#p1b737452dc)">
     <use x="847.106854" xlink:href="#C6_0_ca1f8fdff4" y="423.581196"/>
    </g>
    <g clip-path="url(#p1b737452dc)">
     <use x="848.124954" xlink:href="#C6_0_ca1f8fdff4" y="351.680227"/>
    </g>
    <g clip-path="url(#p1b737452dc)">
     <use x="848.900852" xlink:href="#C6_0_ca1f8fdff4" y="370.261344"/>
    </g>
    <g clip-path="url(#p1b737452dc)">
     <use x="858.474782" xlink:href="#C6_0_ca1f8fdff4" y="456.538594"/>
    </g>
    <g clip-path="url(#p1b737452dc)">
     <use x="845.171785" xlink:href="#C6_0_ca1f8fdff4" y="324.416285"/>
    </g>
    <g clip-path="url(#p1b737452dc)">
     <use x="863.607136" xlink:href="#C6_0_ca1f8fdff4" y="408.506934"/>
    </g>
    <g clip-path="url(#p1b737452dc)">
     <use x="863.069356" xlink:href="#C6_0_ca1f8fdff4" y="269.795777"/>
    </g>
    <g clip-path="url(#p1b737452dc)">
     <use x="847.239102" xlink:href="#C6_0_ca1f8fdff4" y="370.261344"/>
    </g>
   </g>
  </g>
 </g>
 <defs>
  <clipPath id="p1b737452dc">
   <rect height="602" width="861.24" x="54.095" y="7.2"/>
  </clipPath>
 </defs>
</svg>
