<?xml version="1.0" encoding="utf-8" standalone="no"?>
<!DOCTYPE svg PUBLIC "-//W3C//DTD SVG 1.1//EN"
  "http://www.w3.org/Graphics/SVG/1.1/DTD/svg11.dtd">
<!-- Created with matplotlib (https://matplotlib.org/) -->
<svg height="484.379375pt" version="1.1" viewBox="0 0 613.295 484.379375" width="613.295pt" xmlns="http://www.w3.org/2000/svg" xmlns:xlink="http://www.w3.org/1999/xlink">
 <defs>
  <style type="text/css">
*{stroke-linecap:butt;stroke-linejoin:round;}
  </style>
 </defs>
 <g id="figure_1">
  <g id="patch_1">
   <path d="M 0 484.379375 
L 613.295 484.379375 
L 613.295 0 
L 0 0 
z
" style="fill:#ffffff;"/>
  </g>
  <g id="axes_1">
   <g id="patch_2">
    <path d="M 48.095 442.08 
L 606.095 442.08 
L 606.095 7.2 
L 48.095 7.2 
z
" style="fill:#ffffff;"/>
   </g>
   <g id="matplotlib.axis_1">
    <g id="xtick_1">
     <g id="line2d_1">
      <defs>
       <path d="M 0 0 
L 0 3.5 
" id="mbef2abb166" style="stroke:#000000;stroke-width:0.8;"/>
      </defs>
      <g>
       <use style="stroke:#000000;stroke-width:0.8;" x="73.458636" xlink:href="#mbef2abb166" y="442.08"/>
      </g>
     </g>
     <g id="text_1">
      <!-- $\mathdefault{10^{-3}}$ -->
      <defs>
       <path d="M 11.71875 59.71875 
L 27.828125 67.578125 
L 29.4375 67.578125 
L 29.4375 11.671875 
Q 29.4375 6.109375 29.90625 4.734375 
Q 30.375 3.375 31.828125 2.640625 
Q 33.296875 1.90625 37.796875 1.8125 
L 37.796875 0 
L 12.890625 0 
L 12.890625 1.8125 
Q 17.578125 1.90625 18.9375 2.609375 
Q 20.3125 3.328125 20.84375 4.515625 
Q 21.390625 5.71875 21.390625 11.671875 
L 21.390625 47.40625 
Q 21.390625 54.640625 20.90625 56.6875 
Q 20.5625 58.25 19.65625 58.984375 
Q 18.75 59.71875 17.484375 59.71875 
Q 15.671875 59.71875 12.453125 58.203125 
z
" id="TimesNewRomanPSMT-49"/>
       <path d="M 3.609375 32.71875 
Q 3.609375 44.046875 7.03125 52.21875 
Q 10.453125 60.40625 16.109375 64.40625 
Q 20.515625 67.578125 25.203125 67.578125 
Q 32.8125 67.578125 38.875 59.8125 
Q 46.4375 50.203125 46.4375 33.734375 
Q 46.4375 22.21875 43.109375 14.15625 
Q 39.796875 6.109375 34.640625 2.46875 
Q 29.5 -1.171875 24.703125 -1.171875 
Q 15.234375 -1.171875 8.9375 10.015625 
Q 3.609375 19.4375 3.609375 32.71875 
z
M 13.1875 31.5 
Q 13.1875 17.828125 16.546875 9.1875 
Q 19.34375 1.90625 24.859375 1.90625 
Q 27.484375 1.90625 30.3125 4.265625 
Q 33.15625 6.640625 34.625 12.203125 
Q 36.859375 20.609375 36.859375 35.890625 
Q 36.859375 47.21875 34.515625 54.78125 
Q 32.765625 60.40625 29.984375 62.75 
Q 27.984375 64.359375 25.140625 64.359375 
Q 21.828125 64.359375 19.234375 61.375 
Q 15.71875 57.328125 14.453125 48.625 
Q 13.1875 39.9375 13.1875 31.5 
z
" id="TimesNewRomanPSMT-48"/>
       <path d="M 54.4375 31.25 
L 1.8125 31.25 
L 1.8125 35.25 
L 54.4375 35.25 
z
" id="TimesNewRomanPSMT-8722"/>
       <path d="M 5.078125 53.609375 
Q 7.90625 60.296875 12.21875 63.9375 
Q 16.546875 67.578125 23 67.578125 
Q 30.953125 67.578125 35.203125 62.40625 
Q 38.421875 58.546875 38.421875 54.15625 
Q 38.421875 46.921875 29.34375 39.203125 
Q 35.453125 36.8125 38.578125 32.375 
Q 41.703125 27.9375 41.703125 21.921875 
Q 41.703125 13.328125 36.234375 7.03125 
Q 29.109375 -1.171875 15.578125 -1.171875 
Q 8.890625 -1.171875 6.46875 0.484375 
Q 4.046875 2.15625 4.046875 4.046875 
Q 4.046875 5.46875 5.1875 6.546875 
Q 6.34375 7.625 7.953125 7.625 
Q 9.1875 7.625 10.453125 7.234375 
Q 11.28125 6.984375 14.203125 5.4375 
Q 17.140625 3.90625 18.265625 3.609375 
Q 20.0625 3.078125 22.125 3.078125 
Q 27.09375 3.078125 30.78125 6.9375 
Q 34.46875 10.796875 34.46875 16.0625 
Q 34.46875 19.921875 32.765625 23.578125 
Q 31.5 26.3125 29.984375 27.734375 
Q 27.875 29.6875 24.21875 31.265625 
Q 20.5625 32.859375 16.75 32.859375 
L 15.1875 32.859375 
L 15.1875 34.328125 
Q 19.046875 34.8125 22.921875 37.109375 
Q 26.8125 39.40625 28.5625 42.625 
Q 30.328125 45.84375 30.328125 49.703125 
Q 30.328125 54.734375 27.171875 57.828125 
Q 24.03125 60.9375 19.34375 60.9375 
Q 11.765625 60.9375 6.6875 52.828125 
z
" id="TimesNewRomanPSMT-51"/>
      </defs>
      <g transform="translate(62.598636 459.713125)scale(0.12 -0.12)">
       <use transform="translate(0 0.582813)" xlink:href="#TimesNewRomanPSMT-49"/>
       <use transform="translate(50 0.582813)" xlink:href="#TimesNewRomanPSMT-48"/>
       <use transform="translate(101.502813 60.695312)scale(0.7)" xlink:href="#TimesNewRomanPSMT-8722"/>
       <use transform="translate(140.980352 60.695312)scale(0.7)" xlink:href="#TimesNewRomanPSMT-51"/>
      </g>
     </g>
    </g>
    <g id="xtick_2">
     <g id="line2d_2">
      <g>
       <use style="stroke:#000000;stroke-width:0.8;" x="242.549545" xlink:href="#mbef2abb166" y="442.08"/>
      </g>
     </g>
     <g id="text_2">
      <!-- $\mathdefault{10^{-2}}$ -->
      <defs>
       <path d="M 45.84375 12.75 
L 41.21875 0 
L 2.15625 0 
L 2.15625 1.8125 
Q 19.390625 17.53125 26.421875 27.484375 
Q 33.453125 37.453125 33.453125 45.703125 
Q 33.453125 52 29.59375 56.046875 
Q 25.734375 60.109375 20.359375 60.109375 
Q 15.484375 60.109375 11.59375 57.25 
Q 7.71875 54.390625 5.859375 48.875 
L 4.046875 48.875 
Q 5.28125 57.90625 10.328125 62.734375 
Q 15.375 67.578125 22.953125 67.578125 
Q 31 67.578125 36.390625 62.40625 
Q 41.796875 57.234375 41.796875 50.203125 
Q 41.796875 45.171875 39.453125 40.140625 
Q 35.84375 32.234375 27.734375 23.390625 
Q 15.578125 10.109375 12.546875 7.375 
L 29.828125 7.375 
Q 35.109375 7.375 37.234375 7.765625 
Q 39.359375 8.15625 41.0625 9.34375 
Q 42.78125 10.546875 44.046875 12.75 
z
" id="TimesNewRomanPSMT-50"/>
      </defs>
      <g transform="translate(231.689545 459.713125)scale(0.12 -0.12)">
       <use transform="translate(0 0.582813)" xlink:href="#TimesNewRomanPSMT-49"/>
       <use transform="translate(50 0.582813)" xlink:href="#TimesNewRomanPSMT-48"/>
       <use transform="translate(101.502813 60.695312)scale(0.7)" xlink:href="#TimesNewRomanPSMT-8722"/>
       <use transform="translate(140.980352 60.695312)scale(0.7)" xlink:href="#TimesNewRomanPSMT-50"/>
      </g>
     </g>
    </g>
    <g id="xtick_3">
     <g id="line2d_3">
      <g>
       <use style="stroke:#000000;stroke-width:0.8;" x="411.640455" xlink:href="#mbef2abb166" y="442.08"/>
      </g>
     </g>
     <g id="text_3">
      <!-- $\mathdefault{10^{-1}}$ -->
      <g transform="translate(400.780455 459.713125)scale(0.12 -0.12)">
       <use transform="translate(0 0.582813)" xlink:href="#TimesNewRomanPSMT-49"/>
       <use transform="translate(50 0.582813)" xlink:href="#TimesNewRomanPSMT-48"/>
       <use transform="translate(101.502813 60.695312)scale(0.7)" xlink:href="#TimesNewRomanPSMT-8722"/>
       <use transform="translate(140.980352 60.695312)scale(0.7)" xlink:href="#TimesNewRomanPSMT-49"/>
      </g>
     </g>
    </g>
    <g id="xtick_4">
     <g id="line2d_4">
      <g>
       <use style="stroke:#000000;stroke-width:0.8;" x="580.731364" xlink:href="#mbef2abb166" y="442.08"/>
      </g>
     </g>
     <g id="text_4">
      <!-- $\mathdefault{10^{0}}$ -->
      <g transform="translate(572.271364 459.713125)scale(0.12 -0.12)">
       <use transform="translate(0 0.582813)" xlink:href="#TimesNewRomanPSMT-49"/>
       <use transform="translate(50 0.582813)" xlink:href="#TimesNewRomanPSMT-48"/>
       <use transform="translate(101.502813 60.695312)scale(0.7)" xlink:href="#TimesNewRomanPSMT-48"/>
      </g>
     </g>
    </g>
    <g id="xtick_5">
     <g id="line2d_5">
      <defs>
       <path d="M 0 0 
L 0 2 
" id="m48ceb81e73" style="stroke:#000000;stroke-width:0.6;"/>
      </defs>
      <g>
       <use style="stroke:#000000;stroke-width:0.6;" x="57.072034" xlink:href="#m48ceb81e73" y="442.08"/>
      </g>
     </g>
    </g>
    <g id="xtick_6">
     <g id="line2d_6">
      <g>
       <use style="stroke:#000000;stroke-width:0.6;" x="65.721461" xlink:href="#m48ceb81e73" y="442.08"/>
      </g>
     </g>
    </g>
    <g id="xtick_7">
     <g id="line2d_7">
      <g>
       <use style="stroke:#000000;stroke-width:0.6;" x="124.360072" xlink:href="#m48ceb81e73" y="442.08"/>
      </g>
     </g>
    </g>
    <g id="xtick_8">
     <g id="line2d_8">
      <g>
       <use style="stroke:#000000;stroke-width:0.6;" x="154.135503" xlink:href="#m48ceb81e73" y="442.08"/>
      </g>
     </g>
    </g>
    <g id="xtick_9">
     <g id="line2d_9">
      <g>
       <use style="stroke:#000000;stroke-width:0.6;" x="175.261508" xlink:href="#m48ceb81e73" y="442.08"/>
      </g>
     </g>
    </g>
    <g id="xtick_10">
     <g id="line2d_10">
      <g>
       <use style="stroke:#000000;stroke-width:0.6;" x="191.64811" xlink:href="#m48ceb81e73" y="442.08"/>
      </g>
     </g>
    </g>
    <g id="xtick_11">
     <g id="line2d_11">
      <g>
       <use style="stroke:#000000;stroke-width:0.6;" x="205.036939" xlink:href="#m48ceb81e73" y="442.08"/>
      </g>
     </g>
    </g>
    <g id="xtick_12">
     <g id="line2d_12">
      <g>
       <use style="stroke:#000000;stroke-width:0.6;" x="216.357032" xlink:href="#m48ceb81e73" y="442.08"/>
      </g>
     </g>
    </g>
    <g id="xtick_13">
     <g id="line2d_13">
      <g>
       <use style="stroke:#000000;stroke-width:0.6;" x="226.162943" xlink:href="#m48ceb81e73" y="442.08"/>
      </g>
     </g>
    </g>
    <g id="xtick_14">
     <g id="line2d_14">
      <g>
       <use style="stroke:#000000;stroke-width:0.6;" x="234.81237" xlink:href="#m48ceb81e73" y="442.08"/>
      </g>
     </g>
    </g>
    <g id="xtick_15">
     <g id="line2d_15">
      <g>
       <use style="stroke:#000000;stroke-width:0.6;" x="293.450981" xlink:href="#m48ceb81e73" y="442.08"/>
      </g>
     </g>
    </g>
    <g id="xtick_16">
     <g id="line2d_16">
      <g>
       <use style="stroke:#000000;stroke-width:0.6;" x="323.226412" xlink:href="#m48ceb81e73" y="442.08"/>
      </g>
     </g>
    </g>
    <g id="xtick_17">
     <g id="line2d_17">
      <g>
       <use style="stroke:#000000;stroke-width:0.6;" x="344.352417" xlink:href="#m48ceb81e73" y="442.08"/>
      </g>
     </g>
    </g>
    <g id="xtick_18">
     <g id="line2d_18">
      <g>
       <use style="stroke:#000000;stroke-width:0.6;" x="360.739019" xlink:href="#m48ceb81e73" y="442.08"/>
      </g>
     </g>
    </g>
    <g id="xtick_19">
     <g id="line2d_19">
      <g>
       <use style="stroke:#000000;stroke-width:0.6;" x="374.127848" xlink:href="#m48ceb81e73" y="442.08"/>
      </g>
     </g>
    </g>
    <g id="xtick_20">
     <g id="line2d_20">
      <g>
       <use style="stroke:#000000;stroke-width:0.6;" x="385.447941" xlink:href="#m48ceb81e73" y="442.08"/>
      </g>
     </g>
    </g>
    <g id="xtick_21">
     <g id="line2d_21">
      <g>
       <use style="stroke:#000000;stroke-width:0.6;" x="395.253852" xlink:href="#m48ceb81e73" y="442.08"/>
      </g>
     </g>
    </g>
    <g id="xtick_22">
     <g id="line2d_22">
      <g>
       <use style="stroke:#000000;stroke-width:0.6;" x="403.903279" xlink:href="#m48ceb81e73" y="442.08"/>
      </g>
     </g>
    </g>
    <g id="xtick_23">
     <g id="line2d_23">
      <g>
       <use style="stroke:#000000;stroke-width:0.6;" x="462.54189" xlink:href="#m48ceb81e73" y="442.08"/>
      </g>
     </g>
    </g>
    <g id="xtick_24">
     <g id="line2d_24">
      <g>
       <use style="stroke:#000000;stroke-width:0.6;" x="492.317321" xlink:href="#m48ceb81e73" y="442.08"/>
      </g>
     </g>
    </g>
    <g id="xtick_25">
     <g id="line2d_25">
      <g>
       <use style="stroke:#000000;stroke-width:0.6;" x="513.443326" xlink:href="#m48ceb81e73" y="442.08"/>
      </g>
     </g>
    </g>
    <g id="xtick_26">
     <g id="line2d_26">
      <g>
       <use style="stroke:#000000;stroke-width:0.6;" x="529.829928" xlink:href="#m48ceb81e73" y="442.08"/>
      </g>
     </g>
    </g>
    <g id="xtick_27">
     <g id="line2d_27">
      <g>
       <use style="stroke:#000000;stroke-width:0.6;" x="543.218757" xlink:href="#m48ceb81e73" y="442.08"/>
      </g>
     </g>
    </g>
    <g id="xtick_28">
     <g id="line2d_28">
      <g>
       <use style="stroke:#000000;stroke-width:0.6;" x="554.53885" xlink:href="#m48ceb81e73" y="442.08"/>
      </g>
     </g>
    </g>
    <g id="xtick_29">
     <g id="line2d_29">
      <g>
       <use style="stroke:#000000;stroke-width:0.6;" x="564.344761" xlink:href="#m48ceb81e73" y="442.08"/>
      </g>
     </g>
    </g>
    <g id="xtick_30">
     <g id="line2d_30">
      <g>
       <use style="stroke:#000000;stroke-width:0.6;" x="572.994188" xlink:href="#m48ceb81e73" y="442.08"/>
      </g>
     </g>
    </g>
    <g id="text_5">
     <!-- Lambda(λ=0.0083) -->
     <defs>
      <path d="M 57.328125 18.3125 
L 58.9375 17.96875 
L 53.265625 0 
L 2 0 
L 2 1.8125 
L 4.5 1.8125 
Q 8.6875 1.8125 10.5 4.546875 
Q 11.53125 6.109375 11.53125 11.765625 
L 11.53125 54.5 
Q 11.53125 60.6875 10.15625 62.25 
Q 8.25 64.40625 4.5 64.40625 
L 2 64.40625 
L 2 66.21875 
L 31.984375 66.21875 
L 31.984375 64.40625 
Q 26.703125 64.453125 24.578125 63.421875 
Q 22.46875 62.40625 21.6875 60.84375 
Q 20.90625 59.28125 20.90625 53.375 
L 20.90625 11.765625 
Q 20.90625 7.71875 21.6875 6.203125 
Q 22.265625 5.171875 23.484375 4.6875 
Q 24.703125 4.203125 31.109375 4.203125 
L 35.9375 4.203125 
Q 43.5625 4.203125 46.625 5.328125 
Q 49.703125 6.453125 52.234375 9.296875 
Q 54.78125 12.15625 57.328125 18.3125 
z
" id="TimesNewRomanPSMT-76"/>
      <path d="M 28.46875 6.453125 
Q 21.578125 1.125 19.828125 0.296875 
Q 17.1875 -0.921875 14.203125 -0.921875 
Q 9.578125 -0.921875 6.5625 2.25 
Q 3.5625 5.421875 3.5625 10.59375 
Q 3.5625 13.875 5.03125 16.265625 
Q 7.03125 19.578125 11.984375 22.5 
Q 16.9375 25.4375 28.46875 29.640625 
L 28.46875 31.390625 
Q 28.46875 38.09375 26.34375 40.578125 
Q 24.21875 43.0625 20.171875 43.0625 
Q 17.09375 43.0625 15.28125 41.40625 
Q 13.421875 39.75 13.421875 37.59375 
L 13.53125 34.765625 
Q 13.53125 32.515625 12.375 31.296875 
Q 11.234375 30.078125 9.375 30.078125 
Q 7.5625 30.078125 6.421875 31.34375 
Q 5.28125 32.625 5.28125 34.8125 
Q 5.28125 39.015625 9.578125 42.53125 
Q 13.875 46.046875 21.625 46.046875 
Q 27.59375 46.046875 31.390625 44.046875 
Q 34.28125 42.53125 35.640625 39.3125 
Q 36.53125 37.203125 36.53125 30.71875 
L 36.53125 15.53125 
Q 36.53125 9.125 36.765625 7.6875 
Q 37.015625 6.25 37.578125 5.765625 
Q 38.140625 5.28125 38.875 5.28125 
Q 39.65625 5.28125 40.234375 5.609375 
Q 41.265625 6.25 44.1875 9.1875 
L 44.1875 6.453125 
Q 38.71875 -0.875 33.734375 -0.875 
Q 31.34375 -0.875 29.921875 0.78125 
Q 28.515625 2.4375 28.46875 6.453125 
z
M 28.46875 9.625 
L 28.46875 26.65625 
Q 21.09375 23.734375 18.953125 22.515625 
Q 15.09375 20.359375 13.421875 18.015625 
Q 11.765625 15.671875 11.765625 12.890625 
Q 11.765625 9.375 13.859375 7.046875 
Q 15.96875 4.734375 18.703125 4.734375 
Q 22.40625 4.734375 28.46875 9.625 
z
" id="TimesNewRomanPSMT-97"/>
      <path d="M 16.40625 36.53125 
Q 21.296875 41.40625 22.171875 42.140625 
Q 24.359375 44 26.890625 45.015625 
Q 29.4375 46.046875 31.9375 46.046875 
Q 36.140625 46.046875 39.15625 43.59375 
Q 42.1875 41.15625 43.21875 36.53125 
Q 48.25 42.390625 51.703125 44.21875 
Q 55.171875 46.046875 58.84375 46.046875 
Q 62.40625 46.046875 65.15625 44.21875 
Q 67.921875 42.390625 69.53125 38.234375 
Q 70.609375 35.40625 70.609375 29.34375 
L 70.609375 10.109375 
Q 70.609375 5.90625 71.234375 4.34375 
Q 71.734375 3.265625 73.046875 2.515625 
Q 74.359375 1.765625 77.34375 1.765625 
L 77.34375 0 
L 55.28125 0 
L 55.28125 1.765625 
L 56.203125 1.765625 
Q 59.078125 1.765625 60.6875 2.875 
Q 61.8125 3.65625 62.3125 5.375 
Q 62.5 6.203125 62.5 10.109375 
L 62.5 29.34375 
Q 62.5 34.8125 61.1875 37.0625 
Q 59.28125 40.1875 55.078125 40.1875 
Q 52.484375 40.1875 49.875 38.890625 
Q 47.265625 37.59375 43.5625 34.078125 
L 43.453125 33.546875 
L 43.5625 31.453125 
L 43.5625 10.109375 
Q 43.5625 5.515625 44.0625 4.390625 
Q 44.578125 3.265625 45.984375 2.515625 
Q 47.40625 1.765625 50.828125 1.765625 
L 50.828125 0 
L 28.21875 0 
L 28.21875 1.765625 
Q 31.9375 1.765625 33.328125 2.640625 
Q 34.71875 3.515625 35.25 5.28125 
Q 35.5 6.109375 35.5 10.109375 
L 35.5 29.34375 
Q 35.5 34.8125 33.890625 37.203125 
Q 31.734375 40.328125 27.875 40.328125 
Q 25.25 40.328125 22.65625 38.921875 
Q 18.609375 36.765625 16.40625 34.078125 
L 16.40625 10.109375 
Q 16.40625 5.71875 17.015625 4.390625 
Q 17.625 3.078125 18.8125 2.421875 
Q 20.015625 1.765625 23.6875 1.765625 
L 23.6875 0 
L 1.5625 0 
L 1.5625 1.765625 
Q 4.640625 1.765625 5.859375 2.421875 
Q 7.078125 3.078125 7.703125 4.515625 
Q 8.34375 5.953125 8.34375 10.109375 
L 8.34375 27.203125 
Q 8.34375 34.578125 7.90625 36.71875 
Q 7.5625 38.328125 6.828125 38.9375 
Q 6.109375 39.546875 4.828125 39.546875 
Q 3.46875 39.546875 1.5625 38.8125 
L 0.828125 40.578125 
L 14.3125 46.046875 
L 16.40625 46.046875 
z
" id="TimesNewRomanPSMT-109"/>
      <path d="M 15.375 37.015625 
Q 21.875 46.046875 29.390625 46.046875 
Q 36.28125 46.046875 41.40625 40.15625 
Q 46.53125 34.28125 46.53125 24.078125 
Q 46.53125 12.15625 38.625 4.890625 
Q 31.84375 -1.375 23.484375 -1.375 
Q 19.578125 -1.375 15.546875 0.046875 
Q 11.53125 1.46875 7.328125 4.296875 
L 7.328125 50.640625 
Q 7.328125 58.25 6.953125 60 
Q 6.59375 61.765625 5.8125 62.390625 
Q 5.03125 63.03125 3.859375 63.03125 
Q 2.484375 63.03125 0.4375 62.25 
L -0.25 63.96875 
L 13.1875 69.4375 
L 15.375 69.4375 
z
M 15.375 33.890625 
L 15.375 7.125 
Q 17.875 4.6875 20.53125 3.4375 
Q 23.1875 2.203125 25.984375 2.203125 
Q 30.421875 2.203125 34.25 7.078125 
Q 38.09375 11.96875 38.09375 21.296875 
Q 38.09375 29.890625 34.25 34.5 
Q 30.421875 39.109375 25.53125 39.109375 
Q 22.953125 39.109375 20.359375 37.796875 
Q 18.40625 36.8125 15.375 33.890625 
z
" id="TimesNewRomanPSMT-98"/>
      <path d="M 34.71875 5.03125 
Q 31.453125 1.609375 28.328125 0.109375 
Q 25.203125 -1.375 21.578125 -1.375 
Q 14.265625 -1.375 8.796875 4.75 
Q 3.328125 10.890625 3.328125 20.515625 
Q 3.328125 30.125 9.375 38.109375 
Q 15.4375 46.09375 24.953125 46.09375 
Q 30.859375 46.09375 34.71875 42.328125 
L 34.71875 50.59375 
Q 34.71875 58.25 34.34375 60 
Q 33.984375 61.765625 33.203125 62.390625 
Q 32.421875 63.03125 31.25 63.03125 
Q 29.984375 63.03125 27.875 62.25 
L 27.25 63.96875 
L 40.578125 69.4375 
L 42.78125 69.4375 
L 42.78125 17.71875 
Q 42.78125 9.859375 43.140625 8.125 
Q 43.5 6.390625 44.3125 5.703125 
Q 45.125 5.03125 46.1875 5.03125 
Q 47.515625 5.03125 49.703125 5.859375 
L 50.25 4.15625 
L 36.96875 -1.375 
L 34.71875 -1.375 
z
M 34.71875 8.453125 
L 34.71875 31.5 
Q 34.421875 34.8125 32.953125 37.546875 
Q 31.5 40.28125 29.078125 41.671875 
Q 26.65625 43.0625 24.359375 43.0625 
Q 20.0625 43.0625 16.703125 39.203125 
Q 12.25 34.125 12.25 24.359375 
Q 12.25 14.5 16.546875 9.25 
Q 20.84375 4 26.125 4 
Q 30.5625 4 34.71875 8.453125 
z
" id="TimesNewRomanPSMT-100"/>
      <path d="M 31.0625 -19.578125 
L 31.0625 -21.390625 
Q 23.6875 -17.671875 18.75 -12.703125 
Q 11.71875 -5.609375 7.90625 4 
Q 4.109375 13.625 4.109375 23.96875 
Q 4.109375 39.109375 11.578125 51.578125 
Q 19.046875 64.0625 31.0625 69.4375 
L 31.0625 67.390625 
Q 25.046875 64.0625 21.1875 58.296875 
Q 17.328125 52.546875 15.421875 43.703125 
Q 13.53125 34.859375 13.53125 25.25 
Q 13.53125 14.796875 15.140625 6.25 
Q 16.40625 -0.484375 18.203125 -4.5625 
Q 20.015625 -8.640625 23.0625 -12.390625 
Q 26.125 -16.15625 31.0625 -19.578125 
z
" id="TimesNewRomanPSMT-40"/>
      <path d="M 47.21875 14.0625 
L 48.96875 14.0625 
Q 48.96875 6.34375 46.453125 2.828125 
Q 43.953125 -0.6875 40.1875 -0.6875 
Q 37.109375 -0.6875 34.28125 1.625 
Q 31.453125 3.953125 29.203125 14.0625 
L 25 33.015625 
L 10.453125 0 
L 1.21875 0 
L 22.125 45.015625 
Q 20.453125 53.765625 18.109375 57.953125 
Q 15.765625 62.15625 12.3125 62.15625 
Q 9.515625 62.15625 7.4375 60.03125 
Q 5.375 57.90625 5.125 53.46875 
L 3.375 53.46875 
Q 3.515625 60.640625 6.25 64.953125 
Q 8.984375 69.28125 13.09375 69.28125 
Q 15.71875 69.28125 18.078125 67.109375 
Q 20.453125 64.9375 22.1875 59.6875 
Q 23.921875 54.4375 27.59375 37.9375 
L 31.0625 22.46875 
Q 33.15625 12.84375 35.46875 9.59375 
Q 37.796875 6.34375 41.015625 6.34375 
Q 46.484375 6.34375 47.21875 14.0625 
z
" id="TimesNewRomanPSMT-955"/>
      <path d="M 1.8125 43.109375 
L 54.5 43.109375 
L 54.5 39.109375 
L 1.8125 39.109375 
z
M 1.8125 27.203125 
L 54.5 27.203125 
L 54.5 23.1875 
L 1.8125 23.1875 
z
" id="TimesNewRomanPSMT-61"/>
      <path d="M 12.5 9.46875 
Q 14.796875 9.46875 16.359375 7.875 
Q 17.921875 6.296875 17.921875 4.046875 
Q 17.921875 1.8125 16.328125 0.21875 
Q 14.75 -1.375 12.5 -1.375 
Q 10.25 -1.375 8.65625 0.21875 
Q 7.078125 1.8125 7.078125 4.046875 
Q 7.078125 6.34375 8.65625 7.90625 
Q 10.25 9.46875 12.5 9.46875 
z
" id="TimesNewRomanPSMT-46"/>
      <path d="M 19.1875 33.34375 
Q 11.328125 39.796875 9.046875 43.703125 
Q 6.78125 47.609375 6.78125 51.8125 
Q 6.78125 58.25 11.765625 62.90625 
Q 16.75 67.578125 25 67.578125 
Q 33.015625 67.578125 37.890625 63.234375 
Q 42.78125 58.890625 42.78125 53.328125 
Q 42.78125 49.609375 40.140625 45.75 
Q 37.5 41.890625 29.15625 36.671875 
Q 37.75 30.03125 40.53125 26.21875 
Q 44.234375 21.234375 44.234375 15.71875 
Q 44.234375 8.734375 38.90625 3.78125 
Q 33.59375 -1.171875 24.953125 -1.171875 
Q 15.53125 -1.171875 10.25 4.734375 
Q 6.0625 9.46875 6.0625 15.09375 
Q 6.0625 19.484375 9.015625 23.796875 
Q 11.96875 28.125 19.1875 33.34375 
z
M 26.859375 38.578125 
Q 32.71875 43.84375 34.28125 46.890625 
Q 35.84375 49.953125 35.84375 53.8125 
Q 35.84375 58.9375 32.953125 61.84375 
Q 30.078125 64.75 25.09375 64.75 
Q 20.125 64.75 17 61.859375 
Q 13.875 58.984375 13.875 55.125 
Q 13.875 52.59375 15.15625 50.046875 
Q 16.453125 47.515625 18.84375 45.21875 
z
M 21.484375 31.5 
Q 17.4375 28.078125 15.484375 24.046875 
Q 13.53125 20.015625 13.53125 15.328125 
Q 13.53125 9.03125 16.96875 5.25 
Q 20.40625 1.46875 25.734375 1.46875 
Q 31 1.46875 34.171875 4.4375 
Q 37.359375 7.421875 37.359375 11.671875 
Q 37.359375 15.1875 35.5 17.96875 
Q 32.03125 23.140625 21.484375 31.5 
z
" id="TimesNewRomanPSMT-56"/>
      <path d="M 2.25 67.390625 
L 2.25 69.4375 
Q 9.671875 65.765625 14.59375 60.796875 
Q 21.578125 53.65625 25.390625 44.0625 
Q 29.203125 34.46875 29.203125 24.078125 
Q 29.203125 8.9375 21.75 -3.53125 
Q 14.3125 -16.015625 2.25 -21.390625 
L 2.25 -19.578125 
Q 8.25 -16.21875 12.125 -10.46875 
Q 16.015625 -4.734375 17.890625 4.125 
Q 19.78125 12.984375 19.78125 22.609375 
Q 19.78125 33.015625 18.171875 41.609375 
Q 16.9375 48.34375 15.109375 52.390625 
Q 13.28125 56.453125 10.25 60.203125 
Q 7.234375 63.96875 2.25 67.390625 
z
" id="TimesNewRomanPSMT-41"/>
     </defs>
     <g transform="translate(280.648438 474.6125)scale(0.12 -0.12)">
      <use xlink:href="#TimesNewRomanPSMT-76"/>
      <use x="61.083984" xlink:href="#TimesNewRomanPSMT-97"/>
      <use x="105.46875" xlink:href="#TimesNewRomanPSMT-109"/>
      <use x="183.251953" xlink:href="#TimesNewRomanPSMT-98"/>
      <use x="233.251953" xlink:href="#TimesNewRomanPSMT-100"/>
      <use x="283.251953" xlink:href="#TimesNewRomanPSMT-97"/>
      <use x="327.636719" xlink:href="#TimesNewRomanPSMT-40"/>
      <use x="360.9375" xlink:href="#TimesNewRomanPSMT-955"/>
      <use x="409.423828" xlink:href="#TimesNewRomanPSMT-61"/>
      <use x="465.820312" xlink:href="#TimesNewRomanPSMT-48"/>
      <use x="515.820312" xlink:href="#TimesNewRomanPSMT-46"/>
      <use x="540.820312" xlink:href="#TimesNewRomanPSMT-48"/>
      <use x="590.820312" xlink:href="#TimesNewRomanPSMT-48"/>
      <use x="640.820312" xlink:href="#TimesNewRomanPSMT-56"/>
      <use x="690.820312" xlink:href="#TimesNewRomanPSMT-51"/>
      <use x="740.820312" xlink:href="#TimesNewRomanPSMT-41"/>
     </g>
    </g>
   </g>
   <g id="matplotlib.axis_2">
    <g id="ytick_1">
     <g id="line2d_31">
      <defs>
       <path d="M 0 0 
L -3.5 0 
" id="mc4c47bc687" style="stroke:#000000;stroke-width:0.8;"/>
      </defs>
      <g>
       <use style="stroke:#000000;stroke-width:0.8;" x="48.095" xlink:href="#mc4c47bc687" y="434.355383"/>
      </g>
     </g>
     <g id="text_6">
      <!-- -0.3 -->
      <defs>
       <path d="M 4.046875 26.125 
L 29.296875 26.125 
L 29.296875 18.75 
L 4.046875 18.75 
z
" id="TimesNewRomanPSMT-45"/>
      </defs>
      <g transform="translate(22.099375 438.521633)scale(0.12 -0.12)">
       <use xlink:href="#TimesNewRomanPSMT-45"/>
       <use x="33.300781" xlink:href="#TimesNewRomanPSMT-48"/>
       <use x="83.300781" xlink:href="#TimesNewRomanPSMT-46"/>
       <use x="108.300781" xlink:href="#TimesNewRomanPSMT-51"/>
      </g>
     </g>
    </g>
    <g id="ytick_2">
     <g id="line2d_32">
      <g>
       <use style="stroke:#000000;stroke-width:0.8;" x="48.095" xlink:href="#mc4c47bc687" y="377.085008"/>
      </g>
     </g>
     <g id="text_7">
      <!-- -0.2 -->
      <g transform="translate(22.099375 381.251258)scale(0.12 -0.12)">
       <use xlink:href="#TimesNewRomanPSMT-45"/>
       <use x="33.300781" xlink:href="#TimesNewRomanPSMT-48"/>
       <use x="83.300781" xlink:href="#TimesNewRomanPSMT-46"/>
       <use x="108.300781" xlink:href="#TimesNewRomanPSMT-50"/>
      </g>
     </g>
    </g>
    <g id="ytick_3">
     <g id="line2d_33">
      <g>
       <use style="stroke:#000000;stroke-width:0.8;" x="48.095" xlink:href="#mc4c47bc687" y="319.814633"/>
      </g>
     </g>
     <g id="text_8">
      <!-- -0.1 -->
      <g transform="translate(22.099375 323.980883)scale(0.12 -0.12)">
       <use xlink:href="#TimesNewRomanPSMT-45"/>
       <use x="33.300781" xlink:href="#TimesNewRomanPSMT-48"/>
       <use x="83.300781" xlink:href="#TimesNewRomanPSMT-46"/>
       <use x="108.300781" xlink:href="#TimesNewRomanPSMT-49"/>
      </g>
     </g>
    </g>
    <g id="ytick_4">
     <g id="line2d_34">
      <g>
       <use style="stroke:#000000;stroke-width:0.8;" x="48.095" xlink:href="#mc4c47bc687" y="262.544257"/>
      </g>
     </g>
     <g id="text_9">
      <!-- 0.0 -->
      <g transform="translate(26.095 266.710507)scale(0.12 -0.12)">
       <use xlink:href="#TimesNewRomanPSMT-48"/>
       <use x="50" xlink:href="#TimesNewRomanPSMT-46"/>
       <use x="75" xlink:href="#TimesNewRomanPSMT-48"/>
      </g>
     </g>
    </g>
    <g id="ytick_5">
     <g id="line2d_35">
      <g>
       <use style="stroke:#000000;stroke-width:0.8;" x="48.095" xlink:href="#mc4c47bc687" y="205.273882"/>
      </g>
     </g>
     <g id="text_10">
      <!-- 0.1 -->
      <g transform="translate(26.095 209.440132)scale(0.12 -0.12)">
       <use xlink:href="#TimesNewRomanPSMT-48"/>
       <use x="50" xlink:href="#TimesNewRomanPSMT-46"/>
       <use x="75" xlink:href="#TimesNewRomanPSMT-49"/>
      </g>
     </g>
    </g>
    <g id="ytick_6">
     <g id="line2d_36">
      <g>
       <use style="stroke:#000000;stroke-width:0.8;" x="48.095" xlink:href="#mc4c47bc687" y="148.003507"/>
      </g>
     </g>
     <g id="text_11">
      <!-- 0.2 -->
      <g transform="translate(26.095 152.169757)scale(0.12 -0.12)">
       <use xlink:href="#TimesNewRomanPSMT-48"/>
       <use x="50" xlink:href="#TimesNewRomanPSMT-46"/>
       <use x="75" xlink:href="#TimesNewRomanPSMT-50"/>
      </g>
     </g>
    </g>
    <g id="ytick_7">
     <g id="line2d_37">
      <g>
       <use style="stroke:#000000;stroke-width:0.8;" x="48.095" xlink:href="#mc4c47bc687" y="90.733132"/>
      </g>
     </g>
     <g id="text_12">
      <!-- 0.3 -->
      <g transform="translate(26.095 94.899382)scale(0.12 -0.12)">
       <use xlink:href="#TimesNewRomanPSMT-48"/>
       <use x="50" xlink:href="#TimesNewRomanPSMT-46"/>
       <use x="75" xlink:href="#TimesNewRomanPSMT-51"/>
      </g>
     </g>
    </g>
    <g id="ytick_8">
     <g id="line2d_38">
      <g>
       <use style="stroke:#000000;stroke-width:0.8;" x="48.095" xlink:href="#mc4c47bc687" y="33.462756"/>
      </g>
     </g>
     <g id="text_13">
      <!-- 0.4 -->
      <defs>
       <path d="M 46.53125 24.421875 
L 46.53125 17.484375 
L 37.640625 17.484375 
L 37.640625 0 
L 29.59375 0 
L 29.59375 17.484375 
L 1.5625 17.484375 
L 1.5625 23.734375 
L 32.28125 67.578125 
L 37.640625 67.578125 
L 37.640625 24.421875 
z
M 29.59375 24.421875 
L 29.59375 57.28125 
L 6.34375 24.421875 
z
" id="TimesNewRomanPSMT-52"/>
      </defs>
      <g transform="translate(26.095 37.629006)scale(0.12 -0.12)">
       <use xlink:href="#TimesNewRomanPSMT-48"/>
       <use x="50" xlink:href="#TimesNewRomanPSMT-46"/>
       <use x="75" xlink:href="#TimesNewRomanPSMT-52"/>
      </g>
     </g>
    </g>
    <g id="text_14">
     <!-- Coefficients -->
     <defs>
      <path d="M 60.203125 67.71875 
L 61.71875 45.21875 
L 60.203125 45.21875 
Q 57.171875 55.328125 51.5625 59.765625 
Q 45.953125 64.203125 38.09375 64.203125 
Q 31.5 64.203125 26.171875 60.859375 
Q 20.84375 57.515625 17.796875 50.1875 
Q 14.75 42.875 14.75 31.984375 
Q 14.75 23 17.625 16.40625 
Q 20.515625 9.8125 26.296875 6.296875 
Q 32.078125 2.78125 39.5 2.78125 
Q 45.953125 2.78125 50.875 5.53125 
Q 55.8125 8.296875 61.71875 16.5 
L 63.234375 15.53125 
Q 58.25 6.6875 51.609375 2.578125 
Q 44.96875 -1.515625 35.84375 -1.515625 
Q 19.390625 -1.515625 10.359375 10.6875 
Q 3.609375 19.78125 3.609375 32.078125 
Q 3.609375 42 8.046875 50.296875 
Q 12.5 58.59375 20.28125 63.15625 
Q 28.078125 67.71875 37.3125 67.71875 
Q 44.484375 67.71875 51.46875 64.203125 
Q 53.515625 63.140625 54.390625 63.140625 
Q 55.71875 63.140625 56.6875 64.0625 
Q 57.953125 65.375 58.5 67.71875 
z
" id="TimesNewRomanPSMT-67"/>
      <path d="M 25 46.046875 
Q 35.15625 46.046875 41.3125 38.328125 
Q 46.53125 31.734375 46.53125 23.1875 
Q 46.53125 17.1875 43.640625 11.03125 
Q 40.765625 4.890625 35.71875 1.75 
Q 30.671875 -1.375 24.46875 -1.375 
Q 14.359375 -1.375 8.40625 6.6875 
Q 3.375 13.484375 3.375 21.921875 
Q 3.375 28.078125 6.421875 34.15625 
Q 9.46875 40.234375 14.453125 43.140625 
Q 19.4375 46.046875 25 46.046875 
z
M 23.484375 42.875 
Q 20.90625 42.875 18.28125 41.328125 
Q 15.671875 39.796875 14.0625 35.9375 
Q 12.453125 32.078125 12.453125 26.03125 
Q 12.453125 16.265625 16.328125 9.171875 
Q 20.21875 2.09375 26.5625 2.09375 
Q 31.296875 2.09375 34.375 6 
Q 37.453125 9.90625 37.453125 19.4375 
Q 37.453125 31.34375 32.328125 38.1875 
Q 28.859375 42.875 23.484375 42.875 
z
" id="TimesNewRomanPSMT-111"/>
      <path d="M 10.640625 27.875 
Q 10.59375 17.921875 15.484375 12.25 
Q 20.359375 6.59375 26.953125 6.59375 
Q 31.34375 6.59375 34.59375 9 
Q 37.84375 11.421875 40.046875 17.28125 
L 41.546875 16.3125 
Q 40.53125 9.625 35.59375 4.125 
Q 30.671875 -1.375 23.25 -1.375 
Q 15.1875 -1.375 9.453125 4.90625 
Q 3.71875 11.1875 3.71875 21.78125 
Q 3.71875 33.25 9.59375 39.671875 
Q 15.484375 46.09375 24.359375 46.09375 
Q 31.890625 46.09375 36.71875 41.140625 
Q 41.546875 36.1875 41.546875 27.875 
z
M 10.640625 30.71875 
L 31.34375 30.71875 
Q 31.109375 35.015625 30.328125 36.765625 
Q 29.109375 39.5 26.6875 41.0625 
Q 24.265625 42.625 21.625 42.625 
Q 17.578125 42.625 14.375 39.46875 
Q 11.1875 36.328125 10.640625 30.71875 
z
" id="TimesNewRomanPSMT-101"/>
      <path d="M 20.609375 41.21875 
L 20.609375 11.8125 
Q 20.609375 5.5625 21.96875 3.90625 
Q 23.78125 1.765625 26.8125 1.765625 
L 30.859375 1.765625 
L 30.859375 0 
L 4.15625 0 
L 4.15625 1.765625 
L 6.15625 1.765625 
Q 8.109375 1.765625 9.71875 2.734375 
Q 11.328125 3.71875 11.9375 5.375 
Q 12.546875 7.03125 12.546875 11.8125 
L 12.546875 41.21875 
L 3.859375 41.21875 
L 3.859375 44.734375 
L 12.546875 44.734375 
L 12.546875 47.65625 
Q 12.546875 54.34375 14.6875 58.984375 
Q 16.84375 63.625 21.265625 66.484375 
Q 25.6875 69.34375 31.203125 69.34375 
Q 36.328125 69.34375 40.625 66.015625 
Q 43.453125 63.8125 43.453125 61.078125 
Q 43.453125 59.625 42.1875 58.328125 
Q 40.921875 57.03125 39.453125 57.03125 
Q 38.328125 57.03125 37.078125 57.828125 
Q 35.84375 58.640625 34.03125 61.296875 
Q 32.234375 63.96875 30.71875 64.890625 
Q 29.203125 65.828125 27.34375 65.828125 
Q 25.09375 65.828125 23.53125 64.625 
Q 21.96875 63.421875 21.28125 60.90625 
Q 20.609375 58.40625 20.609375 47.953125 
L 20.609375 44.734375 
L 32.125 44.734375 
L 32.125 41.21875 
z
" id="TimesNewRomanPSMT-102"/>
      <path d="M 14.5 69.4375 
Q 16.546875 69.4375 17.984375 67.984375 
Q 19.4375 66.546875 19.4375 64.5 
Q 19.4375 62.453125 17.984375 60.984375 
Q 16.546875 59.515625 14.5 59.515625 
Q 12.453125 59.515625 10.984375 60.984375 
Q 9.515625 62.453125 9.515625 64.5 
Q 9.515625 66.546875 10.953125 67.984375 
Q 12.40625 69.4375 14.5 69.4375 
z
M 18.5625 46.046875 
L 18.5625 10.109375 
Q 18.5625 5.90625 19.171875 4.515625 
Q 19.78125 3.125 20.96875 2.4375 
Q 22.171875 1.765625 25.34375 1.765625 
L 25.34375 0 
L 3.609375 0 
L 3.609375 1.765625 
Q 6.890625 1.765625 8 2.390625 
Q 9.125 3.03125 9.78125 4.484375 
Q 10.453125 5.953125 10.453125 10.109375 
L 10.453125 27.34375 
Q 10.453125 34.625 10.015625 36.765625 
Q 9.671875 38.328125 8.9375 38.9375 
Q 8.203125 39.546875 6.9375 39.546875 
Q 5.5625 39.546875 3.609375 38.8125 
L 2.9375 40.578125 
L 16.40625 46.046875 
z
" id="TimesNewRomanPSMT-105"/>
      <path d="M 41.109375 17 
Q 39.3125 8.15625 34.03125 3.390625 
Q 28.765625 -1.375 22.359375 -1.375 
Q 14.75 -1.375 9.078125 5.015625 
Q 3.421875 11.421875 3.421875 22.3125 
Q 3.421875 32.859375 9.6875 39.453125 
Q 15.96875 46.046875 24.75 46.046875 
Q 31.34375 46.046875 35.59375 42.546875 
Q 39.84375 39.0625 39.84375 35.296875 
Q 39.84375 33.453125 38.640625 32.296875 
Q 37.453125 31.15625 35.296875 31.15625 
Q 32.421875 31.15625 30.953125 33.015625 
Q 30.125 34.03125 29.859375 36.90625 
Q 29.59375 39.796875 27.875 41.3125 
Q 26.171875 42.78125 23.140625 42.78125 
Q 18.265625 42.78125 15.28125 39.15625 
Q 11.328125 34.375 11.328125 26.515625 
Q 11.328125 18.5 15.25 12.375 
Q 19.1875 6.25 25.875 6.25 
Q 30.671875 6.25 34.46875 9.515625 
Q 37.15625 11.765625 39.703125 17.671875 
z
" id="TimesNewRomanPSMT-99"/>
      <path d="M 16.15625 36.578125 
Q 24.03125 46.046875 31.15625 46.046875 
Q 34.8125 46.046875 37.453125 44.21875 
Q 40.09375 42.390625 41.65625 38.1875 
Q 42.71875 35.25 42.71875 29.203125 
L 42.71875 10.109375 
Q 42.71875 5.859375 43.40625 4.34375 
Q 43.953125 3.125 45.140625 2.4375 
Q 46.34375 1.765625 49.5625 1.765625 
L 49.5625 0 
L 27.4375 0 
L 27.4375 1.765625 
L 28.375 1.765625 
Q 31.5 1.765625 32.734375 2.703125 
Q 33.984375 3.65625 34.46875 5.515625 
Q 34.671875 6.25 34.671875 10.109375 
L 34.671875 28.421875 
Q 34.671875 34.515625 33.078125 37.28125 
Q 31.5 40.046875 27.734375 40.046875 
Q 21.921875 40.046875 16.15625 33.6875 
L 16.15625 10.109375 
Q 16.15625 5.5625 16.703125 4.5 
Q 17.390625 3.078125 18.578125 2.421875 
Q 19.78125 1.765625 23.4375 1.765625 
L 23.4375 0 
L 1.3125 0 
L 1.3125 1.765625 
L 2.296875 1.765625 
Q 5.71875 1.765625 6.90625 3.484375 
Q 8.109375 5.21875 8.109375 10.109375 
L 8.109375 26.703125 
Q 8.109375 34.765625 7.734375 36.515625 
Q 7.375 38.28125 6.609375 38.90625 
Q 5.859375 39.546875 4.59375 39.546875 
Q 3.21875 39.546875 1.3125 38.8125 
L 0.59375 40.578125 
L 14.0625 46.046875 
L 16.15625 46.046875 
z
" id="TimesNewRomanPSMT-110"/>
      <path d="M 16.109375 59.421875 
L 16.109375 44.734375 
L 26.5625 44.734375 
L 26.5625 41.3125 
L 16.109375 41.3125 
L 16.109375 12.3125 
Q 16.109375 7.953125 17.359375 6.4375 
Q 18.609375 4.9375 20.5625 4.9375 
Q 22.171875 4.9375 23.6875 5.9375 
Q 25.203125 6.9375 26.03125 8.890625 
L 27.9375 8.890625 
Q 26.21875 4.109375 23.09375 1.6875 
Q 19.96875 -0.734375 16.65625 -0.734375 
Q 14.40625 -0.734375 12.25 0.515625 
Q 10.109375 1.765625 9.078125 4.078125 
Q 8.0625 6.390625 8.0625 11.234375 
L 8.0625 41.3125 
L 0.984375 41.3125 
L 0.984375 42.921875 
Q 3.65625 44 6.46875 46.5625 
Q 9.28125 49.125 11.46875 52.640625 
Q 12.59375 54.5 14.59375 59.421875 
z
" id="TimesNewRomanPSMT-116"/>
      <path d="M 32.03125 46.046875 
L 32.03125 30.8125 
L 30.421875 30.8125 
Q 28.5625 37.984375 25.65625 40.578125 
Q 22.75 43.171875 18.265625 43.171875 
Q 14.84375 43.171875 12.734375 41.359375 
Q 10.640625 39.546875 10.640625 37.359375 
Q 10.640625 34.625 12.203125 32.671875 
Q 13.71875 30.671875 18.359375 28.421875 
L 25.484375 24.953125 
Q 35.40625 20.125 35.40625 12.203125 
Q 35.40625 6.109375 30.78125 2.359375 
Q 26.171875 -1.375 20.453125 -1.375 
Q 16.359375 -1.375 11.078125 0.09375 
Q 9.46875 0.59375 8.453125 0.59375 
Q 7.328125 0.59375 6.6875 -0.6875 
L 5.078125 -0.6875 
L 5.078125 15.28125 
L 6.6875 15.28125 
Q 8.0625 8.453125 11.90625 4.984375 
Q 15.765625 1.515625 20.5625 1.515625 
Q 23.921875 1.515625 26.046875 3.484375 
Q 28.171875 5.46875 28.171875 8.25 
Q 28.171875 11.625 25.796875 13.921875 
Q 23.4375 16.21875 16.359375 19.734375 
Q 9.28125 23.25 7.078125 26.078125 
Q 4.890625 28.859375 4.890625 33.109375 
Q 4.890625 38.625 8.671875 42.328125 
Q 12.453125 46.046875 18.453125 46.046875 
Q 21.09375 46.046875 24.859375 44.921875 
Q 27.34375 44.1875 28.171875 44.1875 
Q 28.953125 44.1875 29.390625 44.53125 
Q 29.828125 44.875 30.421875 46.046875 
z
" id="TimesNewRomanPSMT-115"/>
     </defs>
     <g transform="translate(15.5325 253.859062)rotate(-90)scale(0.12 -0.12)">
      <use xlink:href="#TimesNewRomanPSMT-67"/>
      <use x="66.699219" xlink:href="#TimesNewRomanPSMT-111"/>
      <use x="116.699219" xlink:href="#TimesNewRomanPSMT-101"/>
      <use x="161.083984" xlink:href="#TimesNewRomanPSMT-102"/>
      <use x="192.634766" xlink:href="#TimesNewRomanPSMT-102"/>
      <use x="225.935547" xlink:href="#TimesNewRomanPSMT-105"/>
      <use x="253.71875" xlink:href="#TimesNewRomanPSMT-99"/>
      <use x="298.103516" xlink:href="#TimesNewRomanPSMT-105"/>
      <use x="325.886719" xlink:href="#TimesNewRomanPSMT-101"/>
      <use x="370.271484" xlink:href="#TimesNewRomanPSMT-110"/>
      <use x="420.271484" xlink:href="#TimesNewRomanPSMT-116"/>
      <use x="448.054688" xlink:href="#TimesNewRomanPSMT-115"/>
     </g>
    </g>
   </g>
   <g id="line2d_39">
    <path clip-path="url(#p3a7c41c2cc)" d="M 580.731364 262.544257 
L 570.378859 262.544257 
L 560.026354 262.544257 
L 549.67385 262.544257 
L 539.321345 262.544257 
L 528.96884 262.544257 
L 518.616336 262.544257 
L 508.263831 262.544257 
L 497.911327 262.544257 
L 487.558822 262.544257 
L 477.206317 262.544257 
L 466.853813 262.544257 
L 456.501308 262.544257 
L 446.148803 262.544257 
L 435.796299 262.544257 
L 425.443794 262.544257 
L 415.091289 262.544257 
L 404.738785 262.544257 
L 394.38628 262.544257 
L 384.033776 262.544257 
L 373.681271 262.544257 
L 363.328766 262.544257 
L 352.976262 262.544257 
L 342.623757 262.544257 
L 332.271252 262.544257 
L 321.918748 262.544257 
L 311.566243 262.544257 
L 301.213738 262.544257 
L 290.861234 262.544257 
L 280.508729 262.544257 
L 270.156224 262.544257 
L 259.80372 262.544257 
L 249.451215 262.544257 
L 239.098711 262.544257 
L 228.746206 262.544257 
L 218.393701 262.544257 
L 208.041197 262.544257 
L 197.688692 262.544257 
L 187.336187 265.550954 
L 176.983683 273.709852 
L 166.631178 280.443671 
L 156.278673 288.450215 
L 145.926169 295.153522 
L 135.573664 301.588115 
L 125.22116 308.831413 
L 114.868655 316.247804 
L 104.51615 322.775488 
L 94.163646 328.525069 
L 83.811141 333.531173 
L 73.458636 337.874576 
" style="fill:none;stroke:#1f77b4;stroke-linecap:square;stroke-width:1.5;"/>
   </g>
   <g id="line2d_40">
    <path clip-path="url(#p3a7c41c2cc)" d="M 580.731364 262.544257 
L 570.378859 262.544257 
L 560.026354 262.544257 
L 549.67385 262.544257 
L 539.321345 262.544257 
L 528.96884 262.544257 
L 518.616336 262.544257 
L 508.263831 262.544257 
L 497.911327 262.544257 
L 487.558822 262.544257 
L 477.206317 262.544257 
L 466.853813 262.544257 
L 456.501308 262.544257 
L 446.148803 262.544257 
L 435.796299 262.544257 
L 425.443794 262.544257 
L 415.091289 262.544257 
L 404.738785 262.544257 
L 394.38628 262.544257 
L 384.033776 262.544257 
L 373.681271 262.544257 
L 363.328766 262.544257 
L 352.976262 262.544257 
L 342.623757 262.544257 
L 332.271252 262.544257 
L 321.918748 262.544257 
L 311.566243 262.544257 
L 301.213738 262.544257 
L 290.861234 262.544257 
L 280.508729 262.544257 
L 270.156224 262.544257 
L 259.80372 262.544257 
L 249.451215 257.049415 
L 239.098711 249.9645 
L 228.746206 243.819715 
L 218.393701 239.108852 
L 208.041197 235.082593 
L 197.688692 226.301619 
L 187.336187 213.429306 
L 176.983683 195.891347 
L 166.631178 181.997551 
L 156.278673 171.85388 
L 145.926169 163.192806 
L 135.573664 142.80557 
L 125.22116 118.503962 
L 114.868655 94.959539 
L 104.51615 74.344836 
L 94.163646 56.294067 
L 83.811141 40.59426 
L 73.458636 26.967273 
" style="fill:none;stroke:#ff7f0e;stroke-linecap:square;stroke-width:1.5;"/>
   </g>
   <g id="line2d_41">
    <path clip-path="url(#p3a7c41c2cc)" d="M 580.731364 262.544257 
L 570.378859 262.544257 
L 560.026354 262.544257 
L 549.67385 262.544257 
L 539.321345 262.544257 
L 528.96884 262.544257 
L 518.616336 262.544257 
L 508.263831 262.544257 
L 497.911327 262.544257 
L 487.558822 262.544257 
L 477.206317 262.544257 
L 466.853813 261.731918 
L 456.501308 249.285528 
L 446.148803 238.654576 
L 435.796299 229.422109 
L 425.443794 221.402877 
L 415.091289 214.438103 
L 404.738785 208.35409 
L 394.38628 202.231623 
L 384.033776 197.535738 
L 373.681271 193.864726 
L 363.328766 191.758194 
L 352.976262 190.537052 
L 342.623757 189.490195 
L 332.271252 188.267111 
L 321.918748 187.744059 
L 311.566243 187.450413 
L 301.213738 187.686406 
L 290.861234 187.617083 
L 280.508729 186.931657 
L 270.156224 186.09659 
L 259.80372 184.92948 
L 249.451215 184.848485 
L 239.098711 185.262879 
L 228.746206 185.622313 
L 218.393701 185.687231 
L 208.041197 185.734762 
L 197.688692 184.308722 
L 187.336187 183.728291 
L 176.983683 185.462399 
L 166.631178 186.716177 
L 156.278673 187.613427 
L 145.926169 187.971098 
L 135.573664 187.480053 
L 125.22116 187.143065 
L 114.868655 186.65616 
L 104.51615 186.291445 
L 94.163646 186.031536 
L 83.811141 185.814752 
L 73.458636 185.623388 
" style="fill:none;stroke:#2ca02c;stroke-linecap:square;stroke-width:1.5;"/>
   </g>
   <g id="line2d_42">
    <path clip-path="url(#p3a7c41c2cc)" d="M 580.731364 262.544257 
L 570.378859 262.544257 
L 560.026354 262.544257 
L 549.67385 262.544257 
L 539.321345 262.544257 
L 528.96884 262.544257 
L 518.616336 262.544257 
L 508.263831 262.544257 
L 497.911327 262.544257 
L 487.558822 262.544257 
L 477.206317 262.544257 
L 466.853813 262.544257 
L 456.501308 262.544257 
L 446.148803 262.544257 
L 435.796299 262.544257 
L 425.443794 262.544257 
L 415.091289 262.544257 
L 404.738785 262.544257 
L 394.38628 262.544257 
L 384.033776 262.544257 
L 373.681271 262.544257 
L 363.328766 262.544257 
L 352.976262 262.544257 
L 342.623757 262.544257 
L 332.271252 262.544257 
L 321.918748 262.544257 
L 311.566243 262.544257 
L 301.213738 262.544257 
L 290.861234 262.544257 
L 280.508729 262.544257 
L 270.156224 262.544257 
L 259.80372 262.544257 
L 249.451215 262.544257 
L 239.098711 262.544257 
L 228.746206 262.544257 
L 218.393701 262.544257 
L 208.041197 262.544257 
L 197.688692 262.544257 
L 187.336187 262.544257 
L 176.983683 262.544257 
L 166.631178 262.544257 
L 156.278673 262.544257 
L 145.926169 262.809917 
L 135.573664 265.220372 
L 125.22116 267.934777 
L 114.868655 270.63609 
L 104.51615 272.961611 
L 94.163646 274.959852 
L 83.811141 276.691906 
L 73.458636 278.19733 
" style="fill:none;stroke:#d62728;stroke-linecap:square;stroke-width:1.5;"/>
   </g>
   <g id="line2d_43">
    <path clip-path="url(#p3a7c41c2cc)" d="M 580.731364 262.544257 
L 570.378859 262.544257 
L 560.026354 262.544257 
L 549.67385 262.544257 
L 539.321345 262.544257 
L 528.96884 262.544257 
L 518.616336 262.544257 
L 508.263831 262.544257 
L 497.911327 262.544257 
L 487.558822 262.544257 
L 477.206317 262.544257 
L 466.853813 265.545848 
L 456.501308 274.712077 
L 446.148803 279.104307 
L 435.796299 282.920243 
L 425.443794 286.233199 
L 415.091289 289.110575 
L 404.738785 291.631333 
L 394.38628 294.376237 
L 384.033776 298.165439 
L 373.681271 302.379839 
L 363.328766 305.025106 
L 352.976262 306.8682 
L 342.623757 308.364922 
L 332.271252 305.062174 
L 321.918748 298.665457 
L 311.566243 292.186784 
L 301.213738 273.369598 
L 290.861234 262.544257 
L 280.508729 262.544257 
L 270.156224 262.544257 
L 259.80372 262.544257 
L 249.451215 262.544257 
L 239.098711 262.544257 
L 228.746206 262.544257 
L 218.393701 262.544257 
L 208.041197 262.544257 
L 197.688692 262.544257 
L 187.336187 262.544257 
L 176.983683 262.544257 
L 166.631178 262.544257 
L 156.278673 262.544257 
L 145.926169 262.544257 
L 135.573664 277.578855 
L 125.22116 297.485308 
L 114.868655 317.167931 
L 104.51615 334.345811 
L 94.163646 349.334348 
L 83.811141 362.362537 
L 73.458636 373.673505 
" style="fill:none;stroke:#9467bd;stroke-linecap:square;stroke-width:1.5;"/>
   </g>
   <g id="line2d_44">
    <path clip-path="url(#p3a7c41c2cc)" d="M 580.731364 262.544257 
L 570.378859 262.544257 
L 560.026354 262.544257 
L 549.67385 262.544257 
L 539.321345 262.544257 
L 528.96884 262.544257 
L 518.616336 262.544257 
L 508.263831 262.544257 
L 497.911327 262.544257 
L 487.558822 262.544257 
L 477.206317 262.544257 
L 466.853813 262.544257 
L 456.501308 262.544257 
L 446.148803 262.544257 
L 435.796299 262.544257 
L 425.443794 262.544257 
L 415.091289 262.544257 
L 404.738785 262.544257 
L 394.38628 262.544257 
L 384.033776 262.544257 
L 373.681271 262.544257 
L 363.328766 259.001666 
L 352.976262 256.974222 
L 342.623757 255.092315 
L 332.271252 252.528848 
L 321.918748 248.815027 
L 311.566243 244.944603 
L 301.213738 234.40683 
L 290.861234 227.218567 
L 280.508729 224.438708 
L 270.156224 216.959521 
L 259.80372 209.622591 
L 249.451215 205.336721 
L 239.098711 201.090524 
L 228.746206 197.41005 
L 218.393701 192.070889 
L 208.041197 187.236889 
L 197.688692 182.246231 
L 187.336187 177.261828 
L 176.983683 172.394329 
L 166.631178 168.094395 
L 156.278673 163.303694 
L 145.926169 159.134161 
L 135.573664 156.662549 
L 125.22116 150.234689 
L 114.868655 140.122504 
L 104.51615 131.321327 
L 94.163646 123.665519 
L 83.811141 117.014459 
L 73.458636 111.238625 
" style="fill:none;stroke:#8c564b;stroke-linecap:square;stroke-width:1.5;"/>
   </g>
   <g id="line2d_45">
    <path clip-path="url(#p3a7c41c2cc)" d="M 580.731364 262.544257 
L 570.378859 262.544257 
L 560.026354 262.544257 
L 549.67385 262.544257 
L 539.321345 262.544257 
L 528.96884 262.544257 
L 518.616336 262.544257 
L 508.263831 262.544257 
L 497.911327 262.544257 
L 487.558822 262.544257 
L 477.206317 262.544257 
L 466.853813 262.544257 
L 456.501308 262.544257 
L 446.148803 262.544257 
L 435.796299 262.544257 
L 425.443794 262.544257 
L 415.091289 262.544257 
L 404.738785 262.784051 
L 394.38628 268.932253 
L 384.033776 273.655047 
L 373.681271 277.354844 
L 363.328766 279.324337 
L 352.976262 279.146627 
L 342.623757 278.8712 
L 332.271252 279.501442 
L 321.918748 281.626926 
L 311.566243 283.896594 
L 301.213738 287.23804 
L 290.861234 288.795133 
L 280.508729 287.561314 
L 270.156224 284.994656 
L 259.80372 280.972766 
L 249.451215 277.948773 
L 239.098711 275.733434 
L 228.746206 273.816386 
L 218.393701 272.025924 
L 208.041197 270.458435 
L 197.688692 269.745956 
L 187.336187 269.549293 
L 176.983683 269.816625 
L 166.631178 269.451341 
L 156.278673 269.914985 
L 145.926169 270.408218 
L 135.573664 270.403246 
L 125.22116 270.366007 
L 114.868655 270.49808 
L 104.51615 270.605634 
L 94.163646 270.692523 
L 83.811141 270.766942 
L 73.458636 270.831922 
" style="fill:none;stroke:#e377c2;stroke-linecap:square;stroke-width:1.5;"/>
   </g>
   <g id="line2d_46">
    <path clip-path="url(#p3a7c41c2cc)" d="M 580.731364 262.544257 
L 570.378859 262.544257 
L 560.026354 262.544257 
L 549.67385 262.544257 
L 539.321345 262.544257 
L 528.96884 262.544257 
L 518.616336 262.544257 
L 508.263831 262.544257 
L 497.911327 262.544257 
L 487.558822 262.544257 
L 477.206317 262.544257 
L 466.853813 262.544257 
L 456.501308 262.544257 
L 446.148803 262.544257 
L 435.796299 262.544257 
L 425.443794 262.544257 
L 415.091289 262.544257 
L 404.738785 262.544257 
L 394.38628 262.544257 
L 384.033776 262.544257 
L 373.681271 262.544257 
L 363.328766 262.544257 
L 352.976262 262.544257 
L 342.623757 262.544257 
L 332.271252 262.544257 
L 321.918748 262.544257 
L 311.566243 262.544257 
L 301.213738 262.544257 
L 290.861234 262.544257 
L 280.508729 262.544257 
L 270.156224 272.494287 
L 259.80372 284.758324 
L 249.451215 289.486378 
L 239.098711 293.089296 
L 228.746206 296.204783 
L 218.393701 298.744255 
L 208.041197 300.877465 
L 197.688692 304.865488 
L 187.336187 309.800817 
L 176.983683 314.863222 
L 166.631178 318.389975 
L 156.278673 321.710868 
L 145.926169 324.761318 
L 135.573664 328.899182 
L 125.22116 342.179947 
L 114.868655 362.94061 
L 104.51615 381.022636 
L 94.163646 396.76215 
L 83.811141 410.437561 
L 73.458636 422.312727 
" style="fill:none;stroke:#7f7f7f;stroke-linecap:square;stroke-width:1.5;"/>
   </g>
   <g id="line2d_47">
    <path clip-path="url(#p3a7c41c2cc)" d="M 580.731364 262.544257 
L 570.378859 262.544257 
L 560.026354 262.544257 
L 549.67385 262.544257 
L 539.321345 262.544257 
L 528.96884 262.544257 
L 518.616336 262.544257 
L 508.263831 262.544257 
L 497.911327 262.544257 
L 487.558822 262.544257 
L 477.206317 262.544257 
L 466.853813 262.544257 
L 456.501308 262.544257 
L 446.148803 262.544257 
L 435.796299 262.544257 
L 425.443794 262.544257 
L 415.091289 262.544257 
L 404.738785 262.544257 
L 394.38628 262.544257 
L 384.033776 262.544257 
L 373.681271 262.544257 
L 363.328766 261.254666 
L 352.976262 262.544257 
L 342.623757 262.544257 
L 332.271252 262.544257 
L 321.918748 262.544257 
L 311.566243 262.544257 
L 301.213738 262.544257 
L 290.861234 262.544257 
L 280.508729 262.544257 
L 270.156224 262.544257 
L 259.80372 262.544257 
L 249.451215 262.544257 
L 239.098711 262.544257 
L 228.746206 262.544257 
L 218.393701 262.544257 
L 208.041197 262.544257 
L 197.688692 262.544257 
L 187.336187 262.544257 
L 176.983683 263.507177 
L 166.631178 271.535242 
L 156.278673 276.869506 
L 145.926169 281.380354 
L 135.573664 287.285269 
L 125.22116 295.791209 
L 114.868655 305.9053 
L 104.51615 314.705804 
L 94.163646 322.359966 
L 83.811141 329.009401 
L 73.458636 334.783873 
" style="fill:none;stroke:#bcbd22;stroke-linecap:square;stroke-width:1.5;"/>
   </g>
   <g id="line2d_48">
    <path clip-path="url(#p3a7c41c2cc)" d="M 580.731364 262.544257 
L 570.378859 262.544257 
L 560.026354 262.544257 
L 549.67385 262.544257 
L 539.321345 262.544257 
L 528.96884 262.544257 
L 518.616336 262.544257 
L 508.263831 262.544257 
L 497.911327 262.544257 
L 487.558822 262.544257 
L 477.206317 262.544257 
L 466.853813 262.544257 
L 456.501308 262.544257 
L 446.148803 262.544257 
L 435.796299 262.544257 
L 425.443794 262.544257 
L 415.091289 262.544257 
L 404.738785 262.544257 
L 394.38628 262.544257 
L 384.033776 262.544257 
L 373.681271 262.544257 
L 363.328766 262.544257 
L 352.976262 262.544257 
L 342.623757 262.544257 
L 332.271252 262.544257 
L 321.918748 262.544257 
L 311.566243 261.196805 
L 301.213738 242.240509 
L 290.861234 228.581952 
L 280.508729 221.638045 
L 270.156224 218.567297 
L 259.80372 218.084347 
L 249.451215 215.464183 
L 239.098711 212.442638 
L 228.746206 209.810418 
L 218.393701 199.244841 
L 208.041197 189.177322 
L 197.688692 180.699196 
L 187.336187 173.933419 
L 176.983683 168.023307 
L 166.631178 157.807767 
L 156.278673 148.9021 
L 145.926169 141.403681 
L 135.573664 134.683088 
L 125.22116 131.150841 
L 114.868655 130.537644 
L 104.51615 130.026657 
L 94.163646 129.600956 
L 83.811141 129.234013 
L 73.458636 128.914269 
" style="fill:none;stroke:#17becf;stroke-linecap:square;stroke-width:1.5;"/>
   </g>
   <g id="line2d_49">
    <path clip-path="url(#p3a7c41c2cc)" d="M 580.731364 262.544257 
L 570.378859 262.544257 
L 560.026354 262.544257 
L 549.67385 262.544257 
L 539.321345 262.544257 
L 528.96884 262.544257 
L 518.616336 262.544257 
L 508.263831 262.544257 
L 497.911327 262.544257 
L 487.558822 262.544257 
L 477.206317 262.544257 
L 466.853813 262.544257 
L 456.501308 267.644769 
L 446.148803 277.147148 
L 435.796299 285.399326 
L 425.443794 292.567167 
L 415.091289 298.792497 
L 404.738785 304.022235 
L 394.38628 304.163955 
L 384.033776 304.771895 
L 373.681271 305.615756 
L 363.328766 305.181279 
L 352.976262 305.445222 
L 342.623757 305.939029 
L 332.271252 307.723905 
L 321.918748 304.354845 
L 311.566243 299.893525 
L 301.213738 290.23595 
L 290.861234 283.593735 
L 280.508729 281.495021 
L 270.156224 271.111586 
L 259.80372 262.544257 
L 249.451215 262.544257 
L 239.098711 262.544257 
L 228.746206 262.544257 
L 218.393701 262.544257 
L 208.041197 262.544257 
L 197.688692 262.544257 
L 187.336187 262.544257 
L 176.983683 262.544257 
L 166.631178 262.544257 
L 156.278673 262.544257 
L 145.926169 262.544257 
L 135.573664 262.544257 
L 125.22116 250.497648 
L 114.868655 228.178461 
L 104.51615 208.754369 
L 94.163646 191.860187 
L 83.811141 177.183545 
L 73.458636 164.438136 
" style="fill:none;stroke:#1f77b4;stroke-linecap:square;stroke-width:1.5;"/>
   </g>
   <g id="line2d_50">
    <path clip-path="url(#p3a7c41c2cc)" d="M 580.731364 262.544257 
L 570.378859 262.544257 
L 560.026354 262.544257 
L 549.67385 262.544257 
L 539.321345 262.544257 
L 528.96884 262.544257 
L 518.616336 262.544257 
L 508.263831 262.544257 
L 497.911327 262.544257 
L 487.558822 262.544257 
L 477.206317 262.544257 
L 466.853813 262.544257 
L 456.501308 262.544257 
L 446.148803 262.544257 
L 435.796299 262.544257 
L 425.443794 262.544257 
L 415.091289 262.544257 
L 404.738785 262.544257 
L 394.38628 262.544257 
L 384.033776 262.544257 
L 373.681271 262.544257 
L 363.328766 260.779197 
L 352.976262 254.258784 
L 342.623757 249.527102 
L 332.271252 247.152585 
L 321.918748 240.830454 
L 311.566243 233.839922 
L 301.213738 214.405498 
L 290.861234 200.187754 
L 280.508729 192.788484 
L 270.156224 184.351124 
L 259.80372 178.648807 
L 249.451215 178.321105 
L 239.098711 178.65405 
L 228.746206 178.934213 
L 218.393701 177.274153 
L 208.041197 175.568513 
L 197.688692 177.500758 
L 187.336187 181.48529 
L 176.983683 185.394733 
L 166.631178 179.122986 
L 156.278673 177.008526 
L 145.926169 175.625908 
L 135.573664 180.439257 
L 125.22116 180.022633 
L 114.868655 173.633305 
L 104.51615 168.106629 
L 94.163646 163.330817 
L 83.811141 159.186387 
L 73.458636 155.585376 
" style="fill:none;stroke:#ff7f0e;stroke-linecap:square;stroke-width:1.5;"/>
   </g>
   <g id="line2d_51">
    <path clip-path="url(#p3a7c41c2cc)" d="M 580.731364 262.544257 
L 570.378859 262.544257 
L 560.026354 262.544257 
L 549.67385 262.544257 
L 539.321345 262.544257 
L 528.96884 262.544257 
L 518.616336 262.544257 
L 508.263831 262.544257 
L 497.911327 262.544257 
L 487.558822 262.544257 
L 477.206317 262.544257 
L 466.853813 262.544257 
L 456.501308 262.544257 
L 446.148803 262.544257 
L 435.796299 262.544257 
L 425.443794 262.544257 
L 415.091289 262.544257 
L 404.738785 262.544257 
L 394.38628 262.544257 
L 384.033776 262.544257 
L 373.681271 262.544257 
L 363.328766 262.544257 
L 352.976262 262.544257 
L 342.623757 262.544257 
L 332.271252 262.544257 
L 321.918748 255.685134 
L 311.566243 248.276699 
L 301.213738 236.756926 
L 290.861234 227.70124 
L 280.508729 221.376535 
L 270.156224 214.728296 
L 259.80372 210.123742 
L 249.451215 205.950277 
L 239.098711 201.391012 
L 228.746206 197.432995 
L 218.393701 193.68548 
L 208.041197 190.379177 
L 197.688692 189.806768 
L 187.336187 190.094824 
L 176.983683 190.082989 
L 166.631178 189.343255 
L 156.278673 189.367578 
L 145.926169 189.615985 
L 135.573664 191.932604 
L 125.22116 192.795011 
L 114.868655 192.012248 
L 104.51615 191.326689 
L 94.163646 190.725267 
L 83.811141 190.201876 
L 73.458636 189.747563 
" style="fill:none;stroke:#2ca02c;stroke-linecap:square;stroke-width:1.5;"/>
   </g>
   <g id="line2d_52">
    <path clip-path="url(#p3a7c41c2cc)" d="M 580.731364 262.544257 
L 570.378859 262.544257 
L 560.026354 262.544257 
L 549.67385 262.544257 
L 539.321345 262.544257 
L 528.96884 262.544257 
L 518.616336 262.544257 
L 508.263831 262.544257 
L 497.911327 262.544257 
L 487.558822 262.544257 
L 477.206317 262.544257 
L 466.853813 262.544257 
L 456.501308 262.544257 
L 446.148803 262.544257 
L 435.796299 262.544257 
L 425.443794 262.544257 
L 415.091289 262.544257 
L 404.738785 262.544257 
L 394.38628 262.544257 
L 384.033776 262.544257 
L 373.681271 262.544257 
L 363.328766 262.544257 
L 352.976262 262.544257 
L 342.623757 262.544257 
L 332.271252 262.544257 
L 321.918748 262.544257 
L 311.566243 262.544257 
L 301.213738 262.544257 
L 290.861234 262.544257 
L 280.508729 262.544257 
L 270.156224 262.544257 
L 259.80372 262.544257 
L 249.451215 262.544257 
L 239.098711 262.544257 
L 228.746206 262.544257 
L 218.393701 262.544257 
L 208.041197 262.544257 
L 197.688692 267.970549 
L 187.336187 274.290544 
L 176.983683 279.281819 
L 166.631178 283.074596 
L 156.278673 288.576257 
L 145.926169 293.607725 
L 135.573664 300.95804 
L 125.22116 309.816406 
L 114.868655 319.290135 
L 104.51615 327.529192 
L 94.163646 334.690279 
L 83.811141 340.91047 
L 73.458636 346.312343 
" style="fill:none;stroke:#d62728;stroke-linecap:square;stroke-width:1.5;"/>
   </g>
   <g id="line2d_53">
    <path clip-path="url(#p3a7c41c2cc)" d="M 580.731364 262.544257 
L 570.378859 262.544257 
L 560.026354 262.544257 
L 549.67385 262.544257 
L 539.321345 262.544257 
L 528.96884 262.544257 
L 518.616336 262.544257 
L 508.263831 262.544257 
L 497.911327 262.544257 
L 487.558822 262.544257 
L 477.206317 262.544257 
L 466.853813 262.544257 
L 456.501308 262.544257 
L 446.148803 262.544257 
L 435.796299 262.544257 
L 425.443794 262.544257 
L 415.091289 262.544257 
L 404.738785 262.544257 
L 394.38628 262.544257 
L 384.033776 262.544257 
L 373.681271 262.544257 
L 363.328766 262.544257 
L 352.976262 262.544257 
L 342.623757 262.544257 
L 332.271252 262.544257 
L 321.918748 262.544257 
L 311.566243 263.458389 
L 301.213738 267.804085 
L 290.861234 271.815158 
L 280.508729 275.869014 
L 270.156224 279.488247 
L 259.80372 282.933829 
L 249.451215 286.080636 
L 239.098711 288.777834 
L 228.746206 291.119588 
L 218.393701 294.585637 
L 208.041197 297.736465 
L 197.688692 301.638343 
L 187.336187 305.470084 
L 176.983683 308.529369 
L 166.631178 308.085092 
L 156.278673 307.482761 
L 145.926169 307.054417 
L 135.573664 306.472963 
L 125.22116 305.112366 
L 114.868655 303.188954 
L 104.51615 301.523796 
L 94.163646 300.083014 
L 83.811141 298.832489 
L 73.458636 297.746075 
" style="fill:none;stroke:#9467bd;stroke-linecap:square;stroke-width:1.5;"/>
   </g>
   <g id="line2d_54">
    <path clip-path="url(#p3a7c41c2cc)" d="M 580.731364 262.544257 
L 570.378859 262.544257 
L 560.026354 262.544257 
L 549.67385 262.544257 
L 539.321345 262.544257 
L 528.96884 262.544257 
L 518.616336 262.544257 
L 508.263831 262.544257 
L 497.911327 262.544257 
L 487.558822 262.544257 
L 477.206317 262.544257 
L 466.853813 262.544257 
L 456.501308 262.544257 
L 446.148803 262.544257 
L 435.796299 262.544257 
L 425.443794 262.544257 
L 415.091289 262.544257 
L 404.738785 262.544257 
L 394.38628 262.544257 
L 384.033776 262.544257 
L 373.681271 262.544257 
L 363.328766 262.544257 
L 352.976262 262.544257 
L 342.623757 262.544257 
L 332.271252 262.544257 
L 321.918748 262.544257 
L 311.566243 262.544257 
L 301.213738 262.544257 
L 290.861234 259.777555 
L 280.508729 251.607174 
L 270.156224 243.801496 
L 259.80372 235.564823 
L 249.451215 228.907068 
L 239.098711 223.677088 
L 228.746206 219.141865 
L 218.393701 216.767946 
L 208.041197 214.892301 
L 197.688692 212.495809 
L 187.336187 210.234331 
L 176.983683 208.693836 
L 166.631178 207.094459 
L 156.278673 204.980829 
L 145.926169 203.149159 
L 135.573664 202.998722 
L 125.22116 203.762361 
L 114.868655 204.924245 
L 104.51615 205.939312 
L 94.163646 206.825667 
L 83.811141 207.596181 
L 73.458636 208.265084 
" style="fill:none;stroke:#8c564b;stroke-linecap:square;stroke-width:1.5;"/>
   </g>
   <g id="line2d_55">
    <path clip-path="url(#p3a7c41c2cc)" d="M 580.731364 262.544257 
L 570.378859 262.544257 
L 560.026354 262.544257 
L 549.67385 262.544257 
L 539.321345 262.544257 
L 528.96884 262.544257 
L 518.616336 262.544257 
L 508.263831 262.544257 
L 497.911327 262.544257 
L 487.558822 262.544257 
L 477.206317 262.544257 
L 466.853813 262.544257 
L 456.501308 267.579748 
L 446.148803 274.544995 
L 435.796299 280.594443 
L 425.443794 285.848379 
L 415.091289 290.411483 
L 404.738785 294.357282 
L 394.38628 297.363867 
L 384.033776 299.213319 
L 373.681271 300.319043 
L 363.328766 301.573532 
L 352.976262 304.308171 
L 342.623757 306.225473 
L 332.271252 308.104334 
L 321.918748 310.278636 
L 311.566243 311.953243 
L 301.213738 309.470062 
L 290.861234 308.814348 
L 280.508729 311.289385 
L 270.156224 313.175903 
L 259.80372 315.429219 
L 249.451215 318.354744 
L 239.098711 320.972231 
L 228.746206 323.240567 
L 218.393701 322.077771 
L 208.041197 320.73669 
L 197.688692 319.035101 
L 187.336187 317.40857 
L 176.983683 316.169888 
L 166.631178 317.042766 
L 156.278673 318.012132 
L 145.926169 318.79664 
L 135.573664 318.84491 
L 125.22116 318.484838 
L 114.868655 317.907317 
L 104.51615 317.405571 
L 94.163646 316.970561 
L 83.811141 316.592903 
L 73.458636 316.264892 
" style="fill:none;stroke:#e377c2;stroke-linecap:square;stroke-width:1.5;"/>
   </g>
   <g id="line2d_56">
    <path clip-path="url(#p3a7c41c2cc)" d="M 580.731364 262.544257 
L 570.378859 262.544257 
L 560.026354 262.544257 
L 549.67385 262.544257 
L 539.321345 262.544257 
L 528.96884 262.544257 
L 518.616336 262.544257 
L 508.263831 262.544257 
L 497.911327 262.544257 
L 487.558822 262.544257 
L 477.206317 262.544257 
L 466.853813 262.544257 
L 456.501308 262.544257 
L 446.148803 262.544257 
L 435.796299 262.544257 
L 425.443794 262.544257 
L 415.091289 262.544257 
L 404.738785 262.544257 
L 394.38628 262.544257 
L 384.033776 262.544257 
L 373.681271 262.544257 
L 363.328766 262.544257 
L 352.976262 262.544257 
L 342.623757 262.544257 
L 332.271252 262.544257 
L 321.918748 262.544257 
L 311.566243 262.544257 
L 301.213738 262.544257 
L 290.861234 262.544257 
L 280.508729 262.544257 
L 270.156224 262.544257 
L 259.80372 262.544257 
L 249.451215 262.544257 
L 239.098711 262.544257 
L 228.746206 262.544257 
L 218.393701 270.442658 
L 208.041197 278.097898 
L 197.688692 283.876817 
L 187.336187 287.876336 
L 176.983683 290.395446 
L 166.631178 295.386304 
L 156.278673 299.553224 
L 145.926169 303.117537 
L 135.573664 309.331576 
L 125.22116 314.723879 
L 114.868655 318.531124 
L 104.51615 321.830752 
L 94.163646 324.688878 
L 83.811141 327.16996 
L 73.458636 329.325192 
" style="fill:none;stroke:#7f7f7f;stroke-linecap:square;stroke-width:1.5;"/>
   </g>
   <g id="line2d_57">
    <path clip-path="url(#p3a7c41c2cc)" d="M 580.731364 262.544257 
L 570.378859 262.544257 
L 560.026354 262.544257 
L 549.67385 262.544257 
L 539.321345 262.544257 
L 528.96884 262.544257 
L 518.616336 262.544257 
L 508.263831 262.544257 
L 497.911327 262.544257 
L 487.558822 262.544257 
L 477.206317 262.544257 
L 466.853813 262.544257 
L 456.501308 262.544257 
L 446.148803 262.544257 
L 435.796299 262.544257 
L 425.443794 262.544257 
L 415.091289 262.544257 
L 404.738785 262.544257 
L 394.38628 262.544257 
L 384.033776 262.544257 
L 373.681271 262.544257 
L 363.328766 262.544257 
L 352.976262 262.544257 
L 342.623757 262.544257 
L 332.271252 262.544257 
L 321.918748 262.544257 
L 311.566243 262.544257 
L 301.213738 262.544257 
L 290.861234 262.544257 
L 280.508729 262.544257 
L 270.156224 262.544257 
L 259.80372 262.544257 
L 249.451215 262.544257 
L 239.098711 262.544257 
L 228.746206 262.544257 
L 218.393701 262.544257 
L 208.041197 262.544257 
L 197.688692 262.544257 
L 187.336187 262.544257 
L 176.983683 262.544257 
L 166.631178 264.485059 
L 156.278673 268.144568 
L 145.926169 271.291685 
L 135.573664 275.499461 
L 125.22116 279.084769 
L 114.868655 281.701912 
L 104.51615 283.962511 
L 94.163646 285.914103 
L 83.811141 287.607224 
L 73.458636 289.078355 
" style="fill:none;stroke:#bcbd22;stroke-linecap:square;stroke-width:1.5;"/>
   </g>
   <g id="line2d_58">
    <path clip-path="url(#p3a7c41c2cc)" d="M 580.731364 262.544257 
L 570.378859 262.544257 
L 560.026354 262.544257 
L 549.67385 262.544257 
L 539.321345 262.544257 
L 528.96884 262.544257 
L 518.616336 262.544257 
L 508.263831 262.544257 
L 497.911327 262.544257 
L 487.558822 262.544257 
L 477.206317 262.544257 
L 466.853813 262.544257 
L 456.501308 262.544257 
L 446.148803 262.544257 
L 435.796299 262.544257 
L 425.443794 262.544257 
L 415.091289 262.544257 
L 404.738785 262.544257 
L 394.38628 262.544257 
L 384.033776 262.544257 
L 373.681271 262.544257 
L 363.328766 262.544257 
L 352.976262 262.544257 
L 342.623757 262.544257 
L 332.271252 257.840092 
L 321.918748 252.202112 
L 311.566243 247.332699 
L 301.213738 240.014088 
L 290.861234 236.341032 
L 280.508729 237.5265 
L 270.156224 236.650347 
L 259.80372 234.248706 
L 249.451215 230.081798 
L 239.098711 225.576531 
L 228.746206 221.674282 
L 218.393701 217.022964 
L 208.041197 212.89994 
L 197.688692 206.837382 
L 187.336187 200.212037 
L 176.983683 193.847748 
L 166.631178 188.792891 
L 156.278673 183.863326 
L 145.926169 179.460704 
L 135.573664 178.922865 
L 125.22116 180.352792 
L 114.868655 182.46359 
L 104.51615 184.306881 
L 94.163646 185.916503 
L 83.811141 187.315818 
L 73.458636 188.530635 
" style="fill:none;stroke:#17becf;stroke-linecap:square;stroke-width:1.5;"/>
   </g>
   <g id="line2d_59">
    <path clip-path="url(#p3a7c41c2cc)" d="M 580.731364 262.544257 
L 570.378859 262.544257 
L 560.026354 262.544257 
L 549.67385 262.544257 
L 539.321345 262.544257 
L 528.96884 262.544257 
L 518.616336 262.544257 
L 508.263831 262.544257 
L 497.911327 262.544257 
L 487.558822 262.544257 
L 477.206317 262.544257 
L 466.853813 262.544257 
L 456.501308 262.544257 
L 446.148803 262.544257 
L 435.796299 262.544257 
L 425.443794 262.544257 
L 415.091289 262.544257 
L 404.738785 262.544257 
L 394.38628 262.544257 
L 384.033776 262.544257 
L 373.681271 262.544257 
L 363.328766 262.544257 
L 352.976262 262.544257 
L 342.623757 262.544257 
L 332.271252 262.544257 
L 321.918748 262.544257 
L 311.566243 262.544257 
L 301.213738 262.544257 
L 290.861234 262.544257 
L 280.508729 262.544257 
L 270.156224 262.544257 
L 259.80372 262.544257 
L 249.451215 262.544257 
L 239.098711 262.544257 
L 228.746206 262.544257 
L 218.393701 262.544257 
L 208.041197 262.544257 
L 197.688692 262.544257 
L 187.336187 262.544257 
L 176.983683 262.544257 
L 166.631178 262.470555 
L 156.278673 256.637497 
L 145.926169 251.407163 
L 135.573664 248.955777 
L 125.22116 247.589072 
L 114.868655 246.344406 
L 104.51615 245.282138 
L 94.163646 244.376663 
L 83.811141 243.592878 
L 73.458636 242.911168 
" style="fill:none;stroke:#1f77b4;stroke-linecap:square;stroke-width:1.5;"/>
   </g>
   <g id="line2d_60">
    <path clip-path="url(#p3a7c41c2cc)" d="M 580.731364 262.544257 
L 570.378859 262.544257 
L 560.026354 262.544257 
L 549.67385 262.544257 
L 539.321345 262.544257 
L 528.96884 262.544257 
L 518.616336 262.544257 
L 508.263831 262.544257 
L 497.911327 262.544257 
L 487.558822 262.544257 
L 477.206317 262.544257 
L 466.853813 262.544257 
L 456.501308 262.544257 
L 446.148803 262.544257 
L 435.796299 262.544257 
L 425.443794 262.544257 
L 415.091289 262.544257 
L 404.738785 262.544257 
L 394.38628 262.544257 
L 384.033776 258.555921 
L 373.681271 252.473752 
L 363.328766 245.673595 
L 352.976262 238.697918 
L 342.623757 232.649065 
L 332.271252 227.496623 
L 321.918748 223.259423 
L 311.566243 219.428454 
L 301.213738 215.348368 
L 290.861234 212.464643 
L 280.508729 211.373378 
L 270.156224 210.465023 
L 259.80372 209.864849 
L 249.451215 209.606452 
L 239.098711 209.433351 
L 228.746206 209.281008 
L 218.393701 208.629292 
L 208.041197 207.996992 
L 197.688692 207.647561 
L 187.336187 207.511067 
L 176.983683 207.551354 
L 166.631178 207.450128 
L 156.278673 206.689301 
L 145.926169 206.045696 
L 135.573664 205.208367 
L 125.22116 204.575651 
L 114.868655 204.200091 
L 104.51615 203.878794 
L 94.163646 203.604179 
L 83.811141 203.366364 
L 73.458636 203.15957 
" style="fill:none;stroke:#ff7f0e;stroke-linecap:square;stroke-width:1.5;"/>
   </g>
   <g id="line2d_61">
    <path clip-path="url(#p3a7c41c2cc)" d="M 228.746206 442.08 
L 228.746206 7.2 
" style="fill:none;stroke:#000000;stroke-dasharray:5.55,2.4;stroke-dashoffset:0;stroke-width:1.5;"/>
   </g>
   <g id="patch_3">
    <path d="M 48.095 442.08 
L 48.095 7.2 
" style="fill:none;stroke:#000000;stroke-linecap:square;stroke-linejoin:miter;stroke-width:0.8;"/>
   </g>
   <g id="patch_4">
    <path d="M 606.095 442.08 
L 606.095 7.2 
" style="fill:none;stroke:#000000;stroke-linecap:square;stroke-linejoin:miter;stroke-width:0.8;"/>
   </g>
   <g id="patch_5">
    <path d="M 48.095 442.08 
L 606.095 442.08 
" style="fill:none;stroke:#000000;stroke-linecap:square;stroke-linejoin:miter;stroke-width:0.8;"/>
   </g>
   <g id="patch_6">
    <path d="M 48.095 7.2 
L 606.095 7.2 
" style="fill:none;stroke:#000000;stroke-linecap:square;stroke-linejoin:miter;stroke-width:0.8;"/>
   </g>
  </g>
 </g>
 <defs>
  <clipPath id="p3a7c41c2cc">
   <rect height="434.88" width="558" x="48.095" y="7.2"/>
  </clipPath>
 </defs>
</svg>
